<svg width="24" height="25" fill="none" xmlns="http://www.w3.org/2000/svg"><path d="M17.871 17.488a.428.428 0 01.123.317.428.428 0 01-.123.316.49.49 0 01-.334.123.407.407 0 01-.299-.123L12 12.883 6.762 18.12a.428.428 0 01-.317.123.428.428 0 01-.316-.123.468.468 0 01-.123-.316c0-.13.04-.235.123-.317l5.238-5.238L6.13 7.012a.428.428 0 01-.123-.317c0-.129.04-.234.123-.316a.468.468 0 01.316-.123c.13 0 .235.04.317.123L12 11.617l5.238-5.238a.428.428 0 01.317-.123c.129 0 .234.04.316.123a.49.49 0 01.123.334.407.407 0 01-.123.299l-5.238 5.238 5.238 5.238z" fill="#56504C"/></svg>