<svg width="57" height="56" fill="none" xmlns="http://www.w3.org/2000/svg"><path d="M48.129 17.936c.814.813 1.22 1.806 1.22 2.978 0 1.14-.406 2.116-1.22 2.93l-16.211 16.21-13.525 8.448c-.358.13-.733.146-1.123.049a2.174 2.174 0 01-1.026-.586l-4.98-4.98c-.391-.391-.586-.88-.586-1.465 0-.586.195-1.075.586-1.465l1.367-1.367a10.39 10.39 0 01.83-2.979 9.425 9.425 0 011.904-2.686c1.14-1.139 2.458-1.92 3.955-2.343a9.553 9.553 0 014.492-.196l6.641-6.64c.814-.814 1.79-1.221 2.93-1.221 1.14 0 2.116.407 2.93 1.22l5.908-5.907c.814-.814 1.79-1.221 2.93-1.221 1.171 0 2.164.407 2.978 1.22zm-1.465 4.443c.39-.423.586-.912.586-1.465 0-.586-.195-1.09-.586-1.514a2.155 2.155 0 00-1.514-.585 2.1 2.1 0 00-1.465.585l-6.298 6.3a4.013 4.013 0 010 2.148c-.163.716-.521 1.35-1.075 1.904l-5.126 5.127a1.166 1.166 0 01-.782.293.937.937 0 01-.683-.293.925.925 0 01-.342-.732c0-.294.114-.538.342-.733l5.127-5.176c.423-.39.634-.862.634-1.416 0-.586-.211-1.09-.634-1.513-.391-.391-.88-.586-1.465-.586-.586 0-1.074.195-1.465.586l-7.52 7.47c-1.27-.455-2.604-.537-4.003-.244a7.032 7.032 0 00-3.565 1.953 7.218 7.218 0 00-1.611 2.393 7.059 7.059 0 00-.537 2.685l-1.905 1.953 5.127 5.176 12.55-8.105 16.21-16.211zM13.9 4.849a1.91 1.91 0 011.465.635c.423.391.635.863.635 1.416v14.6a2.07 2.07 0 01-.635 1.514c-.39.39-.879.586-1.465.586H9.75a2.16 2.16 0 01-1.514-.586A2.155 2.155 0 017.65 21.5V6.9c0-.553.196-1.025.586-1.416A2.066 2.066 0 019.75 4.85h4.15zm0 16.651V6.9H9.75v14.6h4.15zM30.307 4.703c.423-.423.911-.635 1.465-.635.585 0 1.09.212 1.513.635l2.93 2.93c.423.423.635.928.635 1.513 0 .554-.212 1.026-.635 1.416L25.912 20.915c-.423.39-.928.586-1.514.586a1.93 1.93 0 01-1.416-.586l-2.978-2.979c-.39-.39-.586-.878-.586-1.464s.195-1.075.586-1.465L30.307 4.703zM24.447 19.4L34.75 9.098l-2.93-2.93-10.35 10.303 2.978 2.93z" fill="#56504C"/></svg>