<svg width="10" height="10" fill="none" xmlns="http://www.w3.org/2000/svg"><path d="M5 0a4.82 4.82 0 00-1.944.398 4.96 4.96 0 00-1.592 1.066A4.96 4.96 0 00.398 3.056 4.811 4.811 0 000 5c0 .687.133 1.335.398 1.944a4.96 4.96 0 001.066 1.592 4.96 4.96 0 001.592 1.066A4.811 4.811 0 005 10a4.82 4.82 0 001.944-.398 4.96 4.96 0 001.592-1.066 4.96 4.96 0 001.066-1.592A4.811 4.811 0 0010 5a4.82 4.82 0 00-.398-1.944 4.96 4.96 0 00-1.066-1.592A4.96 4.96 0 006.944.398 4.811 4.811 0 005 0zm-.738 6.99a.385.385 0 01-.093-.011.312.312 0 01-.082-.059l-1.5-1.498a.254.254 0 01-.093-.164.28.28 0 01.07-.188A.238.238 0 012.74 5a.204.204 0 01.176.059c.008 0 .011.003.011.011h.012l1.323 1.323L7.12 3.571a.265.265 0 01.176-.07c.07 0 .129.027.176.082.047.047.07.106.07.176a.225.225 0 01-.07.164L4.438 6.92a.312.312 0 01-.082.059.385.385 0 01-.094.012z" fill="#008859"/></svg>