<svg width="56" height="60" fill="none" xmlns="http://www.w3.org/2000/svg"><path d="M32.785 34.145c0 1.139-.342 2.294-1.025 3.466-.684 1.14-1.856 1.872-3.516 2.198H28v2.441a.925.925 0 01-.342.732.937.937 0 01-.683.293c-.293 0-.554-.097-.782-.293a.993.993 0 01-.293-.732v-2.393a10.819 10.819 0 01-2.441-.488c-.814-.26-1.481-.586-2.002-.976l-.39-.342 1.171-2.1.537.44c.489.39 1.058.7 1.71.927a7.27 7.27 0 002.001.293c.586 0 1.107-.081 1.563-.244a3.065 3.065 0 001.22-.732 2.83 2.83 0 00.733-1.026c.195-.423.293-.862.293-1.318 0-.423-.065-.814-.195-1.172a3.005 3.005 0 00-.586-.976 5.503 5.503 0 00-1.123-.928c-.424-.326-.944-.619-1.563-.88a23.941 23.941 0 01-2.246-1.122c-.619-.39-1.123-.781-1.514-1.172a4.982 4.982 0 01-1.172-1.611 5.347 5.347 0 01-.341-1.953c0-.651.097-1.27.293-1.856a5.475 5.475 0 01.976-1.611c.39-.423.847-.782 1.367-1.075a5.23 5.23 0 011.71-.683V17.25c0-.293.097-.537.292-.732.228-.196.489-.293.782-.293.26 0 .488.097.683.293a.924.924 0 01.342.732v1.904h.195a7.8 7.8 0 012.002.342 6.397 6.397 0 011.71.83l.439.293-1.172 2.1-.537-.342c-.26-.195-.684-.407-1.27-.635-.553-.228-1.237-.342-2.05-.342-.521 0-1.01.082-1.465.245-.424.13-.782.341-1.075.634-.228.26-.423.57-.586.928a2.74 2.74 0 00-.195 1.025c0 .424.065.798.195 1.123.13.326.342.635.635.928.293.26.651.521 1.074.781.456.26 1.075.554 1.856.88.879.422 1.628.846 2.246 1.269.618.423 1.14.879 1.563 1.367.423.52.732 1.074.927 1.66.196.586.293 1.22.293 1.904zM46.75 29.75c0 2.734-.52 5.306-1.563 7.715-1.041 2.409-2.457 4.508-4.247 6.299-1.79 1.79-3.89 3.19-6.3 4.199-2.376 1.042-4.931 1.562-7.665 1.562-2.735 0-5.306-.52-7.715-1.562-2.41-1.01-4.509-2.409-6.3-4.2-1.79-1.79-3.205-3.89-4.247-6.298-1.042-2.409-1.563-4.98-1.563-7.715 0-2.734.521-5.306 1.563-7.715 1.042-2.409 2.458-4.508 4.248-6.299 1.79-1.79 3.89-3.19 6.299-4.199 2.409-1.042 4.98-1.562 7.715-1.562 2.734 0 5.29.52 7.666 1.562 2.409 1.01 4.508 2.409 6.299 4.2 1.79 1.79 3.206 3.89 4.248 6.298 1.041 2.409 1.562 4.98 1.562 7.715zm-2.197 0c0-2.441-.456-4.72-1.367-6.836-.944-2.148-2.214-4.02-3.809-5.615-1.563-1.595-3.418-2.848-5.567-3.76-2.148-.911-4.427-1.367-6.835-1.367-2.442 0-4.737.456-6.885 1.367a17.69 17.69 0 00-5.567 3.76c-1.595 1.595-2.848 3.467-3.76 5.615-.943 2.116-1.415 4.395-1.415 6.836 0 2.441.472 4.72 1.416 6.836.911 2.148 2.164 4.02 3.76 5.615a17.69 17.69 0 005.566 3.76c2.148.911 4.443 1.367 6.885 1.367 2.409 0 4.687-.456 6.835-1.367 2.149-.911 4.005-2.165 5.567-3.76 1.595-1.595 2.864-3.467 3.808-5.615.912-2.116 1.368-4.395 1.368-6.836z" fill="#231D19"/></svg>