<svg width="25" height="25" fill="none" xmlns="http://www.w3.org/2000/svg"><path d="M15.605 6.294h-6.01v.738h6.011v-.738zm-1.511 6.75a.72.72 0 01-.229.527.695.695 0 01-.51.211h-1.511c-.2 0-.375-.07-.528-.21a.754.754 0 01-.21-.528v-1.512c0-.199.07-.369.21-.51a.724.724 0 01.528-.228h1.511c.2 0 .37.076.51.229.153.14.229.31.229.51v1.51zm3.761-1.512v1.512c0 .2-.076.375-.228.527a.716.716 0 01-.527.211h-1.495a.776.776 0 01-.545-.21.754.754 0 01-.21-.528v-1.512c0-.199.07-.369.21-.51a.744.744 0 01.545-.228H17.1c.21 0 .386.076.527.229.152.14.229.31.229.51zm0 3.762v1.494a.744.744 0 01-.228.545.716.716 0 01-.527.21h-1.495a.776.776 0 01-.545-.21.776.776 0 01-.21-.545v-1.494c0-.211.07-.387.21-.527a.744.744 0 01.545-.229H17.1c.21 0 .386.076.527.229.152.14.229.316.229.527zm-1.125-6.75a.338.338 0 00.247-.106.387.387 0 00.123-.28v-2.99a.333.333 0 00-.123-.264.316.316 0 00-.247-.123.384.384 0 00-.28.123.358.358 0 00-.106.264v2.988c0 .106.035.2.105.281a.42.42 0 00.281.106zm-6.38 6.75v1.494a.745.745 0 01-.229.545.716.716 0 01-.527.21H8.1a.776.776 0 01-.545-.21.776.776 0 01-.211-.545v-1.494c0-.211.07-.387.21-.527a.744.744 0 01.546-.229h1.494c.21 0 .386.076.527.229.152.14.229.316.229.527zm9-9h-1.495v.738h1.495v12.006H5.85V7.032h1.494v-.738H5.85a.744.744 0 00-.545.228.698.698 0 00-.211.51v12.006c0 .211.07.387.21.527a.744.744 0 00.546.229h13.5c.21 0 .386-.076.527-.229a.688.688 0 00.229-.527V7.032a.672.672 0 00-.229-.51.688.688 0 00-.527-.228zM8.469 8.544a.358.358 0 00.263-.106.387.387 0 00.123-.28v-2.99a.333.333 0 00-.123-.264.333.333 0 00-.263-.123.37.37 0 00-.264.123.358.358 0 00-.105.264v2.988c0 .106.035.2.105.281.082.07.17.106.264.106zm5.625 6.75v1.494a.741.741 0 01-.229.545c-.14.14-.31.21-.51.21h-1.511c-.2 0-.375-.07-.528-.21a.776.776 0 01-.21-.545v-1.494c0-.211.07-.387.21-.527a.725.725 0 01.528-.229h1.511c.2 0 .37.076.51.229.153.14.229.316.229.527zm-6.75-3.762c0-.199.07-.369.21-.51a.744.744 0 01.546-.228h1.494c.21 0 .386.076.527.229.152.14.229.31.229.51v1.51c0 .2-.077.376-.229.528a.716.716 0 01-.527.211H8.1a.776.776 0 01-.545-.21.754.754 0 01-.211-.528v-1.512z" fill="#56504C"/></svg>