<svg width="57" height="56" fill="none" xmlns="http://www.w3.org/2000/svg"><path d="M47.021 13.35l-.04-.123a.778.778 0 00-.329-.575l-.082-.04a.728.728 0 00-.328-.083l-6.727-.04a.835.835 0 00-.615.245.835.835 0 00-.246.616c0 .218.082.41.246.574.164.164.37.246.615.246h4.8L32.583 27.254a.787.787 0 01-.575.246h-9.68a.787.787 0 00-.573.246L10.599 39.395a.93.93 0 00-.246.615c0 .218.069.41.205.574a.787.787 0 00.575.246.835.835 0 00.615-.246l10.705-11.156a.787.787 0 01.574-.246h8.983c.683 0 1.271-.246 1.763-.739l11.567-12.92v4.471c0 .246.082.451.246.615a.87.87 0 00.574.205.928.928 0 00.615-.205.835.835 0 00.246-.615V13.35zM16.26 31.068a27.39 27.39 0 01-1.886-4.101c-.328-.875-.547-1.654-.656-2.338a7.958 7.958 0 01.04-2.133 7.613 7.613 0 011.395-3.363 7.922 7.922 0 012.748-2.38 7.284 7.284 0 013.569-.901h.04a7.34 7.34 0 012.995.615c.957.41 1.79.984 2.502 1.723a7.583 7.583 0 012.502-1.723 7.523 7.523 0 012.994-.615h.04a7.3 7.3 0 013.159.697 7.857 7.857 0 012.584 1.846l-1.107 1.271a7.424 7.424 0 00-.657-.656 5.54 5.54 0 00-1.846-1.108 5.692 5.692 0 00-2.132-.41 6.543 6.543 0 00-2.38.533 5.924 5.924 0 00-1.968 1.313l-1.19 1.23-1.189-1.23a5.92 5.92 0 00-1.969-1.313 6.211 6.211 0 00-2.338-.533h-.04c-.739 0-1.45.137-2.133.41a6.011 6.011 0 00-1.887 1.108 6.398 6.398 0 00-1.354 1.722 7.297 7.297 0 00-.697 2.01 5.777 5.777 0 000 1.682c.082.574.26 1.23.533 1.969.41 1.148.93 2.283 1.559 3.404l-1.23 1.271zm21.82-4.675l.165-.452 2.092-2.337c0 .957-.233 2.064-.698 3.322-.875 2.543-2.242 5.072-4.101 7.588-1.941 2.625-4.307 5.113-7.096 7.464-.41.356-.889.534-1.435.534a2.124 2.124 0 01-1.436-.534c-2.488-2.105-4.648-4.32-6.48-6.644l1.19-1.23c1.776 2.296 3.895 4.498 6.357 6.603a.6.6 0 00.369.123.6.6 0 00.369-.123c2.68-2.27 4.949-4.662 6.808-7.178 1.75-2.379 3.05-4.758 3.897-7.136z" fill="#56504C"/></svg>