<svg width="56" height="56" fill="none" xmlns="http://www.w3.org/2000/svg"><path d="M47.828 23.047c-.187.281-.422.437-.703.469-.281 0-.5-.063-.656-.188l-15.89-11.11A4.917 4.917 0 0028 11.517c-.938 0-1.797.234-2.578.703L9.532 23.33a.9.9 0 01-.75.14c-.282-.063-.485-.203-.61-.422-.156-.25-.203-.5-.14-.75.062-.281.202-.5.421-.656l15.938-11.11A6.649 6.649 0 0128 9.5c1.313 0 2.516.344 3.61 1.031l15.937 11.11c.219.156.36.375.422.656a.9.9 0 01-.14.75zm-3.844 2.156V39.5c0 1.656-.593 3.078-1.78 4.266-1.157 1.156-2.563 1.734-4.22 1.734H18.016c-1.657 0-3.078-.578-4.266-1.734-1.156-1.188-1.734-2.61-1.734-4.266V25.203l12.375-8.672A6.65 6.65 0 0128 15.5a6.65 6.65 0 013.61 1.031l12.374 8.672zm-12 18.281V33.5h-7.968v9.984h7.968zm10.032-17.25L30.578 18.22A4.917 4.917 0 0028 17.516c-.938 0-1.797.234-2.578.703l-11.438 8.015V39.5c0 1.094.391 2.031 1.172 2.813.781.78 1.735 1.171 2.86 1.171H22V33.5c0-.563.188-1.031.563-1.406a1.98 1.98 0 011.453-.61h7.968c.563 0 1.032.203 1.407.61.406.375.609.843.609 1.406v9.984h3.984c1.125 0 2.078-.39 2.86-1.172.781-.78 1.172-1.718 1.172-2.812V26.234z" fill="#56504C"/></svg>