<svg width="33" height="32" fill="none" xmlns="http://www.w3.org/2000/svg"><path d="M16.5 4.992a9.63 9.63 0 013.89.797 9.928 9.928 0 013.188 2.133 9.928 9.928 0 012.133 3.187A9.63 9.63 0 0126.508 15a9.63 9.63 0 01-.797 3.89 9.927 9.927 0 01-2.133 3.188 9.927 9.927 0 01-3.187 2.133 9.63 9.63 0 01-3.891.797 9.63 9.63 0 01-3.89-.797 9.928 9.928 0 01-3.188-2.133 9.928 9.928 0 01-2.133-3.187A9.63 9.63 0 016.492 15a9.63 9.63 0 01.797-3.89 9.93 9.93 0 012.133-3.188 9.929 9.929 0 013.187-2.133 9.63 9.63 0 013.891-.797zm1.219 13.383l-.328.469c-.11.156-.235.312-.375.468-.125.141-.243.25-.352.329-.11.078-.203.117-.281.117h-.117a.274.274 0 00-.07-.047c-.032-.016-.055-.047-.071-.094a.52.52 0 01-.023-.164c0-.062.007-.156.023-.281.031-.14.078-.313.14-.516l.07-.328c.048-.156.095-.344.142-.562L18 12.844l-.75.14a5.372 5.372 0 01-.516.094c-.218.031-.476.063-.773.094a25.51 25.51 0 00-.82.094c-.235.015-.438.03-.61.046v.47c.203 0 .367.015.492.046.141.016.243.031.305.047a.283.283 0 01.164.164c.047.063.07.156.07.281v.07a.064.064 0 01-.023.047c0 .032-.008.055-.023.07v.071l-1.243 3.89a15.622 15.622 0 01-.164.68 2.81 2.81 0 00-.093.399c-.016.11-.024.203-.024.281 0 .188.031.36.094.516.062.14.156.265.281.375a1.4 1.4 0 00.399.21c.156.048.312.071.468.071.282 0 .547-.055.797-.164.266-.125.524-.305.774-.54.14-.14.32-.35.539-.632.218-.281.468-.633.75-1.055l-.375-.234zm.773-8.133a1.14 1.14 0 00-.375-.867A1.142 1.142 0 0017.25 9c-.344 0-.64.125-.89.375a1.178 1.178 0 00-.352.867c0 .344.117.64.351.89.25.25.547.376.891.376s.633-.125.867-.375c.25-.25.375-.547.375-.89z" fill="#fff"/></svg>