<svg width="52" height="52" fill="none" xmlns="http://www.w3.org/2000/svg"><path d="M.596 25.66c0-7.498.738-14.572 1.795-19.008.528-2.534 2.005-4.224 4.856-4.857C11.894.633 18.758 0 26.256 0c7.497 0 14.362.633 19.008 1.795 2.851.633 4.328 2.323 4.857 4.857 1.056 4.436 1.795 11.51 1.795 19.008 0 7.498-.739 14.572-1.795 19.008-.529 2.534-2.006 4.224-4.857 4.857-4.646 1.162-11.51 1.795-19.008 1.795-7.498 0-14.362-.633-19.009-1.795-2.851-.633-4.328-2.323-4.856-4.857C1.334 40.232.596 33.158.596 25.66z" fill="#fff"/><path d="M8.151 26.08c1.314 0 2.23-.89 2.23-2.155 0-1.264-.916-2.155-2.23-2.155s-2.228.89-2.228 2.155c0 1.264.916 2.156 2.228 2.156zm1.883 14.192V27.417H6.268v12.855h3.766zm3.32-9.93v5.497c0 3.122 1.634 4.681 4.533 4.681 1.041 0 1.907-.125 2.328-.248V37.4c-.273.075-.769.147-1.337.147-1.214 0-1.757-.593-1.757-1.957v-5.25h3.27v-2.922h-3.27V23.53l-3.765.668v3.22h-1.883v2.92h1.883l-.003.003zm12.631 10.253c1.512 0 2.601-.618 3.37-1.66l.05 1.337h3.517v-7.555c0-3.665-2.055-5.622-5.722-5.622-1.883 0-3.443.297-4.955.866v3.021c1.487-.57 2.972-.916 4.359-.916 1.732 0 2.698.794 2.698 2.18a16.55 16.55 0 00-1.264-.05c-3.963 0-6.464 1.635-6.464 4.434 0 2.428 1.71 3.963 4.409 3.963l.002.002zm2.404-6.068c.297 0 .768.025.94.05v1.017c0 1.361-.915 2.303-2.23 2.303-1.164 0-1.882-.521-1.882-1.56 0-1.19 1.139-1.807 3.17-1.807l.002-.003zm10.724 6.068c1.56 0 2.626-.57 3.468-1.71l.05 1.387h3.614V27.417H42.48v7.578c0 1.56-.768 2.551-2.03 2.551-1.262 0-1.908-.84-1.908-2.403v-7.728h-3.765v8.346c0 2.947 1.685 4.83 4.334 4.83l.002.004zm4.732-14.91v-3.27l-6.266 1.115v2.155h6.266z" fill="#FF6200"/></svg>