<svg width="49" height="48" fill="none" xmlns="http://www.w3.org/2000/svg"><path d="M26.152 34.945c.452-.381.72-.96.72-1.665v-.946c-.085 0-.226-.028-.395-.028-.17 0-.339-.014-.48-.014-1.905 0-2.964.578-2.964 1.693 0 .974.678 1.454 1.764 1.454.31 0 .593-.056.847-.155a2.17 2.17 0 00.522-.325m16.527 2.696h-3.387l-.042-1.299c-.79 1.059-1.779 1.595-3.246 1.595-2.484 0-4.05-1.764-4.05-4.516V25.63h3.513v7.226c0 1.454.621 2.244 1.779 2.244 1.157 0 1.905-.931 1.905-2.385V25.63h3.514v12.025h.014zM40.45 24.02h-5.857v-2.018l5.857-1.044v3.062zM30.231 37.655h-3.288l-.043-1.256c-.183.24-.38.465-.592.649-.65.579-1.497.903-2.555.903-.946 0-1.764-.197-2.413-.578a3.315 3.315 0 01-.847-.678 3.3 3.3 0 01-.41-.579c-.296-.522-.451-1.157-.451-1.862 0-.65.141-1.242.423-1.75a3.582 3.582 0 01.833-1.017c1.044-.889 2.696-1.369 4.784-1.369.438 0 .904.028 1.186.043 0-1.299-.903-2.033-2.526-2.033-1.299 0-2.682.325-4.08.861v-2.823c1.412-.536 2.866-.804 4.63-.804 3.43 0 5.35 1.835 5.35 5.25v7.057-.014zm-11.714-9.287h-3.063v4.912c0 1.27.508 1.834 1.637 1.834.537 0 1.002-.07 1.256-.14v2.68c-.395.114-1.2.227-2.173.227-2.71 0-4.234-1.454-4.234-4.376v-5.137h-1.764V25.63h1.764v-3.006l3.514-.621v3.641h3.063v2.738-.014zM9.16 22.37c0 1.185-.861 2.018-2.09 2.018-1.227 0-2.088-.804-2.088-2.018 0-1.214.861-2.018 2.089-2.018s2.089.804 2.089 2.018zm-3.84 3.274h3.515V37.67H5.321V25.644zM48 23.993c0-7.014-.692-13.62-1.694-17.769-.48-2.385-1.877-3.966-4.544-4.559C37.429.607 31.022 0 23.992 0c-7.027 0-13.42.607-17.753 1.665-2.667.607-4.05 2.174-4.544 4.559C.692 10.374 0 16.964 0 23.993c0 7.029.692 13.62 1.694 17.769.48 2.357 1.877 3.966 4.544 4.544C10.571 47.393 16.978 48 24.008 48c7.028 0 13.435-.607 17.768-1.694 2.667-.578 4.05-2.173 4.544-4.544 1.002-4.15 1.694-10.769 1.694-17.77" fill="#FF6200"/></svg>