<svg width="57" height="56" fill="none" xmlns="http://www.w3.org/2000/svg"><path d="M43.188 16.758c.41.137.724.396.943.78.246.355.328.751.246 1.189l-1.559 9.802a21.378 21.378 0 01-1.722 5.537 20.763 20.763 0 01-3.158 4.84 20.865 20.865 0 01-4.39 3.815 20.91 20.91 0 01-5.25 2.46.772.772 0 01-.245.042.773.773 0 01-.78-.041 20.913 20.913 0 01-5.25-2.461 19.988 19.988 0 01-4.347-3.815 21.845 21.845 0 01-3.2-4.84 20.296 20.296 0 01-1.681-5.537l-1.6-9.802a1.623 1.623 0 01.205-1.19c.246-.383.575-.642.985-.78l14.888-4.675a.776.776 0 01.247-.041.91.91 0 01.533 0c.082 0 .164.014.246.041l14.889 4.676zm-2.092 11.484l1.558-9.803-14.847-4.675-14.889 4.675 1.6 9.803c.3 1.805.834 3.514 1.6 5.127a19.848 19.848 0 002.87 4.43 19.79 19.79 0 003.938 3.445 20.351 20.351 0 004.88 2.256 20.56 20.56 0 004.84-2.256 19.795 19.795 0 003.938-3.445 19.093 19.093 0 002.912-4.43 19.294 19.294 0 001.6-5.127zm-13.29-9.228a.98.98 0 00-.656.246.834.834 0 00-.246.615v19.236a.98.98 0 00.246.657.98.98 0 00.657.246c.218 0 .41-.082.574-.246a.903.903 0 00.287-.657V19.875a.777.777 0 00-.287-.615.787.787 0 00-.574-.246z" fill="#56504C"/></svg>