<svg width="57" height="56" fill="none" xmlns="http://www.w3.org/2000/svg"><path d="M20.973 46.953l1.172 2.531-14.485-5.25a2.011 2.011 0 01-1.172-1.03 2.038 2.038 0 01-.047-1.548l5.297-14.531 1.172 2.578-4.594 12.61 12.657 4.64zM10.52 17.093L24.348 46.72v-4.735l-12-25.734 12-5.578V8.469l-12.844 6a1.84 1.84 0 00-1.031 1.125c-.188.5-.172 1 .046 1.5zM46.331 9.5v38.016c0 .53-.203.984-.61 1.359-.374.406-.843.61-1.406.61H28.332a1.984 1.984 0 01-1.453-.61 1.852 1.852 0 01-.563-1.36V9.5c0-.563.188-1.031.563-1.406.406-.406.89-.61 1.453-.61h15.984c.563 0 1.032.204 1.407.61.406.375.609.844.609 1.406zm-2.016 0H28.332v38.016h15.984V9.5z" fill="#56504C"/></svg>