<svg width="32" height="32" fill="none" xmlns="http://www.w3.org/2000/svg"><g fill="#009ADE"><path d="M11 19.022c.153 1.907 1.658 3.394 4.364 3.57V24h1.2v-1.418C19.363 22.386 21 20.89 21 18.719c0-1.976-1.251-2.993-3.49-3.521l-.945-.225V11.14c1.2.137 1.963.793 2.146 1.702h2.106c-.153-1.839-1.73-3.276-4.252-3.433V8h-1.2v1.438c-2.392.234-4.02 1.672-4.02 3.706 0 1.8 1.211 2.944 3.226 3.414l.793.195v4.069c-1.23-.186-2.045-.861-2.228-1.8H11zm4.354-4.332c-1.18-.274-1.82-.832-1.82-1.673 0-.939.69-1.643 1.83-1.848v3.52h-.01zm1.384 2.386c1.434.332 2.095.87 2.095 1.819 0 1.085-.824 1.829-2.268 1.966v-3.824l.172.039z"/><path d="M16 30C8.268 30 2 23.732 2 16S8.268 2 16 2s14 6.268 14 14-6.268 14-14 14zm0 2c8.837 0 16-7.163 16-16S24.837 0 16 0 0 7.163 0 16s7.163 16 16 16z"/><path d="M16 27C9.925 27 5 22.075 5 16S9.925 5 16 5s11 4.925 11 11-4.925 11-11 11zm0 1c6.627 0 12-5.373 12-12S22.627 4 16 4 4 9.373 4 16s5.373 12 12 12z"/></g></svg>