<svg width="25" height="32" fill="none" xmlns="http://www.w3.org/2000/svg"><path d="M6.863 14a.99.99 0 00-.98 1c0 .552.438 1 .98 1h9.804a.99.99 0 00.98-1 .99.99 0 00-.98-1H6.863zm-.981 5c0-.552.44-1 .98-1h9.805a.99.99 0 01.98 1 .99.99 0 01-.98 1H6.863a.99.99 0 01-.98-1zm0 4c0-.552.44-1 .98-1h3.922a.99.99 0 01.98 1 .99.99 0 01-.98 1H6.863a.99.99 0 01-.98-1z" fill="#00194C"/><path d="M14.706 0H3.922C1.756 0 0 1.79 0 4v24c0 2.21 1.756 4 3.922 4h15.686c2.166 0 3.921-1.79 3.921-4V9l-8.823-9zm0 2v4c0 1.657 1.317 3 2.941 3h3.922v19c0 1.105-.878 2-1.961 2H3.922c-1.083 0-1.961-.895-1.961-2V4c0-1.105.878-2 1.96-2h10.785z" fill="#00194C"/></svg>