<svg width="173" height="48" fill="none" xmlns="http://www.w3.org/2000/svg"><path d="M23.902 7.914c-1.866 1.088-2.44 1.183-4.471 2.386 1.184-1.272 1.592-1.817 2.325-2.88-1.873.095-4.593.323-6.535.747 1.688-.9 5.038-1.893 6.808-2.134-.407-.563-3.732-2.348-4.554-2.697 2.63.203 5.841 1.178 7.395 2.128.612-.19 1.248-.203 2.389-.298-.293.494-.306.779-1.42 1.52.311.822-.427 5.355-1.045 6.552-.013-1.887-.179-4.28-.892-5.324zm-13.67 16.257c-1.07-.399-1.847-.854-2.694-1.646.255-.696.548-1.24 1.02-1.943-.873.126-1.517.228-2.268.367-.612-1.064-.892-2.09-1.198-3.52-.165 1.513-.229 2.596-.019 3.798-.688.19-1.178.361-1.745.608.796.481 1.44.855 2.325 1.266.478 1.02.968 1.703 1.77 2.488a4.655 4.655 0 01-.159-1.899c.994.291 1.841.443 2.968.481zM13.03 9.104c-.331.43-.72 1.234-.828 1.607 2.764.374 4.98 1.786 4.98 1.786-2.42-.424-3.687-.374-4.591-.291-.899.082-1.083.19-1.083.19-.65 1.418-1.045 3.855-1.045 3.855-.44-1.051-1.076-3.165-1.076-3.165-1.217.645-4.026 3.273-4.026 3.273 1.542-3.07 3.109-4.464 3.109-4.464-.542-.544-1.95-.81-2.981-.86.535-.216 1.91-.475 2.968-.52 1.057-.031 1.7.032 1.7.032.943-.747 2.376-1.374 2.873-1.443zm2.93 13.161c-.49.659-.91 1.178-1.445 1.78a8.973 8.973 0 01-2.58.354 6.415 6.415 0 001.676.576c-.58.525-1.07.892-1.637 1.253.942-.221 2.19-.62 3.114-1.165.484.02.937-.012 1.268-.075a6.638 6.638 0 01-.21-.849c.872-.67 1.503-1.279 2.229-2.007-.77.532-1.44.937-2.331 1.355-.038-.418-.064-.76-.083-1.222z" fill="#fff"/><path d="M.31 30.059h30.242V0H.31v30.059zm29.586-.652H.96V.646h28.936v28.76zM3.699 40.042c-.077-.646-.236-1.272-1.172-1.272-.58 0-1.077.278-1.077.924 0 1.52 3.459 1.513 3.459 3.697 0 1.393-.968 2.09-2.382 2.09-1 0-1.885-.438-2.433-1.07l.58-.88c.483.556 1.216.88 1.904.88.669 0 1.134-.26 1.134-.893 0-1.361-3.446-1.425-3.446-3.735 0-1.412 1.07-2.077 2.274-2.077 1.732 0 2.229 1.19 2.292 2.165l-1.133.171zm3.446 2.761c.05 1.316.592 1.696 1.401 1.696.624 0 1.172-.31 1.497-.557l.184.912c-.515.322-1.057.62-1.917.62-1.42 0-2.388-.848-2.388-2.975 0-2.108.853-2.989 2.318-2.989 1.484 0 2.07.963 2.07 2.387v.912H7.145v-.006zm2.025-.906c0-.962-.28-1.412-.962-1.412-.7 0-1 .418-1.057 1.412h2.02zm6.878-1.203l-.784-.044c.204.266.28.589.28 1.038 0 1.285-.84 2.165-2.089 2.165-.248 0-.37-.012-.56-.063-.217.152-.357.247-.357.437 0 .601 3.471-.108 3.471 1.937C16.01 47.4 14.704 48 13.296 48c-1.42 0-2.356-.513-2.356-1.424 0-.602.388-1.032.98-1.349-.26-.14-.484-.354-.484-.804 0-.45.325-.747.688-1.006-.484-.368-.777-.956-.777-1.748 0-1.316.84-2.165 2.121-2.165.3 0 .58.05.822.14h1.764v1.05h-.006zM12.04 46.45c0 .513.612.64 1.28.64.746 0 1.523-.292 1.523-.786 0-.696-.968-.683-1.854-.804-.465.222-.949.545-.949.95zm1.414-6.002c-.624 0-1.012.355-1.012 1.229 0 .88.388 1.234 1.012 1.234s1.013-.354 1.013-1.234c0-.874-.389-1.229-1.013-1.229zm4.551-.804v3.9c0 .727.452.955.968.955.515 0 .968-.221.968-.956v-3.9h1.172v3.869c0 1.33-.905 1.962-2.147 1.962-1.242 0-2.14-.633-2.14-1.962v-3.868h1.178zm5.718-.001v.557c.472-.5.95-.696 1.453-.696.853 0 1.012.773 1.012 1.608l-1 .12c-.012-.341-.044-.576-.37-.576-.311 0-.643.26-.98.602v4.083h-1.172V39.65h1.057v-.007zm7.612 2.875c0 1.969-.815 2.956-2.356 2.956-1.51 0-2.37-.854-2.37-2.975 0-2.09.828-2.989 2.37-2.989 1.605-.006 2.356.855 2.356 3.008zm-3.522-.026c0 1.545.389 2.007 1.166 2.007.777 0 1.153-.462 1.153-1.981 0-1.583-.376-2.039-1.153-2.039s-1.166.45-1.166 2.013zm7.307-1.132c-.045-.507-.268-.88-.886-.88-.452 0-.796.189-.796.62 0 1.082 2.675.987 2.675 2.71 0 1.025-.732 1.658-1.962 1.658-.891 0-1.592-.342-2.012-.747l.388-.855c.401.386.994.633 1.593.633.452 0 .828-.17.828-.62 0-.9-2.637-.887-2.637-2.697 0-1.007.72-1.672 1.917-1.672 1.325 0 1.872.76 1.872 1.684l-.98.165zm6.394 3.848v2.336l-1.172.254v-8.155h1.057v.513c.433-.354.968-.652 1.682-.652.968 0 1.904.576 1.904 2.925 0 2.21-1.013 3.045-2.337 3.045-.357 0-.778-.108-1.134-.266zm0-1.032c.33.215.675.323 1.012.323.676 0 1.217-.525 1.217-2.07 0-1.513-.529-1.874-1.076-1.874-.465 0-.778.158-1.153.399v3.222zm7.393-2.943c0-.539-.357-.748-.841-.748-.503 0-.93.292-.93.88l-1.032-.107c.032-1.159.962-1.748 2.038-1.748 1.185 0 1.937.602 1.937 1.621v2.97c0 .265.127.386.312.386.184 0 .376-.09.56-.228l.077.848c-.217.228-.605.373-.994.373-.408 0-.904-.17-.955-.79a2.097 2.097 0 01-1.65.79c-.898 0-1.529-.512-1.529-1.544 0-1.456 1.402-2.058 3.007-2.045v-.658zm0 1.532c-1-.032-1.841.335-1.841 1.063 0 .437.191.677.643.677.44 0 .873-.278 1.198-.633v-1.108zm3.963-3.122v.557c.47-.5.948-.696 1.452-.696.853 0 1.012.773 1.012 1.608l-1 .12c-.013-.341-.044-.576-.363-.576-.312 0-.65.26-.98.602v4.083h-1.173V39.65h1.051v-.007zm6 1.59c0-.539-.358-.748-.842-.748-.503 0-.93.292-.93.88l-1.031-.107c.031-1.159.961-1.748 2.038-1.748 1.184 0 1.942.602 1.942 1.621v2.97c0 .265.128.386.313.386.184 0 .375-.09.56-.228l.076.848c-.216.228-.605.373-.993.373-.408 0-.905-.17-.956-.79a2.097 2.097 0 01-1.65.79c-.897 0-1.528-.512-1.528-1.544 0-1.456 1.401-2.058 3.006-2.045v-.658h-.006zm0 1.532c-1-.032-1.842.335-1.842 1.063 0 .437.191.677.644.677.44 0 .872-.278 1.197-.633v-1.108zm6.828-3.121v3.9c0 .727.452.955.968.955s.968-.221.968-.956v-3.9h1.172v3.869c0 1.33-.904 1.962-2.146 1.962s-2.14-.633-2.14-1.962v-3.868h1.178zm5.718.512c.452-.329 1.013-.652 1.777-.652 1.032 0 1.682.57 1.682 1.81v4.02h-1.172v-3.779c0-.696-.236-.943-.892-.943-.433 0-.904.184-1.274.418v4.305h-1.172v-5.692h1.058v.513h-.007zm8.97 0c.433-.329 1.013-.652 1.726-.652.643 0 1.044.203 1.338.665.58-.374 1.14-.665 1.834-.665 1.025 0 1.605.57 1.605 1.81v4.02h-1.172v-3.817c0-.709-.28-.911-.86-.911-.388 0-.84.202-1.185.417.02.14.032.298.032.463v3.843h-1.172v-3.653c0-.804-.153-1.07-.86-1.07-.4 0-.796.19-1.152.417v4.305h-1.172v-5.69h1.057v.518h-.02zm9.087-.512v3.9c0 .727.453.955.968.955.516 0 .968-.221.968-.956v-3.9h1.179v3.869c0 1.33-.905 1.962-2.147 1.962-1.235 0-2.146-.633-2.146-1.962v-3.868h1.178zm5.722.512c.452-.329 1.013-.652 1.777-.652 1.032 0 1.681.57 1.681 1.81v4.02h-1.172v-3.779c0-.696-.235-.943-.891-.943-.433 0-.905.184-1.268.418v4.305H94.15v-5.692h1.058v.513h-.013zm8.241 4.501c-.421.469-.949.817-1.65.817-.924 0-1.962-.71-1.962-2.97 0-2.196.981-3 2.038-3 .484 0 .892.12 1.389.354V37.51l1.172-.216v6.793c0 .266.127.386.312.386s.376-.088.56-.227l.077.848c-.217.228-.605.373-.994.373-.446.007-.891-.19-.942-.81zm-.185-3.855c-.344-.171-.656-.323-1.14-.323-.542 0-1.058.354-1.058 1.969 0 1.392.472 1.95.994 1.95.529 0 .924-.323 1.204-.646v-2.95zm7.337 1.716c0 1.969-.822 2.956-2.363 2.956-1.51 0-2.37-.854-2.37-2.975 0-2.09.828-2.989 2.37-2.989 1.605-.006 2.363.855 2.363 3.008zm-3.522-.026c0 1.545.388 2.007 1.165 2.007s1.153-.462 1.153-1.981c0-1.583-.376-2.039-1.153-2.039s-1.165.45-1.165 2.013zm8.542.311c.057 1.316.592 1.696 1.401 1.696.624 0 1.172-.31 1.497-.557l.184.912c-.516.322-1.057.62-1.917.62-1.42 0-2.388-.848-2.388-2.975 0-2.108.853-2.989 2.318-2.989 1.484 0 2.07.963 2.07 2.387v.912h-3.165v-.006zm2.025-.906c0-.962-.28-1.412-.962-1.412-.7 0-1 .418-1.057 1.412h2.019zm3.477-1.741c.452-.329 1.012-.652 1.777-.652 1.031 0 1.681.57 1.681 1.81v4.02h-1.172v-3.779c0-.696-.236-.943-.892-.943-.433 0-.904.184-1.273.418v4.305h-1.172v-5.692h1.057v.513h-.006zm8.746 2.647c.057 1.316.592 1.696 1.401 1.696.624 0 1.172-.31 1.497-.557l.184.912c-.515.322-1.057.62-1.917.62-1.42 0-2.388-.848-2.388-2.975 0-2.108.853-2.989 2.318-2.989 1.484 0 2.07.963 2.07 2.387v.912h-3.165v-.006zm2.025-.906c0-.962-.28-1.412-.962-1.412-.7 0-1 .418-1.057 1.412h2.019zm2.891-2.253l1.433 4.406 1.363-4.406h1.179l-1.911 5.69h-1.363l-1.955-5.69h1.254zm9.212 2.874c0 1.969-.815 2.956-2.357 2.956-1.509 0-2.369-.854-2.369-2.975 0-2.09.828-2.989 2.369-2.989 1.599-.006 2.357.855 2.357 3.008zm-3.522-.026c0 1.545.388 2.007 1.165 2.007s1.153-.462 1.153-1.981c0-1.583-.376-2.039-1.153-2.039s-1.165.45-1.165 2.013zm5.972-5.192v6.73c0 .31.172.43.401.43.249 0 .472-.094.701-.227l.115.899c-.44.234-.784.342-1.198.342-.955 0-1.197-.697-1.197-1.444v-6.514l1.178-.215zm3.039 2.344v3.9c0 .727.452.955.968.955s.968-.221.968-.956v-3.9h1.172v3.869c0 1.33-.904 1.962-2.14 1.962-1.242 0-2.146-.633-2.146-1.962v-3.868h1.178zm7.459 1.918c-.032-.557-.274-1.083-.917-1.083-.713 0-1.038.405-1.038 2.013 0 1.608.484 2 1.337 2 .682 0 1.121-.29 1.446-.512l.223.867c-.484.336-1.076.62-1.904.62-1.491 0-2.325-.93-2.325-2.987 0-1.982.72-2.982 2.306-2.982 1.382 0 1.904.848 1.929 1.95-.356.038-.707.07-1.057.114zm3.496-2.678h-1.172v-1.266h1.172v1.266zm0 6.45h-1.172v-5.69h1.172v5.69zm6.025-2.817c0 1.97-.822 2.957-2.363 2.957-1.509 0-2.369-.855-2.369-2.976 0-2.089.828-2.988 2.369-2.988 1.605-.006 2.363.855 2.363 3.007zm-3.522-.025c0 1.545.388 2.007 1.165 2.007s1.153-.462 1.153-1.982c0-1.582-.376-2.038-1.153-2.038s-1.165.45-1.165 2.013zm2.853-5.191l-1.248 1.69h-1l1.057-1.69h1.191zm3.019 2.855c.453-.329 1.013-.652 1.777-.652 1.032 0 1.682.57 1.682 1.81v4.02h-1.172v-3.779c0-.696-.236-.943-.898-.943-.433 0-.905.184-1.268.418v4.305h-1.178v-5.692h1.057v.513zM38.12 4.147c.076 1.05.133 3.672.133 4.634 0 .88-.006 3.83-.147 5.109l-.012.101h4.643c2.267 0 4.688-.715 4.688-2.729 0-1.26-.917-2.196-2.637-2.71 1.261-.335 2.115-1.202 2.115-2.209 0-1.64-1.899-2.266-3.67-2.304h-5.12l.006.108zm3.585 1.013c1.936.006 2.656.405 2.656 1.456 0 .285-.09.525-.261.734-.37.443-1.108.671-2.026.627h-.044l-.535 1.399h.541c1.07-.032 2 .304 2.472.886.222.266.33.57.33.9 0 1.107-.974 1.67-2.878 1.67-.319 0-.84 0-1.172-.025-.07-1.456-.07-3.437-.07-4.02 0-.696.032-2.241.076-3.564.21-.038.58-.07.911-.063zm16.413-1.108h-2.249l.096 2.5c.038 1.247.083 2.52.165 3.754-.152-.373-.28-.582-.949-1.57-.019-.031-2.362-3.64-3.171-4.653l-.032-.031h-2.63l.006.094c.076 1.045.133 3.666.133 4.635 0 .88-.012 3.836-.146 5.115l-.013.107h2.331l-.006-.1c-.134-2.438-.134-4.882-.134-7.25v-.006c.077.285.191.545.56 1.089.039.063 4.045 5.888 4.249 6.23l.02.044h1.872l-.013-.108c-.14-1.279-.147-4.235-.147-5.115 0-.969.058-3.59.134-4.634l.006-.095h-.082v-.006zm2.712.095c.076 1.05.133 3.672.133 4.634 0 .88-.012 3.836-.146 5.109l-.007.101h2.778l-.013-.101c-.096-.912-.128-2.66-.14-4.008.114.007.51.026.51.026l.388.019c3.662 0 5.44-.975 5.44-2.995 0-2.304-2.498-2.842-4.587-2.887l-4.363-.006.007.108zm3.407 1.101c1.3-.025 2.217.247 2.656.785.198.247.3.551.3.906 0 1.437-1.618 1.74-2.975 1.74l-.548-.018-.223-.032a65.27 65.27 0 01.02-3.311c.165-.038.47-.063.77-.07zM75.08 4.147c.077 1.05.134 3.672.134 4.634 0 .88-.013 3.836-.147 5.109l-.012.101h2.783l-.013-.101c-.095-.912-.127-2.66-.14-4.008.115.007.51.026.51.026l.395.019c3.662 0 5.445-.975 5.445-2.995 0-2.304-2.496-2.842-4.592-2.887l-4.356-.006-.007.108zm3.408 1.101c1.3-.025 2.216.247 2.656.785.197.247.3.551.3.906 0 1.437-1.619 1.74-2.982 1.74l-.547-.018-.217-.032c-.013-.33-.02-.766-.02-1.266 0-.633.014-1.361.039-2.051a5.54 5.54 0 01.77-.064zm9.261-1.196h-.051l-.02.05c-.515 1.412-3.84 8.648-4.362 9.756l-.064.133h2.382l.02-.057c.21-.677.477-1.45.789-2.285.09 0 1.968-.032 1.968-.032l1.624.019s.287.013.357.013c.433 1.07.745 1.886.892 2.285l.019.057h2.758l-4.446-9.94h-1.866zm.675 2.93c.223.463.79 1.799 1.433 3.369-.096 0-.21.006-.21.006l-1.223.013s-1.268-.02-1.465-.026a117.582 117.582 0 011.465-3.361zm6.736-2.836c.07 1.045.135 3.672.135 4.635 0 .88-.013 3.836-.153 5.108l-.013.108h2.783l-.013-.107c-.14-1.28-.146-4.236-.146-5.116 0-.69.032-2.24.083-3.475.23-.032.535-.057.745-.064 1.3-.025 2.217.247 2.656.785.197.241.306.545.306.906 0 1.146-1.089 1.728-2.096 1.785-.33.013-.586-.032-.592-.032l-.191-.031.12.177c.975 1.437 2.453 3.938 3.077 5.128l.026.044h2.981l-.09-.145c-.102-.165-2.057-3.014-2.885-4.23 0 0-.032-.037-.051-.069 1.516-.456 2.261-1.31 2.261-2.615 0-2.304-2.497-2.836-4.592-2.88h-4.363l.013.088zm13.658-.101h-2.669l.013.095c.076 1.051.133 3.678.133 4.64 0 .874-.012 3.83-.146 5.11l-.006.1h2.777l-.013-.1c-.134-1.28-.147-4.236-.147-5.11 0-.962.058-3.589.134-4.64l.006-.095h-.082zm2.598.102c.077 1.044.134 3.672.134 4.634 0 .88-.007 3.83-.147 5.109l-.012.101h4.643c2.267 0 4.688-.715 4.688-2.729 0-1.26-.918-2.196-2.637-2.71 1.261-.335 2.121-1.202 2.121-2.209 0-1.64-1.892-2.266-3.669-2.304h-5.121v.108zm3.586 1.013c1.936.006 2.656.405 2.656 1.456 0 .285-.089.525-.261.734-.37.443-1.108.671-2.026.627h-.051l-.528 1.399h.541c1.07-.032 1.987.304 2.465.886.223.266.331.57.331.9 0 1.107-.968 1.67-2.872 1.67-.325 0-.847 0-1.179-.025-.07-1.456-.07-3.437-.07-4.02 0-.696.032-2.247.083-3.564.21-.038.58-.07.911-.063zm12.553-1.115h-1.873l-.019.057c-.548 1.5-4.07 9.13-4.363 9.756l-.064.133h2.389l.013-.057c.203-.678.477-1.45.789-2.28.083-.006 1.968-.03 1.968-.03l1.625.024s.28.007.356.007c.433 1.07.745 1.88.886 2.285l.019.05h2.758l-4.44-9.945h-.044zm-1.147 2.931c.223.469.79 1.798 1.433 3.368-.095 0-.21.013-.21.013l-1.229.019s-1.261-.025-1.459-.032a88.502 88.502 0 011.465-3.368zm6.408-.348c0 1.748 1.771 2.457 3.325 3.09 1.217.487 2.465.994 2.465 1.823 0 .253-.057.456-.191.614-.287.342-.885.488-1.822.443-.917-.044-1.968-.341-3.127-.88l-.49-.221.006.386v1.785l.312.07.191.038c.586.14 1.694.399 2.815.399 2.93 0 4.682-1.159 4.682-3.09 0-1.791-1.809-2.507-3.401-3.14-1.179-.468-2.395-.95-2.395-1.715 0-.222 0-.887 1.503-.887 1.127 0 2.229.456 2.828.703l.573.234-.006-.373V4.09l-.567-.102c-.567-.107-1.51-.29-2.491-.29-2.515.006-4.21 1.177-4.21 2.93zM45.073 19.201a3.533 3.533 0 00-1.847-.519c-2.255 0-3.032 1.773-3.032 3.286 0 2.102 1.3 3.165 3.045 3.165 1.089 0 1.904-.506 2.637-1.146l.013 1.824c-.746.297-1.657.557-3.032.557-3.147 0-5.115-1.944-5.115-4.42 0-2.608 2.083-4.494 5.51-4.494.802 0 1.586.127 2.337.31l-.516 1.437zm7.599-1.601c.33.886 3.178 7.185 3.847 8.616H54.13c-.134-.392-.42-1.108-.79-2.032-.496-.013-1-.025-1.707-.025-.656 0-1.152.012-1.72.025a35.093 35.093 0 00-.694 2.032h-2.082c.496-1.07 3.407-7.344 3.866-8.616h1.669zm.21 5.45l-1.236-2.918a68.918 68.918 0 00-1.286 2.919c.369.012.879.025 1.286.025.395 0 .815-.013 1.236-.025zm8.93-5.45c1.822 0 3.987.506 3.987 2.5 0 1.121-.656 1.868-1.955 2.267.185.367 2.28 3.532 2.624 3.85h-2.586c-.567-1.07-1.86-3.236-2.796-4.641.16.038.395.063.669.063.758 0 1.822-.544 1.822-1.538 0-1.241-1.51-1.463-2.268-1.463a8.29 8.29 0 00-.943.05 76.395 76.395 0 00-.076 3.014c0 .766 0 3.311.134 4.514H58.01c.12-1.19.146-2.729.146-4.514 0-1.5-.012-3.298-.12-4.096h3.776V17.6zm9.624 0c3.65 0 5.051 1.905 5.051 4.292 0 2.463-1.363 4.318-5.185 4.318h-3.216c.121-1.159.121-2.742.121-4.502 0-.835 0-2.988-.121-4.108h3.35zm-1.019 1.082c-.05.564-.064 2.033-.064 3.027 0 1.253 0 2.24.051 3.405.128.013.325.038.618.038 2.096 0 3.185-.652 3.185-3.298 0-2.526-1.115-3.235-3.23-3.19l-.56.018zM80.933 17.6c-.077.994-.128 3.26-.128 4.108 0 .754.013 3.312.127 4.502h-2.4c.127-1.19.133-3.754.133-4.502 0-.835-.051-3.114-.108-4.108h2.376zm9.19 0v1.247a83.485 83.485 0 00-2.95-.089c-.42 0-.891 0-1.375.038a26.497 26.497 0 00-.051 1.773c0 .285 0 .544.013.747l3.019-.05v1.342l-3.02-.12c.013 1.095.026 2.791.135 3.728h-2.427c.146-1.19.146-3.754.146-4.501 0-.836-.063-3.115-.14-4.109h6.65V17.6z" fill="#fff"/><path d="M23.902 7.914c-1.866 1.088-2.44 1.183-4.471 2.386 1.184-1.272 1.592-1.817 2.325-2.88-1.873.095-4.593.323-6.535.747 1.688-.9 5.038-1.893 6.808-2.134-.407-.563-3.732-2.348-4.554-2.697 2.63.203 5.841 1.178 7.395 2.128.612-.19 1.248-.203 2.389-.298-.293.494-.306.779-1.42 1.52.311.822-.427 5.355-1.045 6.552-.013-1.887-.179-4.28-.892-5.324zm-13.67 16.257c-1.07-.399-1.847-.854-2.694-1.646.255-.696.548-1.24 1.02-1.943-.873.126-1.517.228-2.268.367-.612-1.064-.892-2.09-1.198-3.52-.165 1.513-.229 2.596-.019 3.798-.688.19-1.178.361-1.745.608.796.481 1.44.855 2.325 1.266.478 1.02.968 1.703 1.77 2.488a4.655 4.655 0 01-.159-1.899c.994.291 1.841.443 2.968.481zM13.03 9.104c-.331.43-.72 1.234-.828 1.607 2.764.374 4.98 1.786 4.98 1.786-2.42-.424-3.687-.374-4.591-.291-.899.082-1.083.19-1.083.19-.65 1.418-1.045 3.855-1.045 3.855-.44-1.051-1.076-3.165-1.076-3.165-1.217.645-4.026 3.273-4.026 3.273 1.542-3.07 3.109-4.464 3.109-4.464-.542-.544-1.95-.81-2.981-.86.535-.216 1.91-.475 2.968-.52 1.057-.031 1.7.032 1.7.032.943-.747 2.376-1.374 2.873-1.443zm2.93 13.161c-.49.659-.91 1.178-1.445 1.78a8.973 8.973 0 01-2.58.354 6.415 6.415 0 001.676.576c-.58.525-1.07.892-1.637 1.253.942-.221 2.19-.62 3.114-1.165.484.02.937-.012 1.268-.075a6.638 6.638 0 01-.21-.849c.872-.67 1.503-1.279 2.229-2.007-.77.532-1.44.937-2.331 1.355-.038-.418-.064-.76-.083-1.222z" fill="#fff"/><path d="M.31 30.059h30.242V0H.31v30.059zm29.586-.652H.96V.646h28.936v28.76zM3.699 40.042c-.077-.646-.236-1.272-1.172-1.272-.58 0-1.077.278-1.077.924 0 1.52 3.459 1.513 3.459 3.697 0 1.393-.968 2.09-2.382 2.09-1 0-1.885-.438-2.433-1.07l.58-.88c.483.556 1.216.88 1.904.88.669 0 1.134-.26 1.134-.893 0-1.361-3.446-1.425-3.446-3.735 0-1.412 1.07-2.077 2.274-2.077 1.732 0 2.229 1.19 2.292 2.165l-1.133.171zm3.446 2.761c.05 1.316.592 1.696 1.401 1.696.624 0 1.172-.31 1.497-.557l.184.912c-.515.322-1.057.62-1.917.62-1.42 0-2.388-.848-2.388-2.975 0-2.108.853-2.989 2.318-2.989 1.484 0 2.07.963 2.07 2.387v.912H7.145v-.006zm2.025-.906c0-.962-.28-1.412-.962-1.412-.7 0-1 .418-1.057 1.412h2.02zm6.878-1.203l-.784-.044c.204.266.28.589.28 1.038 0 1.285-.84 2.165-2.089 2.165-.248 0-.37-.012-.56-.063-.217.152-.357.247-.357.437 0 .601 3.471-.108 3.471 1.937C16.01 47.4 14.704 48 13.296 48c-1.42 0-2.356-.513-2.356-1.424 0-.602.388-1.032.98-1.349-.26-.14-.484-.354-.484-.804 0-.45.325-.747.688-1.006-.484-.368-.777-.956-.777-1.748 0-1.316.84-2.165 2.121-2.165.3 0 .58.05.822.14h1.764v1.05h-.006zM12.04 46.45c0 .513.612.64 1.28.64.746 0 1.523-.292 1.523-.786 0-.696-.968-.683-1.854-.804-.465.222-.949.545-.949.95zm1.414-6.002c-.624 0-1.012.355-1.012 1.229 0 .88.388 1.234 1.012 1.234s1.013-.354 1.013-1.234c0-.874-.389-1.229-1.013-1.229zm4.551-.804v3.9c0 .727.452.955.968.955.515 0 .968-.221.968-.956v-3.9h1.172v3.869c0 1.33-.905 1.962-2.147 1.962-1.242 0-2.14-.633-2.14-1.962v-3.868h1.178zm5.718-.001v.557c.472-.5.95-.696 1.453-.696.853 0 1.012.773 1.012 1.608l-1 .12c-.012-.341-.044-.576-.37-.576-.311 0-.643.26-.98.602v4.083h-1.172V39.65h1.057v-.007zm7.612 2.875c0 1.969-.815 2.956-2.356 2.956-1.51 0-2.37-.854-2.37-2.975 0-2.09.828-2.989 2.37-2.989 1.605-.006 2.356.855 2.356 3.008zm-3.522-.026c0 1.545.389 2.007 1.166 2.007.777 0 1.153-.462 1.153-1.981 0-1.583-.376-2.039-1.153-2.039s-1.166.45-1.166 2.013zm7.307-1.132c-.045-.507-.268-.88-.886-.88-.452 0-.796.189-.796.62 0 1.082 2.675.987 2.675 2.71 0 1.025-.732 1.658-1.962 1.658-.891 0-1.592-.342-2.012-.747l.388-.855c.401.386.994.633 1.593.633.452 0 .828-.17.828-.62 0-.9-2.637-.887-2.637-2.697 0-1.007.72-1.672 1.917-1.672 1.325 0 1.872.76 1.872 1.684l-.98.165zm6.394 3.848v2.336l-1.172.254v-8.155h1.057v.513c.433-.354.968-.652 1.682-.652.968 0 1.904.576 1.904 2.925 0 2.21-1.013 3.045-2.337 3.045-.357 0-.778-.108-1.134-.266zm0-1.032c.33.215.675.323 1.012.323.676 0 1.217-.525 1.217-2.07 0-1.513-.529-1.874-1.076-1.874-.465 0-.778.158-1.153.399v3.222zm7.393-2.943c0-.539-.357-.748-.841-.748-.503 0-.93.292-.93.88l-1.032-.107c.032-1.159.962-1.748 2.038-1.748 1.185 0 1.937.602 1.937 1.621v2.97c0 .265.127.386.312.386.184 0 .376-.09.56-.228l.077.848c-.217.228-.605.373-.994.373-.408 0-.904-.17-.955-.79a2.097 2.097 0 01-1.65.79c-.898 0-1.529-.512-1.529-1.544 0-1.456 1.402-2.058 3.007-2.045v-.658zm0 1.532c-1-.032-1.841.335-1.841 1.063 0 .437.191.677.643.677.44 0 .873-.278 1.198-.633v-1.108zm3.963-3.122v.557c.47-.5.948-.696 1.452-.696.853 0 1.012.773 1.012 1.608l-1 .12c-.013-.341-.044-.576-.363-.576-.312 0-.65.26-.98.602v4.083h-1.173V39.65h1.051v-.007zm6 1.59c0-.539-.358-.748-.842-.748-.503 0-.93.292-.93.88l-1.031-.107c.031-1.159.961-1.748 2.038-1.748 1.184 0 1.942.602 1.942 1.621v2.97c0 .265.128.386.313.386.184 0 .375-.09.56-.228l.076.848c-.216.228-.605.373-.993.373-.408 0-.905-.17-.956-.79a2.097 2.097 0 01-1.65.79c-.897 0-1.528-.512-1.528-1.544 0-1.456 1.401-2.058 3.006-2.045v-.658h-.006zm0 1.532c-1-.032-1.842.335-1.842 1.063 0 .437.191.677.644.677.44 0 .872-.278 1.197-.633v-1.108zm6.828-3.121v3.9c0 .727.452.955.968.955s.968-.221.968-.956v-3.9h1.172v3.869c0 1.33-.904 1.962-2.146 1.962s-2.14-.633-2.14-1.962v-3.868h1.178zm5.718.512c.452-.329 1.013-.652 1.777-.652 1.032 0 1.682.57 1.682 1.81v4.02h-1.172v-3.779c0-.696-.236-.943-.892-.943-.433 0-.904.184-1.274.418v4.305h-1.172v-5.692h1.058v.513h-.007zm8.97 0c.433-.329 1.013-.652 1.726-.652.643 0 1.044.203 1.338.665.58-.374 1.14-.665 1.834-.665 1.025 0 1.605.57 1.605 1.81v4.02h-1.172v-3.817c0-.709-.28-.911-.86-.911-.388 0-.84.202-1.185.417.02.14.032.298.032.463v3.843h-1.172v-3.653c0-.804-.153-1.07-.86-1.07-.4 0-.796.19-1.152.417v4.305h-1.172v-5.69h1.057v.518h-.02zm9.087-.512v3.9c0 .727.453.955.968.955.516 0 .968-.221.968-.956v-3.9h1.179v3.869c0 1.33-.905 1.962-2.147 1.962-1.235 0-2.146-.633-2.146-1.962v-3.868h1.178zm5.722.512c.452-.329 1.013-.652 1.777-.652 1.032 0 1.681.57 1.681 1.81v4.02h-1.172v-3.779c0-.696-.235-.943-.891-.943-.433 0-.905.184-1.268.418v4.305H94.15v-5.692h1.058v.513h-.013zm8.241 4.501c-.421.469-.949.817-1.65.817-.924 0-1.962-.71-1.962-2.97 0-2.196.981-3 2.038-3 .484 0 .892.12 1.389.354V37.51l1.172-.216v6.793c0 .266.127.386.312.386s.376-.088.56-.227l.077.848c-.217.228-.605.373-.994.373-.446.007-.891-.19-.942-.81zm-.185-3.855c-.344-.171-.656-.323-1.14-.323-.542 0-1.058.354-1.058 1.969 0 1.392.472 1.95.994 1.95.529 0 .924-.323 1.204-.646v-2.95zm7.337 1.716c0 1.969-.822 2.956-2.363 2.956-1.51 0-2.37-.854-2.37-2.975 0-2.09.828-2.989 2.37-2.989 1.605-.006 2.363.855 2.363 3.008zm-3.522-.026c0 1.545.388 2.007 1.165 2.007s1.153-.462 1.153-1.981c0-1.583-.376-2.039-1.153-2.039s-1.165.45-1.165 2.013zm8.542.311c.057 1.316.592 1.696 1.401 1.696.624 0 1.172-.31 1.497-.557l.184.912c-.516.322-1.057.62-1.917.62-1.42 0-2.388-.848-2.388-2.975 0-2.108.853-2.989 2.318-2.989 1.484 0 2.07.963 2.07 2.387v.912h-3.165v-.006zm2.025-.906c0-.962-.28-1.412-.962-1.412-.7 0-1 .418-1.057 1.412h2.019zm3.477-1.741c.452-.329 1.012-.652 1.777-.652 1.031 0 1.681.57 1.681 1.81v4.02h-1.172v-3.779c0-.696-.236-.943-.892-.943-.433 0-.904.184-1.273.418v4.305h-1.172v-5.692h1.057v.513h-.006zm8.746 2.647c.057 1.316.592 1.696 1.401 1.696.624 0 1.172-.31 1.497-.557l.184.912c-.515.322-1.057.62-1.917.62-1.42 0-2.388-.848-2.388-2.975 0-2.108.853-2.989 2.318-2.989 1.484 0 2.07.963 2.07 2.387v.912h-3.165v-.006zm2.025-.906c0-.962-.28-1.412-.962-1.412-.7 0-1 .418-1.057 1.412h2.019zm2.891-2.253l1.433 4.406 1.363-4.406h1.179l-1.911 5.69h-1.363l-1.955-5.69h1.254zm9.212 2.874c0 1.969-.815 2.956-2.357 2.956-1.509 0-2.369-.854-2.369-2.975 0-2.09.828-2.989 2.369-2.989 1.599-.006 2.357.855 2.357 3.008zm-3.522-.026c0 1.545.388 2.007 1.165 2.007s1.153-.462 1.153-1.981c0-1.583-.376-2.039-1.153-2.039s-1.165.45-1.165 2.013zm5.972-5.192v6.73c0 .31.172.43.401.43.249 0 .472-.094.701-.227l.115.899c-.44.234-.784.342-1.198.342-.955 0-1.197-.697-1.197-1.444v-6.514l1.178-.215zm3.039 2.344v3.9c0 .727.452.955.968.955s.968-.221.968-.956v-3.9h1.172v3.869c0 1.33-.904 1.962-2.14 1.962-1.242 0-2.146-.633-2.146-1.962v-3.868h1.178zm7.459 1.918c-.032-.557-.274-1.083-.917-1.083-.713 0-1.038.405-1.038 2.013 0 1.608.484 2 1.337 2 .682 0 1.121-.29 1.446-.512l.223.867c-.484.336-1.076.62-1.904.62-1.491 0-2.325-.93-2.325-2.987 0-1.982.72-2.982 2.306-2.982 1.382 0 1.904.848 1.929 1.95-.356.038-.707.07-1.057.114zm3.496-2.678h-1.172v-1.266h1.172v1.266zm0 6.45h-1.172v-5.69h1.172v5.69zm6.025-2.817c0 1.97-.822 2.957-2.363 2.957-1.509 0-2.369-.855-2.369-2.976 0-2.089.828-2.988 2.369-2.988 1.605-.006 2.363.855 2.363 3.007zm-3.522-.025c0 1.545.388 2.007 1.165 2.007s1.153-.462 1.153-1.982c0-1.582-.376-2.038-1.153-2.038s-1.165.45-1.165 2.013zm2.853-5.191l-1.248 1.69h-1l1.057-1.69h1.191zm3.019 2.855c.453-.329 1.013-.652 1.777-.652 1.032 0 1.682.57 1.682 1.81v4.02h-1.172v-3.779c0-.696-.236-.943-.898-.943-.433 0-.905.184-1.268.418v4.305h-1.178v-5.692h1.057v.513zM38.12 4.147c.076 1.05.133 3.672.133 4.634 0 .88-.006 3.83-.147 5.109l-.012.101h4.643c2.267 0 4.688-.715 4.688-2.729 0-1.26-.917-2.196-2.637-2.71 1.261-.335 2.115-1.202 2.115-2.209 0-1.64-1.899-2.266-3.67-2.304h-5.12l.006.108zm3.585 1.013c1.936.006 2.656.405 2.656 1.456 0 .285-.09.525-.261.734-.37.443-1.108.671-2.026.627h-.044l-.535 1.399h.541c1.07-.032 2 .304 2.472.886.222.266.33.57.33.9 0 1.107-.974 1.67-2.878 1.67-.319 0-.84 0-1.172-.025-.07-1.456-.07-3.437-.07-4.02 0-.696.032-2.241.076-3.564.21-.038.58-.07.911-.063zm16.413-1.108h-2.249l.096 2.5c.038 1.247.083 2.52.165 3.754-.152-.373-.28-.582-.949-1.57-.019-.031-2.362-3.64-3.171-4.653l-.032-.031h-2.63l.006.094c.076 1.045.133 3.666.133 4.635 0 .88-.012 3.836-.146 5.115l-.013.107h2.331l-.006-.1c-.134-2.438-.134-4.882-.134-7.25v-.006c.077.285.191.545.56 1.089.039.063 4.045 5.888 4.249 6.23l.02.044h1.872l-.013-.108c-.14-1.279-.147-4.235-.147-5.115 0-.969.058-3.59.134-4.634l.006-.095h-.082v-.006zm2.712.095c.076 1.05.133 3.672.133 4.634 0 .88-.012 3.836-.146 5.109l-.007.101h2.778l-.013-.101c-.096-.912-.128-2.66-.14-4.008.114.007.51.026.51.026l.388.019c3.662 0 5.44-.975 5.44-2.995 0-2.304-2.498-2.842-4.587-2.887l-4.363-.006.007.108zm3.407 1.101c1.3-.025 2.217.247 2.656.785.198.247.3.551.3.906 0 1.437-1.618 1.74-2.975 1.74l-.548-.018-.223-.032a65.27 65.27 0 01.02-3.311c.165-.038.47-.063.77-.07zM75.08 4.147c.077 1.05.134 3.672.134 4.634 0 .88-.013 3.836-.147 5.109l-.012.101h2.783l-.013-.101c-.095-.912-.127-2.66-.14-4.008.115.007.51.026.51.026l.395.019c3.662 0 5.445-.975 5.445-2.995 0-2.304-2.496-2.842-4.592-2.887l-4.356-.006-.007.108zm3.408 1.101c1.3-.025 2.216.247 2.656.785.197.247.3.551.3.906 0 1.437-1.619 1.74-2.982 1.74l-.547-.018-.217-.032c-.013-.33-.02-.766-.02-1.266 0-.633.014-1.361.039-2.051a5.54 5.54 0 01.77-.064zm9.261-1.196h-.051l-.02.05c-.515 1.412-3.84 8.648-4.362 9.756l-.064.133h2.382l.02-.057c.21-.677.477-1.45.789-2.285.09 0 1.968-.032 1.968-.032l1.624.019s.287.013.357.013c.433 1.07.745 1.886.892 2.285l.019.057h2.758l-4.446-9.94h-1.866zm.675 2.93c.223.463.79 1.799 1.433 3.369-.096 0-.21.006-.21.006l-1.223.013s-1.268-.02-1.465-.026a117.582 117.582 0 011.465-3.361zm6.736-2.836c.07 1.045.135 3.672.135 4.635 0 .88-.013 3.836-.153 5.108l-.013.108h2.783l-.013-.107c-.14-1.28-.146-4.236-.146-5.116 0-.69.032-2.24.083-3.475.23-.032.535-.057.745-.064 1.3-.025 2.217.247 2.656.785.197.241.306.545.306.906 0 1.146-1.089 1.728-2.096 1.785-.33.013-.586-.032-.592-.032l-.191-.031.12.177c.975 1.437 2.453 3.938 3.077 5.128l.026.044h2.981l-.09-.145c-.102-.165-2.057-3.014-2.885-4.23 0 0-.032-.037-.051-.069 1.516-.456 2.261-1.31 2.261-2.615 0-2.304-2.497-2.836-4.592-2.88h-4.363l.013.088zm13.658-.101h-2.669l.013.095c.076 1.051.133 3.678.133 4.64 0 .874-.012 3.83-.146 5.11l-.006.1h2.777l-.013-.1c-.134-1.28-.147-4.236-.147-5.11 0-.962.058-3.589.134-4.64l.006-.095h-.082zm2.598.102c.077 1.044.134 3.672.134 4.634 0 .88-.007 3.83-.147 5.109l-.012.101h4.643c2.267 0 4.688-.715 4.688-2.729 0-1.26-.918-2.196-2.637-2.71 1.261-.335 2.121-1.202 2.121-2.209 0-1.64-1.892-2.266-3.669-2.304h-5.121v.108zm3.586 1.013c1.936.006 2.656.405 2.656 1.456 0 .285-.089.525-.261.734-.37.443-1.108.671-2.026.627h-.051l-.528 1.399h.541c1.07-.032 1.987.304 2.465.886.223.266.331.57.331.9 0 1.107-.968 1.67-2.872 1.67-.325 0-.847 0-1.179-.025-.07-1.456-.07-3.437-.07-4.02 0-.696.032-2.247.083-3.564.21-.038.58-.07.911-.063zm12.553-1.115h-1.873l-.019.057c-.548 1.5-4.07 9.13-4.363 9.756l-.064.133h2.389l.013-.057c.203-.678.477-1.45.789-2.28.083-.006 1.968-.03 1.968-.03l1.625.024s.28.007.356.007c.433 1.07.745 1.88.886 2.285l.019.05h2.758l-4.44-9.945h-.044zm-1.147 2.931c.223.469.79 1.798 1.433 3.368-.095 0-.21.013-.21.013l-1.229.019s-1.261-.025-1.459-.032a88.502 88.502 0 011.465-3.368zm6.408-.348c0 1.748 1.771 2.457 3.325 3.09 1.217.487 2.465.994 2.465 1.823 0 .253-.057.456-.191.614-.287.342-.885.488-1.822.443-.917-.044-1.968-.341-3.127-.88l-.49-.221.006.386v1.785l.312.07.191.038c.586.14 1.694.399 2.815.399 2.93 0 4.682-1.159 4.682-3.09 0-1.791-1.809-2.507-3.401-3.14-1.179-.468-2.395-.95-2.395-1.715 0-.222 0-.887 1.503-.887 1.127 0 2.229.456 2.828.703l.573.234-.006-.373V4.09l-.567-.102c-.567-.107-1.51-.29-2.491-.29-2.515.006-4.21 1.177-4.21 2.93zM45.073 19.201a3.533 3.533 0 00-1.847-.519c-2.255 0-3.032 1.773-3.032 3.286 0 2.102 1.3 3.165 3.045 3.165 1.089 0 1.904-.506 2.637-1.146l.013 1.824c-.746.297-1.657.557-3.032.557-3.147 0-5.115-1.944-5.115-4.42 0-2.608 2.083-4.494 5.51-4.494.802 0 1.586.127 2.337.31l-.516 1.437zm7.599-1.601c.33.886 3.178 7.185 3.847 8.616H54.13c-.134-.392-.42-1.108-.79-2.032-.496-.013-1-.025-1.707-.025-.656 0-1.152.012-1.72.025a35.093 35.093 0 00-.694 2.032h-2.082c.496-1.07 3.407-7.344 3.866-8.616h1.669zm.21 5.45l-1.236-2.918a68.918 68.918 0 00-1.286 2.919c.369.012.879.025 1.286.025.395 0 .815-.013 1.236-.025zm8.93-5.45c1.822 0 3.987.506 3.987 2.5 0 1.121-.656 1.868-1.955 2.267.185.367 2.28 3.532 2.624 3.85h-2.586c-.567-1.07-1.86-3.236-2.796-4.641.16.038.395.063.669.063.758 0 1.822-.544 1.822-1.538 0-1.241-1.51-1.463-2.268-1.463a8.29 8.29 0 00-.943.05 76.395 76.395 0 00-.076 3.014c0 .766 0 3.311.134 4.514H58.01c.12-1.19.146-2.729.146-4.514 0-1.5-.012-3.298-.12-4.096h3.776V17.6zm9.624 0c3.65 0 5.051 1.905 5.051 4.292 0 2.463-1.363 4.318-5.185 4.318h-3.216c.121-1.159.121-2.742.121-4.502 0-.835 0-2.988-.121-4.108h3.35zm-1.019 1.082c-.05.564-.064 2.033-.064 3.027 0 1.253 0 2.24.051 3.405.128.013.325.038.618.038 2.096 0 3.185-.652 3.185-3.298 0-2.526-1.115-3.235-3.23-3.19l-.56.018zM80.933 17.6c-.077.994-.128 3.26-.128 4.108 0 .754.013 3.312.127 4.502h-2.4c.127-1.19.133-3.754.133-4.502 0-.835-.051-3.114-.108-4.108h2.376zm9.19 0v1.247a83.485 83.485 0 00-2.95-.089c-.42 0-.891 0-1.375.038a26.497 26.497 0 00-.051 1.773c0 .285 0 .544.013.747l3.019-.05v1.342l-3.02-.12c.013 1.095.026 2.791.135 3.728h-2.427c.146-1.19.146-3.754.146-4.501 0-.836-.063-3.115-.14-4.109h6.65V17.6z" fill="#fff"/></svg>