<svg width="41" height="41" fill="none" xmlns="http://www.w3.org/2000/svg"><path d="M13.845 3.977a153.609 153.609 0 00-7.092 2.137 1.202 1.202 0 00-.821.977c-1.385 10.391 1.815 17.976 5.632 22.97 1.917 2.507 3.99 4.362 5.72 5.58.864.61 1.63 1.052 2.23 1.335.301.142.547.237.734.295.154.048.233.059.252.062.019-.003.098-.014.252-.062.187-.058.433-.154.734-.295.6-.283 1.366-.724 2.23-1.334 1.73-1.22 3.803-3.074 5.72-5.581 3.817-4.994 7.017-12.579 5.632-22.97a1.202 1.202 0 00-.821-.977 153.629 153.629 0 00-7.092-2.137c-2.776-.752-5.328-1.31-6.655-1.31s-3.88.558-6.655 1.31zM13.179 1.4C15.893.663 18.776 0 20.5 0c1.724 0 4.607.663 7.32 1.4a156.14 156.14 0 017.217 2.173 3.852 3.852 0 012.61 3.157c1.492 11.194-1.967 19.487-6.162 24.975-2.09 2.733-4.36 4.77-6.293 6.133-.965.681-1.86 1.203-2.62 1.561-.702.33-1.453.601-2.072.601-.62 0-1.37-.27-2.072-.601-.76-.358-1.655-.88-2.62-1.56-1.932-1.363-4.203-3.4-6.293-6.134C5.32 26.217 1.862 17.924 3.353 6.73a3.852 3.852 0 012.61-3.157c1.645-.536 4.44-1.422 7.216-2.174z" fill="#00194C"/><path d="M18.004 27.5a2.5 2.5 0 115 0 2.5 2.5 0 01-5 0zm.245-15.012a2.262 2.262 0 114.502 0l-.877 8.768a1.381 1.381 0 01-2.748 0l-.877-8.768z" fill="#00194C"/></svg>