<svg width="36" height="41" fill="none" xmlns="http://www.w3.org/2000/svg"><path d="M11.345 4.077a150.81 150.81 0 00-7.092 2.19c-.448.15-.762.547-.821 1.001C2.047 17.92 5.247 25.693 9.064 30.812c1.917 2.57 3.99 4.471 5.72 5.72.864.626 1.63 1.078 2.23 1.368.301.145.547.243.734.303.154.048.233.06.252.063.019-.003.098-.014.252-.063.187-.06.433-.158.734-.303.6-.29 1.366-.742 2.23-1.367 1.73-1.25 3.803-3.15 5.72-5.72 3.817-5.12 7.017-12.894 5.632-23.545a1.225 1.225 0 00-.821-1.001 150.856 150.856 0 00-7.092-2.19C21.88 3.305 19.327 2.733 18 2.733s-3.88.572-6.655 1.344zm-.666-2.643C13.393.68 16.276 0 18 0c1.724 0 4.607.68 7.32 1.434a153.29 153.29 0 017.217 2.229c1.372.459 2.41 1.702 2.61 3.235 1.492 11.474-1.967 19.975-6.162 25.6-2.09 2.802-4.36 4.89-6.293 6.286-.965.698-1.86 1.233-2.62 1.6C19.37 40.723 18.62 41 18 41c-.62 0-1.37-.277-2.072-.616-.76-.367-1.655-.902-2.62-1.6-1.932-1.396-4.203-3.484-6.293-6.286C2.82 26.873-.638 18.372.853 6.898c.2-1.533 1.238-2.776 2.61-3.235 1.645-.55 4.44-1.458 7.216-2.229z" fill="#00194C"/><path d="M22.5 16.09c0 1.782-1.113 3.297-2.667 3.859l1.027 5.428c.159.842-.471 1.623-1.31 1.623h-2.1c-.839 0-1.469-.781-1.31-1.623l1.027-5.428c-1.554-.562-2.667-2.077-2.667-3.858 0-2.26 1.79-4.091 4-4.091s4 1.832 4 4.09z" fill="#00194C"/></svg>