<svg width="41" height="40" fill="none" xmlns="http://www.w3.org/2000/svg"><path d="M22.386 2.764a2.708 2.708 0 00-3.772 0L.891 20.112a1.285 1.285 0 000 1.846c.52.51 1.364.51 1.885 0L4.5 20.27v13.815C4.5 36.247 6.29 38 8.5 38h24c2.21 0 4-1.753 4-3.915V20.27l1.724 1.688c.52.51 1.365.51 1.886 0 .52-.51.52-1.336 0-1.846l-6.277-6.143V5.374c0-.72-.597-1.305-1.333-1.305h-2.667c-.736 0-1.333.585-1.333 1.306v3.374l-6.114-5.985zM33.833 17.66v16.425c0 .72-.597 1.305-1.333 1.305h-24c-.736 0-1.333-.584-1.333-1.305V17.66L20.5 4.61l13.333 13.05z" fill="#00194C"/><path d="M20.5 15a2 2 0 012 2v4h-4v-4a2 2 0 012-2zm3 6v-4a3 3 0 10-6 0v4a2 2 0 00-2 2v5a2 2 0 002 2h6a2 2 0 002-2v-5a2 2 0 00-2-2z" fill="#00194C"/></svg>