<svg width="36" height="40" fill="none" xmlns="http://www.w3.org/2000/svg"><path d="M14.719 2.188a3.28 3.28 0 00-3.281 3.28v1.095H3.78A3.281 3.281 0 00.5 9.842v17.5a3.281 3.281 0 003.281 3.282H32.22a3.281 3.281 0 003.281-3.281v-17.5a3.281 3.281 0 00-3.281-3.281h-7.657V5.468a3.28 3.28 0 00-3.28-3.28H14.72zm0 2.187h6.562c.605 0 1.094.491 1.094 1.095v1.093h-8.75V5.468c0-.604.49-1.093 1.094-1.093zM18.846 19.5l14.466-3.858v11.702c0 .604-.49 1.093-1.093 1.093H3.78c-.604 0-1.094-.49-1.094-1.093V15.642L17.154 19.5a3.282 3.282 0 001.692 0zM3.78 8.75h28.44c.604 0 1.093.49 1.093 1.094v3.534l-15.03 4.009a1.1 1.1 0 01-.564 0l-15.03-4.009V9.844c0-.604.49-1.094 1.093-1.094z" fill="#00194C"/><path fill="#fff" d="M15.5 20h20v20h-20z"/><path d="M17.167 40S15.5 40 15.5 38.333c0-1.666 1.667-6.666 10-6.666s10 5 10 6.666C35.5 40 33.833 40 33.833 40H17.167zM25.5 30a5 5 0 100-10 5 5 0 000 10z" fill="#00194C"/></svg>