<svg width="41" height="40" fill="none" xmlns="http://www.w3.org/2000/svg"><path d="M20.5 37.5C10.835 37.5 3 29.665 3 20S10.835 2.5 20.5 2.5 38 10.335 38 20s-7.835 17.5-17.5 17.5zm0 2.5c11.046 0 20-8.954 20-20s-8.954-20-20-20S.5 8.954.5 20s8.954 20 20 20z" fill="#009ADE"/><path d="M13.638 14.465a.593.593 0 00.603.617h2.061c.345 0 .62-.282.666-.624.223-1.64 1.348-2.836 3.355-2.836 1.714 0 3.285.857 3.285 2.92 0 1.587-.936 2.317-2.412 3.428-1.682 1.222-3.015 2.65-2.92 4.967l.007.542a.625.625 0 00.625.617h2.028c.345 0 .625-.28.625-.625v-.264c0-1.793.682-2.317 2.523-3.714 1.524-1.158 3.11-2.443 3.11-5.141 0-3.777-3.19-5.602-6.68-5.602-3.168 0-6.64 1.476-6.876 5.715zm3.892 14.407c0 1.333 1.063 2.317 2.523 2.317 1.524 0 2.571-.984 2.571-2.317 0-1.38-1.047-2.349-2.57-2.349-1.46 0-2.524.968-2.524 2.35z" fill="#009ADE"/></svg>