<svg width="56" height="57" fill="none" xmlns="http://www.w3.org/2000/svg"><path d="M45.39 19.514a9.258 9.258 0 010 2.748c-.109.902-.368 1.927-.779 3.076a35.114 35.114 0 01-2.214 4.922 42.587 42.587 0 01-3.2 5.004 52.353 52.353 0 01-4.183 4.963 67.308 67.308 0 01-5.127 4.84 2.904 2.904 0 01-.903.492 2.543 2.543 0 01-.984.205c-.328 0-.656-.069-.984-.205a2.904 2.904 0 01-.903-.493 67.308 67.308 0 01-5.127-4.84 56.114 56.114 0 01-4.142-4.962 42.575 42.575 0 01-3.2-5.004 32.561 32.561 0 01-2.255-4.922c-.383-1.149-.643-2.174-.78-3.076a9.258 9.258 0 010-2.748 10.12 10.12 0 011.19-3.446 10.646 10.646 0 012.256-2.789 10.156 10.156 0 013.035-1.845 9.53 9.53 0 013.61-.698h.081c1.422.028 2.748.315 3.979.862A10.032 10.032 0 0128 13.812a10.66 10.66 0 013.24-2.214 10.393 10.393 0 013.979-.862h.082a9.53 9.53 0 013.61.698 9.518 9.518 0 013.034 1.845 10.646 10.646 0 012.256 2.79 10.12 10.12 0 011.19 3.445zm-2.42 5.25c.356-1.04.589-1.942.698-2.707.11-.766.11-1.532 0-2.297a8.497 8.497 0 00-.984-2.79 8.843 8.843 0 00-1.887-2.378 6.3 6.3 0 00-1.19-.862 5.89 5.89 0 00-1.312-.656 7.446 7.446 0 00-1.477-.41 6.974 6.974 0 00-1.517-.164h-.041c-.575 0-1.149.068-1.723.205-.547.11-1.08.274-1.6.492-.492.219-.97.479-1.435.78-.438.3-.848.656-1.23 1.066L28 16.314l-1.23-1.271a6.743 6.743 0 00-1.272-1.066 8.311 8.311 0 00-3.035-1.271 6.908 6.908 0 00-1.682-.206h-.082c-.492 0-.998.055-1.517.164a6.645 6.645 0 00-1.436.41 6.852 6.852 0 00-1.353.656 8.73 8.73 0 00-1.19.862 8.843 8.843 0 00-1.887 2.379 7.844 7.844 0 00-.943 2.789 7.168 7.168 0 00-.041 2.297c.11.765.355 1.668.738 2.707a33.679 33.679 0 002.092 4.716 42.396 42.396 0 003.076 4.758c.602.82 1.244 1.64 1.928 2.461a83.411 83.411 0 002.133 2.38 97.541 97.541 0 002.379 2.378c.82.766 1.681 1.518 2.584 2.256.082.082.191.15.328.205.137.055.273.082.41.082.137 0 .273-.027.41-.082.137-.055.26-.123.37-.205a67.829 67.829 0 002.542-2.256c.82-.793 1.6-1.586 2.338-2.379a57.122 57.122 0 002.174-2.379c.684-.82 1.326-1.64 1.928-2.46a38.419 38.419 0 003.035-4.758 34.388 34.388 0 002.174-4.717zm-21.984-8.778c.711 0 1.381.137 2.01.41a5.31 5.31 0 011.723 1.149 4.784 4.784 0 011.107 1.723c.274.628.41 1.285.41 1.968a5.27 5.27 0 01-.41 2.051 4.868 4.868 0 01-1.107 1.682 5.286 5.286 0 01-1.723 1.148 5.465 5.465 0 01-2.01.37 5.68 5.68 0 01-2.01-.37 5.412 5.412 0 01-1.681-1.148 5.41 5.41 0 01-1.149-1.682 5.28 5.28 0 01-.41-2.05c0-.684.137-1.34.41-1.97a5.283 5.283 0 011.149-1.722 5.41 5.41 0 011.682-1.149 5.18 5.18 0 012.01-.41zm0 8.778c.985 0 1.819-.342 2.502-1.026.684-.683 1.026-1.517 1.026-2.502 0-.957-.342-1.777-1.026-2.46-.683-.684-1.517-1.026-2.502-1.026-.957 0-1.777.342-2.46 1.025-.684.684-1.026 1.504-1.026 2.461 0 .985.342 1.819 1.025 2.502.684.684 1.504 1.026 2.461 1.026z" fill="#56504C"/></svg>