<svg width="18" height="22" viewBox="0 0 18 22" fill="none"
    xmlns="http://www.w3.org/2000/svg">
    <path fill-rule="evenodd" clip-rule="evenodd" d="M2.68934 2.43934C2.97064 2.15804 3.35218 2 3.75 2H8.25V7.25C8.25 7.84674 8.48705 8.41903 8.90901 8.84099C9.33097 9.26295 9.90326 9.5 10.5 9.5H15.75V18.5C15.75 18.8978 15.592 19.2794 15.3107 19.5607C15.0294 19.842 14.6478 20 14.25 20H3.75C3.35218 20 2.97064 19.842 2.68934 19.5607C2.40804 19.2794 2.25 18.8978 2.25 18.5V3.5C2.25 3.10218 2.40804 2.72064 2.68934 2.43934ZM3.75 0.5C2.95435 0.5 2.19129 0.816071 1.62868 1.37868C1.06607 1.94129 0.75 2.70435 0.75 3.5V18.5C0.75 19.2956 1.06607 20.0587 1.62868 20.6213C2.19129 21.1839 2.95435 21.5 3.75 21.5H14.25C15.0456 21.5 15.8087 21.1839 16.3713 20.6213C16.9339 20.0587 17.25 19.2956 17.25 18.5V9.37098C17.2499 8.77445 17.0129 8.20237 16.5912 7.78051L9.96955 1.15889L9.96949 1.15883C9.54763 0.737066 8.97555 0.50009 8.37902 0.5H3.75ZM9.75 7.25V3.43566L14.3143 8H10.5C10.3011 8 10.1103 7.92098 9.96967 7.78033C9.82902 7.63968 9.75 7.44891 9.75 7.25ZM5.25 11.75C4.83579 11.75 4.5 12.0858 4.5 12.5C4.5 12.9142 4.83579 13.25 5.25 13.25H12.75C13.1642 13.25 13.5 12.9142 13.5 12.5C13.5 12.0858 13.1642 11.75 12.75 11.75H5.25ZM5.25 15.5C4.83579 15.5 4.5 15.8358 4.5 16.25C4.5 16.6642 4.83579 17 5.25 17H12.75C13.1642 17 13.5 16.6642 13.5 16.25C13.5 15.8358 13.1642 15.5 12.75 15.5H5.25Z" fill="#0076A9"/>
</svg>
