<svg width="36" height="36" viewBox="0 0 36 36" fill="none"
    xmlns="http://www.w3.org/2000/svg">
    <path d="M18 2.25C20.1602 2.25 22.1973 2.66016 24.1113 3.48047C26.0254 4.30078 27.6797 5.42188 29.0742 6.84375C30.4961 8.26562 31.6172 9.93359 32.4375 11.8477C33.2578 13.7617 33.668 15.7988 33.668 17.959C33.668 20.1191 33.2578 22.1562 32.4375 24.0703C31.6172 25.9844 30.4961 27.6523 29.0742 29.0742C27.6523 30.4688 25.9844 31.5762 24.0703 32.3965C22.1562 33.2168 20.1191 33.627 17.959 33.627C15.7988 33.627 13.7617 33.2168 11.8477 32.3965C9.93359 31.5762 8.26562 30.4551 6.84375 29.0332C5.44922 27.6113 4.3418 25.9434 3.52148 24.0293C2.70117 22.1152 2.29102 20.0781 2.29102 17.918C2.29102 16.332 2.50977 14.8145 2.94727 13.3652C3.41211 11.8887 4.05469 10.5215 4.875 9.26367C5.72266 8.00586 6.73438 6.88477 7.91016 5.90039C9.08594 4.91602 10.3984 4.10938 11.8477 3.48047C12.832 3.07031 13.8438 2.76953 14.8828 2.57812C15.9219 2.35938 16.9609 2.25 18 2.25ZM18 0.486328C15.5938 0.486328 13.3242 0.951172 11.1914 1.88086C9.05859 2.7832 7.19922 4.02734 5.61328 5.61328C4.02734 7.19922 2.7832 9.05859 1.88086 11.1914C0.951172 13.3242 0.486328 15.5938 0.486328 18C0.486328 20.4062 0.951172 22.6758 1.88086 24.8086C2.7832 26.9414 4.02734 28.8008 5.61328 30.3867C7.19922 31.9727 9.05859 33.2168 11.1914 34.1191C13.3242 35.0488 15.5938 35.5137 18 35.5137C20.4062 35.5137 22.6758 35.0488 24.8086 34.1191C26.9414 33.2168 28.8008 31.9727 30.3867 30.3867C31.9727 28.8008 33.2168 26.9414 34.1191 24.8086C35.0488 22.6758 35.5137 20.4062 35.5137 18C35.5137 15.5938 35.0488 13.3242 34.1191 11.1914C33.2168 9.05859 31.9727 7.19922 30.3867 5.61328C28.8008 4.02734 26.9414 2.7832 24.8086 1.88086C22.6758 0.951172 20.4062 0.486328 18 0.486328ZM15.416 24.9727C15.3066 24.9727 15.1973 24.959 15.0879 24.9316C14.9785 24.877 14.8828 24.8086 14.8008 24.7266L9.55078 19.4766C9.35938 19.3125 9.25 19.1211 9.22266 18.9023C9.22266 18.6562 9.30469 18.4375 9.46875 18.2461C9.63281 18.082 9.83789 18 10.084 18C10.3301 17.9727 10.5352 18.041 10.6992 18.2051C10.7266 18.2051 10.7402 18.2188 10.7402 18.2461C10.7402 18.2461 10.7539 18.2461 10.7812 18.2461L15.416 22.8809L25.4238 12.9961C25.6152 12.832 25.8203 12.75 26.0391 12.75C26.2852 12.75 26.4902 12.8457 26.6543 13.0371C26.8184 13.2012 26.9004 13.4062 26.9004 13.6523C26.9004 13.8711 26.8184 14.0625 26.6543 14.2266L16.0312 24.7266C15.9492 24.8086 15.8535 24.877 15.7441 24.9316C15.6348 24.959 15.5254 24.9727 15.416 24.9727Z" fill="#008859"/>
</svg>
