<svg width="24" height="24" fill="none"
    xmlns="http://www.w3.org/2000/svg">
    <path d="M9.38 17.006a.42.42 0 01-.28-.106.42.42 0 01-.106-.28v-6.364h.756v6.363a.42.42 0 01-.105.281.358.358 0 01-.264.106zm2.62-.387v-6.363h-.756v6.363c0 .106.035.2.106.281a.42.42 0 00.28.106.338.338 0 00.247-.106.387.387 0 00.123-.28zm2.25 0v-6.363h-.756v6.363c0 .106.035.2.106.281a.42.42 0 00.28.106.338.338 0 00.247-.106.387.387 0 00.123-.28zm4.5-9.369v1.494a.741.741 0 01-.229.545.715.715 0 01-.527.211H5.25a.776.776 0 01-.545-.21.776.776 0 01-.21-.546V7.25c0-.21.07-.387.21-.527a.744.744 0 01.545-.229h3.006V5c0-.21.07-.387.21-.527a.724.724 0 01.528-.229h5.256c.21 0 .387.076.527.229.153.14.229.316.229.527v1.494h2.988c.211 0 .387.076.527.229.153.14.229.316.229.527zm-9.756-.756h5.256V5H8.994v1.494zm9 .756H5.25v1.494h12.744V7.25zM16.5 10.256v6.75c0 .41-.146.762-.44 1.055a1.435 1.435 0 01-1.054.439h-6.75c-.422 0-.78-.146-1.072-.44a1.438 1.438 0 01-.44-1.054v-6.75h-.738v6.75c0 .621.217 1.148.65 1.582.446.445.979.668 1.6.668h6.75c.621 0 1.148-.223 1.582-.668.445-.434.668-.961.668-1.582v-6.75H16.5z" fill="#56504C"/>
</svg>