<svg width="56" height="56" viewBox="0 0 56 56" fill="none"
    xmlns="http://www.w3.org/2000/svg">
    <path d="M28 10.2363C30.4062 10.2363 32.6758 10.7012 34.8086 11.6309C36.9414 12.5332 38.8008 13.7773 40.3867 15.3633C41.9727 16.9492 43.2168 18.8086 44.1191 20.9414C45.0488 23.0742 45.5137 25.3438 45.5137 27.75C45.5137 30.1562 45.0488 32.4258 44.1191 34.5586C43.2168 36.6914 41.9727 38.5508 40.3867 40.1367C38.8008 41.7227 36.9414 42.9668 34.8086 43.8691C32.6758 44.7988 30.4062 45.2637 28 45.2637C25.5938 45.2637 23.3242 44.7988 21.1914 43.8691C19.0586 42.9668 17.1992 41.7227 15.6133 40.1367C14.0273 38.5508 12.7832 36.6914 11.8809 34.5586C10.9512 32.4258 10.4863 30.1562 10.4863 27.75C10.4863 25.3438 10.9512 23.0742 11.8809 20.9414C12.7832 18.8086 14.0273 16.9492 15.6133 15.3633C17.1992 13.7773 19.0586 12.5332 21.1914 11.6309C23.3242 10.7012 25.5938 10.2363 28 10.2363ZM30.1328 33.6562C29.9414 33.9297 29.75 34.2031 29.5586 34.4766C29.3672 34.75 29.1484 35.0234 28.9023 35.2969C28.6836 35.543 28.4785 35.7344 28.2871 35.8711C28.0957 36.0078 27.9316 36.0762 27.7949 36.0762C27.7129 36.0762 27.6445 36.0762 27.5898 36.0762C27.5625 36.0488 27.5215 36.0215 27.4668 35.9941C27.4121 35.9668 27.3711 35.9121 27.3438 35.8301C27.3164 35.748 27.3027 35.6523 27.3027 35.543C27.3027 35.4336 27.3164 35.2695 27.3438 35.0508C27.3984 34.8047 27.4805 34.5039 27.5898 34.1484C27.6172 34.0117 27.6582 33.8203 27.7129 33.5742C27.7949 33.3008 27.877 32.9727 27.959 32.5898L30.625 23.9766L29.3125 24.2227C29.0938 24.2773 28.793 24.332 28.4102 24.3867C28.0273 24.4414 27.5762 24.4961 27.0566 24.5508C26.5098 24.6055 26.0312 24.6602 25.6211 24.7148C25.2109 24.7422 24.8555 24.7695 24.5547 24.7969V25.6172C24.9102 25.6172 25.1973 25.6445 25.416 25.6992C25.6621 25.7266 25.8398 25.7539 25.9492 25.7812C26.0859 25.8359 26.1816 25.9316 26.2363 26.0684C26.3184 26.1777 26.3594 26.3418 26.3594 26.5605C26.3594 26.5879 26.3594 26.6289 26.3594 26.6836C26.3594 26.7109 26.3457 26.7383 26.3184 26.7656C26.3184 26.8203 26.3047 26.8613 26.2773 26.8887C26.2773 26.916 26.2773 26.957 26.2773 27.0117L24.1035 33.8203C24.0488 34.0664 23.9941 34.2988 23.9395 34.5176C23.8848 34.709 23.8438 34.873 23.8164 35.0098C23.7344 35.2832 23.6797 35.5156 23.6523 35.707C23.625 35.8984 23.6113 36.0625 23.6113 36.1992C23.6113 36.5273 23.666 36.8281 23.7754 37.1016C23.8848 37.3477 24.0488 37.5664 24.2676 37.7578C24.4863 37.9219 24.7188 38.0449 24.9648 38.127C25.2383 38.209 25.5117 38.25 25.7852 38.25C26.2773 38.25 26.7422 38.1543 27.1797 37.9629C27.6445 37.7441 28.0957 37.4297 28.5332 37.0195C28.7793 36.7734 29.0938 36.4043 29.4766 35.9121C29.8594 35.4199 30.2969 34.8047 30.7891 34.0664L30.1328 33.6562ZM31.4863 19.4238C31.4863 18.8223 31.2676 18.3164 30.8301 17.9062C30.4199 17.4688 29.9141 17.25 29.3125 17.25C28.7109 17.25 28.1914 17.4688 27.7539 17.9062C27.3438 18.3164 27.1387 18.8223 27.1387 19.4238C27.1387 20.0254 27.3438 20.5449 27.7539 20.9824C28.1914 21.4199 28.7109 21.6387 29.3125 21.6387C29.9141 21.6387 30.4199 21.4199 30.8301 20.9824C31.2676 20.5449 31.4863 20.0254 31.4863 19.4238Z" fill="#007AB7"/>
</svg>
