<svg width="57" height="56" viewBox="0 0 57 56" fill="none"
    xmlns="http://www.w3.org/2000/svg">
    <path d="M45.8496 23.8535C45.6855 24.0996 45.4805 24.2363 45.2344 24.2637C44.9883 24.2637 44.7969 24.209 44.6602 24.0996L30.7559 14.3789C30.0723 13.9688 29.3203 13.7637 28.5 13.7637C27.6797 13.7637 26.9277 13.9688 26.2441 14.3789L12.3398 24.0996C12.1484 24.2363 11.9297 24.2773 11.6836 24.2227C11.4375 24.168 11.2598 24.0449 11.1504 23.8535C11.0137 23.6348 10.9727 23.416 11.0273 23.1973C11.082 22.9512 11.2051 22.7598 11.3965 22.623L25.3418 12.9023C26.2988 12.3008 27.3516 12 28.5 12C29.6484 12 30.7012 12.3008 31.6582 12.9023L45.6035 22.623C45.7949 22.7598 45.918 22.9512 45.9727 23.1973C46.0273 23.4434 45.9863 23.6621 45.8496 23.8535ZM42.4863 25.7402V38.25C42.4863 39.6992 41.9668 40.9434 40.9277 41.9824C39.916 42.9941 38.6855 43.5 37.2363 43.5H19.7637C18.3145 43.5 17.0703 42.9941 16.0312 41.9824C15.0195 40.9434 14.5137 39.6992 14.5137 38.25V25.7402L25.3418 18.1523C26.2988 17.5508 27.3516 17.25 28.5 17.25C29.6484 17.25 30.7012 17.5508 31.6582 18.1523L42.4863 25.7402ZM31.9863 41.7363V33H25.0137V41.7363H31.9863ZM40.7637 26.6426L30.7559 19.6289C30.0723 19.2188 29.3203 19.0137 28.5 19.0137C27.6797 19.0137 26.9277 19.2188 26.2441 19.6289L16.2363 26.6426V38.25C16.2363 39.207 16.5781 40.0273 17.2617 40.7109C17.9453 41.3945 18.7793 41.7363 19.7637 41.7363H23.25V33C23.25 32.5078 23.4141 32.0977 23.7422 31.7695C24.0977 31.4141 24.5215 31.2363 25.0137 31.2363H31.9863C32.4785 31.2363 32.8887 31.4141 33.2168 31.7695C33.5723 32.0977 33.75 32.5078 33.75 33V41.7363H37.2363C38.2207 41.7363 39.0547 41.3945 39.7383 40.7109C40.4219 40.0273 40.7637 39.207 40.7637 38.25V26.6426Z" fill="#586264"/>
</svg>
