<svg width="57" height="56" viewBox="0 0 57 56" fill="none"
    xmlns="http://www.w3.org/2000/svg">
    <path d="M22.0605 44.7715L23.0859 46.9863L10.4121 42.3926C9.94727 42.2285 9.60547 41.9277 9.38672 41.4902C9.19531 41.0527 9.18164 40.6016 9.3457 40.1367L13.9805 27.4219L15.0059 29.6777L10.9863 40.7109L22.0605 44.7715ZM12.9141 18.6445L25.0137 44.5664V40.4238L14.5137 17.9062L25.0137 13.0254V11.0977L13.7754 16.3477C13.3379 16.5391 13.0371 16.8672 12.873 17.332C12.709 17.7695 12.7227 18.207 12.9141 18.6445ZM44.25 12V45.2637C44.25 45.7285 44.0723 46.125 43.7168 46.4531C43.3887 46.8086 42.9785 46.9863 42.4863 46.9863H28.5C28.0078 46.9863 27.584 46.8086 27.2285 46.4531C26.9004 46.125 26.7363 45.7285 26.7363 45.2637V12C26.7363 11.5078 26.9004 11.0977 27.2285 10.7695C27.584 10.4141 28.0078 10.2363 28.5 10.2363H42.4863C42.9785 10.2363 43.3887 10.4141 43.7168 10.7695C44.0723 11.0977 44.25 11.5078 44.25 12ZM42.4863 12H28.5V45.2637H42.4863V12Z" fill="#586264"/>
</svg>
