<svg width="57" height="56" viewBox="0 0 57 56" fill="none"
    xmlns="http://www.w3.org/2000/svg">
    <path d="M44.9883 19.5059C44.3047 18.8223 43.4707 18.4805 42.4863 18.4805C41.5293 18.4805 40.709 18.8223 40.0254 19.5059L35.0625 24.4688C34.3789 23.7852 33.5586 23.4434 32.6016 23.4434C31.6445 23.4434 30.8242 23.7852 30.1406 24.4688L24.5625 30.0469C23.3047 29.8008 22.0469 29.8555 20.7891 30.2109C19.5312 30.5664 18.4238 31.2227 17.4668 32.1797C16.7832 32.8633 16.25 33.6152 15.8672 34.4355C15.5117 35.2285 15.2793 36.0625 15.1699 36.9375L14.0215 38.0859C13.6934 38.4141 13.5293 38.8242 13.5293 39.3164C13.5293 39.8086 13.6934 40.2188 14.0215 40.5469L18.2051 44.7305C18.4512 44.9766 18.7383 45.1406 19.0664 45.2227C19.3945 45.3047 19.709 45.291 20.0098 45.1816L31.3711 38.0859L44.9883 24.4688C45.6719 23.7852 46.0137 22.9648 46.0137 22.0078C46.0137 21.0234 45.6719 20.1895 44.9883 19.5059ZM43.7578 23.2383L30.1406 36.8555L19.5996 43.6641L15.293 39.3164L16.8926 37.6758C16.8926 36.9102 17.043 36.1582 17.3438 35.4199C17.6445 34.6816 18.0957 34.0117 18.6973 33.4102C19.5449 32.5625 20.543 32.0156 21.6914 31.7695C22.8672 31.5234 23.9883 31.5918 25.0547 31.9746L31.3711 25.6992C31.6992 25.3711 32.1094 25.207 32.6016 25.207C33.0938 25.207 33.5039 25.3711 33.832 25.6992C34.1875 26.0547 34.3652 26.4785 34.3652 26.9707C34.3652 27.4355 34.1875 27.832 33.832 28.1602L29.5254 32.5078C29.334 32.6719 29.2383 32.877 29.2383 33.123C29.2383 33.3691 29.334 33.5742 29.5254 33.7383C29.6895 33.9023 29.8809 33.9844 30.0996 33.9844C30.3457 33.9844 30.5645 33.9023 30.7559 33.7383L35.0625 29.4316C35.5273 28.9668 35.8281 28.4336 35.9648 27.832C36.1289 27.2305 36.1289 26.6289 35.9648 26.0273L41.2559 20.7363C41.6113 20.4082 42.0215 20.2441 42.4863 20.2441C42.9785 20.2441 43.4023 20.4082 43.7578 20.7363C44.0859 21.0918 44.25 21.5156 44.25 22.0078C44.25 22.4727 44.0859 22.8828 43.7578 23.2383ZM16.2363 8.51367H12.75C12.2578 8.51367 11.834 8.69141 11.4785 9.04688C11.1504 9.375 10.9863 9.77148 10.9863 10.2363V22.5C10.9863 22.9922 11.1504 23.416 11.4785 23.7715C11.834 24.0996 12.2578 24.2637 12.75 24.2637H16.2363C16.7285 24.2637 17.1387 24.0996 17.4668 23.7715C17.8223 23.416 18 22.9922 18 22.5V10.2363C18 9.77148 17.8223 9.375 17.4668 9.04688C17.1387 8.69141 16.7285 8.51367 16.2363 8.51367ZM16.2363 22.5H12.75V10.2363H16.2363V22.5ZM30.0176 8.39062L21.3633 17.0449C21.0352 17.373 20.8711 17.7832 20.8711 18.2754C20.8711 18.7676 21.0352 19.1777 21.3633 19.5059L23.8652 22.0078C24.1934 22.3359 24.5898 22.5 25.0547 22.5C25.5469 22.5 25.9707 22.3359 26.3262 22.0078L34.9805 13.3125C35.3359 12.9844 35.5137 12.5879 35.5137 12.123C35.5137 11.6309 35.3359 11.207 34.9805 10.8516L32.5195 8.39062C32.1641 8.03516 31.7402 7.85742 31.248 7.85742C30.7832 7.85742 30.373 8.03516 30.0176 8.39062ZM25.0957 20.7363L22.5938 18.2754L31.2891 9.62109L33.75 12.082L25.0957 20.7363Z" fill="#586264"/>
</svg>
