<svg width="57" height="56" viewBox="0 0 57 56" fill="none"
    xmlns="http://www.w3.org/2000/svg">
    <path d="M43.0195 16.7578L28.1309 12.082C28.0488 12.0547 27.9668 12.041 27.8848 12.041C27.8027 12.0137 27.7207 12 27.6387 12C27.5293 12 27.4336 12.0137 27.3516 12.041C27.2695 12.041 27.1875 12.0547 27.1055 12.082L12.2168 16.7578C11.8066 16.8945 11.4785 17.1543 11.2324 17.5371C11.0137 17.8926 10.9453 18.2891 11.0273 18.7266L12.627 28.5293C12.9277 30.4707 13.4883 32.3164 14.3086 34.0664C15.1562 35.8164 16.2227 37.4297 17.5078 38.9062C18.7656 40.3828 20.2148 41.6543 21.8555 42.7207C23.4961 43.7871 25.2461 44.6074 27.1055 45.1816C27.1875 45.209 27.2695 45.2227 27.3516 45.2227C27.4336 45.25 27.5293 45.2637 27.6387 45.2637C27.7207 45.2637 27.8027 45.25 27.8848 45.2227C27.9668 45.2227 28.0488 45.209 28.1309 45.1816C29.9902 44.6074 31.7402 43.7871 33.3809 42.7207C35.0215 41.6543 36.4844 40.3828 37.7695 38.9062C39.0547 37.4297 40.1074 35.8164 40.9277 34.0664C41.748 32.3164 42.3223 30.4707 42.6504 28.5293L44.209 18.7266C44.291 18.2891 44.209 17.8926 43.9629 17.5371C43.7441 17.1543 43.4297 16.8945 43.0195 16.7578ZM40.9277 28.2422C40.627 30.0469 40.0938 31.7559 39.3281 33.3691C38.5625 34.9824 37.5918 36.459 36.416 37.7988C35.2676 39.1113 33.9551 40.2598 32.4785 41.2441C30.9746 42.2012 29.3613 42.9531 27.6387 43.5C25.8887 42.9531 24.2617 42.2012 22.7578 41.2441C21.2812 40.2598 19.9688 39.1113 18.8203 37.7988C17.6719 36.459 16.7148 34.9824 15.9492 33.3691C15.1836 31.7559 14.6504 30.0469 14.3496 28.2422L12.75 18.4395L27.6387 13.7637L42.4863 18.4395L40.9277 28.2422ZM27.6387 19.0137C27.8574 19.0137 28.0488 19.0957 28.2129 19.2598C28.4043 19.4238 28.5 19.6289 28.5 19.875V39.1113C28.5 39.3574 28.4043 39.5762 28.2129 39.7676C28.0488 39.9316 27.8574 40.0137 27.6387 40.0137C27.3926 40.0137 27.1738 39.9316 26.9824 39.7676C26.8184 39.5762 26.7363 39.3574 26.7363 39.1113V19.875C26.7363 19.6289 26.8184 19.4238 26.9824 19.2598C27.1738 19.0957 27.3926 19.0137 27.6387 19.0137Z" fill="#586264"/>
</svg>
