<svg width="157" height="52" viewBox="0 0 157 52" fill="none"
	xmlns="http://www.w3.org/2000/svg">
	<path d="M134.94 4.48573H134.185C134.066 4.48573 133.947 4.60481 133.947 4.72389V10.956C133.907 12.2262 133.192 12.9804 132.158 12.9804C131.363 12.9804 130.926 12.7422 130.33 12.0674C130.29 12.0277 130.25 11.988 130.211 11.9086C130.131 11.7895 130.091 11.7498 130.012 11.7498C129.932 11.7498 129.853 11.7498 129.813 11.7895C129.734 11.8292 129.416 12.1071 129.376 12.1468C129.296 12.1865 129.257 12.2659 129.257 12.385C129.257 12.4247 129.296 12.4644 129.296 12.504C130.012 13.4964 130.926 14.0124 132.158 14.0124C133.033 14.0124 133.708 13.7346 134.265 13.2185C134.861 12.6231 135.139 11.7895 135.139 10.7178V4.6842C135.179 4.56512 135.06 4.48573 134.94 4.48573ZM126.872 10.559C125.759 8.09794 124.487 5.27962 124.209 4.6842C124.169 4.60481 124.09 4.56512 123.97 4.56512H123.175C123.096 4.56512 123.016 4.60481 122.977 4.6842C122.579 5.63687 119.757 11.7895 118.922 13.6155C118.883 13.6552 118.883 13.7346 118.922 13.814C118.962 13.8537 119.002 13.8934 119.081 13.8934H119.757C119.876 13.8934 119.996 13.814 120.075 13.6949L121.029 11.5911H126.077L127.031 13.6949C127.071 13.814 127.19 13.8934 127.349 13.8934H128.104C128.183 13.8934 128.223 13.8537 128.263 13.814C128.303 13.7743 128.303 13.6949 128.263 13.6155C127.985 12.9407 127.468 11.7895 126.872 10.559ZM125.64 10.5193H121.506L123.573 5.91473L125.64 10.5193ZM146.149 13.5758C145.871 12.9407 145.314 11.7895 144.758 10.5193C143.645 8.05825 142.373 5.23992 142.095 4.64451C142.055 4.56512 141.976 4.52542 141.856 4.52542H141.061C140.982 4.52542 140.902 4.56512 140.863 4.64451C140.465 5.59718 137.643 11.7498 136.809 13.5758C136.769 13.6155 136.769 13.6949 136.809 13.7743C136.848 13.814 136.888 13.8537 136.968 13.8537H137.643C137.762 13.8537 137.882 13.7743 137.961 13.6552L138.915 11.5514H143.963L144.917 13.6552C144.957 13.7743 145.076 13.8537 145.235 13.8537H145.99C146.07 13.8537 146.109 13.814 146.149 13.7743V13.5758ZM143.486 10.5193H139.352L141.419 5.91473L143.486 10.5193ZM117.611 12.2659C117.571 12.2262 117.531 12.1468 117.492 12.1071C117.412 12.0277 117.333 11.9086 117.333 11.8689C117.293 11.7895 117.174 11.7498 117.094 11.7895C117.054 11.7895 117.015 11.8292 116.975 11.8689C116.061 12.7025 115.226 13.0201 114.193 13.0201C112.166 13.0201 110.615 11.3529 110.615 9.20939V9.13C110.615 6.94679 112.166 5.31931 114.193 5.31931C115.186 5.31931 116.021 5.63687 116.816 6.35138L116.856 6.39107C116.935 6.43076 116.935 6.47046 117.015 6.51015C117.094 6.54985 117.213 6.51015 117.253 6.43076C117.293 6.39107 117.651 5.83534 117.651 5.83534C117.69 5.79565 117.69 5.71626 117.69 5.63687C117.69 5.59718 117.611 5.51779 117.531 5.4384C116.538 4.60481 115.544 4.24756 114.193 4.24756C111.49 4.24756 109.383 6.43076 109.383 9.1697V9.20939C109.383 11.988 111.45 14.0918 114.153 14.0918C115.544 14.0918 116.617 13.6552 117.69 12.7025C117.73 12.6628 117.77 12.6231 117.77 12.5834C117.81 12.504 117.77 12.4247 117.73 12.385L117.611 12.2659ZM114.988 30.1285H113.557C113.437 30.1285 113.278 30.2079 113.239 30.3269C112.762 31.4781 110.337 36.7972 109.542 38.6231L109.343 39.0598C109.304 39.1392 109.304 39.2185 109.383 39.2979C109.423 39.3773 109.502 39.417 109.622 39.417H111.45C111.569 39.417 111.689 39.3376 111.768 39.2185L114.312 33.3437L116.895 39.2185C116.935 39.3376 117.054 39.417 117.213 39.417H119.002C119.081 39.417 119.161 39.3773 119.24 39.2979C119.28 39.2185 119.28 39.1392 119.24 39.0598C118.525 37.5514 115.902 31.5178 115.385 30.2873C115.226 30.2079 115.107 30.1285 114.988 30.1285ZM147.62 30.1285H141.3C141.101 30.1285 140.982 30.2873 140.982 30.446V39.1789C140.982 39.2582 141.022 39.3376 141.061 39.417C141.141 39.4964 141.22 39.4964 141.3 39.4964H147.62C147.818 39.4964 147.938 39.3376 147.938 39.1789V37.9483C147.938 37.7498 147.779 37.6308 147.62 37.6308H143.089V35.7651H146.785C146.984 35.7651 147.103 35.6063 147.103 35.4476V34.217C147.103 34.0185 146.944 33.8995 146.785 33.8995H143.089V32.1132H147.62C147.818 32.1132 147.938 31.9544 147.938 31.7956V30.5651C147.938 30.2873 147.779 30.1285 147.62 30.1285ZM153.582 33.8201C151.952 33.4231 151.555 33.185 151.555 32.6292V32.5895C151.555 32.1529 151.992 31.7956 152.707 31.7956C153.383 31.7956 154.098 32.0338 154.973 32.6292C155.013 32.6689 155.052 32.6689 155.092 32.6689C155.211 32.6689 155.291 32.5895 155.331 32.5102C155.41 32.4308 155.688 31.9941 155.927 31.6369C156.006 31.5178 156.086 31.3987 156.126 31.359C156.205 31.2399 156.324 31.0811 156.126 30.9621C155.132 30.2079 154.019 29.8506 152.747 29.8506C150.76 29.8506 149.369 31.0414 149.369 32.788V32.8277C149.369 34.8124 150.76 35.3285 152.548 35.8048C154.138 36.2018 154.416 36.4796 154.416 36.956V36.9956C154.416 37.5117 153.939 37.8292 153.105 37.8292C152.23 37.8292 151.435 37.5117 150.561 36.8369C150.362 36.6781 150.203 36.7178 150.084 36.8766C150.005 36.956 149.726 37.3529 149.488 37.6705L149.21 38.0277C149.17 38.1071 149.17 38.1468 149.17 38.1865C149.17 38.2262 149.289 38.3453 149.448 38.504C149.488 38.5437 149.567 38.5834 149.607 38.6231C150.601 39.3376 151.793 39.6949 153.105 39.6949C155.291 39.6949 156.642 38.5437 156.642 36.6781V36.6384C156.682 34.9712 155.45 34.2964 153.582 33.8201ZM128.899 30.1285H127.468C127.269 30.1285 127.11 30.2873 127.11 30.4857V35.7254L122.937 30.2476C122.857 30.1682 122.778 30.1285 122.659 30.1285H121.228C121.029 30.1285 120.91 30.2873 120.91 30.446V39.1392C120.91 39.3376 121.069 39.4567 121.228 39.4567H122.659C122.857 39.4567 122.977 39.2979 122.977 39.1392V33.701L127.309 39.3376C127.389 39.417 127.468 39.4567 127.587 39.4567H128.899C129.098 39.4567 129.217 39.2979 129.217 39.1392V30.446C129.257 30.2873 129.098 30.1285 128.899 30.1285ZM135.02 30.1285H131.681C131.602 30.1285 131.522 30.1682 131.443 30.2079C131.363 30.2873 131.363 30.3666 131.363 30.446V39.0598C131.363 39.2582 131.522 39.3773 131.681 39.3773H135.02C137.802 39.3773 139.75 37.4323 139.75 34.6934V34.6537C139.75 33.3437 139.313 32.1926 138.478 31.3193C137.603 30.5651 136.411 30.1285 135.02 30.1285ZM135.02 37.5514H133.51V32.0735H135.02C136.57 32.0735 137.524 33.1056 137.524 34.7727V34.8124C137.484 36.559 136.53 37.5514 135.02 37.5514ZM117.174 24.6903H112.801V17.6644C112.801 17.4659 112.642 17.3071 112.444 17.3071H110.973C110.774 17.3071 110.615 17.4659 110.615 17.6644V26.3575C110.615 26.556 110.774 26.7147 110.973 26.7147H117.134C117.333 26.7147 117.452 26.556 117.452 26.3972V25.0873C117.492 24.8094 117.333 24.6903 117.174 24.6903ZM123.334 17.0292C120.473 17.0292 118.287 19.2124 118.287 21.9514V21.9911C118.287 24.7697 120.473 26.8735 123.334 26.8735C126.196 26.8735 128.382 24.6903 128.382 21.9514V21.9117C128.422 19.1727 126.236 17.0292 123.334 17.0292ZM120.552 21.9911C120.552 20.3636 121.745 19.0934 123.295 19.0934C124.845 19.0934 126.077 20.3636 126.077 22.0308V22.0705C126.077 23.6979 124.884 24.9682 123.334 24.9682C121.744 24.8888 120.552 23.6185 120.552 21.9911ZM133.828 20.9987C132.198 20.6018 131.8 20.3636 131.8 19.8079V19.7682C131.8 19.3315 132.238 18.9743 132.953 18.9743C133.629 18.9743 134.344 19.2124 135.219 19.8079C135.258 19.8476 135.298 19.8476 135.338 19.8476C135.417 19.8476 135.497 19.8079 135.576 19.6888C135.656 19.6094 135.894 19.2521 136.093 18.9346C136.212 18.7758 136.292 18.617 136.332 18.5773C136.411 18.4582 136.53 18.2995 136.332 18.1804C135.338 17.4262 134.225 17.0689 132.953 17.0689C130.966 17.0689 129.575 18.2598 129.575 20.0063V20.046C129.575 22.0308 130.966 22.5468 132.754 23.0231C134.344 23.4201 134.622 23.6979 134.622 24.1743C134.622 24.6903 134.146 25.0079 133.311 25.0079C132.436 25.0079 131.641 24.6903 130.767 24.0155C130.568 23.8964 130.409 23.8964 130.29 24.0552C130.211 24.1346 129.932 24.5315 129.694 24.8491L129.416 25.2063C129.376 25.2857 129.376 25.3254 129.376 25.3651C129.376 25.4445 129.575 25.6033 129.654 25.6827L129.694 25.7224C129.734 25.7621 129.773 25.7621 129.813 25.8018C130.807 26.5163 131.999 26.8735 133.311 26.8735C135.497 26.8735 136.848 25.7224 136.848 23.8567V23.817C136.848 22.1498 135.616 21.475 133.828 20.9987Z" fill="#0076A9"/>
	<g opacity="0.5">
		<mask id="mask0_103_117864" style="mask-type:luminance" maskUnits="userSpaceOnUse" x="109" y="44" width="42" height="6">
			<path d="M109.423 44.5771H150.084V49.6184H109.423V44.5771Z" fill="white"/>
		</mask>
		<g mask="url(#mask0_103_117864)">
			<path d="M109.662 48.7849C109.9 48.9437 110.298 49.0628 110.655 49.0628C111.132 49.0628 111.53 48.904 111.53 48.3483C111.53 47.3162 109.463 47.4353 109.463 46.046C109.463 45.3712 109.98 44.8154 110.854 44.8154C111.291 44.8154 111.689 44.9345 111.888 45.0139V45.5696C111.609 45.4108 111.212 45.3315 110.854 45.3315C110.496 45.3315 110.059 45.4902 110.059 45.9666C110.059 46.9589 112.126 46.8399 112.126 48.3086C112.126 49.1024 111.45 49.5788 110.616 49.5788C110.099 49.5788 109.662 49.42 109.344 49.2612L109.662 48.7849Z" fill="#3E4545"/>
		</g>
		<mask id="mask1_103_117864" style="mask-type:luminance" maskUnits="userSpaceOnUse" x="109" y="44" width="42" height="6">
			<path d="M109.423 44.5771H150.084V49.6184H109.423V44.5771Z" fill="white"/>
		</mask>
		<g mask="url(#mask1_103_117864)">
			<path d="M113 47.2762C113 45.8869 113.954 44.8945 115.305 44.8945C116.657 44.8945 117.571 45.8869 117.571 47.2762C117.571 48.7052 116.577 49.6182 115.305 49.6182C113.954 49.6182 113 48.6655 113 47.2762ZM116.855 47.2762C116.855 46.2441 116.219 45.4503 115.266 45.4503C114.312 45.4503 113.676 46.2045 113.676 47.2762C113.676 48.3877 114.351 49.1022 115.266 49.1022C116.18 49.1022 116.855 48.348 116.855 47.2762Z" fill="#3E4545"/>
		</g>
		<mask id="mask2_103_117864" style="mask-type:luminance" maskUnits="userSpaceOnUse" x="109" y="44" width="42" height="6">
			<path d="M109.423 44.5771H150.084V49.6184H109.423V44.5771Z" fill="white"/>
		</mask>
		<g mask="url(#mask2_103_117864)">
			<path d="M118.524 44.8945H119.081L120.353 46.7602C120.512 47.038 120.631 47.2365 120.79 47.435C120.869 47.2762 120.989 47.0777 121.148 46.7602L122.34 44.8945H122.897V49.5388H122.34V45.9266C122.261 46.0854 122.102 46.3632 122.022 46.4823L120.949 48.1495H120.671L119.478 46.4426C119.399 46.3235 119.28 46.1648 119.2 45.9663V49.5388H118.564V44.8945H118.524Z" fill="#3E4545"/>
		</g>
		<mask id="mask3_103_117864" style="mask-type:luminance" maskUnits="userSpaceOnUse" x="109" y="44" width="42" height="6">
			<path d="M109.423 44.5771H150.084V49.6184H109.423V44.5771Z" fill="white"/>
		</mask>
		<g mask="url(#mask3_103_117864)">
			<path d="M123.891 47.2762C123.891 45.8869 124.845 44.8945 126.196 44.8945C127.547 44.8945 128.462 45.8869 128.462 47.2762C128.462 48.7052 127.468 49.6182 126.196 49.6182C124.884 49.6182 123.891 48.6655 123.891 47.2762ZM127.786 47.2762C127.786 46.2441 127.15 45.4503 126.196 45.4503C125.242 45.4503 124.606 46.2045 124.606 47.2762C124.606 48.3877 125.282 49.1022 126.196 49.1022C127.11 49.1022 127.786 48.348 127.786 47.2762Z" fill="#3E4545"/>
		</g>
		<mask id="mask4_103_117864" style="mask-type:luminance" maskUnits="userSpaceOnUse" x="109" y="44" width="42" height="6">
			<path d="M109.423 44.5771H150.084V49.6184H109.423V44.5771Z" fill="white"/>
		</mask>
		<g mask="url(#mask4_103_117864)">
			<path d="M129.495 48.7849C129.693 48.9437 130.131 49.0628 130.488 49.0628C130.965 49.0628 131.363 48.904 131.363 48.3483C131.363 47.3162 129.296 47.4353 129.296 46.046C129.296 45.3712 129.813 44.8154 130.687 44.8154C131.124 44.8154 131.522 44.9345 131.721 45.0139V45.5696C131.442 45.4108 131.005 45.3315 130.687 45.3315C130.329 45.3315 129.892 45.4902 129.892 45.9666C129.892 46.9589 131.959 46.8399 131.959 48.3086C131.959 49.1024 131.283 49.5788 130.449 49.5788C129.932 49.5788 129.495 49.42 129.177 49.2612L129.495 48.7849Z" fill="#3E4545"/>
		</g>
		<mask id="mask5_103_117864" style="mask-type:luminance" maskUnits="userSpaceOnUse" x="109" y="44" width="42" height="6">
			<path d="M109.423 44.5771H150.084V49.6184H109.423V44.5771Z" fill="white"/>
		</mask>
		<g mask="url(#mask5_103_117864)">
			<path d="M137.961 49.3006C137.484 49.5388 137.047 49.6182 136.609 49.6182C135.178 49.6182 134.344 48.6655 134.344 47.2762C134.344 45.9266 135.298 44.8945 136.689 44.8945C137.166 44.8945 137.603 45.0136 137.881 45.1327V45.6884C137.563 45.5296 137.166 45.4106 136.689 45.4106C135.655 45.4106 135.019 46.2441 135.019 47.2762C135.019 48.348 135.695 49.1022 136.649 49.1022C137.086 49.1022 137.444 48.9831 137.762 48.8243L137.961 49.3006Z" fill="#3E4545"/>
		</g>
		<mask id="mask6_103_117864" style="mask-type:luminance" maskUnits="userSpaceOnUse" x="109" y="44" width="42" height="6">
			<path d="M109.423 44.5771H150.084V49.6184H109.423V44.5771Z" fill="white"/>
		</mask>
		<g mask="url(#mask6_103_117864)">
			<path d="M142.135 49.3006C141.658 49.5388 141.22 49.6182 140.783 49.6182C139.352 49.6182 138.518 48.6655 138.518 47.2762C138.518 45.9266 139.472 44.8945 140.863 44.8945C141.379 44.8945 141.777 45.0136 142.055 45.1327V45.6884C141.737 45.5296 141.34 45.4106 140.863 45.4106C139.829 45.4106 139.193 46.2441 139.193 47.2762C139.193 48.348 139.869 49.1022 140.823 49.1022C141.26 49.1022 141.618 48.9831 141.936 48.8243L142.135 49.3006Z" fill="#3E4545"/>
		</g>
		<mask id="mask7_103_117864" style="mask-type:luminance" maskUnits="userSpaceOnUse" x="109" y="44" width="42" height="6">
			<path d="M109.423 44.5771H150.084V49.6184H109.423V44.5771Z" fill="white"/>
		</mask>
		<g mask="url(#mask7_103_117864)">
			<path d="M142.889 44.5771H143.525V46.6413C143.843 46.4031 144.241 46.1649 144.638 46.1649C145.155 46.1649 145.632 46.4428 145.632 47.3558V49.5787H144.996V47.5146C144.996 47.0382 144.877 46.681 144.439 46.681C144.122 46.681 143.764 46.8794 143.486 47.1176V49.4993H142.85L142.889 44.5771Z" fill="#3E4545"/>
		</g>
		<mask id="mask8_103_117864" style="mask-type:luminance" maskUnits="userSpaceOnUse" x="109" y="44" width="42" height="6">
			<path d="M109.423 44.5771H150.084V49.6184H109.423V44.5771Z" fill="white"/>
		</mask>
		<g mask="url(#mask8_103_117864)">
			<path d="M150.084 49.3006C149.607 49.5388 149.17 49.6182 148.732 49.6182C147.301 49.6182 146.467 48.6655 146.467 47.2762C146.467 45.9266 147.421 44.8945 148.812 44.8945C149.329 44.8945 149.726 45.0136 150.004 45.1327V45.6884C149.686 45.5296 149.289 45.4106 148.891 45.4106C147.858 45.4106 147.222 46.2441 147.222 47.2762C147.222 48.348 147.898 49.1022 148.852 49.1022C149.289 49.1022 149.647 48.9831 149.965 48.8243L150.084 49.3006Z" fill="#3E4545"/>
		</g>
	</g>
	<path d="M99.0091 31.6367H93.683C92.9676 31.6367 92.4111 32.2321 92.4111 32.9466V38.2657C92.4111 38.9802 93.0073 39.5756 93.683 39.5756H99.0091C99.7245 39.5756 100.281 38.9802 100.281 38.2657V32.9863C100.321 32.2321 99.7245 31.6367 99.0091 31.6367Z" fill="#F9BE00"/>
	<path d="M87.7607 31.6367H78.4202C74.9225 31.6367 71.703 30.2077 69.4772 27.9451C67.2514 25.6825 53.7374 5.081 53.7374 5.081C53.4989 4.76345 53.1015 4.56497 52.6643 4.56497H46.0265C45.5893 4.56497 45.1124 4.80314 44.9136 5.20009C44.0392 6.35123 29.2931 26.1589 27.1468 28.3421C24.921 30.6047 21.7015 32.0337 18.2038 32.0337C12.7187 32.0337 8.26704 27.5879 8.26704 22.11C8.26704 16.9894 12.0827 12.8612 17.0511 12.2657C17.7268 12.1863 18.2038 11.6306 18.2038 10.9955V5.59703C18.2038 4.84283 17.6075 4.28711 16.8921 4.28711C7.71059 4.96192 0.357422 12.623 0.357422 22.0703C0.357422 31.9543 8.34654 39.9329 18.2435 39.9329C23.9273 39.9329 29.4124 37.5512 32.7908 33.939C35.6526 30.8428 45.6291 17.5054 48.5703 13.6154C48.7293 13.3772 49.0075 13.0993 49.3255 13.0993C49.6435 13.0993 49.9615 13.3772 50.1205 13.6947C52.6245 17.5848 61.0906 30.565 63.9126 33.6612C67.2514 37.2734 72.7364 39.655 78.4202 39.655H87.7607C88.5159 39.655 89.0724 39.0596 89.0724 38.3451V32.9863C89.0724 32.2321 88.4364 31.6367 87.7607 31.6367Z" fill="#0076A9"/>
</svg>
