<?xml version="1.0" encoding="utf-8"?>
<!-- Generator: Adobe Illustrator 23.0.3, SVG Export Plug-In . SVG Version: 6.00 Build 0)  -->
<svg version="1.1" id="Capa_1" xmlns="http://www.w3.org/2000/svg" xmlns:xlink="http://www.w3.org/1999/xlink" x="0px" y="0px"
	 viewBox="0 0 395 131" style="enable-background:new 0 0 395 131;" xml:space="preserve">
<style type="text/css">
	.st0{fill:#0092C6;}
	.st1{opacity:0.5;}
	.st2{clip-path:url(#SVGID_2_);fill:#EFEFEF;}
	.st3{clip-path:url(#SVGID_4_);fill:#EFEFEF;}
	.st4{clip-path:url(#SVGID_6_);fill:#EFEFEF;}
	.st5{clip-path:url(#SVGID_8_);fill:#EFEFEF;}
	.st6{clip-path:url(#SVGID_10_);fill:#EFEFEF;}
	.st7{clip-path:url(#SVGID_12_);fill:#EFEFEF;}
	.st8{clip-path:url(#SVGID_14_);fill:#EFEFEF;}
	.st9{clip-path:url(#SVGID_16_);fill:#EFEFEF;}
	.st10{clip-path:url(#SVGID_18_);fill:#EFEFEF;}
	.st11{fill:#E8BC28;}
</style>
<g>
	<path class="st0" d="M339.5,11.3h-1.9c-0.3,0-0.6,0.3-0.6,0.6v15.3c0,0.1,0,0.2,0,0.2v0.2l0,0c-0.1,3.2-1.9,5.1-4.5,5.1
		c-2,0-3.1-0.6-4.6-2.3c-0.1-0.1-0.2-0.2-0.3-0.4c-0.2-0.3-0.3-0.4-0.5-0.4s-0.4,0-0.5,0.1c-0.2,0.1-1,0.8-1.1,0.9
		c-0.2,0.1-0.3,0.3-0.3,0.6c0,0.1,0.1,0.2,0.1,0.3c1.8,2.5,4.1,3.8,7.2,3.8c2.2,0,3.9-0.7,5.3-2c1.5-1.5,2.2-3.6,2.2-6.3V11.8
		C340.1,11.5,339.8,11.3,339.5,11.3"/>
	<path class="st0" d="M319.2,26.6c-2.8-6.2-6-13.3-6.7-14.8c-0.1-0.2-0.3-0.3-0.6-0.3h-2c-0.2,0-0.4,0.1-0.5,0.3
		c-1,2.4-8.1,17.9-10.2,22.5c-0.1,0.1-0.1,0.3,0,0.5c0.1,0.1,0.2,0.2,0.4,0.2h1.7c0.3,0,0.6-0.2,0.8-0.5l2.4-5.3h12.7l2.4,5.3
		c0.1,0.3,0.4,0.5,0.8,0.5h1.9c0.2,0,0.3-0.1,0.4-0.2s0.1-0.3,0-0.5C322,32.6,320.7,29.7,319.2,26.6 M316.1,26.5h-10.4l5.2-11.6
		L316.1,26.5z"/>
	<path class="st0" d="M367.7,34.2c-0.7-1.6-2.1-4.5-3.5-7.7c-2.8-6.2-6-13.3-6.7-14.8c-0.1-0.2-0.3-0.3-0.6-0.3h-2
		c-0.2,0-0.4,0.1-0.5,0.3c-1,2.4-8.1,17.9-10.2,22.5c-0.1,0.1-0.1,0.3,0,0.5c0.1,0.1,0.2,0.2,0.4,0.2h1.7c0.3,0,0.6-0.2,0.8-0.5
		l2.4-5.3h12.7l2.4,5.3c0.1,0.3,0.4,0.5,0.8,0.5h1.9c0.2,0,0.3-0.1,0.4-0.2C367.7,34.5,367.7,34.3,367.7,34.2 M361,26.5h-10.4
		l5.2-11.6L361,26.5z"/>
	<path class="st0" d="M295.9,30.9c-0.1-0.1-0.2-0.3-0.3-0.4c-0.2-0.2-0.4-0.5-0.4-0.6c-0.1-0.2-0.4-0.3-0.6-0.2
		c-0.1,0-0.2,0.1-0.3,0.2c-2.3,2.1-4.4,2.9-7,2.9c-5.1,0-9-4.2-9-9.6V23c0-5.5,3.9-9.6,9-9.6c2.5,0,4.6,0.8,6.6,2.6l0,0l0.1,0.1
		c0.2,0.1,0.2,0.2,0.4,0.3c0.2,0.1,0.5,0,0.6-0.2c0.1-0.1,1-1.5,1-1.5c0.1-0.1,0.1-0.3,0.1-0.5c0-0.1-0.2-0.3-0.4-0.5l0,0
		c-2.5-2.1-5-3-8.4-3c-6.8,0-12.1,5.5-12.1,12.4v0.1c0,7,5.2,12.3,12,12.3c3.5,0,6.2-1.1,8.9-3.5c0.1-0.1,0.2-0.2,0.2-0.3
		c0.1-0.2,0-0.4-0.1-0.5L295.9,30.9z"/>
	<path class="st0" d="M289.3,75.9h-3.6c-0.3,0-0.7,0.2-0.8,0.5c-1.2,2.9-7.3,16.3-9.3,20.9l-0.5,1.1c-0.1,0.2-0.1,0.4,0.1,0.6
		c0.1,0.2,0.3,0.3,0.6,0.3h4.6c0.3,0,0.6-0.2,0.8-0.5l6.4-14.8l6.5,14.8c0.1,0.3,0.4,0.5,0.8,0.5h4.5l0,0c0.2,0,0.4-0.1,0.6-0.3
		c0.1-0.2,0.1-0.4,0-0.6c-1.8-3.8-8.4-19-9.7-22.1C289.9,76.1,289.6,75.9,289.3,75.9 M299.2,99.3L299.2,99.3z"/>
	<path class="st0" d="M371.4,75.9h-15.9c-0.5,0-0.8,0.4-0.8,0.8c0,1.9,0,7.6,0,11c0,3.9,0,8.5,0,11c0,0.2,0.1,0.4,0.2,0.6
		c0.2,0.2,0.4,0.2,0.6,0.2h15.9c0.5,0,0.8-0.4,0.8-0.8v-3.1c0-0.5-0.4-0.8-0.8-0.8H360v-4.7c1,0,7.3,0,9.3,0c0.5,0,0.8-0.4,0.8-0.8
		v-3.1c0-0.5-0.4-0.8-0.8-0.8H360v-4.5h11.4c0.5,0,0.8-0.4,0.8-0.8V77C372.2,76.3,371.8,75.9,371.4,75.9"/>
	<path class="st0" d="M386.4,85.2c-4.1-1-5.1-1.6-5.1-3v-0.1c0-1.1,1.1-2,2.9-2c1.7,0,3.5,0.6,5.7,2.1c0.1,0.1,0.2,0.1,0.3,0.1
		c0.3,0,0.5-0.2,0.6-0.4c0.2-0.2,0.9-1.3,1.5-2.2c0.2-0.3,0.4-0.6,0.5-0.7c0.2-0.3,0.5-0.7,0-1c-2.5-1.9-5.3-2.8-8.5-2.8
		c-5,0-8.5,3-8.5,7.4v0.1c0,5,3.5,6.3,8,7.5c4,1,4.7,1.7,4.7,2.9v0.1c0,1.3-1.2,2.1-3.3,2.1c-2.2,0-4.2-0.8-6.4-2.5l0,0
		c-0.5-0.4-0.9-0.3-1.2,0.1c-0.2,0.2-0.9,1.2-1.5,2l-0.7,0.9c-0.1,0.2-0.1,0.3-0.1,0.4s0.3,0.4,0.7,0.8c0.1,0.1,0.3,0.2,0.4,0.3
		c2.5,1.8,5.5,2.7,8.8,2.7c5.5,0,8.9-2.9,8.9-7.6v-0.1C394.2,88.1,391.1,86.4,386.4,85.2"/>
	<path class="st0" d="M324.3,75.9h-3.6c-0.5,0-0.9,0.4-0.9,0.9V90l-10.5-13.8c-0.2-0.2-0.4-0.3-0.7-0.3H305c-0.5,0-0.8,0.4-0.8,0.8
		v21.9c0,0.5,0.4,0.8,0.8,0.8h3.6c0.5,0,0.8-0.4,0.8-0.8c0-3.1,0-11.7,0-13.7l10.9,14.2c0.2,0.2,0.4,0.3,0.7,0.3h3.3
		c0.5,0,0.8-0.4,0.8-0.8V76.7C325.2,76.3,324.8,75.9,324.3,75.9"/>
	<path class="st0" d="M339.7,75.9h-8.4c-0.2,0-0.4,0.1-0.6,0.2c-0.2,0.2-0.2,0.4-0.2,0.6c0,0.8,0,2.3,0,3.1v15.5c0,0.7,0,1.9,0,2.6
		v0.5c0,0.5,0.4,0.8,0.8,0.8h8.4c7,0,11.9-4.9,11.9-11.8v-0.1c0-3.3-1.1-6.2-3.2-8.4C346.2,77,343.2,75.9,339.7,75.9 M339.7,94.6
		h-3.8V80.8h3.8c3.9,0,6.3,2.6,6.3,6.8v0.1C345.9,92.1,343.5,94.6,339.7,94.6"/>
	<path class="st0" d="M294.8,62.2h-11V44.5c0-0.5-0.4-0.9-0.9-0.9h-3.7c-0.5,0-0.9,0.4-0.9,0.9v21.9c0,0.5,0.4,0.9,0.9,0.9h15.5
		c0.5,0,0.8-0.4,0.8-0.8v-3.3C295.6,62.5,295.2,62.2,294.8,62.2"/>
	<path class="st0" d="M310.3,42.9c-7.2,0-12.7,5.5-12.7,12.4v0.1c0,7,5.5,12.3,12.7,12.3S323,62.2,323,55.3v-0.1
		C323.1,48.3,317.6,42.9,310.3,42.9 M303.3,55.4c0-4.1,3-7.3,6.9-7.3s7,3.2,7,7.4v0.1c0,4.1-3,7.3-6.9,7.3
		C306.3,62.7,303.3,59.5,303.3,55.4L303.3,55.4z"/>
	<path class="st0" d="M336.7,52.9c-4.1-1-5.1-1.6-5.1-3v-0.1c0-1.1,1.1-2,2.9-2c1.7,0,3.5,0.6,5.7,2.1c0.1,0.1,0.2,0.1,0.3,0.1
		c0.2,0,0.4-0.1,0.6-0.4c0.2-0.2,0.8-1.1,1.3-1.9c0.3-0.4,0.5-0.8,0.6-0.9c0.2-0.3,0.5-0.7,0-1c-2.5-1.9-5.3-2.8-8.5-2.8
		c-5,0-8.5,3-8.5,7.4v0.1c0,5,3.5,6.3,8,7.5c4,1,4.7,1.7,4.7,2.9l0,0c0,1.3-1.2,2.1-3.3,2.1c-2.2,0-4.2-0.8-6.4-2.5l0,0
		c-0.5-0.3-0.9-0.3-1.2,0.1c-0.2,0.2-0.9,1.2-1.5,2l-0.7,0.9c-0.1,0.2-0.1,0.3-0.1,0.4c0,0.2,0.5,0.6,0.7,0.8l0.1,0.1
		c0.1,0.1,0.2,0.1,0.3,0.2c2.5,1.8,5.5,2.7,8.8,2.7c5.5,0,8.9-2.9,8.9-7.6V60C344.3,55.8,341.2,54.1,336.7,52.9"/>
	<g class="st1">
		<g>
			<g>
				<g>
					<defs>
						<rect id="SVGID_1_" x="275.3" y="112.3" width="102.3" height="12.7"/>
					</defs>
					<clipPath id="SVGID_2_">
						<use xlink:href="#SVGID_1_"  style="overflow:visible;"/>
					</clipPath>
					<path class="st2" d="M275.9,122.9c0.6,0.4,1.6,0.7,2.5,0.7c1.2,0,2.2-0.4,2.2-1.8c0-2.6-5.2-2.3-5.2-5.8c0-1.7,1.3-3.1,3.5-3.1
						c1.1,0,2.1,0.3,2.6,0.5v1.4c-0.7-0.4-1.7-0.6-2.6-0.6s-2,0.4-2,1.6c0,2.5,5.2,2.2,5.2,5.9c0,2-1.7,3.2-3.8,3.2
						c-1.3,0-2.4-0.4-3.2-0.8L275.9,122.9z"/>
				</g>
			</g>
			<g>
				<g>
					<defs>
						<rect id="SVGID_3_" x="275.3" y="112.3" width="102.3" height="12.7"/>
					</defs>
					<clipPath id="SVGID_4_">
						<use xlink:href="#SVGID_3_"  style="overflow:visible;"/>
					</clipPath>
					<path class="st3" d="M284.3,119.1c0-3.5,2.4-6,5.8-6s5.7,2.5,5.7,6c0,3.6-2.5,5.9-5.7,5.9C286.7,125,284.3,122.6,284.3,119.1
						 M294,119.1c0-2.6-1.6-4.6-4-4.6s-4,1.9-4,4.6c0,2.8,1.7,4.6,4,4.6C292.3,123.7,294,121.8,294,119.1"/>
				</g>
			</g>
			<g>
				<g>
					<defs>
						<rect id="SVGID_5_" x="275.3" y="112.3" width="102.3" height="12.7"/>
					</defs>
					<clipPath id="SVGID_6_">
						<use xlink:href="#SVGID_5_"  style="overflow:visible;"/>
					</clipPath>
					<path class="st4" d="M298.2,113.1h1.4l3.2,4.7c0.4,0.7,0.7,1.2,1.1,1.7l0,0c0.2-0.4,0.5-0.9,0.9-1.7l3-4.7h1.4v11.7h-1.4v-7.2
						c0-0.5,0-1.2,0-1.9l0,0c-0.2,0.4-0.6,1.1-0.8,1.4l-2.7,4.2h-0.7l-3-4.3c-0.2-0.3-0.5-0.7-0.7-1.2l0,0c0,0.5,0,1.3,0,1.8v7.2
						h-1.6v-11.7H298.2z"/>
				</g>
			</g>
			<g>
				<g>
					<defs>
						<rect id="SVGID_7_" x="275.3" y="112.3" width="102.3" height="12.7"/>
					</defs>
					<clipPath id="SVGID_8_">
						<use xlink:href="#SVGID_7_"  style="overflow:visible;"/>
					</clipPath>
					<path class="st5" d="M311.7,119.1c0-3.5,2.4-6,5.8-6s5.7,2.5,5.7,6c0,3.6-2.5,5.9-5.7,5.9C314.2,125,311.7,122.6,311.7,119.1
						 M321.5,119.1c0-2.6-1.6-4.6-4-4.6s-4,1.9-4,4.6c0,2.8,1.7,4.6,4,4.6C319.8,123.7,321.5,121.8,321.5,119.1"/>
				</g>
			</g>
			<g>
				<g>
					<defs>
						<rect id="SVGID_9_" x="275.3" y="112.3" width="102.3" height="12.7"/>
					</defs>
					<clipPath id="SVGID_10_">
						<use xlink:href="#SVGID_9_"  style="overflow:visible;"/>
					</clipPath>
					<path class="st6" d="M325.8,122.9c0.5,0.4,1.6,0.7,2.5,0.7c1.2,0,2.2-0.4,2.2-1.8c0-2.6-5.2-2.3-5.2-5.8c0-1.7,1.3-3.1,3.5-3.1
						c1.1,0,2.1,0.3,2.6,0.5v1.4c-0.7-0.4-1.8-0.6-2.6-0.6c-0.9,0-2,0.4-2,1.6c0,2.5,5.2,2.2,5.2,5.9c0,2-1.7,3.2-3.8,3.2
						c-1.3,0-2.4-0.4-3.2-0.8L325.8,122.9z"/>
				</g>
			</g>
			<g>
				<g>
					<defs>
						<rect id="SVGID_11_" x="275.3" y="112.3" width="102.3" height="12.7"/>
					</defs>
					<clipPath id="SVGID_12_">
						<use xlink:href="#SVGID_11_"  style="overflow:visible;"/>
					</clipPath>
					<path class="st7" d="M347.1,124.2c-1.2,0.6-2.3,0.8-3.4,0.8c-3.6,0-5.7-2.4-5.7-5.9c0-3.4,2.4-6,5.9-6c1.2,0,2.3,0.3,3,0.6v1.4
						c-0.8-0.4-1.8-0.7-3-0.7c-2.6,0-4.2,2.1-4.2,4.7c0,2.7,1.7,4.6,4.1,4.6c1.1,0,2-0.3,2.8-0.7L347.1,124.2z"/>
				</g>
			</g>
			<g>
				<g>
					<defs>
						<rect id="SVGID_13_" x="275.3" y="112.3" width="102.3" height="12.7"/>
					</defs>
					<clipPath id="SVGID_14_">
						<use xlink:href="#SVGID_13_"  style="overflow:visible;"/>
					</clipPath>
					<path class="st8" d="M357.6,124.2c-1.2,0.6-2.3,0.8-3.4,0.8c-3.6,0-5.7-2.4-5.7-5.9c0-3.4,2.4-6,5.9-6c1.3,0,2.3,0.3,3,0.6v1.4
						c-0.8-0.4-1.8-0.7-3-0.7c-2.6,0-4.2,2.1-4.2,4.7c0,2.7,1.7,4.6,4.1,4.6c1.1,0,2-0.3,2.8-0.7L357.6,124.2z"/>
				</g>
			</g>
			<g>
				<g>
					<defs>
						<rect id="SVGID_15_" x="275.3" y="112.3" width="102.3" height="12.7"/>
					</defs>
					<clipPath id="SVGID_16_">
						<use xlink:href="#SVGID_15_"  style="overflow:visible;"/>
					</clipPath>
					<path class="st9" d="M359.5,112.3h1.6v5.2c0.8-0.6,1.8-1.2,2.8-1.2c1.3,0,2.5,0.7,2.5,3v5.6h-1.6v-5.2c0-1.2-0.3-2.1-1.4-2.1
						c-0.8,0-1.7,0.5-2.4,1.1v6h-1.6L359.5,112.3L359.5,112.3z"/>
				</g>
			</g>
			<g>
				<g>
					<defs>
						<rect id="SVGID_17_" x="275.3" y="112.3" width="102.3" height="12.7"/>
					</defs>
					<clipPath id="SVGID_18_">
						<use xlink:href="#SVGID_17_"  style="overflow:visible;"/>
					</clipPath>
					<path class="st10" d="M377.6,124.2c-1.2,0.6-2.3,0.8-3.4,0.8c-3.6,0-5.7-2.4-5.7-5.9c0-3.4,2.4-6,5.9-6c1.3,0,2.3,0.3,3,0.6
						v1.4c-0.8-0.4-1.8-0.7-2.8-0.7c-2.6,0-4.2,2.1-4.2,4.7c0,2.7,1.7,4.6,4.1,4.6c1.1,0,2-0.3,2.8-0.7L377.6,124.2z"/>
				</g>
			</g>
		</g>
	</g>
	<path class="st11" d="M249.1,79.7L249.1,79.7h-13.4c-1.8,0-3.2,1.5-3.2,3.3v13.4c0,1.8,1.5,3.3,3.2,3.3h13.4c1.8,0,3.2-1.5,3.2-3.3
		V83.1C252.4,81.2,250.9,79.7,249.1,79.7"/>
	<path class="st0" d="M220.8,79.7h-23.5l0,0c-8.8,0-16.9-3.6-22.5-9.3s-39.6-57.6-39.6-57.6l0,0c-0.6-0.8-1.6-1.3-2.7-1.3h-16.7
		c-1.1,0-2.3,0.6-2.8,1.6c-2.2,2.9-39.3,52.8-44.7,58.3c-5.6,5.7-13.7,9.3-22.5,9.3l0,0c-13.8,0-25-11.2-25-25
		c0-12.9,9.6-23.3,22.1-24.8c1.7-0.2,2.9-1.6,2.9-3.2V14.1c0-1.9-1.5-3.3-3.3-3.3c-23.1,1.7-41.6,21-41.6,44.8c0,24.9,20.1,45,45,45
		c14.3,0,28.1-6,36.6-15.1c7.2-7.8,32.3-41.4,39.7-51.2c0.4-0.6,1.1-1.3,1.9-1.3s1.6,0.7,2,1.5c6.3,9.8,27.6,42.5,34.7,50.3
		c8.4,9.1,22.2,15.1,36.5,15.1l0,0h23.5c1.9,0,3.3-1.5,3.3-3.3V83.1C224.1,81.2,222.5,79.7,220.8,79.7"/>
</g>
</svg>
