<svg width="157" height="46" viewBox="0 0 157 46" fill="none"
    xmlns="http://www.w3.org/2000/svg">
    <path d="M87.7805 27.8829H78.4487C74.9621 27.8829 71.6806 26.4285 69.5271 24.143C67.1685 21.8575 53.5297 0.976589 53.5297 0.976589C53.3246 0.664934 52.9144 0.457163 52.5042 0.457163H45.8387C45.3259 0.457163 44.9157 0.664934 44.7106 1.08047C43.8903 2.22321 29.1235 22.2731 26.8674 24.4546C24.6114 26.7401 21.4324 28.1945 17.9458 28.1945C12.4082 28.1945 7.99869 23.7274 7.99869 18.1176C7.99869 13.0273 11.8955 8.76798 16.8178 8.14467C17.4331 8.04078 17.9458 7.52136 17.9458 6.89804V1.49602C17.9458 0.768819 17.3305 0.145508 16.6127 0.145508C7.28086 0.872704 0 8.66409 0 18.1176C0 28.0906 7.99869 36.1937 17.9458 36.1937C23.6884 36.1937 29.226 33.8043 32.5075 30.1683C35.3788 27.0518 45.4285 13.5467 48.2998 9.59906C48.5049 9.39129 48.71 9.07963 49.0176 9.07963C49.3253 9.07963 49.6329 9.39129 49.838 9.59906C52.4017 13.5467 60.8106 26.6362 63.6819 29.7528C67.066 33.3888 72.501 35.7781 78.2436 35.7781H87.3703C87.4729 35.7781 87.5754 35.7781 87.678 35.7781C88.3958 35.7781 89.0111 35.1548 89.0111 34.4276V29.2334C89.1137 28.5062 88.4984 27.8829 87.7805 27.8829Z" fill="white"/>
    <path d="M135.161 0.354004H134.443C134.34 0.354004 134.238 0.457889 134.238 0.561774C134.238 1.60063 134.238 6.691 134.238 6.691V6.79488V6.89877C134.135 8.14539 133.52 8.97647 132.392 8.97647C131.571 8.97647 131.161 8.7687 130.546 8.0415L130.443 7.93762C130.341 7.83373 130.341 7.83373 130.238 7.72985C130.136 7.72985 130.136 7.72985 130.033 7.83373C129.931 7.83373 129.623 8.14539 129.521 8.24927C129.418 8.35316 129.418 8.35316 129.418 8.45704C129.418 8.45704 129.418 8.56093 129.521 8.56093C130.238 9.59978 131.161 10.1192 132.392 10.1192C133.212 10.1192 133.93 9.80755 134.545 9.28812C135.161 8.66481 135.468 7.83373 135.468 6.79488V0.665659C135.366 0.457889 135.263 0.354004 135.161 0.354004Z" fill="white"/>
    <path d="M125.83 6.48383H121.728L123.779 1.809L125.83 6.48383ZM127.06 6.48383C125.932 3.99059 124.702 1.18569 124.394 0.562381C124.394 0.458496 124.291 0.458496 124.189 0.458496H123.369C123.266 0.458496 123.163 0.562381 123.163 0.562381C122.753 1.49735 119.882 7.73045 119.062 9.60038C119.062 9.70427 119.062 9.70427 119.062 9.80815C119.062 9.91204 119.164 9.91204 119.267 9.91204H119.984C120.087 9.91204 120.292 9.80815 120.292 9.70427L121.215 7.62656H126.342L127.265 9.70427C127.368 9.80815 127.47 9.91204 127.573 9.91204H128.291C128.393 9.91204 128.393 9.91204 128.496 9.80815C128.496 9.70427 128.496 9.70427 128.496 9.60038C128.188 8.97707 127.676 7.83433 127.06 6.48383Z" fill="white"/>
    <path d="M143.77 6.48335H139.668L141.719 1.80852L143.77 6.48335ZM146.334 9.59991C146.026 8.9766 145.513 7.83386 144.898 6.48335C143.77 3.99011 142.54 1.1852 142.232 0.561893C142.232 0.458008 142.129 0.458008 142.027 0.458008H141.206C141.104 0.458008 141.001 0.561893 141.001 0.561893C140.591 1.49686 137.72 7.72998 136.899 9.59991C136.899 9.7038 136.899 9.7038 136.899 9.80768C136.899 9.91157 137.002 9.91157 137.105 9.91157H137.822C137.925 9.91157 138.13 9.80768 138.13 9.7038L139.053 7.62609H144.18L145.103 9.7038C145.206 9.80768 145.308 9.91157 145.411 9.91157H146.129C146.231 9.91157 146.231 9.91157 146.334 9.80768C146.436 9.7038 146.436 9.59991 146.334 9.59991Z" fill="white"/>
    <path d="M117.723 8.24854C117.723 8.24854 117.621 8.14466 117.621 8.04077C117.518 7.93689 117.416 7.833 117.416 7.833C117.313 7.72912 117.211 7.72912 117.211 7.72912C117.108 7.72912 117.108 7.72912 117.108 7.833C116.185 8.66408 115.365 8.97574 114.237 8.97574C112.186 8.97574 110.648 7.31358 110.648 5.13199C110.648 2.9504 112.186 1.28824 114.237 1.28824C115.262 1.28824 116.083 1.5999 116.903 2.32709C117.006 2.43098 117.006 2.43098 117.108 2.43098C117.211 2.43098 117.313 2.43098 117.416 2.32709C117.416 2.22321 117.826 1.80767 117.826 1.70378C117.826 1.70378 117.928 1.5999 117.826 1.49601C117.826 1.49601 117.723 1.39213 117.621 1.28824C116.595 0.457163 115.57 0.145508 114.237 0.145508C111.468 0.145508 109.417 2.32709 109.417 5.13199C109.417 7.93689 111.468 10.1185 114.237 10.1185C115.672 10.1185 116.698 9.70293 117.826 8.66408L117.928 8.5602C117.928 8.45631 117.826 8.45631 117.723 8.24854Z" fill="white"/>
    <path d="M115.057 26.3247H113.621C113.519 26.3247 113.314 26.4286 113.314 26.5325C112.801 27.6752 110.442 33.0772 109.622 34.9472L109.417 35.3627C109.417 35.4666 109.417 35.5705 109.417 35.6744C109.417 35.7782 109.52 35.7782 109.622 35.7782H111.468C111.57 35.7782 111.776 35.6744 111.776 35.5705L114.339 29.649L116.903 35.5705C117.006 35.6744 117.108 35.7782 117.211 35.7782H118.954C119.056 35.7782 119.159 35.7782 119.159 35.6744C119.159 35.5705 119.262 35.4666 119.159 35.3627C118.441 33.8044 115.775 27.7791 115.262 26.5325C115.365 26.4286 115.262 26.3247 115.057 26.3247Z" fill="white"/>
    <path d="M147.874 26.3247H141.516C141.311 26.3247 141.208 26.4286 141.208 26.6364C141.208 27.3636 141.208 29.649 141.208 30.9995C141.208 32.5578 141.208 34.4277 141.208 35.3627C141.208 35.4666 141.208 35.5705 141.311 35.5705C141.413 35.6744 141.413 35.6744 141.516 35.6744H147.874C148.079 35.6744 148.181 35.5705 148.181 35.3627V34.1161C148.181 33.9083 147.976 33.8044 147.874 33.8044H143.362V31.9345C143.772 31.9345 146.233 31.9345 147.053 31.9345C147.258 31.9345 147.361 31.8306 147.361 31.6228V30.3762C147.361 30.1685 147.258 30.0646 147.053 30.0646H143.362V28.2985H147.874C148.079 28.2985 148.181 28.0908 148.181 27.9869V26.7402C148.181 26.4286 148.079 26.3247 147.874 26.3247Z" fill="white"/>
    <path d="M153.923 30.0651C152.282 29.6495 151.872 29.4418 151.872 28.8185C151.872 28.299 152.282 27.9874 153 27.9874C153.615 27.9874 154.436 28.299 155.256 28.8185H155.359C155.461 28.8185 155.564 28.7146 155.666 28.6107C155.769 28.5068 156.076 28.0913 156.281 27.7796C156.384 27.6757 156.487 27.5718 156.487 27.4679C156.589 27.3641 156.692 27.1563 156.487 27.0524C155.461 26.3252 154.333 25.9097 153.103 25.9097C151.154 25.9097 149.718 27.1563 149.718 28.8185C149.718 30.7923 151.154 31.3117 152.897 31.8311C154.538 32.2467 154.743 32.5583 154.743 32.9739C154.743 33.4933 154.231 33.8049 153.41 33.8049C152.59 33.8049 151.667 33.4933 150.846 32.7661C150.641 32.6622 150.436 32.6622 150.334 32.87C150.231 32.9739 149.924 33.3894 149.718 33.7011L149.411 34.1166C149.411 34.2205 149.308 34.2205 149.411 34.3244C149.411 34.4283 149.513 34.5321 149.718 34.636C149.718 34.636 149.821 34.7399 149.924 34.7399C150.949 35.4671 152.18 35.7788 153.41 35.7788C155.564 35.7788 156.999 34.636 156.999 32.7661C156.999 31.2078 155.769 30.4806 153.923 30.0651Z" fill="white"/>
    <path d="M129.104 26.3247H127.668C127.463 26.3247 127.361 26.5325 127.361 26.6364V31.9345L123.156 26.4286C123.054 26.3247 122.951 26.3247 122.849 26.3247H121.413C121.208 26.3247 121.105 26.5325 121.105 26.6364V35.4666C121.105 35.6744 121.208 35.7783 121.413 35.7783H122.849C123.054 35.7783 123.156 35.6744 123.156 35.4666C123.156 34.22 123.156 30.7918 123.156 29.9607L127.463 35.6744C127.566 35.7783 127.668 35.7783 127.771 35.7783H129.104C129.309 35.7783 129.412 35.6744 129.412 35.4666V26.6364C129.412 26.4286 129.309 26.3247 129.104 26.3247Z" fill="white"/>
    <path d="M135.154 33.8044H133.615V28.2985H135.154C136.692 28.2985 137.615 29.3374 137.615 31.1034C137.717 32.7656 136.794 33.8044 135.154 33.8044ZM135.154 26.3247H131.77C131.667 26.3247 131.564 26.3247 131.564 26.4286C131.462 26.5325 131.462 26.5325 131.462 26.6364C131.462 26.948 131.462 27.5713 131.462 27.883V34.1161C131.462 34.4277 131.462 34.8433 131.462 35.1549V35.4666C131.462 35.6744 131.667 35.7783 131.77 35.7783H135.154C137.922 35.7783 139.871 33.8044 139.871 30.9995C139.871 29.649 139.461 28.5063 138.64 27.6752C137.82 26.7402 136.589 26.3247 135.154 26.3247Z" fill="white"/>
    <path d="M117.313 20.8177H112.903V13.7536C112.903 13.5458 112.698 13.4419 112.596 13.4419H111.058C110.853 13.4419 110.75 13.6497 110.75 13.7536V22.4799C110.75 22.6877 110.955 22.7916 111.058 22.7916H117.313C117.518 22.7916 117.621 22.5838 117.621 22.4799V21.1294C117.621 20.9216 117.518 20.8177 117.313 20.8177Z" fill="white"/>
    <path d="M120.698 18.0145C120.698 16.3523 121.929 15.1057 123.467 15.1057C125.005 15.1057 126.236 16.3523 126.236 18.0145C126.236 19.6766 125.005 20.9232 123.467 20.9232C121.929 21.0271 120.698 19.7805 120.698 18.0145ZM123.467 13.1318C120.596 13.1318 118.34 15.3134 118.34 18.1183C118.34 20.9232 120.493 23.1048 123.467 23.1048C126.339 23.1048 128.595 20.9232 128.595 18.1183C128.595 15.2095 126.441 13.1318 123.467 13.1318Z" fill="white"/>
    <path d="M134.032 17.0783C132.392 16.6627 131.981 16.4549 131.981 15.8316C131.981 15.3122 132.392 15.0006 133.109 15.0006C133.725 15.0006 134.545 15.3122 135.365 15.8316H135.468C135.571 15.8316 135.673 15.7278 135.776 15.6239C135.878 15.52 136.083 15.2083 136.288 14.8967C136.391 14.6889 136.493 14.585 136.493 14.4811C136.596 14.3772 136.699 14.1695 136.493 14.0656C135.468 13.3384 134.34 12.9229 133.109 12.9229C131.161 12.9229 129.725 14.1695 129.725 15.8316C129.725 17.8055 131.161 18.3249 132.904 18.8443C134.545 19.2598 134.75 19.5715 134.75 19.987C134.75 20.5065 134.237 20.8181 133.417 20.8181C132.597 20.8181 131.674 20.5065 130.853 19.7793C130.648 19.6754 130.443 19.6754 130.341 19.8832C130.238 19.987 129.93 20.4026 129.725 20.7142L129.418 21.1298C129.418 21.2337 129.315 21.2337 129.418 21.3376C129.418 21.4414 129.623 21.5453 129.725 21.6492H129.828L129.93 21.7531C130.956 22.4803 132.186 22.7919 133.417 22.7919C135.571 22.7919 137.006 21.6492 137.006 19.7793C137.109 18.221 135.878 17.5977 134.032 17.0783Z" fill="white"/>
    <path d="M99.0591 35.8833H93.7267C93.0088 35.8833 92.3936 35.26 92.3936 34.5328V29.1308C92.3936 28.4036 93.0088 27.7803 93.7267 27.7803H99.0591C99.777 27.7803 100.392 28.4036 100.392 29.1308V34.5328C100.392 35.26 99.777 35.8833 99.0591 35.8833Z" fill="#F9BE00"/>
    <path d="M110.954 41.1802C110.134 41.1802 109.621 41.6996 109.621 42.3229C109.621 43.6734 111.569 43.5695 111.569 44.5045C111.569 45.0239 111.159 45.1278 110.749 45.1278C110.339 45.1278 110.031 45.0239 109.826 44.8161L109.621 45.2316C109.929 45.4394 110.339 45.5433 110.852 45.5433C111.672 45.5433 112.287 45.1278 112.287 44.2967C112.287 42.9462 110.339 43.0501 110.339 42.1151C110.339 41.6996 110.749 41.4918 111.057 41.4918C111.364 41.4918 111.775 41.5957 112.082 41.6996V41.1802C111.775 41.2841 111.364 41.1802 110.954 41.1802Z" fill="white"/>
    <path d="M115.062 41.1802C113.831 41.1802 112.908 42.1151 112.908 43.4656C112.908 44.8161 113.831 45.7511 115.062 45.7511C116.292 45.7511 117.215 44.8161 117.215 43.4656C117.215 42.1151 116.395 41.1802 115.062 41.1802ZM115.062 45.2317C114.139 45.2317 113.523 44.5045 113.523 43.4656C113.523 42.4268 114.139 41.6996 115.062 41.6996C116.087 41.6996 116.6 42.4268 116.6 43.4656C116.6 44.5045 115.985 45.2317 115.062 45.2317Z" fill="white"/>
    <path d="M122.442 41.2837H121.929L120.801 43.0497C120.596 43.3614 120.493 43.5692 120.391 43.6731C120.288 43.4653 120.186 43.3614 119.981 43.0497L118.75 41.2837H118.237V45.7508H118.853V43.0497C118.853 42.842 118.853 42.5303 118.853 42.4264C118.955 42.6342 119.058 42.7381 119.16 42.9459L120.288 44.608H120.596L121.621 42.9459C121.724 42.842 121.826 42.6342 121.929 42.4264C121.929 42.6342 121.929 42.9459 121.929 43.1536V45.8547H122.544V41.2837H122.442Z" fill="white"/>
    <path d="M125.517 41.1802C124.286 41.1802 123.363 42.1151 123.363 43.4656C123.363 44.8161 124.286 45.7511 125.517 45.7511C126.747 45.7511 127.67 44.8161 127.67 43.4656C127.67 42.1151 126.747 41.1802 125.517 41.1802ZM125.517 45.2317C124.594 45.2317 123.979 44.5045 123.979 43.4656C123.979 42.4268 124.594 41.6996 125.517 41.6996C126.542 41.6996 127.055 42.4268 127.055 43.4656C127.055 44.5045 126.44 45.2317 125.517 45.2317Z" fill="white"/>
    <path d="M129.83 41.1802C129.01 41.1802 128.497 41.6996 128.497 42.3229C128.497 43.6734 130.445 43.5695 130.445 44.5045C130.445 45.0239 130.035 45.1278 129.625 45.1278C129.215 45.1278 128.907 45.0239 128.702 44.8161L128.497 45.2316C128.805 45.4394 129.215 45.5433 129.728 45.5433C130.548 45.5433 131.163 45.1278 131.163 44.2967C131.163 42.9462 129.215 43.0501 129.215 42.1151C129.215 41.6996 129.625 41.4918 129.933 41.4918C130.24 41.4918 130.651 41.5957 130.958 41.6996V41.1802C130.651 41.2841 130.24 41.1802 129.83 41.1802Z" fill="white"/>
    <path d="M135.463 41.1802C134.13 41.1802 133.207 42.219 133.207 43.4657C133.207 44.8162 134.027 45.6473 135.361 45.6473C135.771 45.6473 136.181 45.5434 136.694 45.3356L136.489 44.8162C136.181 45.024 135.873 45.1279 135.463 45.1279C134.54 45.1279 133.925 44.4007 133.925 43.3618C133.925 42.4268 134.54 41.5957 135.566 41.5957C135.976 41.5957 136.386 41.6996 136.694 41.9074V41.388C136.386 41.2841 135.976 41.1802 135.463 41.1802Z" fill="white"/>
    <path d="M139.466 41.1802C138.133 41.1802 137.21 42.219 137.21 43.4657C137.21 44.8162 138.03 45.6473 139.363 45.6473C139.774 45.6473 140.184 45.5434 140.697 45.3356L140.491 44.8162C140.184 45.024 139.876 45.1279 139.466 45.1279C138.543 45.1279 137.928 44.4007 137.928 43.3618C137.928 42.4268 138.543 41.5957 139.569 41.5957C139.979 41.5957 140.389 41.6996 140.697 41.9074V41.388C140.389 41.2841 139.979 41.1802 139.466 41.1802Z" fill="white"/>
    <path d="M142.032 40.9722H141.417V45.7509H142.032V43.4654C142.34 43.2577 142.648 43.0499 142.955 43.0499C143.365 43.0499 143.468 43.3616 143.468 43.881V45.8548H144.083V43.6732C144.083 42.8421 143.57 42.5305 143.16 42.5305C142.75 42.5305 142.442 42.7382 142.032 42.946V40.9722Z" fill="white"/>
    <path d="M147.054 41.1802C145.721 41.1802 144.798 42.219 144.798 43.4657C144.798 44.8162 145.618 45.6473 146.951 45.6473C147.362 45.6473 147.772 45.5434 148.284 45.3356L148.079 44.8162C147.772 45.024 147.464 45.1279 147.054 45.1279C146.131 45.1279 145.516 44.4007 145.516 43.3618C145.516 42.4268 146.131 41.5957 147.156 41.5957C147.567 41.5957 147.977 41.6996 148.284 41.9074V41.388C147.874 41.2841 147.464 41.1802 147.054 41.1802Z" fill="white"/>
</svg>
