<svg width="105" height="36" viewBox="0 0 105 36" fill="none"
    xmlns="http://www.w3.org/2000/svg">
    <path d="M90.2468 3.10532H89.7417C89.662 3.10532 89.5822 3.18776 89.5822 3.2702V7.5847C89.5557 8.46409 89.0772 8.98623 88.386 8.98623C87.8544 8.98623 87.562 8.82135 87.1632 8.35417C87.1367 8.32669 87.1101 8.29921 87.0835 8.24425C87.0303 8.1618 87.0038 8.13432 86.9506 8.13432C86.8974 8.13432 86.8443 8.13432 86.8177 8.1618C86.7645 8.18928 86.5519 8.38165 86.5253 8.40913C86.4721 8.43661 86.4455 8.49157 86.4455 8.57402C86.4455 8.6015 86.4721 8.62898 86.4721 8.65646C86.9506 9.34348 87.562 9.70073 88.386 9.70073C88.9708 9.70073 89.4227 9.50837 89.7949 9.15112C90.1936 8.7389 90.3797 8.1618 90.3797 7.41982V3.24272C90.4063 3.16028 90.3265 3.10532 90.2468 3.10532ZM84.8506 7.3099C84.1063 5.60608 83.2557 3.65493 83.0696 3.24272C83.043 3.18776 82.9898 3.16028 82.9101 3.16028H82.3784C82.3253 3.16028 82.2721 3.18776 82.2455 3.24272C81.9797 3.90226 80.0924 8.1618 79.5341 9.42593C79.5076 9.45341 79.5076 9.50837 79.5341 9.56333C79.5607 9.59081 79.5873 9.61829 79.6405 9.61829H80.0924C80.1721 9.61829 80.2519 9.56333 80.305 9.48089L80.943 8.0244H84.319L84.9569 9.48089C84.9835 9.56333 85.0633 9.61829 85.1696 9.61829H85.6746C85.7278 9.61829 85.7544 9.59081 85.781 9.56333C85.8076 9.53585 85.8076 9.48089 85.781 9.42593C85.5949 8.95875 85.2493 8.1618 84.8506 7.3099ZM84.0265 7.28241H81.262L82.6443 4.09463L84.0265 7.28241ZM97.743 9.39844C97.5569 8.95875 97.1848 8.1618 96.8126 7.28241C96.0683 5.5786 95.2177 3.62745 95.0316 3.21524C95.005 3.16028 94.9519 3.1328 94.8721 3.1328H94.3405C94.2873 3.1328 94.2341 3.16028 94.2076 3.21524C93.9417 3.87478 92.0544 8.13432 91.4962 9.39844C91.4696 9.42593 91.4696 9.48089 91.4962 9.53585C91.5227 9.56333 91.5493 9.59081 91.6025 9.59081H92.0544C92.1341 9.59081 92.2139 9.53585 92.267 9.45341L92.905 7.99692H96.281L96.9189 9.45341C96.9455 9.53585 97.0253 9.59081 97.1316 9.59081H97.6367C97.6898 9.59081 97.7164 9.56333 97.743 9.53585V9.39844ZM95.962 7.28241H93.1974L94.5797 4.09463L95.962 7.28241ZM78.6569 8.49157C78.6303 8.46409 78.6038 8.40913 78.5772 8.38165C78.524 8.32669 78.4709 8.24425 78.4709 8.21677C78.4443 8.1618 78.3645 8.13432 78.3114 8.1618C78.2848 8.1618 78.2582 8.18928 78.2316 8.21677C77.6202 8.79386 77.062 9.01371 76.3708 9.01371C75.0151 9.01371 73.9784 7.85951 73.9784 6.37554V6.32058C73.9784 4.80913 75.0151 3.68241 76.3708 3.68241C77.0354 3.68241 77.5936 3.90226 78.1253 4.39692L78.1519 4.4244C78.205 4.45188 78.205 4.47936 78.2582 4.50684C78.3114 4.53432 78.3911 4.50684 78.4177 4.45188C78.4443 4.4244 78.6835 4.03967 78.6835 4.03967C78.7101 4.01219 78.7101 3.95722 78.7101 3.90226C78.7101 3.87478 78.6569 3.81982 78.6038 3.76486C77.9392 3.18776 77.2746 2.94043 76.3708 2.94043C74.5632 2.94043 73.1544 4.45188 73.1544 6.34806V6.37554C73.1544 8.29921 74.5367 9.7557 76.3443 9.7557C77.2746 9.7557 77.9924 9.45341 78.7101 8.79386C78.7367 8.76638 78.7632 8.7389 78.7632 8.71142C78.7898 8.65646 78.7633 8.6015 78.7367 8.57402L78.6569 8.49157ZM76.9025 20.858H75.9455C75.8658 20.858 75.7595 20.9129 75.7329 20.9954C75.4139 21.7923 73.7924 25.4748 73.2607 26.7389L73.1278 27.0412C73.1012 27.0962 73.1012 27.1511 73.1544 27.2061C73.181 27.261 73.2341 27.2885 73.3139 27.2885H74.5367C74.6164 27.2885 74.6962 27.2336 74.7493 27.1511L76.4506 23.0839L78.1784 27.1511C78.205 27.2336 78.2848 27.2885 78.3911 27.2885H79.5873C79.6405 27.2885 79.6936 27.261 79.7468 27.2061C79.7734 27.1511 79.7734 27.0962 79.7468 27.0412C79.2683 25.9969 77.5139 21.8198 77.1683 20.9679C77.062 20.913 76.9822 20.858 76.9025 20.858ZM98.7265 20.858H94.5C94.367 20.858 94.2873 20.9679 94.2873 21.0778V27.1236C94.2873 27.1786 94.3139 27.2336 94.3405 27.2885C94.3936 27.3435 94.4468 27.3435 94.5 27.3435H98.7265C98.8595 27.3435 98.9392 27.2336 98.9392 27.1236V26.2717C98.9392 26.1343 98.8329 26.0519 98.7265 26.0519H95.6962V24.7603H98.1683C98.3012 24.7603 98.381 24.6504 98.381 24.5404V23.6885C98.381 23.5511 98.2746 23.4687 98.1683 23.4687H95.6962V22.232H98.7265C98.8595 22.232 98.9392 22.1221 98.9392 22.0122V21.1603C98.9392 20.9679 98.8329 20.858 98.7265 20.858ZM102.714 23.4137C101.624 23.1389 101.358 22.974 101.358 22.5893V22.5618C101.358 22.2595 101.651 22.0122 102.129 22.0122C102.581 22.0122 103.059 22.1771 103.644 22.5893C103.671 22.6168 103.697 22.6168 103.724 22.6168C103.804 22.6168 103.857 22.5618 103.884 22.5068C103.937 22.4519 104.123 22.1496 104.282 21.9023C104.335 21.8198 104.389 21.7374 104.415 21.7099C104.468 21.6275 104.548 21.5175 104.415 21.4351C103.751 20.9129 103.006 20.6656 102.156 20.6656C100.827 20.6656 99.8962 21.49 99.8962 22.6992V22.7267C99.8962 24.1007 100.827 24.458 102.023 24.7878C103.086 25.0626 103.272 25.2549 103.272 25.5847V25.6122C103.272 25.9694 102.953 26.1893 102.395 26.1893C101.81 26.1893 101.278 25.9694 100.694 25.5023C100.561 25.3923 100.454 25.4198 100.375 25.5297C100.321 25.5847 100.135 25.8595 99.9759 26.0794L99.7898 26.3267C99.7632 26.3817 99.7632 26.4091 99.7632 26.4366C99.7632 26.4641 99.843 26.5465 99.9493 26.6565C99.9759 26.6839 100.029 26.7114 100.056 26.7389C100.72 27.2336 101.518 27.4809 102.395 27.4809C103.857 27.4809 104.761 26.6839 104.761 25.3923V25.3649C104.787 24.2107 103.963 23.7435 102.714 23.4137ZM86.2063 20.858H85.2493C85.1164 20.858 85.0101 20.9679 85.0101 21.1053V24.7328L82.2189 20.9404C82.1658 20.8855 82.1126 20.858 82.0329 20.858H81.0759C80.943 20.858 80.8633 20.9679 80.8633 21.0778V27.0962C80.8633 27.2336 80.9696 27.316 81.0759 27.316H82.0329C82.1658 27.316 82.2455 27.2061 82.2455 27.0962V23.3313L85.143 27.2336C85.1962 27.2885 85.2493 27.316 85.3291 27.316H86.2063C86.3392 27.316 86.4189 27.2061 86.4189 27.0962V21.0778C86.4455 20.9679 86.3392 20.858 86.2063 20.858ZM90.3 20.858H88.067C88.0139 20.858 87.9607 20.8855 87.9076 20.9129C87.8544 20.9679 87.8544 21.0229 87.8544 21.0778V27.0412C87.8544 27.1786 87.9607 27.261 88.067 27.261H90.3C92.1607 27.261 93.4633 25.9145 93.4633 24.0183V23.9908C93.4633 23.0839 93.1708 22.287 92.6126 21.6824C92.0278 21.1603 91.2303 20.858 90.3 20.858ZM90.3 25.9969H89.2898V22.2046H90.3C91.3367 22.2046 91.9746 22.9191 91.9746 24.0733V24.1007C91.9481 25.3099 91.3101 25.9969 90.3 25.9969ZM78.3645 17.0931H75.4405V12.229C75.4405 12.0916 75.3341 11.9817 75.2012 11.9817H74.2177C74.0848 11.9817 73.9784 12.0916 73.9784 12.229V18.2473C73.9784 18.3847 74.0848 18.4946 74.2177 18.4946H78.3379C78.4709 18.4946 78.5506 18.3847 78.5506 18.2748V17.3679C78.5772 17.1755 78.4708 17.0931 78.3645 17.0931ZM82.4848 11.7893C80.5708 11.7893 79.1088 13.3007 79.1088 15.1969V15.2244C79.1088 17.1481 80.5708 18.6046 82.4848 18.6046C84.3987 18.6046 85.8607 17.0931 85.8607 15.1969V15.1694C85.8873 13.2733 84.4253 11.7893 82.4848 11.7893ZM80.624 15.2244C80.624 14.0977 81.4215 13.2183 82.4582 13.2183C83.4949 13.2183 84.319 14.0977 84.319 15.2519V15.2794C84.319 16.4061 83.5215 17.2855 82.4848 17.2855C81.4215 17.2305 80.624 16.3511 80.624 15.2244ZM89.5025 14.5374C88.4126 14.2626 88.1468 14.0977 88.1468 13.7129V13.6855C88.1468 13.3832 88.4392 13.1358 88.9177 13.1358C89.3696 13.1358 89.8481 13.3007 90.4329 13.7129C90.4595 13.7404 90.486 13.7404 90.5126 13.7404C90.5658 13.7404 90.6189 13.7129 90.6721 13.6305C90.7253 13.5755 90.8848 13.3282 91.0177 13.1084C91.0974 12.9984 91.1506 12.8885 91.1772 12.861C91.2303 12.7786 91.3101 12.6687 91.1772 12.5862C90.5126 12.0641 89.7683 11.8168 88.9177 11.8168C87.5886 11.8168 86.6582 12.6412 86.6582 13.8504V13.8778C86.6582 15.2519 87.5886 15.6091 88.7848 15.9389C89.8481 16.2137 90.0341 16.4061 90.0341 16.7358C90.0341 17.0931 89.7151 17.3129 89.1569 17.3129C88.5721 17.3129 88.0405 17.0931 87.4557 16.6259C87.3227 16.5435 87.2164 16.5435 87.1367 16.6534C87.0835 16.7084 86.8974 16.9832 86.7379 17.203L86.5519 17.4504C86.5253 17.5053 86.5253 17.5328 86.5253 17.5603C86.5253 17.6152 86.6582 17.7252 86.7114 17.7801L86.7379 17.8076C86.7645 17.8351 86.7911 17.8351 86.8177 17.8626C87.4822 18.3572 88.2797 18.6046 89.1569 18.6046C90.6189 18.6046 91.5227 17.8076 91.5227 16.516V16.4885C91.5227 15.3343 90.6987 14.8671 89.5025 14.5374Z" fill="#0076A9"/>
    <path d="M66.2164 21.9023H62.6543C62.1759 21.9023 61.8037 22.3146 61.8037 22.8092V26.4917C61.8037 26.9863 62.2024 27.3985 62.6543 27.3985H66.2164C66.6949 27.3985 67.067 26.9863 67.067 26.4917V22.8367C67.0936 22.3146 66.6949 21.9023 66.2164 21.9023Z" fill="#F9BE00"/>
    <path d="M58.6937 21.9024H52.4469C50.1076 21.9024 47.9545 20.9131 46.4658 19.3466C44.9772 17.7802 35.9393 3.51764 35.9393 3.51764C35.7798 3.29779 35.5139 3.16038 35.2215 3.16038H30.7823C30.4899 3.16038 30.1709 3.32527 30.038 3.60008C29.4532 4.39703 19.5912 18.11 18.1557 19.6215C16.6671 21.1879 14.5139 22.1772 12.1747 22.1772C8.50635 22.1772 5.52913 19.0993 5.52913 15.307C5.52913 11.7619 8.08103 8.9039 11.4038 8.49168C11.8557 8.43672 12.1747 8.05199 12.1747 7.61229V3.87489C12.1747 3.35275 11.776 2.96802 11.2975 2.96802C5.15698 3.43519 0.239258 8.73901 0.239258 15.2795C0.239258 22.1222 5.5823 27.6459 12.2013 27.6459C16.0026 27.6459 19.6709 25.997 21.9304 23.4963C23.8443 21.3528 30.5165 12.1192 32.4836 9.42603C32.5899 9.26115 32.776 9.06878 32.9886 9.06878C33.2013 9.06878 33.4139 9.26115 33.5203 9.481C35.195 12.1741 40.857 21.1604 42.7443 23.3039C44.9772 25.8047 48.6456 27.4535 52.4469 27.4535H58.6937C59.1988 27.4535 59.5709 27.0413 59.5709 26.5466V22.8367C59.5709 22.3146 59.1456 21.9024 58.6937 21.9024Z" fill="#0076A9"/>
</svg>
