<svg width="107" height="31" viewBox="0 0 107 31" fill="none"
    xmlns="http://www.w3.org/2000/svg">
    <path d="M18.9294 0H0.134766V18.9577H18.9294V0Z" fill="url(#paint0_linear_192_29041)"/>
    <path d="M18.5369 0.331299H0.474609V18.3387H18.5369V0.331299Z" fill="url(#paint1_linear_192_29041)"/>
    <path d="M16.8114 2.10449H9.33398V8.48095H16.8114V2.10449Z" fill="url(#paint2_linear_192_29041)"/>
    <path d="M6.29361 10.9841H1.94727V16.2666H6.29361V10.9841Z" fill="url(#paint3_linear_192_29041)"/>
    <path d="M10.6123 5.8457H3.20605V10.4374H10.6123V5.8457Z" fill="url(#paint4_linear_192_29041)"/>
    <path d="M11.3541 13.9468H7.29272V16.6619H11.3541V13.9468Z" fill="url(#paint5_linear_192_29041)"/>
    <path d="M14.7883 4.98712C13.6285 5.67387 13.2723 5.73377 12.0095 6.49239C12.7458 5.68985 12.9991 5.34647 13.4544 4.67568C12.2906 4.73557 10.6003 4.87931 9.39697 5.14683C10.446 4.57985 12.5281 3.95299 13.6285 3.80126C13.3752 3.44591 11.3128 2.31994 10.7983 2.10034C12.4331 2.22811 14.4281 2.843 15.394 3.44191C15.774 3.32213 16.1698 3.31414 16.8784 3.25026C16.6963 3.5617 16.6923 3.74536 15.9957 4.20853C16.1896 4.72759 15.7265 7.58641 15.3465 8.34105C15.3346 7.1512 15.2317 5.64193 14.7883 4.98712Z" fill="white"/>
    <path d="M6.29435 15.2367C5.62933 14.9851 5.14641 14.6977 4.61994 14.1986C4.77827 13.7594 4.96036 13.416 5.25328 12.9728C4.71098 13.0526 4.31118 13.1165 3.84408 13.2044C3.46408 12.5336 3.28991 11.8867 3.09594 10.9844C2.99302 11.9386 2.95344 12.6214 3.08803 13.38C2.66052 13.4998 2.35572 13.6036 2.00342 13.7673C2.49822 14.0708 2.89802 14.3064 3.44824 14.5659C3.74512 15.2087 4.04992 15.6399 4.54868 16.1351C4.43389 15.7158 4.40222 15.3804 4.44972 14.9372C5.06724 15.1209 5.59371 15.2127 6.29435 15.2367Z" fill="white"/>
    <path d="M8.03205 5.73364C7.82622 6.00515 7.58475 6.51223 7.51746 6.74781C9.23541 6.98338 10.6129 7.87377 10.6129 7.87377C9.1127 7.60625 8.32102 7.6382 7.75892 7.6901C7.20079 7.74201 7.08599 7.80989 7.08599 7.80989C6.68223 8.70427 6.43681 10.2455 6.43681 10.2455C6.16368 9.57868 5.76784 8.24909 5.76784 8.24909C5.01178 8.65635 3.26611 10.3134 3.26611 10.3134C4.22405 8.37686 5.19782 7.49446 5.19782 7.49446C4.86136 7.15108 3.98655 6.98338 3.34528 6.95144C3.67779 6.81568 4.53281 6.65597 5.18991 6.62403C5.847 6.60407 6.24681 6.64399 6.24681 6.64399C6.83265 6.17285 7.7233 5.77756 8.03205 5.73364Z" fill="white"/>
    <path d="M9.8528 14.0348C9.548 14.45 9.28674 14.7774 8.95424 15.1567C8.37631 15.3204 7.91317 15.3803 7.35107 15.3803C7.69546 15.56 8.03192 15.6678 8.39214 15.7437C8.03192 16.0711 7.72712 16.3067 7.37482 16.5343C7.96067 16.3945 8.73256 16.143 9.31049 15.7996C9.61133 15.8116 9.89238 15.7916 10.0982 15.7517C10.0428 15.576 10.0111 15.4442 9.96759 15.2166C10.5099 14.7934 10.9018 14.4101 11.353 13.9509C10.8741 14.2863 10.4584 14.5419 9.90426 14.8054C9.88051 14.5459 9.86467 14.3262 9.8528 14.0348Z" fill="white"/>
    <path d="M2.24047 25.2543C2.19297 24.847 2.09401 24.4517 1.51212 24.4517C1.1519 24.4517 0.843144 24.6274 0.843144 25.0347C0.843144 25.9929 2.99257 25.9889 2.99257 27.3664C2.99257 28.2448 2.39089 28.684 1.51212 28.684C0.890645 28.684 0.340424 28.4085 0 28.0093L0.360217 27.4543C0.661057 27.8056 1.11628 28.0093 1.54379 28.0093C1.95942 28.0093 2.24838 27.8456 2.24838 27.4503C2.24838 26.5918 0.106877 26.5519 0.106877 25.0945C0.106877 24.2042 0.771893 23.7849 1.52003 23.7849C2.59673 23.7849 2.90548 24.5356 2.94507 25.1504L2.24047 25.2543Z" fill="#08080A"/>
    <path d="M4.38209 26.9952C4.41771 27.8257 4.75022 28.0653 5.25294 28.0653C5.64087 28.0653 5.98129 27.8696 6.18317 27.7139L6.29796 28.2888C5.97733 28.4925 5.64087 28.6801 5.10648 28.6801C4.22375 28.6801 3.62207 28.1451 3.62207 26.8035C3.62207 25.4739 4.1525 24.9189 5.06294 24.9189C5.98525 24.9189 6.34942 25.5258 6.34942 26.4242V26.9992H4.38209V26.9952ZM5.64087 26.4242C5.64087 25.8173 5.4667 25.5338 5.04314 25.5338C4.60772 25.5338 4.42167 25.7974 4.38605 26.4242H5.64087Z" fill="#08080A"/>
    <path d="M9.92002 25.6654L9.43313 25.6375C9.5598 25.8052 9.6073 26.0088 9.6073 26.2923C9.6073 27.1028 9.08479 27.6578 8.30894 27.6578C8.15456 27.6578 8.08331 27.6498 7.9606 27.6179C7.82601 27.7137 7.73893 27.7736 7.73893 27.8974C7.73893 28.2767 9.89627 27.8295 9.89627 29.1192C9.89627 29.8978 9.08479 30.2731 8.20998 30.2731C7.32725 30.2731 6.74536 29.9497 6.74536 29.3747C6.74536 28.9954 6.98683 28.7239 7.35496 28.5243C7.19266 28.4364 7.05412 28.3007 7.05412 28.0172C7.05412 27.7337 7.256 27.546 7.48163 27.3823C7.18079 27.1507 6.9987 26.7794 6.9987 26.2803C6.9987 25.4498 7.52121 24.9148 8.31686 24.9148C8.5029 24.9148 8.67707 24.9507 8.82749 25.0026H9.92398V25.6654H9.92002ZM7.42621 29.2949C7.42621 29.6183 7.80622 29.7021 8.22185 29.7021C8.68499 29.7021 9.16792 29.5185 9.16792 29.207C9.16792 28.7678 8.56624 28.7758 8.01602 28.6999C7.72705 28.8357 7.42621 29.0393 7.42621 29.2949ZM8.30498 25.5097C7.91705 25.5097 7.67559 25.7333 7.67559 26.2883C7.67559 26.8433 7.91705 27.0669 8.30498 27.0669C8.69291 27.0669 8.93437 26.8433 8.93437 26.2883C8.93437 25.7333 8.69291 25.5097 8.30498 25.5097Z" fill="#08080A"/>
    <path d="M11.1315 25.0029V27.4625C11.1315 27.9216 11.4126 28.0654 11.7332 28.0654C12.0538 28.0654 12.3349 27.9216 12.3349 27.4625V25.0029H13.0632V27.4425C13.0632 28.281 12.5011 28.6803 11.7293 28.6803C10.9613 28.6803 10.3953 28.281 10.3953 27.4425V25.0029H11.1315Z" fill="#08080A"/>
    <path d="M14.6861 25.0026V25.354C14.979 25.0386 15.2759 24.9148 15.5886 24.9148C16.119 24.9148 16.218 25.4019 16.218 25.929L15.5965 26.0048C15.5886 25.7892 15.5688 25.6415 15.3709 25.6415C15.1769 25.6415 14.9671 25.8052 14.7613 26.0208V28.5961H14.033V25.0066H14.6861V25.0026Z" fill="#08080A"/>
    <path d="M19.4159 26.8154C19.4159 28.0571 18.9053 28.68 17.9513 28.68C17.0131 28.68 16.4788 28.141 16.4788 26.7994C16.4788 25.4818 16.9934 24.9148 17.9513 24.9148C18.9488 24.9148 19.4159 25.4578 19.4159 26.8154ZM17.2269 26.7994C17.2269 27.7736 17.4684 28.0651 17.9513 28.0651C18.4342 28.0651 18.6678 27.7736 18.6678 26.8154C18.6678 25.8172 18.4342 25.5297 17.9513 25.5297C17.4684 25.5297 17.2269 25.8132 17.2269 26.7994Z" fill="#08080A"/>
    <path d="M21.7673 26.0847C21.7396 25.7653 21.6011 25.5297 21.2171 25.5297C20.9361 25.5297 20.7223 25.6495 20.7223 25.921C20.7223 26.6037 22.3849 26.5438 22.3849 27.6299C22.3849 28.2807 21.9296 28.676 21.1657 28.676C20.6115 28.676 20.1761 28.4604 19.9148 28.2048L20.1563 27.6658C20.4056 27.9094 20.7698 28.0651 21.1459 28.0651C21.4269 28.0651 21.6605 27.9573 21.6605 27.6738C21.6605 27.1068 20.0217 27.1148 20.0217 25.9689C20.0217 25.334 20.469 24.9148 21.2132 24.9148C22.0365 24.9148 22.3769 25.3939 22.3769 25.9769L21.7673 26.0847Z" fill="#08080A"/>
    <path d="M25.745 28.5123V29.9856L25.0127 30.1453V25.0026H25.6698V25.3261C25.939 25.1025 26.2715 24.9148 26.7148 24.9148C27.3165 24.9148 27.8984 25.2781 27.8984 26.7595C27.8984 28.1529 27.269 28.68 26.4456 28.68C26.224 28.68 25.9627 28.6121 25.745 28.5123ZM25.745 27.8615C25.9508 27.9972 26.1646 28.0651 26.3744 28.0651C26.7979 28.0651 27.1305 27.7337 27.1305 26.7595C27.1305 25.8052 26.8019 25.5776 26.4615 25.5776C26.1725 25.5776 25.9786 25.6774 25.745 25.8291V27.8615Z" fill="#08080A"/>
    <path d="M30.3368 26.005C30.3368 25.6656 30.1152 25.5338 29.8143 25.5338C29.5016 25.5338 29.2364 25.7175 29.2364 26.0888L28.5951 26.021C28.6149 25.2903 29.1889 24.9189 29.8618 24.9189C30.5981 24.9189 31.0691 25.2983 31.0691 25.9411V27.8137C31.0691 27.9814 31.1483 28.0573 31.2631 28.0573C31.3779 28.0573 31.4966 28.0014 31.6114 27.9135L31.6589 28.4486C31.5244 28.5923 31.2829 28.6841 31.0414 28.6841C30.7881 28.6841 30.4793 28.5763 30.4477 28.185C30.1785 28.5244 29.7985 28.6841 29.4224 28.6841C28.8643 28.6841 28.4724 28.3607 28.4724 27.7099C28.4724 26.7916 29.3433 26.4122 30.3408 26.4202V26.005H30.3368ZM30.3368 26.9712C29.7154 26.9513 29.1928 27.1828 29.1928 27.642C29.1928 27.9215 29.3116 28.0692 29.5926 28.0692C29.8658 28.0692 30.1349 27.8936 30.3368 27.67V26.9712Z" fill="#08080A"/>
    <path d="M32.7989 25.0026V25.354C33.0919 25.0386 33.3888 24.9148 33.7015 24.9148C34.2319 24.9148 34.3309 25.4019 34.3309 25.929L33.7094 26.0048C33.7015 25.7892 33.6817 25.6415 33.4798 25.6415C33.2858 25.6415 33.076 25.8052 32.8702 26.0208V28.5961H32.1418V25.0066H32.7989V25.0026Z" fill="#08080A"/>
    <path d="M36.5287 26.005C36.5287 25.6656 36.3071 25.5338 36.0062 25.5338C35.6935 25.5338 35.4283 25.7175 35.4283 26.0888L34.787 26.021C34.8068 25.2903 35.3808 24.9189 36.0537 24.9189C36.79 24.9189 37.261 25.2983 37.261 25.9411V27.8137C37.261 27.9814 37.3402 28.0573 37.455 28.0573C37.5698 28.0573 37.6885 28.0014 37.8033 27.9135L37.8508 28.4486C37.7162 28.5923 37.4748 28.6841 37.2333 28.6841C36.98 28.6841 36.6712 28.5763 36.6396 28.185C36.3704 28.5244 35.9904 28.6841 35.6143 28.6841C35.0601 28.6841 34.6643 28.3607 34.6643 27.7099C34.6643 26.7916 35.5352 26.4122 36.5327 26.4202V26.005H36.5287ZM36.5287 26.9712C35.9073 26.9513 35.3847 27.1828 35.3847 27.642C35.3847 27.9215 35.5035 28.0692 35.7845 28.0692C36.0577 28.0692 36.3268 27.8936 36.5287 27.67V26.9712Z" fill="#08080A"/>
    <path d="M40.7722 25.0029V27.4625C40.7722 27.9216 41.0532 28.0654 41.3738 28.0654C41.6945 28.0654 41.9755 27.9216 41.9755 27.4625V25.0029H42.7039V27.4425C42.7039 28.281 42.1418 28.6803 41.3699 28.6803C40.6019 28.6803 40.0359 28.281 40.0359 27.4425V25.0029H40.7722Z" fill="#08080A"/>
    <path d="M44.33 25.326C44.611 25.1184 44.9593 24.9148 45.4344 24.9148C46.0756 24.9148 46.4794 25.2741 46.4794 26.0567V28.5921H45.7471V26.2085C45.7471 25.7692 45.6006 25.6135 45.1929 25.6135C44.9237 25.6135 44.6308 25.7293 44.4012 25.8771V28.5921H43.6729V25.0026H44.33V25.326Z" fill="#08080A"/>
    <path d="M49.9001 25.326C50.1693 25.1184 50.5295 24.9148 50.9728 24.9148C51.3766 24.9148 51.622 25.0426 51.8041 25.334C52.1643 25.0985 52.5127 24.9148 52.9441 24.9148C53.5814 24.9148 53.9416 25.2741 53.9416 26.0567V28.5921H53.2133V26.1885C53.2133 25.7413 53.0391 25.6135 52.6789 25.6135C52.4374 25.6135 52.1564 25.7413 51.9426 25.8771C51.9545 25.9649 51.9624 26.0647 51.9624 26.1685V28.5921H51.2341V26.2883C51.2341 25.7812 51.1391 25.6135 50.6997 25.6135C50.4503 25.6135 50.2049 25.7373 49.9832 25.8771V28.5921H49.2549V25.0026H49.912V25.326H49.9001Z" fill="#08080A"/>
    <path d="M55.548 25.0029V27.4625C55.548 27.9216 55.8291 28.0654 56.1497 28.0654C56.4703 28.0654 56.7514 27.9216 56.7514 27.4625V25.0029H57.4797V27.4425C57.4797 28.281 56.9177 28.6803 56.1458 28.6803C55.3739 28.6803 54.8118 28.281 54.8118 27.4425V25.0029H55.548Z" fill="#08080A"/>
    <path d="M59.1035 25.326C59.3846 25.1184 59.7329 24.9148 60.2079 24.9148C60.8492 24.9148 61.253 25.2741 61.253 26.0567V28.5921H60.5246V26.2085C60.5246 25.7692 60.3781 25.6135 59.9704 25.6135C59.7012 25.6135 59.4083 25.7293 59.1827 25.8771V28.5921H58.4543V25.0026H59.1114V25.326H59.1035Z" fill="#08080A"/>
    <path d="M64.2254 28.165C63.9641 28.4645 63.6356 28.6801 63.2002 28.6801C62.6262 28.6801 61.981 28.2329 61.981 26.8075C61.981 25.422 62.5906 24.9149 63.2477 24.9149C63.5485 24.9149 63.8018 24.9907 64.1106 25.1385V23.6611L64.8389 23.5254V27.8096C64.8389 27.9773 64.9181 28.0532 65.0329 28.0532C65.1477 28.0532 65.2665 27.9973 65.3812 27.9095L65.4287 28.4445C65.2942 28.5882 65.0527 28.6801 64.8112 28.6801C64.5341 28.6801 64.2571 28.5563 64.2254 28.165ZM64.1106 25.7334C63.8968 25.6256 63.7029 25.5298 63.402 25.5298C63.0656 25.5298 62.7449 25.7534 62.7449 26.7715C62.7449 27.6499 63.0379 28.0013 63.3625 28.0013C63.691 28.0013 63.9364 27.7977 64.1106 27.594V25.7334Z" fill="#08080A"/>
    <path d="M68.6705 26.8154C68.6705 28.0571 68.1639 28.68 67.2059 28.68C66.2678 28.68 65.7334 28.141 65.7334 26.7994C65.7334 25.4818 66.248 24.9148 67.2059 24.9148C68.2034 24.9148 68.6705 25.4578 68.6705 26.8154ZM66.4815 26.7994C66.4815 27.7736 66.723 28.0651 67.2059 28.0651C67.6889 28.0651 67.9224 27.7736 67.9224 26.8154C67.9224 25.8172 67.6889 25.5297 67.2059 25.5297C66.723 25.5297 66.4815 25.8132 66.4815 26.7994Z" fill="#08080A"/>
    <path d="M71.7899 26.9952C71.8255 27.8257 72.158 28.0653 72.6607 28.0653C73.0486 28.0653 73.3891 27.8696 73.5909 27.7139L73.7057 28.2888C73.3851 28.4925 73.0486 28.6801 72.5142 28.6801C71.6315 28.6801 71.0259 28.1451 71.0259 26.8035C71.0259 25.4739 71.5563 24.9189 72.4667 24.9189C73.3891 24.9189 73.7532 25.5258 73.7532 26.4242V26.9992H71.7899V26.9952ZM73.0486 26.4242C73.0486 25.8173 72.8745 25.5338 72.4509 25.5338C72.0155 25.5338 71.8294 25.7974 71.7938 26.4242H73.0486Z" fill="#08080A"/>
    <path d="M75.2098 25.326C75.4908 25.1184 75.8392 24.9148 76.3142 24.9148C76.9554 24.9148 77.3592 25.2741 77.3592 26.0567V28.5921H76.6309V26.2085C76.6309 25.7692 76.4844 25.6135 76.0767 25.6135C75.8075 25.6135 75.5146 25.7293 75.285 25.8771V28.5921H74.5566V25.0026H75.2137V25.326H75.2098Z" fill="#08080A"/>
    <path d="M80.6448 26.9952C80.6805 27.8257 81.013 28.0653 81.5157 28.0653C81.9036 28.0653 82.244 27.8696 82.4459 27.7139L82.5607 28.2888C82.2401 28.4925 81.9036 28.6801 81.3692 28.6801C80.4865 28.6801 79.8809 28.1451 79.8809 26.8035C79.8809 25.4739 80.4113 24.9189 81.3217 24.9189C82.244 24.9189 82.6082 25.5258 82.6082 26.4242V26.9992H80.6448V26.9952ZM81.9036 26.4242C81.9036 25.8173 81.7294 25.5338 81.3059 25.5338C80.8705 25.5338 80.6844 25.7974 80.6488 26.4242H81.9036Z" fill="#08080A"/>
    <path d="M83.7007 25.0029L84.5914 27.7819L85.4385 25.0029H86.1708L84.9832 28.5924H84.1361L82.9209 25.0029H83.7007Z" fill="#08080A"/>
    <path d="M89.4245 26.8154C89.4245 28.0571 88.9138 28.68 87.9598 28.68C87.0217 28.68 86.4873 28.141 86.4873 26.7994C86.4873 25.4818 87.0019 24.9148 87.9598 24.9148C88.9534 24.9148 89.4245 25.4578 89.4245 26.8154ZM87.2354 26.7994C87.2354 27.7736 87.4769 28.0651 87.9598 28.0651C88.4428 28.0651 88.6763 27.7736 88.6763 26.8154C88.6763 25.8172 88.4428 25.5297 87.9598 25.5297C87.4769 25.5297 87.2354 25.8132 87.2354 26.7994Z" fill="#08080A"/>
    <path d="M90.9481 23.5254V27.7697C90.9481 27.9654 91.055 28.0412 91.1975 28.0412C91.3519 28.0412 91.4904 27.9813 91.6329 27.9015L91.7042 28.4684C91.4311 28.6162 91.2173 28.6841 90.96 28.6841C90.3662 28.6841 90.2158 28.2448 90.2158 27.7737V23.6611L90.9481 23.5254Z" fill="#08080A"/>
    <path d="M92.8373 25.0029V27.4625C92.8373 27.9216 93.1183 28.0654 93.439 28.0654C93.7596 28.0654 94.0407 27.9216 94.0407 27.4625V25.0029H94.769V27.4425C94.769 28.281 94.2069 28.6803 93.439 28.6803C92.6671 28.6803 92.105 28.281 92.105 27.4425V25.0029H92.8373Z" fill="#08080A"/>
    <path d="M97.4722 26.2124C97.4524 25.8611 97.306 25.5297 96.9022 25.5297C96.4589 25.5297 96.2609 25.7852 96.2609 26.7994C96.2609 27.8135 96.5618 28.0651 97.0922 28.0651C97.5158 28.0651 97.7889 27.8814 97.9908 27.7417L98.1333 28.2887C97.8324 28.4963 97.4643 28.68 96.9497 28.68C96.0234 28.68 95.5049 28.093 95.5049 26.7954C95.5049 25.5457 95.9522 24.9148 96.9378 24.9148C97.7928 24.9148 98.1214 25.4498 98.1372 26.1446C97.9076 26.1645 97.6899 26.1845 97.4722 26.2124Z" fill="#08080A"/>
    <path d="M99.6453 24.5239H98.917V23.7253H99.6453V24.5239ZM99.6453 28.5925H98.917V25.003H99.6453V28.5925Z" fill="#08080A"/>
    <path d="M103.39 26.8154C103.39 28.0572 102.879 28.6801 101.921 28.6801C100.983 28.6801 100.449 28.141 100.449 26.8035C100.449 25.4858 100.963 24.9189 101.921 24.9189C102.923 24.9149 103.39 25.4579 103.39 26.8154ZM101.201 26.7995C101.201 27.7737 101.442 28.0652 101.925 28.0652C102.408 28.0652 102.642 27.7737 102.642 26.8154C102.642 25.8172 102.408 25.5298 101.925 25.5298C101.442 25.5298 101.201 25.8133 101.201 26.7995ZM102.974 23.5254L102.198 24.5915H101.577L102.234 23.5254H102.974Z" fill="#08080A"/>
    <path d="M104.85 25.326C105.131 25.1184 105.48 24.9148 105.955 24.9148C106.596 24.9148 107 25.2741 107 26.0567V28.5921H106.271V26.2085C106.271 25.7692 106.125 25.6135 105.717 25.6135C105.448 25.6135 105.155 25.7293 104.93 25.8771V28.5921H104.197V25.0026H104.854V25.326H104.85Z" fill="#08080A"/>
    <path d="M23.6318 2.61524C23.6793 3.27804 23.7149 4.93105 23.7149 5.53795C23.7149 6.09295 23.711 7.95358 23.6239 8.76012L23.616 8.824H26.5017C27.9109 8.824 29.4151 8.37282 29.4151 7.10312C29.4151 6.30456 28.845 5.71763 27.7763 5.39421C28.5561 5.18259 29.0905 4.63159 29.0905 4.00073C29.0905 2.9666 27.9109 2.57132 26.8104 2.54736C26.8065 2.54736 23.6278 2.54736 23.6278 2.54736L23.6318 2.61524ZM25.8604 3.25408C27.0638 3.25808 27.5111 3.50962 27.5111 4.17242C27.5111 4.3521 27.4556 4.50382 27.3488 4.63558C27.1192 4.91508 26.66 5.05882 26.09 5.03087H26.0623L25.7298 5.91327H26.0662C26.7312 5.89331 27.3092 6.10492 27.6021 6.47226C27.7406 6.63996 27.8079 6.83161 27.8079 7.03923C27.8079 7.73797 27.2023 8.09333 26.0187 8.09333C25.8208 8.09333 25.4962 8.08933 25.2904 8.07736C25.2468 7.15902 25.2468 5.90928 25.2468 5.53795C25.2468 5.09875 25.2666 4.12451 25.2943 3.29002C25.425 3.27006 25.6546 3.25009 25.8604 3.25408Z" fill="#08080A"/>
    <path d="M36.0608 2.55566H34.6634L34.7228 4.13281C34.7466 4.91939 34.7743 5.72193 34.8257 6.50052C34.7307 6.26495 34.6516 6.13319 34.232 5.51032C34.2201 5.48636 32.7634 3.21447 32.2607 2.57563L32.2448 2.55566H30.61L30.614 2.61556C30.6615 3.27436 30.6971 4.92737 30.6971 5.53827C30.6971 6.09326 30.6892 7.95789 30.6061 8.76443L30.5981 8.82831H32.0469L32.043 8.76443C31.9598 7.22721 31.9598 5.686 31.9598 4.1927V4.18871C32.0073 4.36838 32.0786 4.53209 32.3082 4.87547C32.3319 4.91539 34.8218 8.58475 34.9485 8.80435L34.9603 8.82831H36.1241L36.1162 8.76443C36.0291 7.95789 36.0251 6.09326 36.0251 5.53827C36.0251 4.92737 36.0608 3.27436 36.1083 2.61556L36.1122 2.55566H36.0608Z" fill="#08080A"/>
    <path d="M37.7472 2.6154C37.7947 3.2782 37.8304 4.93121 37.8304 5.53811C37.8304 6.0931 37.8224 7.95773 37.7393 8.76028L37.7354 8.82416H39.4612L39.4533 8.76028C39.3939 8.18532 39.3702 7.08331 39.3662 6.23285C39.4375 6.23684 39.6829 6.24882 39.6829 6.24882L39.9244 6.2608C42.2005 6.2608 43.3049 5.64591 43.3049 4.37222C43.3049 2.91885 41.7532 2.57946 40.4548 2.55551L37.7433 2.55151L37.7472 2.6154ZM39.865 3.31014C40.6725 3.29417 41.2425 3.46586 41.5156 3.80524C41.6384 3.96096 41.7017 4.15262 41.7017 4.37621C41.7017 5.28656 40.6963 5.47422 39.8531 5.47422L39.5127 5.46225C39.5127 5.46225 39.4296 5.45027 39.3741 5.44228C39.3702 5.23466 39.3662 4.96315 39.3662 4.64772C39.3662 4.24844 39.3702 3.78528 39.386 3.35406C39.4889 3.3301 39.6789 3.31413 39.865 3.31014Z" fill="#08080A"/>
    <path d="M46.603 2.6154C46.6505 3.2782 46.6861 4.93121 46.6861 5.53811C46.6861 6.0931 46.6782 7.95773 46.5951 8.76028L46.5872 8.82416H48.317L48.3091 8.76028C48.2497 8.18532 48.2299 7.08331 48.222 6.23285C48.2932 6.23684 48.5387 6.24882 48.5387 6.24882L48.7841 6.2608C51.0602 6.2608 52.1685 5.64591 52.1685 4.37222C52.1685 2.91885 50.6168 2.57946 49.3145 2.55551L46.607 2.55151L46.603 2.6154ZM48.7207 3.31014C49.5283 3.29417 50.0983 3.46586 50.3714 3.80524C50.4941 3.96096 50.5575 4.15262 50.5575 4.37621C50.5575 5.28656 49.552 5.47422 48.7089 5.47422L48.3684 5.46225C48.3684 5.46225 48.2853 5.45027 48.2339 5.44228C48.2259 5.23466 48.222 4.95916 48.222 4.64772C48.222 4.24844 48.2299 3.78927 48.2457 3.35406C48.3487 3.3301 48.5347 3.31413 48.7207 3.31014Z" fill="#08080A"/>
    <path d="M54.4758 2.55566H54.4441L54.4323 2.5916C54.1116 3.48199 52.0453 8.04573 51.7207 8.74446L51.6812 8.82831H53.1616L53.1735 8.79238C53.3041 8.36515 53.4664 7.87803 53.6643 7.35099C53.7197 7.35099 54.8875 7.33102 54.8875 7.33102L55.8969 7.343C55.8969 7.343 56.075 7.35099 56.1185 7.35099C56.3838 8.02576 56.5817 8.54083 56.6727 8.79238L56.6846 8.82831H58.3986L55.6356 2.55566H55.6079H54.4758ZM54.8954 4.40432C55.0339 4.69579 55.3862 5.53827 55.786 6.52847C55.7267 6.52847 55.6554 6.53247 55.6554 6.53247L54.8954 6.54444C54.8954 6.54444 54.1077 6.53247 53.985 6.52847C54.3095 5.73391 54.6223 5.01521 54.8954 4.40432Z" fill="#08080A"/>
    <path d="M59.0838 2.61547C59.1273 3.27428 59.1669 4.93128 59.1669 5.53818C59.1669 6.09317 59.159 7.9578 59.0719 8.76035L59.064 8.82822H60.7898L60.7819 8.76035C60.6948 7.95381 60.6909 6.08918 60.6909 5.53419C60.6909 5.09897 60.7107 4.12074 60.7423 3.34215C60.8848 3.32219 61.0748 3.30622 61.2094 3.30223C62.0169 3.28626 62.587 3.45794 62.8601 3.79733C62.9828 3.94906 63.0501 4.14071 63.0501 4.3683C63.0501 5.09099 62.3772 5.45832 61.7478 5.49426C61.5419 5.50224 61.3836 5.47429 61.3836 5.47429L61.2648 5.45433L61.3401 5.56613C61.9457 6.47249 62.864 8.04963 63.252 8.80028L63.2678 8.82822H65.1203L65.0649 8.73639C65.0016 8.63258 63.7864 6.83583 63.2718 6.06922C63.2718 6.06922 63.252 6.04526 63.2401 6.0253C64.1822 5.73782 64.6453 5.19879 64.6453 4.37628C64.6453 2.92291 63.0936 2.58752 61.7913 2.55957H59.0798L59.0838 2.61547Z" fill="#08080A"/>
    <path d="M67.5703 2.55151H65.9117L65.9196 2.61141C65.9671 3.27421 66.0027 4.93121 66.0027 5.53811C66.0027 6.0931 65.9948 7.95374 65.9117 8.76028L65.9077 8.82416H67.6336L67.6257 8.76028C67.5425 7.95374 67.5346 6.08911 67.5346 5.53811C67.5346 4.93121 67.5703 3.27421 67.6178 2.61141L67.6217 2.55151H67.5703Z" fill="#08080A"/>
    <path d="M69.1843 2.61524C69.2318 3.27405 69.2635 4.93105 69.2635 5.53795C69.2635 6.09295 69.2595 7.95358 69.1725 8.76012L69.1646 8.824H72.0502C73.4594 8.824 74.9636 8.37282 74.9636 7.10312C74.9636 6.30456 74.3936 5.71763 73.3249 5.39421C74.1086 5.18259 74.643 4.63159 74.643 4.00073C74.643 2.9666 73.4674 2.57132 72.363 2.54736H69.1804L69.1843 2.61524ZM71.4129 3.25408C72.6163 3.25808 73.0636 3.50962 73.0636 4.17242C73.0636 4.3521 73.0082 4.50382 72.9013 4.63558C72.6717 4.91508 72.2125 5.05882 71.6425 5.03087H71.6109L71.2823 5.91327H71.6188C72.2838 5.89331 72.8538 6.10492 73.1546 6.47226C73.2932 6.63996 73.3605 6.83161 73.3605 7.03923C73.3605 7.73797 72.7588 8.09333 71.5713 8.09333C71.3694 8.09333 71.0448 8.08933 70.839 8.07736C70.7954 7.15902 70.7954 5.90928 70.7954 5.53795C70.7954 5.09875 70.8152 4.12052 70.8469 3.29002C70.9775 3.27006 71.2071 3.25009 71.4129 3.25408Z" fill="#08080A"/>
    <path d="M79.2158 2.55151H78.052L78.0402 2.58745C77.6997 3.53773 75.5107 8.34503 75.3286 8.74031L75.2891 8.82416H76.7735L76.7814 8.78823C76.9081 8.361 77.0783 7.87787 77.2722 7.35083C77.3237 7.35083 78.4954 7.33086 78.4954 7.33086L79.5048 7.34683C79.5048 7.34683 79.6789 7.35083 79.7265 7.35083C79.9956 8.0296 80.1896 8.53668 80.2767 8.79222L80.2885 8.82416H82.0065L79.2435 2.55151H79.2158ZM78.5033 4.40017C78.6418 4.69563 78.9941 5.53412 79.3939 6.52432C79.3346 6.52432 79.2633 6.53231 79.2633 6.53231L78.4993 6.54429C78.4993 6.54429 77.7156 6.52832 77.5929 6.52432C77.9135 5.72178 78.2302 5.01106 78.5033 4.40017Z" fill="#08080A"/>
    <path d="M82.4858 4.18044C82.4858 5.28245 83.5863 5.72964 84.5521 6.12891C85.3082 6.43636 86.084 6.75578 86.084 7.27883C86.084 7.43854 86.0484 7.56631 85.9653 7.66613C85.7872 7.88174 85.4151 7.97358 84.8332 7.94563C84.2632 7.91768 83.61 7.73002 82.8896 7.39063L82.5888 7.25088L82.5927 7.49444V8.62041L82.7867 8.66433L82.9054 8.68828C83.2696 8.77612 83.9584 8.93983 84.6551 8.93983C86.4759 8.93983 87.5645 8.20915 87.5645 6.99135C87.5645 5.8614 86.4403 5.40622 85.4507 5.01094C84.7184 4.71547 83.9623 4.41202 83.9623 3.9289C83.9623 3.78915 83.9623 3.36991 84.8965 3.36991C85.5972 3.36991 86.282 3.65739 86.6541 3.81311L87.0103 3.96084L87.0064 3.72127V2.57934L86.6541 2.51545C86.3018 2.44758 85.7159 2.33179 85.1063 2.33179C83.5388 2.33578 82.4858 3.07444 82.4858 4.18044Z" fill="#08080A"/>
    <path d="M27.9541 12.1064C27.6533 11.9267 27.2851 11.779 26.8062 11.779C25.4049 11.779 24.9219 12.897 24.9219 13.8512C24.9219 15.1768 25.7295 15.8436 26.8141 15.8436C27.491 15.8436 27.9976 15.5242 28.4529 15.1209L28.4608 16.2709C27.9976 16.4585 27.4316 16.6222 26.5766 16.6222C24.6211 16.6222 23.3979 15.3964 23.3979 13.8353C23.3979 12.1902 24.6924 11.0044 26.822 11.0044C27.3207 11.0044 27.8076 11.0842 28.2747 11.2L27.9541 12.1064Z" fill="#08080A"/>
    <path d="M32.6766 11.1003C32.8864 11.6593 34.6519 15.6321 35.0715 16.5345H33.5871C33.5039 16.287 33.3258 15.8358 33.0962 15.2528C32.7875 15.2448 32.4748 15.2369 32.0354 15.2369C31.6277 15.2369 31.3189 15.2448 30.9666 15.2528C30.7964 15.712 30.6578 16.1312 30.5351 16.5345H29.2407C29.5495 15.8597 31.3585 11.9029 31.6435 11.1003H32.6766ZM32.8073 14.5381L32.0393 12.6975C31.7939 13.2245 31.5247 13.8434 31.2397 14.5381C31.4693 14.5461 31.786 14.5541 32.0393 14.5541C32.2847 14.5541 32.546 14.5461 32.8073 14.5381Z" fill="#08080A"/>
    <path d="M38.3566 11.1003C39.4887 11.1003 40.8346 11.4198 40.8346 12.6775C40.8346 13.3842 40.4268 13.8554 39.6193 14.1069C39.7341 14.3385 41.0364 16.3349 41.2502 16.5345H39.6431C39.2908 15.8597 38.4872 14.4942 37.9053 13.6078C38.0043 13.6318 38.1507 13.6477 38.321 13.6477C38.792 13.6477 39.4531 13.3044 39.4531 12.6775C39.4531 11.8949 38.5149 11.7552 38.0439 11.7552C37.8064 11.7552 37.5768 11.7711 37.458 11.7871C37.4264 12.4619 37.4105 13.3083 37.4105 13.6877C37.4105 14.1708 37.4105 15.7759 37.4937 16.5345H35.9934C36.0726 15.7839 36.0845 14.8136 36.0845 13.6877C36.0845 12.7414 36.0765 11.6074 36.0053 11.1043H38.3566V11.1003Z" fill="#08080A"/>
    <path d="M44.3377 11.1003C46.6059 11.1003 47.4768 12.3022 47.4768 13.8074C47.4768 15.3606 46.6297 16.5305 44.2546 16.5305H42.2556C42.3348 15.7998 42.3348 14.8016 42.3348 13.6917C42.3348 13.1646 42.3348 11.8071 42.2556 11.1003H44.3377ZM43.7044 11.7831C43.6727 12.1385 43.6648 13.0648 43.6648 13.6917C43.6648 14.4822 43.6648 15.1051 43.6965 15.8438C43.7756 15.8517 43.8984 15.8677 44.0804 15.8677C45.3788 15.8677 46.0597 15.4565 46.0597 13.7875C46.0597 12.1984 45.3669 11.7472 44.0527 11.7751L43.7044 11.7831Z" fill="#08080A"/>
    <path d="M50.2404 11.1003C50.1929 11.7312 50.1612 13.1566 50.1612 13.6917C50.1612 14.1668 50.1691 15.7799 50.2404 16.5305H48.748C48.8272 15.7799 48.8312 14.1668 48.8312 13.6917C48.8312 13.1646 48.7995 11.7272 48.7639 11.1003H50.2404Z" fill="#08080A"/>
    <path d="M55.9515 11.1003V11.8869C55.5279 11.863 54.475 11.831 54.1187 11.831C53.8575 11.831 53.5646 11.831 53.2637 11.855C53.24 12.1904 53.2321 12.6096 53.2321 12.973C53.2321 13.1526 53.2321 13.3163 53.24 13.4481L55.1163 13.4162V14.2626L53.24 14.1868C53.2479 14.8775 53.2558 15.9476 53.3231 16.5385H51.8149C51.906 15.7879 51.906 14.1748 51.906 13.6996C51.906 13.1726 51.8664 11.7352 51.8189 11.1083H55.9515V11.1003Z" fill="#08080A"/>
    <defs>
        <linearGradient id="paint0_linear_192_29041" x1="9.53229" y1="-0.469106" x2="9.53229" y2="19.5431" gradientUnits="userSpaceOnUse">
            <stop stop-color="#43774F"/>
            <stop offset="0.6" stop-color="#9FC8AD"/>
            <stop offset="1" stop-color="#549462"/>
        </linearGradient>
        <linearGradient id="paint1_linear_192_29041" x1="9.50844" y1="-4.71416" x2="9.50844" y2="17.7741" gradientUnits="userSpaceOnUse">
            <stop stop-color="#549462"/>
            <stop offset="0.3" stop-color="#9FC8AD"/>
            <stop offset="0.55" stop-color="#549462"/>
            <stop offset="0.8352" stop-color="#43774F"/>
            <stop offset="0.8842" stop-color="#477E55"/>
            <stop offset="0.9635" stop-color="#529167"/>
            <stop offset="1" stop-color="#599D73"/>
        </linearGradient>
        <linearGradient id="paint2_linear_192_29041" x1="13.0685" y1="16.5416" x2="13.0685" y2="1.98885" gradientUnits="userSpaceOnUse">
            <stop stop-color="#5EA77E"/>
            <stop offset="1" stop-color="#549462"/>
        </linearGradient>
        <linearGradient id="paint3_linear_192_29041" x1="4.12302" y1="16.5363" x2="4.12302" y2="1.97933" gradientUnits="userSpaceOnUse">
            <stop stop-color="#5EA77E"/>
            <stop offset="1" stop-color="#549462"/>
        </linearGradient>
        <linearGradient id="paint4_linear_192_29041" x1="6.91868" y1="16.525" x2="6.91868" y2="1.97682" gradientUnits="userSpaceOnUse">
            <stop stop-color="#5EA77E"/>
            <stop offset="1" stop-color="#549462"/>
        </linearGradient>
        <linearGradient id="paint5_linear_192_29041" x1="9.32246" y1="16.5362" x2="9.32246" y2="1.98342" gradientUnits="userSpaceOnUse">
            <stop stop-color="#5EA77E"/>
            <stop offset="1" stop-color="#549462"/>
        </linearGradient>
    </defs>
</svg>
