<svg width="24" height="24" fill="none" xmlns="http://www.w3.org/2000/svg"><path d="M15.492 12.5c0 .969-.344 1.797-1.031 2.484-.672.672-1.492 1.008-2.461 1.008a3.426 3.426 0 01-2.484-1.008A3.426 3.426 0 018.508 12.5c0-.969.336-1.79 1.008-2.46A3.386 3.386 0 0112 9.007c.969 0 1.79.344 2.46 1.031.688.672 1.032 1.492 1.032 2.461zm-.984 0c0-.688-.25-1.273-.75-1.758-.485-.5-1.07-.75-1.758-.75s-1.281.25-1.781.75a2.394 2.394 0 00-.727 1.758c0 .688.242 1.281.727 1.781a2.47 2.47 0 001.781.727c.688 0 1.273-.242 1.758-.727.5-.5.75-1.094.75-1.781zM3.68 9.992c.984-1.484 2.218-2.601 3.703-3.351 1.5-.735 3.039-1.102 4.617-1.102 1.578 0 3.117.367 4.617 1.102 1.485.75 2.719 1.867 3.703 3.351l.938 1.406c.219.329.328.696.328 1.102 0 .406-.11.773-.328 1.102l-.938 1.406c-.984 1.484-2.218 2.601-3.703 3.351-1.5.735-3.039 1.102-4.617 1.102-1.578 0-3.117-.367-4.617-1.102-1.485-.75-2.719-1.867-3.703-3.351l-.938-1.406a1.942 1.942 0 01-.328-1.102c0-.406.11-.773.328-1.102l.938-1.406zm-.118 1.945c-.109.172-.164.36-.164.563 0 .203.055.39.164.563l.938 1.406c.89 1.328 2.008 2.328 3.352 3 1.343.672 2.726 1.008 4.148 1.008 1.422 0 2.805-.336 4.148-1.008 1.344-.672 2.461-1.672 3.352-3l.938-1.406c.109-.172.164-.36.164-.563 0-.203-.055-.39-.165-.563l-.937-1.406c-.89-1.328-2.008-2.328-3.352-3C14.805 6.86 13.422 6.523 12 6.523c-1.422 0-2.805.336-4.148 1.008-1.344.672-2.461 1.672-3.352 3l-.938 1.406z" fill="#56504C"/></svg>