<svg width="32" height="33" fill="none" xmlns="http://www.w3.org/2000/svg"><path d="M25.633 20.352c.531.921.523 1.843-.024 2.765-.53.922-1.328 1.383-2.39 1.383H8.78c-1.062 0-1.867-.46-2.414-1.383-.531-.922-.531-1.844 0-2.765L14.29 6.5c.375-.672.945-1.008 1.711-1.008.766 0 1.336.336 1.71 1.008l7.923 13.852zM15.508 12.5v6h.984v-6h-.984zM16 21.008c.203 0 .375-.07.516-.211a.741.741 0 00.234-.54.693.693 0 00-.234-.538.701.701 0 00-.516-.211.782.782 0 00-.54.21.73.73 0 00-.21.54c0 .203.07.383.21.539.157.14.337.21.54.21z" fill="#F1AE2F"/></svg>