<svg width="56" height="56" viewBox="0 0 56 56" fill="none" xmlns="http://www.w3.org/2000/svg">
<path d="M47.8281 23.0469C47.6406 23.3281 47.4062 23.4844 47.125 23.5156C46.8438 23.5156 46.625 23.4531 46.4688 23.3281L30.5781 12.2188C29.7969 11.75 28.9375 11.5156 28 11.5156C27.0625 11.5156 26.2031 11.75 25.4219 12.2188L9.53125 23.3281C9.3125 23.4844 9.0625 23.5312 8.78125 23.4688C8.5 23.4062 8.29688 23.2656 8.17188 23.0469C8.01562 22.7969 7.96875 22.5469 8.03125 22.2969C8.09375 22.0156 8.23438 21.7969 8.45312 21.6406L24.3906 10.5312C25.4844 9.84375 26.6875 9.5 28 9.5C29.3125 9.5 30.5156 9.84375 31.6094 10.5312L47.5469 21.6406C47.7656 21.7969 47.9062 22.0156 47.9688 22.2969C48.0312 22.5781 47.9844 22.8281 47.8281 23.0469ZM43.9844 25.2031V39.5C43.9844 41.1562 43.3906 42.5781 42.2031 43.7656C41.0469 44.9219 39.6406 45.5 37.9844 45.5H18.0156C16.3594 45.5 14.9375 44.9219 13.75 43.7656C12.5938 42.5781 12.0156 41.1562 12.0156 39.5V25.2031L24.3906 16.5312C25.4844 15.8438 26.6875 15.5 28 15.5C29.3125 15.5 30.5156 15.8438 31.6094 16.5312L43.9844 25.2031ZM31.9844 43.4844V33.5H24.0156V43.4844H31.9844ZM42.0156 26.2344L30.5781 18.2188C29.7969 17.75 28.9375 17.5156 28 17.5156C27.0625 17.5156 26.2031 17.75 25.4219 18.2188L13.9844 26.2344V39.5C13.9844 40.5938 14.375 41.5312 15.1562 42.3125C15.9375 43.0938 16.8906 43.4844 18.0156 43.4844H22V33.5C22 32.9375 22.1875 32.4688 22.5625 32.0938C22.9688 31.6875 23.4531 31.4844 24.0156 31.4844H31.9844C32.5469 31.4844 33.0156 31.6875 33.3906 32.0938C33.7969 32.4688 34 32.9375 34 33.5V43.4844H37.9844C39.1094 43.4844 40.0625 43.0938 40.8438 42.3125C41.625 41.5312 42.0156 40.5938 42.0156 39.5V26.2344Z" fill="#56504C"/>
</svg>
