<svg width="16" height="16" fill="none" xmlns="http://www.w3.org/2000/svg"><path d="M11.837 3.279a.353.353 0 01.263-.07.36.36 0 01.23.173l2.79 4.42h.016v.017h.017v.034l.016.018v.034h.016v.19h-.016v.052h-.016v.034h-.017V8.2l-.016.017-2.79 4.419a.308.308 0 01-.23.138.302.302 0 01-.263-.052.276.276 0 01-.114-.138.357.357 0 01-.017-.259.443.443 0 01.05-.103l2.412-3.85H5.043a.353.353 0 01-.263-.12.34.34 0 01-.099-.242c0-.104.033-.196.099-.277a.381.381 0 01.263-.103h9.125l-2.413-3.832a.443.443 0 01-.049-.104.34.34 0 01-.016-.104c0-.057.01-.115.033-.172a.468.468 0 01.114-.138zM4.681 14.603a.43.43 0 00-.114-.259.36.36 0 00-.247-.086H1.891V1.742h2.43c.098 0 .18-.034.246-.103a.34.34 0 00.114-.225.357.357 0 00-.098-.293A.305.305 0 004.337 1H1.89a.705.705 0 00-.508.207.784.784 0 00-.197.535v12.516c0 .207.065.38.197.518.142.15.311.224.508.224h2.446c.098 0 .18-.04.246-.12a.335.335 0 00.098-.277z" fill="#231D19" stroke="#231D19" stroke-width=".5" stroke-linejoin="round"/></svg>