<svg width="16" height="16" fill="none" xmlns="http://www.w3.org/2000/svg"><path d="M8 .744c-1.031 0-2.004.2-2.918.598a7.45 7.45 0 00-2.39 1.6 7.447 7.447 0 00-1.6 2.39A7.223 7.223 0 00.494 8.25c0 1.031.2 2.004.598 2.918a7.45 7.45 0 001.6 2.39 7.447 7.447 0 002.39 1.6A7.223 7.223 0 008 15.756c1.031 0 2.004-.2 2.918-.598a7.447 7.447 0 002.39-1.6 7.447 7.447 0 001.6-2.39 7.224 7.224 0 00.598-2.918c0-1.031-.2-2.004-.598-2.918a7.447 7.447 0 00-1.6-2.39 7.448 7.448 0 00-2.39-1.6A7.223 7.223 0 008 .744zm0 14.168c-.926 0-1.793-.17-2.602-.51a6.982 6.982 0 01-2.127-1.423 6.984 6.984 0 01-1.423-2.127 6.645 6.645 0 01-.51-2.602c0-.926.17-1.793.51-2.602A6.765 6.765 0 013.27 3.54a6.828 6.828 0 012.127-1.441A6.645 6.645 0 018 1.588c.926 0 1.793.17 2.602.51a6.617 6.617 0 012.109 1.441c.61.598 1.09 1.3 1.441 2.11.34.808.51 1.675.51 2.601 0 .926-.17 1.793-.51 2.602a6.826 6.826 0 01-1.441 2.127 6.762 6.762 0 01-2.11 1.423c-.808.34-1.675.51-2.601.51zm.914-4.13l.281.175c-.21.316-.398.58-.562.791-.164.211-.299.37-.404.475a2.3 2.3 0 01-.58.404 1.475 1.475 0 01-.598.123 1.22 1.22 0 01-.352-.053 1.05 1.05 0 01-.299-.158.809.809 0 01-.21-.281 1.032 1.032 0 01-.07-.387c0-.059.005-.129.017-.21a2.11 2.11 0 01.07-.3 11.856 11.856 0 00.123-.51l.932-2.917V7.88a.077.077 0 00.017-.053c.012-.012.018-.023.018-.035V7.74c0-.094-.018-.164-.053-.21a.212.212 0 00-.123-.124 1.93 1.93 0 00-.228-.035 1.572 1.572 0 00-.37-.035v-.352c.13-.011.282-.023.457-.035.176-.023.381-.047.616-.07.222-.024.416-.047.58-.07.164-.024.293-.047.386-.07l.563-.106-1.143 3.691c-.035.164-.07.305-.105.422l-.053.246a5.154 5.154 0 00-.105.387 1.867 1.867 0 00-.018.21.39.39 0 00.018.124c.011.035.029.059.052.07a.202.202 0 01.053.035h.088c.059 0 .129-.029.211-.088.082-.058.17-.14.264-.246.105-.117.199-.234.281-.351l.246-.352zm.58-6.1c0 .257-.094.48-.281.668a.856.856 0 01-.65.28.913.913 0 01-.668-.28.944.944 0 01-.264-.668.88.88 0 01.264-.65.913.913 0 01.668-.282c.257 0 .474.094.65.281a.856.856 0 01.281.65z" fill="#007AB7"/></svg>