<svg width="56" height="56" fill="none" xmlns="http://www.w3.org/2000/svg"><path d="M28 10.236c2.406 0 4.676.465 6.809 1.395 2.132.902 3.992 2.146 5.578 3.732 1.586 1.586 2.83 3.446 3.732 5.578.93 2.133 1.395 4.403 1.395 6.809 0 2.406-.465 4.676-1.395 6.809-.902 2.132-2.146 3.992-3.732 5.578-1.586 1.586-3.446 2.83-5.578 3.732-2.133.93-4.403 1.395-6.809 1.395-2.406 0-4.676-.465-6.809-1.395-2.132-.902-3.992-2.146-5.578-3.732-1.586-1.586-2.83-3.446-3.732-5.578-.93-2.133-1.395-4.403-1.395-6.809 0-2.406.465-4.676 1.395-6.809.902-2.132 2.146-3.992 3.732-5.578 1.586-1.586 3.446-2.83 5.578-3.732 2.133-.93 4.403-1.395 6.809-1.395zm2.133 23.42l-.574.82c-.192.274-.41.547-.657.82a3.832 3.832 0 01-.615.575c-.191.137-.355.205-.492.205h-.205a.476.476 0 00-.123-.082c-.055-.027-.096-.082-.123-.164a.908.908 0 01-.041-.287c0-.11.013-.273.04-.492.055-.246.137-.547.247-.903.027-.136.068-.328.123-.574.082-.273.164-.601.246-.984l2.666-8.613-1.313.246a9.651 9.651 0 01-.902.164c-.383.054-.834.11-1.353.164-.547.055-1.026.11-1.436.164-.41.027-.765.055-1.066.082v.82c.355 0 .642.027.861.082.246.028.424.055.533.082.137.055.233.15.287.287.082.11.123.274.123.492v.124c0 .027-.013.054-.04.082 0 .054-.014.095-.042.123v.123l-2.174 6.808c-.054.246-.109.479-.164.698a6.435 6.435 0 00-.123.492 4.937 4.937 0 00-.164.697 3.565 3.565 0 00-.04.492c0 .328.054.63.163.903.11.246.274.464.493.656.218.164.45.287.697.369.273.082.547.123.82.123.492 0 .957-.096 1.395-.287a5.28 5.28 0 001.353-.944c.246-.246.56-.615.944-1.107.382-.492.82-1.107 1.312-1.846l-.656-.41zm1.353-14.232c0-.602-.218-1.108-.656-1.518a1.998 1.998 0 00-1.517-.656 2.13 2.13 0 00-1.56.656c-.41.41-.614.916-.614 1.518 0 .601.205 1.12.615 1.558a2.13 2.13 0 001.558.657 2 2 0 001.518-.657 2.13 2.13 0 00.656-1.558z" fill="#007AB7"/></svg>