<svg width="158" height="46" fill="none" xmlns="http://www.w3.org/2000/svg"><path d="M27.807.764H.197v27.85h27.61V.763z" fill="url(#paint0_linear_399_35814)"/><path d="M27.232 1.25H.698v26.454h26.534V1.25z" fill="url(#paint1_linear_399_35814)"/><path d="M24.697 3.855H13.712v9.367h10.985V3.855z" fill="url(#paint2_linear_399_35814)"/><path d="M9.246 16.9H2.861v7.76h6.385V16.9z" fill="url(#paint3_linear_399_35814)"/><path d="M15.59 9.35H4.71v6.746h10.88V9.35z" fill="url(#paint4_linear_399_35814)"/><path d="M16.678 21.252h-5.966v3.989h5.966v-3.989z" fill="url(#paint5_linear_399_35814)"/><path d="M21.725 8.09c-1.704 1.009-2.227 1.097-4.082 2.211 1.081-1.179 1.453-1.683 2.122-2.669-1.71.088-4.193.3-5.96.693 1.54-.833 4.6-1.754 6.216-1.977-.372-.522-3.402-2.176-4.158-2.499 2.402.188 5.333 1.091 6.752 1.97.558-.175 1.14-.187 2.18-.28-.267.457-.273.727-1.297 1.407.285.763-.395 4.962-.953 6.07-.018-1.747-.169-3.964-.82-4.926zM9.246 23.147c-.977-.37-1.686-.792-2.46-1.525.233-.646.5-1.15.93-1.801-.796.117-1.383.211-2.07.34-.558-.985-.814-1.936-1.099-3.261-.15 1.402-.209 2.405-.011 3.52a9.73 9.73 0 00-1.594.568c.727.446 1.315.792 2.123 1.173.436.945.884 1.578 1.616 2.305a4.366 4.366 0 01-.145-1.76c.907.27 1.68.405 2.71.44zM11.8 9.187c-.303.398-.658 1.143-.757 1.49 2.524.345 4.548 1.653 4.548 1.653-2.204-.393-3.367-.346-4.193-.27-.82.077-.989.177-.989.177-.593 1.313-.953 3.578-.953 3.578-.402-.98-.983-2.933-.983-2.933-1.11.598-3.675 3.032-3.675 3.032 1.407-2.845 2.838-4.14 2.838-4.14-.495-.505-1.78-.752-2.722-.798.489-.2 1.745-.435 2.71-.482.965-.029 1.553.03 1.553.03.86-.692 2.169-1.273 2.622-1.337zm2.674 12.194a22.93 22.93 0 01-1.32 1.648c-.85.24-1.53.329-2.355.329.506.264 1 .422 1.53.533-.53.481-.978.828-1.495 1.162.86-.206 1.994-.575 2.843-1.08a5.24 5.24 0 001.158-.07 6.202 6.202 0 01-.192-.786c.796-.622 1.372-1.185 2.035-1.86a13.86 13.86 0 01-2.129 1.256 20.92 20.92 0 01-.075-1.132z" fill="#fff"/><path d="M3.291 37.863c-.07-.598-.215-1.179-1.07-1.179-.529 0-.982.258-.982.857 0 1.407 3.157 1.401 3.157 3.425 0 1.29-.884 1.936-2.175 1.936-.913 0-1.72-.405-2.221-.992l.53-.815c.441.516 1.11.815 1.738.815.61 0 1.035-.24 1.035-.82 0-1.262-3.146-1.32-3.146-3.462 0-1.307.977-1.923 2.076-1.923 1.582 0 2.035 1.102 2.093 2.006l-1.035.152zm3.147 2.557c.052 1.22.54 1.572 1.28 1.572.569 0 1.07-.287 1.366-.516l.168.845c-.47.299-.965.574-1.75.574-1.297 0-2.18-.786-2.18-2.756 0-1.954.779-2.769 2.116-2.769 1.355 0 1.89.892 1.89 2.211v.845h-2.89v-.006zm1.849-.839c0-.891-.256-1.308-.878-1.308-.64 0-.913.387-.965 1.308h1.843zm6.286-1.114l-.715-.041c.186.246.255.545.255.962 0 1.19-.767 2.006-1.907 2.006-.227 0-.331-.012-.512-.059-.197.141-.325.229-.325.41 0 .558 3.169-.099 3.169 1.796 0 1.143-1.192 1.695-2.477 1.695-1.297 0-2.152-.475-2.152-1.32 0-.557.355-.956.896-1.25-.239-.128-.442-.328-.442-.744 0-.417.296-.692.628-.933-.442-.34-.71-.886-.71-1.619 0-1.22.768-2.006 1.937-2.006.273 0 .529.053.75.13h1.61v.973h-.005zm-3.664 5.332c0 .475.559.598 1.17.598.68 0 1.389-.27 1.389-.727 0-.645-.884-.634-1.692-.745-.425.2-.867.498-.867.874zm1.291-5.56c-.57 0-.924.328-.924 1.143s.354 1.144.924 1.144c.57 0 .925-.329.925-1.144s-.355-1.144-.925-1.144zm4.152-.745v3.613c0 .674.413.886.884.886.471 0 .884-.212.884-.886v-3.613h1.07v3.584c0 1.231-.826 1.818-1.96 1.818-1.128 0-1.96-.587-1.96-1.819v-3.583h1.082zm5.222-.001v.517c.43-.464.866-.646 1.326-.646.779 0 .924.716.924 1.49l-.913.111c-.011-.316-.04-.533-.331-.533-.285 0-.593.24-.896.557v3.783h-1.07V37.5h.96v-.006zm6.949 2.663c0 1.824-.75 2.74-2.152 2.74-1.378 0-2.163-.792-2.163-2.763 0-1.936.756-2.769 2.163-2.769 1.466 0 2.152.798 2.152 2.792zm-3.216-.023c0 1.431.355 1.86 1.064 1.86.71 0 1.053-.429 1.053-1.837 0-1.466-.343-1.889-1.053-1.889s-1.064.417-1.064 1.866zm6.669-1.05c-.04-.47-.244-.816-.808-.816-.413 0-.727.176-.727.575 0 1.003 2.442.915 2.442 2.51 0 .957-.668 1.538-1.79 1.538-.815 0-1.454-.317-1.838-.693l.355-.791c.366.357.9.586 1.453.586.413 0 .756-.158.756-.575 0-.833-2.407-.82-2.407-2.504 0-.933.657-1.549 1.75-1.549 1.21 0 1.71.704 1.71 1.56l-.896.159zm5.844 3.567v2.163l-1.075.235v-7.555h.965v.475c.396-.328.884-.604 1.536-.604.883 0 1.738.534 1.738 2.71 0 2.047-.924 2.821-2.134 2.821-.325 0-.71-.1-1.03-.246zm0-.957c.303.2.617.3.925.3.623 0 1.111-.488 1.111-1.919 0-1.402-.483-1.736-.983-1.736-.424 0-.709.147-1.052.37v2.985zm6.746-2.728c0-.498-.326-.692-.768-.692-.459 0-.849.27-.849.816l-.942-.1c.03-1.073.873-1.619 1.861-1.619 1.082 0 1.774.557 1.774 1.502v2.75c0 .247.116.358.285.358.168 0 .343-.082.511-.21l.07.785c-.198.211-.552.346-.907.346-.372 0-.826-.158-.872-.733a1.904 1.904 0 01-1.506.733c-.82 0-1.396-.475-1.396-1.43 0-1.35 1.28-1.907 2.745-1.895v-.61h-.006zm0 1.42c-.913-.03-1.68.31-1.68.985 0 .411.174.628.587.628.401 0 .797-.258 1.093-.587v-1.026zm3.617-2.892v.517c.43-.464.867-.646 1.326-.646.78 0 .925.716.925 1.49l-.913.111c-.012-.316-.041-.533-.338-.533-.285 0-.593.24-.895.557v3.783h-1.07V37.5h.965v-.006zm5.479 1.472c0-.498-.326-.692-.768-.692-.46 0-.849.27-.849.816l-.942-.1c.03-1.073.872-1.619 1.86-1.619 1.082 0 1.774.557 1.774 1.502v2.75c0 .247.117.358.285.358.17 0 .344-.082.512-.21l.07.785c-.198.211-.553.346-.907.346-.372 0-.826-.158-.872-.733a1.904 1.904 0 01-1.507.733c-.814 0-1.395-.475-1.395-1.43 0-1.35 1.28-1.907 2.745-1.895v-.61h-.006zm0 1.42c-.913-.03-1.68.31-1.68.985 0 .411.174.628.587.628.4 0 .796-.258 1.093-.587v-1.026zm6.233-2.891v3.613c0 .674.413.886.884.886.471 0 .884-.212.884-.886v-3.613h1.07v3.584c0 1.231-.826 1.818-1.96 1.818-1.128 0-1.96-.587-1.96-1.819v-3.583h1.082zm5.228.474c.412-.305.924-.604 1.622-.604.942 0 1.535.528 1.535 1.678v3.724h-1.076v-3.501c0-.645-.215-.874-.814-.874-.395 0-.826.17-1.163.387v3.988h-1.07v-5.273h.966v.475zm8.181 0c.396-.305.925-.604 1.576-.604.593 0 .954.188 1.221.616.53-.346 1.041-.616 1.675-.616.936 0 1.466.528 1.466 1.678v3.724h-1.07v-3.53c0-.658-.256-.845-.785-.845-.355 0-.768.187-1.082.387.017.129.029.276.029.428v3.56h-1.07v-3.384c0-.745-.14-.991-.785-.991-.366 0-.727.182-1.053.387v3.988h-1.07v-5.273h.966v.475h-.018zm8.298-.474v3.613c0 .674.413.886.884.886.471 0 .884-.212.884-.886v-3.613h1.07v3.584c0 1.231-.826 1.818-1.96 1.818s-1.96-.587-1.96-1.819v-3.583h1.082zm5.223.474c.413-.305.924-.604 1.622-.604.942 0 1.535.528 1.535 1.678v3.724h-1.07v-3.501c0-.645-.215-.874-.814-.874-.395 0-.826.17-1.157.387v3.988h-1.07v-5.273h.965v.475h-.011zm7.524 4.171c-.384.44-.867.757-1.506.757-.843 0-1.791-.657-1.791-2.751 0-2.036.895-2.78 1.86-2.78.442 0 .815.11 1.268.328v-2.17l1.07-.2v6.294c0 .246.117.358.285.358.169 0 .343-.082.512-.211l.07.786c-.198.21-.553.346-.907.346-.407 0-.815-.182-.861-.757zm-.169-3.572c-.314-.159-.599-.3-1.04-.3-.495 0-.966.33-.966 1.825 0 1.29.43 1.806.907 1.806.483 0 .843-.299 1.1-.598v-2.733zm6.699 1.589c0 1.824-.744 2.74-2.151 2.74-1.378 0-2.163-.792-2.163-2.763 0-1.936.755-2.769 2.163-2.769 1.465 0 2.151.798 2.151 2.792zm-3.216-.023c0 1.431.355 1.86 1.065 1.86s1.052-.429 1.052-1.837c0-1.466-.343-1.889-1.052-1.889-.71 0-1.064.417-1.064 1.866zm7.798.287c.053 1.22.541 1.572 1.279 1.572.57 0 1.07-.287 1.367-.516l.169.845c-.471.299-.966.574-1.751.574-1.296 0-2.186-.786-2.186-2.756 0-1.954.779-2.769 2.117-2.769 1.354 0 1.889.892 1.889 2.211v.845h-2.884v-.006zm1.849-.839c0-.891-.256-1.308-.878-1.308-.639 0-.913.387-.965 1.308h1.843zm3.176-1.613c.413-.305.924-.604 1.622-.604.942 0 1.535.528 1.535 1.678v3.724h-1.07v-3.501c0-.645-.215-.874-.814-.874-.395 0-.825.17-1.163.387v3.988h-1.07v-5.273h.966v.475h-.006zm7.984 2.452c.052 1.22.541 1.572 1.279 1.572.57 0 1.07-.287 1.367-.516l.168.845c-.471.299-.965.574-1.75.574-1.297 0-2.186-.786-2.186-2.756 0-1.954.779-2.769 2.116-2.769 1.355 0 1.89.892 1.89 2.211v.845h-2.884v-.006zm1.849-.839c0-.891-.256-1.308-.878-1.308-.64 0-.913.387-.965 1.308h1.843zm2.64-2.087l1.308 4.082 1.245-4.082h1.076l-1.745 5.273h-1.244l-1.786-5.273h1.146zm8.409 2.662c0 1.824-.751 2.74-2.152 2.74-1.378 0-2.163-.792-2.163-2.763 0-1.936.756-2.769 2.163-2.769 1.46 0 2.152.798 2.152 2.792zm-3.216-.023c0 1.431.354 1.86 1.064 1.86.709 0 1.052-.429 1.052-1.837 0-1.466-.343-1.889-1.052-1.889-.71 0-1.064.417-1.064 1.866zm5.454-4.81v6.235c0 .288.157.4.366.4.227 0 .431-.089.64-.206l.105.833c-.402.217-.716.316-1.093.316-.873 0-1.094-.645-1.094-1.337v-6.041l1.076-.2zm2.774 2.171v3.613c0 .674.413.886.884.886.471 0 .884-.212.884-.886v-3.613h1.07v3.584c0 1.231-.826 1.818-1.954 1.818-1.134 0-1.959-.587-1.959-1.819v-3.583h1.075zm6.81 1.776c-.029-.516-.244-1.003-.837-1.003-.652 0-.943.376-.943 1.866 0 1.49.442 1.86 1.222 1.86.622 0 1.023-.27 1.32-.476l.209.804c-.442.305-.983.574-1.739.574-1.36 0-2.122-.862-2.122-2.768 0-1.836.657-2.763 2.105-2.763 1.256 0 1.739.786 1.762 1.807-.337.03-.657.059-.977.1zm3.192-2.48h-1.07v-1.173h1.07v1.173zm0 5.977h-1.07v-5.273h1.07v5.273zm5.501-2.611c0 1.825-.75 2.74-2.157 2.74-1.378 0-2.164-.792-2.164-2.757 0-1.936.756-2.769 2.164-2.769 1.471-.006 2.157.792 2.157 2.786zm-3.216-.023c0 1.431.355 1.86 1.065 1.86.709 0 1.052-.429 1.052-1.837 0-1.466-.343-1.888-1.052-1.888-.71 0-1.065.416-1.065 1.865zm2.606-4.81l-1.14 1.566h-.913l.965-1.566h1.088zm2.756 2.645c.413-.305.924-.604 1.622-.604.942 0 1.535.528 1.535 1.678v3.724h-1.07v-3.501c0-.645-.215-.874-.814-.874-.395 0-.825.17-1.157.387v3.988h-1.076v-5.273h.966v.475h-.006zM34.716 4.606c.07.973.122 3.402.122 4.293 0 .815-.006 3.549-.134 4.734l-.012.093h4.24c2.07 0 4.28-.662 4.28-2.528 0-1.173-.838-2.035-2.408-2.51 1.146-.31 1.93-1.12 1.93-2.047 0-1.52-1.732-2.1-3.349-2.135H34.71l.006.1zm3.273.938c1.768.006 2.425.375 2.425 1.35 0 .263-.081.486-.238.68-.337.41-1.012.621-1.85.58h-.04l-.488 1.296h.494c.977-.029 1.826.282 2.256.822.204.246.302.528.302.833 0 1.026-.89 1.548-2.628 1.548-.29 0-.767-.006-1.07-.023-.064-1.35-.064-3.185-.064-3.73 0-.646.03-2.077.07-3.303.192-.03.53-.059.831-.053zm14.986-1.026h-2.053l.088 2.316c.034 1.156.075 2.335.15 3.479-.139-.346-.255-.54-.872-1.455-.017-.035-2.157-3.373-2.895-4.311l-.024-.03h-2.401l.005.089c.07.967.123 3.396.123 4.293 0 .815-.012 3.555-.134 4.74l-.012.093h2.128l-.005-.094c-.122-2.258-.122-4.522-.122-6.716v-.005c.07.264.174.504.511 1.008.035.06 3.693 5.45 3.879 5.772l.017.035h1.71l-.012-.094c-.128-1.184-.133-3.924-.133-4.739 0-.897.052-3.326.122-4.293l.006-.088h-.076zm2.477.088c.07.973.122 3.402.122 4.293 0 .815-.011 3.555-.134 4.734l-.005.093h2.535l-.012-.093c-.087-.845-.122-2.464-.128-3.713l.466.023.354.018c3.344 0 4.966-.904 4.966-2.775 0-2.135-2.28-2.633-4.187-2.668l-3.983-.006.006.094zm3.111 1.02c1.186-.023 2.024.229 2.425.727.18.23.273.51.273.84 0 1.337-1.477 1.612-2.715 1.612l-.5-.017-.204-.03a60.962 60.962 0 01.017-3.067c.152-.036.43-.059.704-.065zm9.897-1.02c.07.973.123 3.402.123 4.293 0 .815-.012 3.555-.134 4.734l-.011.093h2.54l-.011-.093c-.087-.845-.116-2.464-.128-3.713l.465.023.36.018c3.344 0 4.973-.904 4.973-2.775 0-2.135-2.28-2.633-4.193-2.668l-3.977-.006-.006.094zm3.112 1.02c1.186-.023 2.023.229 2.425.727.18.23.273.51.273.84 0 1.337-1.477 1.612-2.716 1.612l-.5-.017-.197-.03a31.36 31.36 0 01-.018-1.167c0-.586.012-1.261.035-1.9.151-.036.425-.059.698-.065zm8.454-1.108h-.046l-.018.052c-.47 1.308-3.506 8.013-3.983 9.04l-.058.122h2.175l.017-.052c.192-.628.43-1.344.721-2.118.082 0 1.797-.03 1.797-.03l1.483.018s.262.012.326.012c.39.991.68 1.748.814 2.118l.017.052h2.518L81.73 4.518h-1.704zm.617 2.715c.203.428.72 1.666 1.308 3.12-.087 0-.192.007-.192.007l-1.116.017s-1.157-.017-1.338-.023c.477-1.167.936-2.223 1.338-3.12zm6.153-2.627c.064.967.122 3.402.122 4.293 0 .815-.012 3.555-.14 4.734l-.011.1h2.535l-.012-.1c-.128-1.185-.133-3.924-.133-4.74 0-.64.029-2.076.075-3.22.21-.03.489-.053.686-.059 1.187-.023 2.024.23 2.425.728.18.223.28.504.28.839 0 1.061-.99 1.6-1.914 1.654a2.83 2.83 0 01-.535-.03L90 8.775l.11.165c.89 1.332 2.239 3.649 2.809 4.751l.023.041h2.722l-.082-.135c-.093-.152-1.878-2.792-2.634-3.918 0 0-.03-.035-.046-.064 1.383-.423 2.064-1.214 2.064-2.423 0-2.135-2.28-2.628-4.193-2.669H86.79l.006.083zm12.467-.094h-2.437l.012.088c.07.973.122 3.408.122 4.3 0 .814-.012 3.548-.134 4.733l-.006.093h2.536l-.012-.093c-.122-1.185-.134-3.924-.134-4.734 0-.891.053-3.326.122-4.3l.006-.087h-.075zm2.372.094c.069.967.116 3.402.116 4.293 0 .815-.006 3.549-.134 4.734l-.012.093h4.24c2.07 0 4.28-.662 4.28-2.528 0-1.173-.838-2.035-2.408-2.51 1.151-.31 1.937-1.12 1.937-2.047 0-1.52-1.728-2.1-3.35-2.135h-4.675l.006.1zm3.273.938c1.768.006 2.425.375 2.425 1.35 0 .263-.081.486-.238.68-.337.41-1.012.621-1.849.58h-.047l-.482 1.296h.494c.977-.029 1.814.282 2.256.822.204.246.302.528.302.833 0 1.026-.883 1.548-2.628 1.548-.297 0-.773-.006-1.076-.023-.064-1.35-.064-3.185-.064-3.73 0-.646.029-2.083.076-3.303.192-.03.529-.059.831-.053zm11.462-1.032h-1.71l-.017.053c-.5 1.395-3.716 8.458-3.983 9.038l-.058.123h2.18l.012-.052a35.72 35.72 0 01.721-2.112c.075 0 1.797-.03 1.797-.03l1.483.024s.255.006.325.006c.396.997.681 1.742.809 2.118l.017.046h2.524l-4.059-9.214h-.041zm-1.047 2.715c.204.434.721 1.666 1.309 3.12-.087 0-.192.013-.192.013l-1.122.017s-1.152-.023-1.332-.03a82.22 82.22 0 011.337-3.12zm5.851-.322c0 1.619 1.616 2.276 3.035 2.862 1.111.452 2.251.921 2.251 1.69 0 .234-.053.422-.175.568-.261.317-.808.452-1.663.41-.837-.04-1.797-.316-2.855-.814l-.442-.206.006.358v1.654l.285.065.174.035c.535.129 1.547.37 2.57.37 2.675 0 4.275-1.074 4.275-2.863 0-1.66-1.652-2.329-3.106-2.91-1.075-.433-2.186-.88-2.186-1.589 0-.205 0-.821 1.372-.821 1.029 0 2.035.422 2.582.651l.523.217-.005-.352V4.553l-.518-.094c-.517-.1-1.378-.27-2.274-.27-2.302.006-3.849 1.091-3.849 2.716zM41.066 18.548a3.191 3.191 0 00-1.686-.48c-2.059 0-2.768 1.641-2.768 3.043 0 1.948 1.186 2.927 2.78 2.927.994 0 1.738-.469 2.407-1.061l.011 1.689c-.68.276-1.511.516-2.768.516-2.872 0-4.669-1.8-4.669-4.094 0-2.417 1.902-4.159 5.03-4.159.733 0 1.448.118 2.134.288l-.47 1.331zm6.936-1.478c.309.821 2.902 6.657 3.519 7.983H49.34c-.122-.364-.384-1.027-.721-1.883a54.64 54.64 0 00-1.559-.024c-.598 0-1.052.012-1.57.024a32.96 32.96 0 00-.633 1.883h-1.902c.454-.992 3.111-6.804 3.53-7.983h1.517zm.192 5.05l-1.128-2.704c-.36.774-.756 1.683-1.174 2.704.337.012.802.023 1.174.023.36 0 .745-.011 1.128-.023zm8.154-5.05c1.663 0 3.64.47 3.64 2.317 0 1.038-.6 1.73-1.785 2.1.168.34 2.081 3.273 2.395 3.566h-2.36c-.518-.992-1.699-2.998-2.553-4.3.145.036.36.059.61.059.692 0 1.663-.504 1.663-1.425 0-1.15-1.378-1.355-2.07-1.355-.349 0-.686.023-.86.047a71.94 71.94 0 00-.07 2.792c0 .71 0 3.067.122 4.182h-2.204c.116-1.103.134-2.528.134-4.182 0-1.39-.012-3.056-.117-3.795h3.455v-.006zm8.786 0c3.332 0 4.611 1.765 4.611 3.977 0 2.281-1.244 4-4.733 4h-2.937c.116-1.073.116-2.54.116-4.17 0-.775 0-2.769-.116-3.807h3.059zm-.93 1.003c-.047.522-.059 1.883-.059 2.803 0 1.162 0 2.077.047 3.162.116.012.296.035.564.035 1.907 0 2.907-.604 2.907-3.056 0-2.334-1.017-2.997-2.948-2.956l-.511.012zm9.601-1.003c-.07.927-.117 3.02-.117 3.806 0 .698.012 3.068.117 4.17h-2.193c.117-1.102.122-3.471.122-4.17 0-.774-.046-2.885-.098-3.806h2.169zm8.39 0v1.155a75.124 75.124 0 00-2.692-.082c-.384 0-.815 0-1.257.035a24.961 24.961 0 00-.046 1.643c0 .264 0 .504.012.698l2.756-.047v1.243l-2.756-.111c.011 1.015.023 2.587.122 3.455h-2.216c.134-1.103.134-3.473.134-4.17 0-.775-.058-2.887-.128-3.807h6.07v-.012z" fill="#08080A"/><defs><linearGradient id="paint0_linear_399_35814" x1="14.002" y1=".075" x2="14.002" y2="29.473" gradientUnits="userSpaceOnUse"><stop stop-color="#43774F"/><stop offset=".6" stop-color="#9FC8AD"/><stop offset="1" stop-color="#549462"/></linearGradient><linearGradient id="paint1_linear_399_35814" x1="13.969" y1="-6.161" x2="13.969" y2="26.875" gradientUnits="userSpaceOnUse"><stop stop-color="#549462"/><stop offset=".3" stop-color="#9FC8AD"/><stop offset=".55" stop-color="#549462"/><stop offset=".835" stop-color="#43774F"/><stop offset=".884" stop-color="#477E55"/><stop offset=".964" stop-color="#529167"/><stop offset="1" stop-color="#599D73"/></linearGradient><linearGradient id="paint2_linear_399_35814" x1="19.198" y1="25.064" x2="19.198" y2="3.685" gradientUnits="userSpaceOnUse"><stop stop-color="#5EA77E"/><stop offset="1" stop-color="#549462"/></linearGradient><linearGradient id="paint3_linear_399_35814" x1="6.058" y1="25.056" x2="6.058" y2="3.672" gradientUnits="userSpaceOnUse"><stop stop-color="#5EA77E"/><stop offset="1" stop-color="#549462"/></linearGradient><linearGradient id="paint4_linear_399_35814" x1="10.164" y1="25.039" x2="10.164" y2="3.667" gradientUnits="userSpaceOnUse"><stop stop-color="#5EA77E"/><stop offset="1" stop-color="#549462"/></linearGradient><linearGradient id="paint5_linear_399_35814" x1="13.694" y1="25.056" x2="13.694" y2="3.677" gradientUnits="userSpaceOnUse"><stop stop-color="#5EA77E"/><stop offset="1" stop-color="#549462"/></linearGradient></defs></svg>