<svg width="80" height="80" fill="none" xmlns="http://www.w3.org/2000/svg"><path d="M13.337 0h53.326C74.025 0 80 5.973 80 13.333v53.334C80 74.027 74.025 80 66.663 80H13.337C5.951 80 0 74.027 0 66.667V13.333C0 5.973 5.951 0 13.337 0z" fill="#fff"/><path fill="#EC7000" d="M7.127 40.462h6.211v25.782H7.127z"/><path fill-rule="evenodd" clip-rule="evenodd" d="M33.029 48.193c1.553-.864 4.4-1.82 8.21-1.82 6.87 0 9.246 3.798 9.246 8.459v11.436h-5.058l-.682-2.001h-.07c-1.365 1.546-3.6 2.478-6.259 2.478-4.446 0-6.87-2.978-6.87-5.911 0-5.002 4.988-7.526 13.058-7.503v-.205c0-.91-.753-2.682-4.4-2.682-2.188 0-4.587.727-5.999 1.545l-1.176-3.796zm11.669 11.913c.07-.318.094-.66.094-.977h-.024v-2.047c-.423 0-.823 0-1.223.023a14.84 14.84 0 00-1.835.16c-2.4.363-4 1.295-4 3.114 0 1.614 1.177 2.478 2.894 2.478 1.953 0 3.435-1.205 3.976-2.455a.113.113 0 00.024-.046.111.111 0 01.023-.045.532.532 0 00.07-.205z" fill="#EC7000"/><path d="M67.66 46.942v11.322c0 .455-.048.864-.212 1.228-.494 1.16-1.718 2.478-3.741 2.478-2.54 0-3.647-1.796-3.647-4.82V46.92h-6.07v11.299c0 1.523.189 2.796.565 3.865.377 1.069.894 1.933 1.553 2.615a5.955 5.955 0 002.353 1.523c.917.318 1.929.477 3.011.477.965 0 1.811-.113 2.54-.34.73-.228 1.389-.5 1.906-.82a6.32 6.32 0 001.341-1.022c.353-.364.635-.705.847-1l.777 2.75h4.916V46.942h-6.14zm-48.464-6.48v6.457h-2.847v4.411h2.847v7.867c0 2.592.54 4.547 1.694 5.73 1.011 1.045 2.752 1.795 4.893 1.795 1.835 0 2.54-.272 3.364-.568v-4.479c-.164.068-.659.16-1.27.16-2.165 0-2.659-1.297-2.659-3.661V51.33h3.859v-4.41h-3.859v-6.458h-6.022z" fill="#EC7000"/><path fill-rule="evenodd" clip-rule="evenodd" d="M65.353 40.462l-3.74 5.207h4.328l5.294-5.207h-5.882z" fill="#EC7000"/></svg>