<svg width="57" height="56" viewBox="0 0 57 56" fill="none" xmlns="http://www.w3.org/2000/svg">
<path d="M20.9727 46.9531L22.1445 49.4844L7.66016 44.2344C7.12891 44.0469 6.73828 43.7031 6.48828 43.2031C6.26953 42.7031 6.25391 42.1875 6.44141 41.6562L11.7383 27.125L12.9102 29.7031L8.31641 42.3125L20.9727 46.9531ZM10.5195 17.0938L24.3477 46.7188V41.9844L12.3477 16.25L24.3477 10.6719V8.46875L11.5039 14.4688C11.0039 14.6875 10.6602 15.0625 10.4727 15.5938C10.2852 16.0938 10.3008 16.5938 10.5195 17.0938ZM46.332 9.5V47.5156C46.332 48.0469 46.1289 48.5 45.7227 48.875C45.3477 49.2812 44.8789 49.4844 44.3164 49.4844H28.332C27.7695 49.4844 27.2852 49.2812 26.8789 48.875C26.5039 48.5 26.3164 48.0469 26.3164 47.5156V9.5C26.3164 8.9375 26.5039 8.46875 26.8789 8.09375C27.2852 7.6875 27.7695 7.48438 28.332 7.48438H44.3164C44.8789 7.48438 45.3477 7.6875 45.7227 8.09375C46.1289 8.46875 46.332 8.9375 46.332 9.5ZM44.3164 9.5H28.332V47.5156H44.3164V9.5Z" fill="#56504C"/>
</svg>
