<svg width="18" height="22" fill="none" xmlns="http://www.w3.org/2000/svg"><path fill-rule="evenodd" clip-rule="evenodd" d="M2.69 2.44A1.5 1.5 0 013.75 2h4.5v5.25A2.25 2.25 0 0010.5 9.5h5.25v9a1.5 1.5 0 01-1.5 1.5H3.75a1.5 1.5 0 01-1.5-1.5v-15c0-.398.158-.78.44-1.06zM3.75.5a3 3 0 00-3 3v15a3 3 0 003 3h10.5a3 3 0 003-3V9.371a2.25 2.25 0 00-.659-1.59L9.97 1.159A2.25 2.25 0 008.378.5H3.75zm6 6.75V3.436L14.314 8H10.5a.75.75 0 01-.75-.75zm-4.5 4.5a.75.75 0 000 1.5h7.5a.75.75 0 000-1.5h-7.5zm0 3.75a.75.75 0 000 1.5h7.5a.75.75 0 000-1.5h-7.5z" fill="#0076A9"/></svg>