<svg width="57" height="56" fill="none" xmlns="http://www.w3.org/2000/svg"><path d="M11.85 9c0-.586.195-1.074.585-1.465.424-.423.912-.635 1.465-.635h29.2c.553 0 1.025.212 1.416.635.423.39.634.88.634 1.465v37.5a1.91 1.91 0 01-.634 1.465c-.391.423-.863.635-1.416.635H13.9c-.553 0-1.041-.212-1.465-.635-.39-.39-.585-.88-.585-1.465V9zM43.1 46.5V9H13.9v37.5h29.2zm-4.2-5.225a.937.937 0 00-.293-.683.925.925 0 00-.732-.342h-10.4c-.293 0-.554.114-.782.342a.937.937 0 00-.293.683c0 .293.098.554.293.782.228.195.489.293.782.293h10.4a.993.993 0 00.732-.293c.196-.228.293-.489.293-.782zm0-6.25a.937.937 0 00-.293-.683.925.925 0 00-.732-.342h-18.75a.925.925 0 00-.732.342.937.937 0 00-.293.683c0 .293.097.554.293.782a.993.993 0 00.732.293h18.75a.993.993 0 00.732-.293c.196-.228.293-.489.293-.782zm0-6.25a.937.937 0 00-.293-.683.925.925 0 00-.732-.342h-18.75a.925.925 0 00-.732.342.937.937 0 00-.293.683c0 .293.097.554.293.782a.993.993 0 00.732.293h18.75a.993.993 0 00.732-.293c.196-.228.293-.489.293-.782z" fill="#231D19"/></svg>