<svg width="57" height="56" fill="none" xmlns="http://www.w3.org/2000/svg"><path d="M44.988 19.506c-.683-.684-1.517-1.026-2.502-1.026-.957 0-1.777.342-2.46 1.026l-4.964 4.963c-.683-.684-1.503-1.026-2.46-1.026-.957 0-1.778.342-2.461 1.026l-5.578 5.578a8.025 8.025 0 00-3.774.164c-1.258.355-2.365 1.012-3.322 1.969a7.916 7.916 0 00-1.6 2.255 8.728 8.728 0 00-.697 2.502l-1.149 1.149c-.328.328-.492.738-.492 1.23 0 .493.164.903.492 1.23l4.184 4.184c.246.247.533.41.861.493.329.082.643.068.944-.041l11.361-7.096 13.617-13.617c.684-.684 1.026-1.504 1.026-2.461 0-.985-.342-1.819-1.026-2.502zm-1.23 3.732L30.14 36.855 19.6 43.666l-4.307-4.349 1.6-1.64c0-.766.15-1.518.45-2.256a6.102 6.102 0 011.354-2.01 5.907 5.907 0 012.994-1.64c1.176-.247 2.297-.178 3.364.205l6.316-6.276c.328-.328.738-.492 1.23-.492.493 0 .903.164 1.231.492.355.356.533.78.533 1.272 0 .465-.178.861-.533 1.19l-4.307 4.347a.777.777 0 00-.287.615c0 .246.096.451.287.615a.787.787 0 00.575.246.98.98 0 00.656-.246l4.306-4.306a3.25 3.25 0 00.903-1.6 3.37 3.37 0 000-1.805l5.29-5.29a1.76 1.76 0 011.231-.493c.492 0 .916.164 1.272.492.328.356.492.78.492 1.272 0 .465-.164.875-.492 1.23zM16.236 8.514H12.75c-.492 0-.916.177-1.271.533a1.62 1.62 0 00-.493 1.19V22.5c0 .492.164.916.492 1.271.356.329.78.493 1.272.493h3.486c.492 0 .903-.164 1.23-.492.356-.356.534-.78.534-1.272V10.236a1.56 1.56 0 00-.533-1.19 1.605 1.605 0 00-1.23-.532zm0 13.986H12.75V10.236h3.486V22.5zM30.018 8.39l-8.655 8.655c-.328.328-.492.738-.492 1.23 0 .493.164.903.492 1.23l2.502 2.503a1.62 1.62 0 001.19.492 1.81 1.81 0 001.271-.492l8.654-8.695a1.56 1.56 0 00.534-1.19c0-.492-.178-.916-.534-1.271L32.52 8.39a1.736 1.736 0 00-1.272-.534c-.465 0-.875.178-1.23.534zm-4.922 12.346l-2.502-2.46 8.695-8.655 2.461 2.461-8.654 8.654z" fill="#586264"/></svg>