<svg width="57" height="56" fill="none" xmlns="http://www.w3.org/2000/svg"><path d="M22.06 44.772l1.026 2.214-12.674-4.593a1.76 1.76 0 01-1.025-.903 1.783 1.783 0 01-.041-1.353l4.634-12.715 1.026 2.256-4.02 11.033 11.075 4.06zm-9.146-26.127l12.1 25.921v-4.142l-10.5-22.518 10.5-4.88v-1.928l-11.239 5.25c-.437.191-.738.52-.902.984-.164.438-.15.875.041 1.313zM44.25 12v33.264c0 .464-.178.861-.533 1.19a1.605 1.605 0 01-1.23.532H28.5c-.492 0-.916-.177-1.271-.533a1.62 1.62 0 01-.493-1.19V12c0-.492.164-.902.492-1.23.356-.356.78-.534 1.272-.534h13.986c.492 0 .903.178 1.23.534.356.328.534.738.534 1.23zm-1.764 0H28.5v33.264h13.986V12z" fill="#586264"/></svg>