<svg width="57" height="56" fill="none" xmlns="http://www.w3.org/2000/svg"><path d="M43.02 16.758l-14.89-4.676a.776.776 0 00-.245-.041.775.775 0 00-.78.041l-14.888 4.676c-.41.137-.739.396-.985.78a1.623 1.623 0 00-.205 1.189l1.6 9.802c.3 1.942.861 3.787 1.682 5.537a21.849 21.849 0 003.199 4.84 19.987 19.987 0 004.348 3.815 20.91 20.91 0 005.25 2.46.772.772 0 00.246.042.91.91 0 00.533 0 .773.773 0 00.246-.041 20.913 20.913 0 005.25-2.461 20.864 20.864 0 004.389-3.815 20.763 20.763 0 003.158-4.84 21.374 21.374 0 001.722-5.537l1.559-9.802a1.52 1.52 0 00-.246-1.19 1.66 1.66 0 00-.944-.78zm-2.092 11.484a19.287 19.287 0 01-1.6 5.127 19.093 19.093 0 01-2.912 4.43 19.79 19.79 0 01-3.938 3.445 20.562 20.562 0 01-4.84 2.256 20.352 20.352 0 01-4.88-2.256A19.792 19.792 0 0118.82 37.8a19.851 19.851 0 01-2.87-4.43 19.294 19.294 0 01-1.6-5.127l-1.6-9.803 14.889-4.675 14.847 4.675-1.558 9.803zm-13.29-9.228c.22 0 .41.082.575.246a.778.778 0 01.287.615v19.236a.903.903 0 01-.287.657.787.787 0 01-.574.246.98.98 0 01-.657-.246.98.98 0 01-.246-.657V19.875c0-.246.082-.451.246-.615a.98.98 0 01.657-.246z" fill="#586264"/></svg>