<svg width="57" height="56" fill="none" xmlns="http://www.w3.org/2000/svg"><path d="M45.85 23.854c-.165.246-.37.382-.616.41-.246 0-.437-.055-.574-.164l-13.904-9.721a4.303 4.303 0 00-2.256-.615c-.82 0-1.572.205-2.256.615l-13.904 9.72a.787.787 0 01-.656.124c-.246-.055-.424-.178-.534-.37a.828.828 0 01-.123-.656.925.925 0 01.37-.574l13.945-9.72A5.818 5.818 0 0128.5 12c1.148 0 2.201.3 3.158.902l13.945 9.721a.925.925 0 01.37.574.787.787 0 01-.123.657zm-3.364 1.886v12.51c0 1.45-.52 2.693-1.558 3.732-1.012 1.012-2.242 1.518-3.692 1.518H19.764c-1.45 0-2.694-.506-3.733-1.518-1.011-1.039-1.517-2.283-1.517-3.732V25.74l10.828-7.588a5.818 5.818 0 013.158-.902c1.148 0 2.201.3 3.158.902l10.828 7.588zm-10.5 15.996V33h-6.972v8.736h6.972zm8.778-15.093l-10.008-7.014a4.303 4.303 0 00-2.256-.615c-.82 0-1.572.205-2.256.615l-10.008 7.014V38.25c0 .957.342 1.777 1.026 2.46.683.684 1.517 1.026 2.502 1.026h3.486V33c0-.492.164-.902.492-1.23.356-.356.78-.534 1.272-.534h6.972c.492 0 .903.178 1.23.534.356.328.534.738.534 1.23v8.736h3.486c.985 0 1.819-.341 2.502-1.025.684-.684 1.026-1.504 1.026-2.461V26.643z" fill="#586264"/></svg>