<svg width="107" height="31" fill="none" xmlns="http://www.w3.org/2000/svg"><path d="M18.93 0H.134v18.958h18.794V0z" fill="url(#paint0_linear_192_29041)"/><path d="M18.537.331H.475V18.34h18.062V.33z" fill="url(#paint1_linear_192_29041)"/><path d="M16.811 2.104H9.334v6.377h7.477V2.104z" fill="url(#paint2_linear_192_29041)"/><path d="M6.294 10.984H1.947v5.283h4.347v-5.283z" fill="url(#paint3_linear_192_29041)"/><path d="M10.612 5.846H3.206v4.591h7.406V5.846z" fill="url(#paint4_linear_192_29041)"/><path d="M11.354 13.947H7.293v2.715h4.061v-2.715z" fill="url(#paint5_linear_192_29041)"/><path d="M14.788 4.987c-1.16.687-1.516.747-2.779 1.505.737-.802.99-1.146 1.445-1.816-1.163.06-2.854.203-4.057.47 1.049-.566 3.131-1.193 4.232-1.345-.254-.355-2.316-1.481-2.83-1.7 1.634.127 3.63.742 4.595 1.34.38-.119.776-.127 1.484-.19-.182.31-.186.494-.882.958.194.519-.27 3.377-.65 4.132-.011-1.19-.114-2.7-.558-3.354zm-8.494 10.25c-.665-.252-1.148-.54-1.674-1.038.158-.44.34-.783.633-1.226-.542.08-.942.143-1.409.231-.38-.67-.554-1.317-.748-2.22-.103.955-.143 1.637-.008 2.396-.427.12-.732.224-1.085.387.495.304.895.54 1.445.799a4.944 4.944 0 001.1 1.57 2.972 2.972 0 01-.098-1.199 6.838 6.838 0 001.844.3zm1.738-9.503a4.023 4.023 0 00-.515 1.014c1.718.235 3.096 1.126 3.096 1.126-1.5-.268-2.292-.236-2.854-.184-.558.052-.673.12-.673.12-.404.894-.65 2.436-.65 2.436-.272-.667-.668-1.997-.668-1.997-.756.407-2.502 2.064-2.502 2.064.958-1.936 1.932-2.819 1.932-2.819-.337-.343-1.211-.51-1.853-.543.333-.135 1.188-.295 1.845-.327a9.02 9.02 0 011.057.02c.586-.471 1.476-.866 1.785-.91zm1.821 8.301c-.305.415-.566.742-.899 1.122a5.489 5.489 0 01-1.603.223c.344.18.68.288 1.041.364-.36.327-.665.563-1.017.79.586-.14 1.358-.391 1.935-.734.301.012.582-.008.788-.048a4.226 4.226 0 01-.13-.535c.542-.424.934-.807 1.385-1.266a9.433 9.433 0 01-1.449.854c-.023-.26-.04-.479-.051-.77z" fill="#fff"/><path d="M2.24 25.254c-.047-.407-.146-.802-.728-.802-.36 0-.669.175-.669.583 0 .958 2.15.954 2.15 2.331 0 .879-.602 1.318-1.48 1.318A1.994 1.994 0 010 28.009l.36-.555c.301.352.756.555 1.184.555.415 0 .704-.163.704-.559 0-.858-2.141-.898-2.141-2.355 0-.89.665-1.31 1.413-1.31 1.077 0 1.385.75 1.425 1.365l-.705.104zm2.142 1.741c.036.83.368 1.07.87 1.07.389 0 .73-.195.931-.351l.115.575c-.32.203-.657.391-1.192.391-.882 0-1.484-.535-1.484-1.877 0-1.33.53-1.884 1.44-1.884.923 0 1.287.607 1.287 1.505V27H4.382v-.004zm1.259-.57c0-.608-.174-.891-.598-.891-.435 0-.621.263-.657.89h1.255zm4.279-.76l-.487-.027c.127.167.174.37.174.654 0 .81-.522 1.366-1.298 1.366-.154 0-.226-.008-.348-.04-.135.096-.222.156-.222.28 0 .379 2.157-.069 2.157 1.221 0 .779-.811 1.154-1.686 1.154-.883 0-1.465-.323-1.465-.898 0-.38.242-.651.61-.85a.524.524 0 01-.3-.508c0-.283.201-.471.427-.635-.301-.231-.483-.603-.483-1.102 0-.83.522-1.365 1.318-1.365.186 0 .36.036.51.088h1.097v.662H9.92zm-2.494 3.63c0 .323.38.407.796.407.463 0 .946-.184.946-.495 0-.44-.602-.431-1.152-.507-.289.136-.59.34-.59.595zm.879-3.785c-.388 0-.63.223-.63.778s.242.779.63.779.63-.224.63-.779-.242-.778-.63-.778zm2.827-.507v2.46c0 .459.28.602.601.602.32 0 .602-.143.602-.603v-2.46h.728v2.44c0 .839-.562 1.238-1.334 1.238-.768 0-1.334-.399-1.334-1.238v-2.44h.737zm3.554 0v.351c.293-.315.59-.44.903-.44.53 0 .629.488.629 1.015l-.621.076c-.008-.216-.028-.363-.226-.363-.194 0-.404.163-.61.379v2.575h-.728v-3.59h.653v-.003zm4.73 1.812c0 1.242-.51 1.865-1.465 1.865-.938 0-1.472-.539-1.472-1.88 0-1.318.514-1.885 1.472-1.885.998 0 1.465.543 1.465 1.9zm-2.19-.016c0 .975.242 1.266.725 1.266s.717-.291.717-1.25c0-.998-.234-1.285-.717-1.285s-.724.283-.724 1.27zm4.541-.714c-.027-.32-.166-.555-.55-.555-.28 0-.495.12-.495.391 0 .683 1.663.623 1.663 1.709 0 .65-.455 1.046-1.22 1.046-.553 0-.989-.216-1.25-.471l.241-.54c.25.244.614.4.99.4.28 0 .514-.108.514-.391 0-.567-1.638-.56-1.638-1.705 0-.635.447-1.054 1.191-1.054.823 0 1.164.479 1.164 1.062l-.61.108zm3.978 2.427v1.474l-.732.16v-5.143h.657v.323c.269-.224.601-.411 1.045-.411.602 0 1.183.363 1.183 1.845 0 1.393-.629 1.92-1.452 1.92-.222 0-.483-.068-.701-.168zm0-.65c.206.135.42.203.63.203.423 0 .756-.331.756-1.306 0-.954-.33-1.181-.67-1.181-.288 0-.482.1-.716.251v2.032zm4.592-1.857c0-.34-.222-.471-.523-.471-.312 0-.578.184-.578.555l-.64-.068c.019-.73.593-1.102 1.266-1.102.736 0 1.207.38 1.207 1.022v1.873c0 .167.08.243.194.243a.595.595 0 00.348-.143l.048.535c-.135.143-.376.235-.618.235-.253 0-.562-.108-.593-.499-.27.34-.65.5-1.026.5-.558 0-.95-.324-.95-.975 0-.918.871-1.298 1.869-1.29v-.415h-.004zm0 .966c-.622-.02-1.144.212-1.144.671 0 .28.119.427.4.427.273 0 .542-.175.744-.399v-.699zm2.462-1.968v.351c.293-.315.59-.44.903-.44.53 0 .629.488.629 1.015l-.622.076c-.008-.216-.027-.363-.23-.363-.193 0-.403.163-.609.379v2.575h-.728v-3.59h.657v-.003zm3.73 1.002c0-.34-.222-.471-.523-.471-.313 0-.578.184-.578.555l-.641-.068c.02-.73.594-1.102 1.267-1.102.736 0 1.207.38 1.207 1.022v1.873c0 .167.08.243.194.243a.595.595 0 00.348-.143l.048.535c-.135.143-.376.235-.618.235-.253 0-.562-.108-.593-.499-.27.34-.65.5-1.026.5-.554 0-.95-.324-.95-.975 0-.918.871-1.298 1.869-1.29v-.415h-.004zm0 .966c-.622-.02-1.144.212-1.144.671 0 .28.119.427.4.427.273 0 .542-.175.744-.399v-.699zm4.243-1.968v2.46c0 .459.281.602.602.602.32 0 .601-.143.601-.603v-2.46h.729v2.44c0 .839-.562 1.238-1.334 1.238-.768 0-1.334-.399-1.334-1.238v-2.44h.736zm3.558.323c.281-.208.63-.411 1.104-.411.642 0 1.045.36 1.045 1.142v2.535h-.732V26.21c0-.44-.146-.596-.554-.596-.27 0-.562.116-.792.264v2.715h-.728v-3.59h.657v.324zm5.57 0c.27-.208.63-.411 1.073-.411.404 0 .649.128.831.419.36-.235.709-.42 1.14-.42.637 0 .998.36.998 1.143v2.535h-.729V26.19c0-.448-.174-.576-.534-.576-.242 0-.523.128-.736.264.012.088.02.188.02.292v2.423h-.729v-2.304c0-.507-.095-.675-.534-.675-.25 0-.495.124-.717.264v2.715h-.728v-3.59h.657v.324H49.9zm5.648-.323v2.46c0 .459.281.602.602.602.32 0 .601-.143.601-.603v-2.46h.729v2.44c0 .839-.562 1.238-1.334 1.238s-1.334-.399-1.334-1.238v-2.44h.736zm3.555.323c.282-.208.63-.411 1.105-.411.641 0 1.045.36 1.045 1.142v2.535h-.728V26.21c0-.44-.147-.596-.555-.596-.269 0-.562.116-.787.264v2.715h-.729v-3.59h.657v.324h-.008zm5.122 2.839c-.26.3-.59.515-1.025.515-.574 0-1.219-.447-1.219-1.872 0-1.386.61-1.893 1.267-1.893.3 0 .554.076.863.224V23.66l.728-.136v4.285c0 .167.08.243.194.243a.596.596 0 00.348-.143l.048.535c-.135.143-.376.235-.618.235-.277 0-.554-.124-.586-.515zm-.114-2.432c-.214-.107-.408-.203-.709-.203-.336 0-.657.223-.657 1.241 0 .879.293 1.23.617 1.23.329 0 .574-.203.749-.407v-1.86zm4.559 1.082c0 1.242-.506 1.865-1.464 1.865-.938 0-1.473-.539-1.473-1.88 0-1.318.515-1.885 1.473-1.885.997 0 1.465.543 1.465 1.9zm-2.189-.016c0 .975.242 1.266.725 1.266s.716-.291.716-1.25c0-.998-.233-1.285-.716-1.285s-.725.283-.725 1.27zm5.309.196c.035.83.368 1.07.87 1.07.389 0 .73-.195.93-.351l.116.575c-.32.203-.657.391-1.192.391-.882 0-1.488-.535-1.488-1.877 0-1.33.53-1.884 1.44-1.884.923 0 1.287.607 1.287 1.505V27H71.79v-.004zm1.259-.57c0-.608-.175-.891-.598-.891-.435 0-.622.263-.657.89h1.255zm2.161-1.099c.28-.208.63-.411 1.104-.411.641 0 1.045.36 1.045 1.142v2.535h-.728V26.21c0-.44-.147-.596-.554-.596-.27 0-.562.116-.792.264v2.715h-.728v-3.59h.657v.324h-.004zm5.435 1.669c.035.83.368 1.07.87 1.07.389 0 .729-.195.93-.351l.116.575c-.32.203-.657.391-1.192.391-.882 0-1.488-.535-1.488-1.877 0-1.33.53-1.884 1.44-1.884.923 0 1.287.607 1.287 1.505V27h-1.963v-.004zm1.259-.57c0-.608-.175-.891-.598-.891-.435 0-.622.263-.657.89h1.255zm1.796-1.422l.891 2.779.848-2.78h.732l-1.188 3.59h-.847l-1.215-3.59h.78zm5.724 1.812c0 1.242-.51 1.865-1.464 1.865-.938 0-1.473-.539-1.473-1.88 0-1.318.515-1.885 1.473-1.885.993 0 1.465.543 1.465 1.9zm-2.189-.016c0 .975.242 1.266.725 1.266s.716-.291.716-1.25c0-.998-.233-1.285-.716-1.285s-.725.283-.725 1.27zm3.713-3.274v4.245c0 .195.107.271.25.271.154 0 .292-.06.435-.14l.071.567c-.273.148-.487.216-.744.216-.594 0-.744-.44-.744-.91V23.66l.732-.136zm1.889 1.478v2.46c0 .459.281.602.602.602.32 0 .602-.143.602-.603v-2.46h.728v2.44c0 .839-.562 1.238-1.33 1.238-.772 0-1.334-.399-1.334-1.238v-2.44h.732zm4.635 1.209c-.02-.35-.166-.682-.57-.682-.443 0-.641.255-.641 1.27 0 1.014.3 1.265.831 1.265.424 0 .697-.184.899-.323l.142.547c-.3.207-.669.391-1.183.391-.927 0-1.445-.587-1.445-1.885 0-1.25.447-1.88 1.433-1.88.855 0 1.183.535 1.2 1.23-.23.02-.448.04-.666.067zm2.173-1.688h-.728v-.799h.728v.799zm0 4.069h-.728v-3.59h.728v3.59zm3.745-1.778c0 1.242-.511 1.865-1.469 1.865-.938 0-1.472-.539-1.472-1.877 0-1.317.514-1.884 1.472-1.884 1.002-.004 1.469.539 1.469 1.896zm-2.189-.016c0 .975.241 1.266.724 1.266s.717-.291.717-1.25c0-.998-.234-1.285-.717-1.285s-.724.283-.724 1.27zm1.773-3.274l-.776 1.067h-.621l.657-1.067h.74zm1.876 1.801c.281-.208.63-.411 1.105-.411.641 0 1.045.36 1.045 1.142v2.535h-.729V26.21c0-.44-.146-.596-.554-.596-.269 0-.562.116-.787.264v2.715h-.733v-3.59h.657v.324h-.004zM23.632 2.615c.047.663.083 2.316.083 2.923 0 .555-.004 2.416-.091 3.222l-.008.064h2.886c1.409 0 2.913-.451 2.913-1.72 0-.8-.57-1.386-1.639-1.71.78-.211 1.314-.762 1.314-1.393 0-1.034-1.18-1.43-2.28-1.454h-3.182l.004.068zm2.228.64c1.204.003 1.651.255 1.651.917a.71.71 0 01-.162.464c-.23.28-.689.423-1.259.395h-.028l-.332.882h.336c.665-.02 1.243.192 1.536.56a.87.87 0 01.206.566c0 .699-.606 1.054-1.79 1.054a15 15 0 01-.728-.016c-.043-.918-.043-2.168-.043-2.539 0-.44.02-1.413.047-2.248.131-.02.36-.04.566-.036zm10.2-.699h-1.397l.06 1.577c.024.786.051 1.589.103 2.368-.095-.236-.174-.368-.594-.99-.012-.025-1.469-2.297-1.971-2.935l-.016-.02H30.61l.004.06c.047.658.083 2.311.083 2.922 0 .555-.008 2.42-.09 3.226l-.009.064h1.449l-.004-.064c-.083-1.537-.083-3.078-.083-4.571v-.004c.047.18.119.343.348.686.024.04 2.514 3.71 2.64 3.93l.012.023h1.164l-.008-.064c-.087-.806-.09-2.67-.09-3.226 0-.61.035-2.264.082-2.922l.004-.06h-.051zm1.687.059c.048.663.083 2.316.083 2.923 0 .555-.008 2.42-.09 3.222l-.005.064h1.726l-.008-.064c-.06-.575-.083-1.677-.087-2.527l.317.016.241.012c2.276 0 3.38-.615 3.38-1.889 0-1.453-1.55-1.793-2.85-1.816l-2.71-.004.003.063zm2.118.695c.807-.016 1.377.156 1.65.495a.897.897 0 01.187.571c0 .91-1.006 1.098-1.849 1.098l-.34-.012-.139-.02a41.895 41.895 0 01.012-2.088c.103-.024.293-.04.479-.044zm6.738-.695c.047.663.083 2.316.083 2.923 0 .555-.008 2.42-.09 3.222l-.009.064h1.73l-.008-.064c-.06-.575-.08-1.677-.087-2.527l.317.016.245.012c2.276 0 3.385-.615 3.385-1.889 0-1.453-1.552-1.793-2.854-1.816l-2.708-.004-.004.063zm2.118.695c.807-.016 1.377.156 1.65.495a.898.898 0 01.186.571c0 .91-1.005 1.098-1.848 1.098l-.34-.012-.135-.02a21.823 21.823 0 01-.012-.794c0-.4.008-.859.024-1.294.103-.024.289-.04.475-.044zm5.755-.754h-.032l-.012.036c-.32.89-2.387 5.454-2.711 6.152l-.04.084h1.48l.012-.036c.131-.427.293-.914.491-1.441l1.224-.02 1.009.012s.178.008.221.008c.266.675.464 1.19.555 1.441l.012.036h1.714l-2.763-6.272h-1.16zm.42 1.848c.138.292.49 1.134.89 2.124-.06 0-.13.004-.13.004l-.76.012s-.788-.012-.911-.016c.325-.794.637-1.513.91-2.124zm4.188-1.789c.043.66.083 2.316.083 2.923 0 .555-.008 2.42-.095 3.222l-.008.068h1.726l-.008-.068c-.087-.806-.091-2.67-.091-3.226 0-.435.02-1.413.051-2.192.143-.02.333-.036.467-.04.808-.016 1.378.156 1.651.495.123.152.19.344.19.571 0 .723-.673 1.09-1.302 1.126-.206.008-.364-.02-.364-.02l-.12-.02.076.112A43.45 43.45 0 0163.252 8.8l.016.028h1.852l-.055-.092c-.063-.103-1.279-1.9-1.793-2.667 0 0-.02-.024-.032-.044.942-.287 1.405-.826 1.405-1.649 0-1.453-1.551-1.788-2.854-1.816H59.08l.004.055zm8.486-.063h-1.658l.008.06c.047.662.083 2.32.083 2.926 0 .555-.008 2.416-.091 3.222l-.004.064h1.726l-.008-.064c-.084-.806-.091-2.67-.091-3.222 0-.607.035-2.264.083-2.927l.004-.06h-.052zm1.614.063c.048.659.08 2.316.08 2.923 0 .555-.004 2.416-.091 3.222l-.008.064h2.885c1.41 0 2.914-.451 2.914-1.72 0-.8-.57-1.386-1.64-1.71.785-.211 1.319-.762 1.319-1.393 0-1.034-1.176-1.43-2.28-1.454H69.18l.004.068zm2.229.64c1.203.003 1.65.255 1.65.917a.71.71 0 01-.162.464c-.23.28-.688.423-1.258.395h-.032l-.329.882h.337c.665-.02 1.235.192 1.536.56a.87.87 0 01.206.566c0 .699-.602 1.054-1.79 1.054-.202 0-.526-.004-.732-.016-.044-.918-.044-2.168-.044-2.539 0-.44.02-1.417.052-2.248.13-.02.36-.04.566-.036zm7.803-.703h-1.164l-.012.035c-.34.95-2.53 5.758-2.711 6.153l-.04.084h1.484l.008-.036c.127-.427.297-.91.491-1.437l1.223-.02 1.01.016.222.004c.269.679.463 1.186.55 1.441l.011.032h1.719l-2.764-6.272h-.027zM78.503 4.4c.139.296.491 1.134.89 2.124-.058 0-.13.008-.13.008l-.764.012s-.783-.016-.906-.02c.32-.802.637-1.513.91-2.124zm3.983-.22c0 1.102 1.1 1.55 2.066 1.949.756.307 1.532.627 1.532 1.15a.58.58 0 01-.119.387c-.178.216-.55.308-1.132.28-.57-.028-1.223-.216-1.943-.555l-.301-.14.004.243V8.62l.194.044.118.024c.365.088 1.053.252 1.75.252 1.82 0 2.91-.73 2.91-1.949 0-1.13-1.125-1.585-2.114-1.98-.733-.296-1.489-.599-1.489-1.082 0-.14 0-.56.934-.56.701 0 1.386.288 1.758.444l.356.148-.004-.24V2.58l-.352-.064c-.352-.067-.938-.183-1.548-.183-1.567.004-2.62.742-2.62 1.848zm-54.532 7.926c-.3-.18-.669-.327-1.148-.327-1.401 0-1.884 1.118-1.884 2.072 0 1.326.808 1.993 1.892 1.993.677 0 1.184-.32 1.639-.723l.008 1.15c-.463.188-1.03.351-1.884.351-1.956 0-3.18-1.226-3.18-2.787 0-1.645 1.295-2.83 3.425-2.83.499 0 .986.08 1.453.195l-.32.906zm4.723-1.006c.21.56 1.975 4.532 2.395 5.435h-1.485c-.083-.248-.261-.7-.49-1.282a37.358 37.358 0 00-1.062-.016c-.407 0-.716.008-1.068.016-.17.459-.31.878-.432 1.282h-1.294c.308-.675 2.117-4.632 2.402-5.435h1.034zm.13 3.438l-.768-1.84a43.843 43.843 0 00-.8 1.84c.23.008.547.016.8.016.246 0 .507-.008.768-.016zm5.55-3.438c1.132 0 2.478.32 2.478 1.578 0 .706-.408 1.177-1.216 1.429.115.232 1.417 2.228 1.631 2.428h-1.607a43.033 43.033 0 00-1.738-2.927c.1.024.246.04.416.04.471 0 1.132-.344 1.132-.97 0-.783-.938-.923-1.41-.923-.237 0-.466.016-.585.032a49.093 49.093 0 00-.047 1.9c0 .484 0 2.089.083 2.848h-1.5c.079-.751.09-1.721.09-2.847 0-.947-.008-2.08-.079-2.584h2.352V11.1zm5.981 0c2.268 0 3.139 1.202 3.139 2.707 0 1.554-.847 2.723-3.222 2.723h-2c.08-.73.08-1.728.08-2.838 0-.527 0-1.885-.08-2.592h2.083zm-.634.683c-.031.356-.04 1.282-.04 1.909 0 .79 0 1.413.032 2.152.08.008.202.024.384.024 1.299 0 1.98-.412 1.98-2.08 0-1.59-.693-2.04-2.007-2.013l-.349.008zm6.536-.683a50.26 50.26 0 00-.079 2.592c0 .475.008 2.088.08 2.838h-1.493c.08-.75.083-2.363.083-2.838 0-.527-.032-1.965-.067-2.592h1.476zm5.712 0v.787a51.288 51.288 0 00-1.833-.056c-.261 0-.554 0-.855.024a16.819 16.819 0 00-.024 1.593l1.876-.032v.847l-1.876-.076c.008.69.016 1.76.083 2.351h-1.508c.091-.75.091-2.363.091-2.838 0-.527-.04-1.965-.087-2.592h4.133V11.1z" fill="#08080A"/><defs><linearGradient id="paint0_linear_192_29041" x1="9.532" y1="-.469" x2="9.532" y2="19.543" gradientUnits="userSpaceOnUse"><stop stop-color="#43774F"/><stop offset=".6" stop-color="#9FC8AD"/><stop offset="1" stop-color="#549462"/></linearGradient><linearGradient id="paint1_linear_192_29041" x1="9.508" y1="-4.714" x2="9.508" y2="17.774" gradientUnits="userSpaceOnUse"><stop stop-color="#549462"/><stop offset=".3" stop-color="#9FC8AD"/><stop offset=".55" stop-color="#549462"/><stop offset=".835" stop-color="#43774F"/><stop offset=".884" stop-color="#477E55"/><stop offset=".964" stop-color="#529167"/><stop offset="1" stop-color="#599D73"/></linearGradient><linearGradient id="paint2_linear_192_29041" x1="13.069" y1="16.542" x2="13.069" y2="1.989" gradientUnits="userSpaceOnUse"><stop stop-color="#5EA77E"/><stop offset="1" stop-color="#549462"/></linearGradient><linearGradient id="paint3_linear_192_29041" x1="4.123" y1="16.536" x2="4.123" y2="1.979" gradientUnits="userSpaceOnUse"><stop stop-color="#5EA77E"/><stop offset="1" stop-color="#549462"/></linearGradient><linearGradient id="paint4_linear_192_29041" x1="6.919" y1="16.525" x2="6.919" y2="1.977" gradientUnits="userSpaceOnUse"><stop stop-color="#5EA77E"/><stop offset="1" stop-color="#549462"/></linearGradient><linearGradient id="paint5_linear_192_29041" x1="9.322" y1="16.536" x2="9.322" y2="1.983" gradientUnits="userSpaceOnUse"><stop stop-color="#5EA77E"/><stop offset="1" stop-color="#549462"/></linearGradient></defs></svg>