<svg version="1.1" id="Capa_1" xmlns="http://www.w3.org/2000/svg" xmlns:xlink="http://www.w3.org/1999/xlink" x="0" y="0" viewBox="0 0 395 131" xml:space="preserve"><style>.st0{fill:#0092c6}</style><path class="st0" d="M339.5 11.3h-1.9c-.3 0-.6.3-.6.6v15.7c-.1 3.2-1.9 5.1-4.5 5.1-2 0-3.1-.6-4.6-2.3-.1-.1-.2-.2-.3-.4-.2-.3-.3-.4-.5-.4s-.4 0-.5.1c-.2.1-1 .8-1.1.9-.2.1-.3.3-.3.6 0 .1.1.2.1.3 1.8 2.5 4.1 3.8 7.2 3.8 2.2 0 3.9-.7 5.3-2 1.5-1.5 2.2-3.6 2.2-6.3V11.8c.1-.3-.2-.5-.5-.5m-20.3 15.3c-2.8-6.2-6-13.3-6.7-14.8-.1-.2-.3-.3-.6-.3h-2c-.2 0-.4.1-.5.3-1 2.4-8.1 17.9-10.2 22.5-.1.1-.1.3 0 .5.1.1.2.2.4.2h1.7c.3 0 .6-.2.8-.5l2.4-5.3h12.7l2.4 5.3c.1.3.4.5.8.5h1.9c.2 0 .3-.1.4-.2s.1-.3 0-.5c-.7-1.7-2-4.6-3.5-7.7m-3.1-.1h-10.4l5.2-11.6 5.2 11.6zm51.6 7.7c-.7-1.6-2.1-4.5-3.5-7.7-2.8-6.2-6-13.3-6.7-14.8-.1-.2-.3-.3-.6-.3h-2c-.2 0-.4.1-.5.3-1 2.4-8.1 17.9-10.2 22.5-.1.1-.1.3 0 .5.1.1.2.2.4.2h1.7c.3 0 .6-.2.8-.5l2.4-5.3h12.7l2.4 5.3c.1.3.4.5.8.5h1.9c.2 0 .3-.1.4-.2v-.5m-6.7-7.7h-10.4l5.2-11.6 5.2 11.6zm-65.1 4.4c-.1-.1-.2-.3-.3-.4-.2-.2-.4-.5-.4-.6-.1-.2-.4-.3-.6-.2-.1 0-.2.1-.3.2-2.3 2.1-4.4 2.9-7 2.9-5.1 0-9-4.2-9-9.6V23c0-5.5 3.9-9.6 9-9.6 2.5 0 4.6.8 6.6 2.6l.1.1c.2.1.2.2.4.3.2.1.5 0 .6-.2.1-.1 1-1.5 1-1.5.1-.1.1-.3.1-.5 0-.1-.2-.3-.4-.5-2.5-2.1-5-3-8.4-3-6.8 0-12.1 5.5-12.1 12.4v.1c0 7 5.2 12.3 12 12.3 3.5 0 6.2-1.1 8.9-3.5.1-.1.2-.2.2-.3.1-.2 0-.4-.1-.5l-.3-.3zm-6.6 45h-3.6c-.3 0-.7.2-.8.5-1.2 2.9-7.3 16.3-9.3 20.9l-.5 1.1c-.1.2-.1.4.1.6.1.2.3.3.6.3h4.6c.3 0 .6-.2.8-.5l6.4-14.8 6.5 14.8c.1.3.4.5.8.5h4.5c.2 0 .4-.1.6-.3.1-.2.1-.4 0-.6-1.8-3.8-8.4-19-9.7-22.1-.4-.2-.7-.4-1-.4m9.9 23.4zm72.2-23.4h-15.9c-.5 0-.8.4-.8.8v22c0 .2.1.4.2.6.2.2.4.2.6.2h15.9c.5 0 .8-.4.8-.8v-3.1c0-.5-.4-.8-.8-.8H360v-4.7h9.3c.5 0 .8-.4.8-.8v-3.1c0-.5-.4-.8-.8-.8H360v-4.5h11.4c.5 0 .8-.4.8-.8V77c0-.7-.4-1.1-.8-1.1m15 9.3c-4.1-1-5.1-1.6-5.1-3v-.1c0-1.1 1.1-2 2.9-2 1.7 0 3.5.6 5.7 2.1.1.1.2.1.3.1.3 0 .5-.2.6-.4.2-.2.9-1.3 1.5-2.2.2-.3.4-.6.5-.7.2-.3.5-.7 0-1-2.5-1.9-5.3-2.8-8.5-2.8-5 0-8.5 3-8.5 7.4v.1c0 5 3.5 6.3 8 7.5 4 1 4.7 1.7 4.7 2.9v.1c0 1.3-1.2 2.1-3.3 2.1-2.2 0-4.2-.8-6.4-2.5-.5-.4-.9-.3-1.2.1-.2.2-.9 1.2-1.5 2l-.7.9c-.1.2-.1.3-.1.4s.3.4.7.8c.1.1.3.2.4.3 2.5 1.8 5.5 2.7 8.8 2.7 5.5 0 8.9-2.9 8.9-7.6v-.1c.1-4.2-3-5.9-7.7-7.1m-62.1-9.3h-3.6c-.5 0-.9.4-.9.9V90l-10.5-13.8c-.2-.2-.4-.3-.7-.3H305c-.5 0-.8.4-.8.8v21.9c0 .5.4.8.8.8h3.6c.5 0 .8-.4.8-.8V84.9l10.9 14.2c.2.2.4.3.7.3h3.3c.5 0 .8-.4.8-.8V76.7c.1-.4-.3-.8-.8-.8m15.4 0h-8.4c-.2 0-.4.1-.6.2-.2.2-.2.4-.2.6v21.7c0 .5.4.8.8.8h8.4c7 0 11.9-4.9 11.9-11.8v-.1c0-3.3-1.1-6.2-3.2-8.4-2.2-1.9-5.2-3-8.7-3m0 18.7h-3.8V80.8h3.8c3.9 0 6.3 2.6 6.3 6.8v.1c-.1 4.4-2.5 6.9-6.3 6.9m-44.9-32.4h-11V44.5c0-.5-.4-.9-.9-.9h-3.7c-.5 0-.9.4-.9.9v21.9c0 .5.4.9.9.9h15.5c.5 0 .8-.4.8-.8v-3.3c.1-.7-.3-1-.7-1m15.5-19.3c-7.2 0-12.7 5.5-12.7 12.4v.1c0 7 5.5 12.3 12.7 12.3S323 62.2 323 55.3v-.1c.1-6.9-5.4-12.3-12.7-12.3m-7 12.5c0-4.1 3-7.3 6.9-7.3s7 3.2 7 7.4v.1c0 4.1-3 7.3-6.9 7.3-4-.2-7-3.4-7-7.5zm33.4-2.5c-4.1-1-5.1-1.6-5.1-3v-.1c0-1.1 1.1-2 2.9-2 1.7 0 3.5.6 5.7 2.1.1.1.2.1.3.1.2 0 .4-.1.6-.4.2-.2.8-1.1 1.3-1.9.3-.4.5-.8.6-.9.2-.3.5-.7 0-1-2.5-1.9-5.3-2.8-8.5-2.8-5 0-8.5 3-8.5 7.4v.1c0 5 3.5 6.3 8 7.5 4 1 4.7 1.7 4.7 2.9 0 1.3-1.2 2.1-3.3 2.1-2.2 0-4.2-.8-6.4-2.5-.5-.3-.9-.3-1.2.1-.2.2-.9 1.2-1.5 2l-.7.9c-.1.2-.1.3-.1.4 0 .2.5.6.7.8l.1.1c.1.1.2.1.3.2 2.5 1.8 5.5 2.7 8.8 2.7 5.5 0 8.9-2.9 8.9-7.6V60c0-4.2-3.1-5.9-7.6-7.1"/><g opacity=".5"><defs><path id="SVGID_1_" d="M275.3 112.3h102.3V125H275.3z"/></defs><clipPath id="SVGID_2_"><use xlink:href="#SVGID_1_" overflow="visible"/></clipPath><path d="M275.9 122.9c.6.4 1.6.7 2.5.7 1.2 0 2.2-.4 2.2-1.8 0-2.6-5.2-2.3-5.2-5.8 0-1.7 1.3-3.1 3.5-3.1 1.1 0 2.1.3 2.6.5v1.4c-.7-.4-1.7-.6-2.6-.6s-2 .4-2 1.6c0 2.5 5.2 2.2 5.2 5.9 0 2-1.7 3.2-3.8 3.2-1.3 0-2.4-.4-3.2-.8l.8-1.2z" clip-path="url(#SVGID_2_)" fill="#efefef"/><defs><path id="SVGID_3_" d="M275.3 112.3h102.3V125H275.3z"/></defs><clipPath id="SVGID_4_"><use xlink:href="#SVGID_3_" overflow="visible"/></clipPath><path d="M284.3 119.1c0-3.5 2.4-6 5.8-6s5.7 2.5 5.7 6c0 3.6-2.5 5.9-5.7 5.9-3.4 0-5.8-2.4-5.8-5.9m9.7 0c0-2.6-1.6-4.6-4-4.6s-4 1.9-4 4.6c0 2.8 1.7 4.6 4 4.6s4-1.9 4-4.6" clip-path="url(#SVGID_4_)" fill="#efefef"/><defs><path id="SVGID_5_" d="M275.3 112.3h102.3V125H275.3z"/></defs><clipPath id="SVGID_6_"><use xlink:href="#SVGID_5_" overflow="visible"/></clipPath><path d="M298.2 113.1h1.4l3.2 4.7c.4.7.7 1.2 1.1 1.7.2-.4.5-.9.9-1.7l3-4.7h1.4v11.7h-1.4v-9.1c-.2.4-.6 1.1-.8 1.4l-2.7 4.2h-.7l-3-4.3c-.2-.3-.5-.7-.7-1.2v9h-1.6v-11.7h-.1z" clip-path="url(#SVGID_6_)" fill="#efefef"/><defs><path id="SVGID_7_" d="M275.3 112.3h102.3V125H275.3z"/></defs><clipPath id="SVGID_8_"><use xlink:href="#SVGID_7_" overflow="visible"/></clipPath><path d="M311.7 119.1c0-3.5 2.4-6 5.8-6s5.7 2.5 5.7 6c0 3.6-2.5 5.9-5.7 5.9-3.3 0-5.8-2.4-5.8-5.9m9.8 0c0-2.6-1.6-4.6-4-4.6s-4 1.9-4 4.6c0 2.8 1.7 4.6 4 4.6s4-1.9 4-4.6" clip-path="url(#SVGID_8_)" fill="#efefef"/><defs><path id="SVGID_9_" d="M275.3 112.3h102.3V125H275.3z"/></defs><clipPath id="SVGID_10_"><use xlink:href="#SVGID_9_" overflow="visible"/></clipPath><path d="M325.8 122.9c.5.4 1.6.7 2.5.7 1.2 0 2.2-.4 2.2-1.8 0-2.6-5.2-2.3-5.2-5.8 0-1.7 1.3-3.1 3.5-3.1 1.1 0 2.1.3 2.6.5v1.4c-.7-.4-1.8-.6-2.6-.6-.9 0-2 .4-2 1.6 0 2.5 5.2 2.2 5.2 5.9 0 2-1.7 3.2-3.8 3.2-1.3 0-2.4-.4-3.2-.8l.8-1.2z" clip-path="url(#SVGID_10_)" fill="#efefef"/><defs><path id="SVGID_11_" d="M275.3 112.3h102.3V125H275.3z"/></defs><clipPath id="SVGID_12_"><use xlink:href="#SVGID_11_" overflow="visible"/></clipPath><path d="M347.1 124.2c-1.2.6-2.3.8-3.4.8-3.6 0-5.7-2.4-5.7-5.9 0-3.4 2.4-6 5.9-6 1.2 0 2.3.3 3 .6v1.4c-.8-.4-1.8-.7-3-.7-2.6 0-4.2 2.1-4.2 4.7 0 2.7 1.7 4.6 4.1 4.6 1.1 0 2-.3 2.8-.7l.5 1.2z" clip-path="url(#SVGID_12_)" fill="#efefef"/><defs><path id="SVGID_13_" d="M275.3 112.3h102.3V125H275.3z"/></defs><clipPath id="SVGID_14_"><use xlink:href="#SVGID_13_" overflow="visible"/></clipPath><path d="M357.6 124.2c-1.2.6-2.3.8-3.4.8-3.6 0-5.7-2.4-5.7-5.9 0-3.4 2.4-6 5.9-6 1.3 0 2.3.3 3 .6v1.4c-.8-.4-1.8-.7-3-.7-2.6 0-4.2 2.1-4.2 4.7 0 2.7 1.7 4.6 4.1 4.6 1.1 0 2-.3 2.8-.7l.5 1.2z" clip-path="url(#SVGID_14_)" fill="#efefef"/><defs><path id="SVGID_15_" d="M275.3 112.3h102.3V125H275.3z"/></defs><clipPath id="SVGID_16_"><use xlink:href="#SVGID_15_" overflow="visible"/></clipPath><path d="M359.5 112.3h1.6v5.2c.8-.6 1.8-1.2 2.8-1.2 1.3 0 2.5.7 2.5 3v5.6h-1.6v-5.2c0-1.2-.3-2.1-1.4-2.1-.8 0-1.7.5-2.4 1.1v6h-1.6l.1-12.4z" clip-path="url(#SVGID_16_)" fill="#efefef"/><defs><path id="SVGID_17_" d="M275.3 112.3h102.3V125H275.3z"/></defs><clipPath id="SVGID_18_"><use xlink:href="#SVGID_17_" overflow="visible"/></clipPath><path d="M377.6 124.2c-1.2.6-2.3.8-3.4.8-3.6 0-5.7-2.4-5.7-5.9 0-3.4 2.4-6 5.9-6 1.3 0 2.3.3 3 .6v1.4c-.8-.4-1.8-.7-2.8-.7-2.6 0-4.2 2.1-4.2 4.7 0 2.7 1.7 4.6 4.1 4.6 1.1 0 2-.3 2.8-.7l.3 1.2z" clip-path="url(#SVGID_18_)" fill="#efefef"/></g><path d="M249.1 79.7h-13.4c-1.8 0-3.2 1.5-3.2 3.3v13.4c0 1.8 1.5 3.3 3.2 3.3h13.4c1.8 0 3.2-1.5 3.2-3.3V83.1c.1-1.9-1.4-3.4-3.2-3.4" fill="#e8bc28"/><path class="st0" d="M220.8 79.7h-23.5c-8.8 0-16.9-3.6-22.5-9.3s-39.6-57.6-39.6-57.6c-.6-.8-1.6-1.3-2.7-1.3h-16.7c-1.1 0-2.3.6-2.8 1.6-2.2 2.9-39.3 52.8-44.7 58.3-5.6 5.7-13.7 9.3-22.5 9.3-13.8 0-25-11.2-25-25 0-12.9 9.6-23.3 22.1-24.8 1.7-.2 2.9-1.6 2.9-3.2V14.1c0-1.9-1.5-3.3-3.3-3.3C19.4 12.5.9 31.8.9 55.6c0 24.9 20.1 45 45 45 14.3 0 28.1-6 36.6-15.1 7.2-7.8 32.3-41.4 39.7-51.2.4-.6 1.1-1.3 1.9-1.3s1.6.7 2 1.5c6.3 9.8 27.6 42.5 34.7 50.3 8.4 9.1 22.2 15.1 36.5 15.1h23.5c1.9 0 3.3-1.5 3.3-3.3V83.1c0-1.9-1.6-3.4-3.3-3.4"/></svg>