<svg width="105" height="36" fill="none" xmlns="http://www.w3.org/2000/svg"><path d="M90.247 3.105h-.505c-.08 0-.16.083-.16.165v4.315c-.026.88-.505 1.401-1.196 1.401-.532 0-.824-.165-1.223-.632-.026-.027-.053-.055-.08-.11-.053-.082-.08-.11-.132-.11-.054 0-.107 0-.133.028a2.92 2.92 0 00-.293.247c-.053.028-.08.083-.08.165 0 .027.027.055.027.082.479.687 1.09 1.045 1.914 1.045.585 0 1.037-.193 1.409-.55.399-.412.585-.99.585-1.731V3.243c.026-.083-.053-.138-.133-.138zM84.85 7.31c-.745-1.704-1.595-3.655-1.781-4.067-.027-.055-.08-.083-.16-.083h-.532a.146.146 0 00-.132.083c-.266.66-2.154 4.919-2.712 6.183-.026.027-.026.082 0 .137.027.028.053.055.106.055h.452c.08 0 .16-.055.213-.137l.638-1.457h3.376l.638 1.457c.027.082.106.137.213.137h.505c.053 0 .08-.027.106-.055.027-.027.027-.082 0-.137a43.891 43.891 0 00-.93-2.116zm-.825-.028h-2.764l1.382-3.187 1.382 3.187zm13.717 2.116c-.186-.44-.558-1.236-.93-2.116-.745-1.703-1.595-3.655-1.781-4.067-.027-.055-.08-.082-.16-.082h-.531a.145.145 0 00-.133.082c-.266.66-2.154 4.92-2.712 6.183-.026.028-.026.083 0 .138.027.027.053.055.107.055h.451c.08 0 .16-.055.213-.138l.638-1.456h3.376l.638 1.456c.026.083.106.138.213.138h.505c.053 0 .08-.028.106-.055v-.138zm-1.781-2.116h-2.765l1.383-3.187 1.382 3.187zm-17.305 1.21c-.027-.028-.053-.083-.08-.11-.053-.055-.106-.138-.106-.165-.027-.055-.106-.083-.16-.055-.026 0-.053.027-.08.055-.61.577-1.169.797-1.86.797-1.356 0-2.393-1.154-2.393-2.638V6.32c0-1.512 1.037-2.639 2.393-2.639.664 0 1.223.22 1.754.715l.027.027c.053.028.053.055.106.083.053.027.133 0 .16-.055.026-.028.265-.412.265-.412.027-.028.027-.083.027-.138 0-.027-.053-.082-.106-.137-.665-.577-1.33-.825-2.233-.825-1.808 0-3.217 1.512-3.217 3.408v.028c0 1.923 1.383 3.38 3.19 3.38.93 0 1.648-.303 2.366-.962.027-.028.053-.055.053-.083.027-.055 0-.11-.026-.137l-.08-.082zm-1.754 12.366h-.958c-.08 0-.185.055-.212.137-.32.797-1.94 4.48-2.472 5.744l-.133.302c-.027.055-.027.11.026.165.027.055.08.082.16.082h1.223c.08 0 .16-.054.212-.137l1.702-4.067 1.727 4.067c.027.083.107.137.213.137h1.196c.053 0 .107-.027.16-.082a.18.18 0 000-.165c-.479-1.044-2.233-5.221-2.579-6.073-.106-.055-.186-.11-.266-.11zm21.823 0H94.5c-.133 0-.213.11-.213.22v6.046a.4.4 0 00.053.165c.054.054.107.054.16.054h4.227c.132 0 .212-.11.212-.22v-.851a.213.213 0 00-.212-.22h-3.03V24.76h2.471c.133 0 .213-.11.213-.22v-.851a.213.213 0 00-.213-.22h-2.472v-1.237h3.03c.133 0 .213-.11.213-.22v-.852c0-.192-.106-.302-.212-.302zm3.988 2.556c-1.09-.275-1.356-.44-1.356-.825v-.027c0-.303.293-.55.771-.55.452 0 .93.165 1.515.577.027.028.053.028.08.028.08 0 .133-.055.16-.11.053-.055.239-.357.398-.605a1.92 1.92 0 01.133-.192c.053-.082.133-.193 0-.275-.664-.522-1.409-.77-2.259-.77-1.329 0-2.26.825-2.26 2.034v.028c0 1.374.931 1.731 2.127 2.06 1.063.276 1.249.468 1.249.798v.027c0 .357-.319.577-.877.577-.585 0-1.117-.22-1.701-.687-.133-.11-.24-.082-.319.028-.054.055-.24.33-.4.55l-.185.247c-.027.055-.027.082-.027.11 0 .027.08.11.186.22.027.027.08.054.107.082.664.495 1.462.742 2.339.742 1.462 0 2.366-.797 2.366-2.089v-.027c.026-1.154-.798-1.621-2.047-1.951zm-16.508-2.556h-.957a.242.242 0 00-.239.247v3.628L82.22 20.94a.238.238 0 00-.186-.082h-.957c-.133 0-.213.11-.213.22v6.018c0 .138.107.22.213.22h.957c.133 0 .213-.11.213-.22v-3.765l2.897 3.903a.238.238 0 00.186.082h.877c.133 0 .213-.11.213-.22v-6.018c.026-.11-.08-.22-.213-.22zm4.094 0h-2.233a.369.369 0 00-.16.055c-.053.055-.053.11-.053.165v5.963c0 .138.107.22.213.22H90.3c1.86 0 3.163-1.346 3.163-3.243v-.027c0-.907-.292-1.704-.85-2.309-.585-.522-1.383-.824-2.313-.824zm0 5.139h-1.01v-3.792h1.01c1.037 0 1.675.714 1.675 1.868v.028c-.027 1.209-.665 1.896-1.675 1.896zm-11.935-8.904H75.44V12.23a.242.242 0 00-.24-.247h-.983c-.133 0-.24.11-.24.247v6.018c0 .138.107.248.24.248h4.12c.133 0 .213-.11.213-.22v-.907c.026-.192-.08-.275-.186-.275zm4.12-5.304c-1.914 0-3.376 1.512-3.376 3.408v.027c0 1.924 1.462 3.38 3.376 3.38s3.376-1.51 3.376-3.407v-.028c.026-1.896-1.436-3.38-3.376-3.38zm-1.861 3.435c0-1.126.797-2.006 1.834-2.006s1.861.88 1.861 2.034v.027c0 1.127-.797 2.006-1.834 2.006-1.064-.055-1.861-.934-1.861-2.06zm8.879-.687c-1.09-.274-1.356-.44-1.356-.824v-.027c0-.303.292-.55.77-.55.453 0 .931.165 1.516.577.026.027.053.027.08.027.053 0 .106-.027.16-.11.052-.055.212-.302.345-.522.08-.11.133-.22.16-.247.052-.082.132-.192 0-.275a3.535 3.535 0 00-2.26-.77c-1.33 0-2.26.825-2.26 2.034v.028c0 1.374.93 1.731 2.127 2.06 1.063.276 1.25.468 1.25.798 0 .357-.32.577-.878.577-.585 0-1.117-.22-1.701-.687-.133-.082-.24-.082-.32.027-.052.055-.239.33-.398.55l-.186.247c-.027.055-.027.083-.027.11 0 .055.133.165.186.22l.027.028c.026.027.053.027.08.055.664.494 1.462.742 2.339.742 1.462 0 2.366-.797 2.366-2.089v-.027c0-1.155-.824-1.622-2.02-1.952z" fill="#0076A9"/><path d="M66.216 21.902h-3.562c-.478 0-.85.413-.85.907v3.683c0 .494.398.906.85.906h3.562c.479 0 .851-.412.851-.906v-3.655c.027-.522-.372-.935-.85-.935z" fill="#F9BE00"/><path d="M58.694 21.902h-6.247a8.276 8.276 0 01-5.981-2.555c-1.489-1.567-10.527-15.83-10.527-15.83a.885.885 0 00-.718-.357h-4.439c-.292 0-.611.165-.744.44-.585.797-10.447 14.51-11.882 16.021a8.276 8.276 0 01-5.981 2.556c-3.669 0-6.646-3.078-6.646-6.87 0-3.545 2.552-6.403 5.875-6.815a.88.88 0 00.77-.88V3.875c0-.522-.398-.907-.877-.907C5.157 3.435.24 8.739.24 15.279c0 6.843 5.343 12.367 11.962 12.367 3.802 0 7.47-1.649 9.73-4.15 1.913-2.143 8.585-11.377 10.553-14.07.106-.165.292-.357.505-.357.212 0 .425.192.531.412 1.675 2.693 7.337 11.68 9.224 13.823 2.233 2.5 5.902 4.15 9.703 4.15h6.247c.505 0 .877-.413.877-.907v-3.71c0-.522-.425-.935-.877-.935z" fill="#0076A9"/></svg>