<svg width="157" height="46" fill="none" xmlns="http://www.w3.org/2000/svg"><path d="M87.78 27.883h-9.33c-3.487 0-6.768-1.454-8.922-3.74C67.168 21.858 53.53.977 53.53.977c-.205-.312-.616-.52-1.026-.52H45.84c-.513 0-.923.208-1.128.623-.82 1.143-15.587 21.193-17.844 23.375a12.554 12.554 0 01-8.921 3.74C12.409 28.195 8 23.727 8 18.118c0-5.09 3.897-9.35 8.819-9.973.615-.104 1.128-.624 1.128-1.247V1.496c0-.727-.616-1.35-1.333-1.35C7.28.873 0 8.664 0 18.118c0 9.973 7.999 18.076 17.946 18.076 5.742 0 11.28-2.39 14.561-6.026C35.38 27.052 45.43 13.547 48.3 9.6c.205-.208.41-.52.718-.52.307 0 .615.312.82.52 2.564 3.948 10.973 17.037 13.844 20.154 3.384 3.636 8.819 6.025 14.562 6.025h9.434c.718 0 1.333-.623 1.333-1.35v-5.195c.103-.727-.513-1.35-1.23-1.35zM135.161.354h-.718c-.103 0-.205.104-.205.208v6.337c-.103 1.246-.718 2.077-1.846 2.077-.821 0-1.231-.207-1.846-.935l-.103-.103-.205-.208c-.102 0-.102 0-.205.104-.102 0-.41.311-.512.415-.103.104-.103.104-.103.208 0 0 0 .104.103.104.717 1.039 1.64 1.558 2.871 1.558.82 0 1.538-.311 2.153-.83.616-.624.923-1.455.923-2.494V.665c-.102-.207-.205-.311-.307-.311zm-9.331 6.13h-4.102l2.051-4.675 2.051 4.675zm1.23 0c-1.128-2.493-2.358-5.298-2.666-5.922 0-.104-.103-.104-.205-.104h-.82c-.103 0-.206.104-.206.104-.41.935-3.281 7.168-4.101 9.038v.208c0 .104.102.104.205.104h.717c.103 0 .308-.104.308-.208l.923-2.077h5.127l.923 2.077c.103.104.205.208.308.208h.718c.102 0 .102 0 .205-.104V9.6c-.308-.623-.82-1.766-1.436-3.116zm16.71-.001h-4.102l2.051-4.674 2.051 4.674zm2.564 3.117c-.308-.623-.821-1.766-1.436-3.117-1.128-2.493-2.358-5.298-2.666-5.921 0-.104-.103-.104-.205-.104h-.821c-.102 0-.205.104-.205.104-.41.935-3.281 7.168-4.102 9.038v.208c0 .104.103.104.206.104h.717c.103 0 .308-.104.308-.208l.923-2.078h5.127l.923 2.078c.103.104.205.208.308.208h.718c.102 0 .102 0 .205-.104.102-.104.102-.208 0-.208zm-28.611-1.351s-.102-.104-.102-.208l-.205-.208c-.103-.104-.205-.104-.205-.104-.103 0-.103 0-.103.104-.923.831-1.743 1.143-2.871 1.143-2.051 0-3.589-1.662-3.589-3.844s1.538-3.844 3.589-3.844c1.025 0 1.846.312 2.666 1.04.103.103.103.103.205.103.103 0 .205 0 .308-.104 0-.104.41-.52.41-.623 0 0 .102-.104 0-.208l-.205-.208c-1.026-.83-2.051-1.142-3.384-1.142-2.769 0-4.82 2.181-4.82 4.986 0 2.805 2.051 4.986 4.82 4.986 1.435 0 2.461-.415 3.589-1.454l.102-.104c0-.104-.102-.104-.205-.311zm-2.666 18.076h-1.436c-.102 0-.307.104-.307.207-.513 1.143-2.872 6.545-3.692 8.415l-.205.416v.311c0 .104.103.104.205.104h1.846c.102 0 .308-.104.308-.207l2.563-5.922 2.564 5.922c.103.103.205.207.308.207h1.743c.102 0 .205 0 .205-.104 0-.103.103-.207 0-.311-.718-1.559-3.384-7.584-3.897-8.83.103-.104 0-.208-.205-.208zm32.817 0h-6.358c-.205 0-.308.104-.308.311v8.727c0 .104 0 .208.103.208.102.103.102.103.205.103h6.358c.205 0 .307-.103.307-.311v-1.247c0-.208-.205-.312-.307-.312h-4.512v-1.87h3.691c.205 0 .308-.103.308-.311v-1.247c0-.207-.103-.311-.308-.311h-3.691v-1.767h4.512c.205 0 .307-.207.307-.311V26.74c0-.311-.102-.415-.307-.415zm6.049 3.74c-1.641-.416-2.051-.623-2.051-1.247 0-.519.41-.83 1.128-.83.615 0 1.436.311 2.256.83h.103c.102 0 .205-.103.307-.207.103-.104.41-.52.615-.831.103-.104.206-.208.206-.312.102-.104.205-.312 0-.416-1.026-.727-2.154-1.142-3.384-1.142-1.949 0-3.385 1.246-3.385 2.909 0 1.973 1.436 2.493 3.179 3.012 1.641.416 1.846.727 1.846 1.143 0 .52-.512.83-1.333.83-.82 0-1.743-.31-2.564-1.038-.205-.104-.41-.104-.512.104-.103.104-.41.52-.616.831l-.307.416c0 .104-.103.104 0 .207 0 .104.102.208.307.312 0 0 .103.104.206.104 1.025.727 2.256 1.039 3.486 1.039 2.154 0 3.589-1.143 3.589-3.013 0-1.558-1.23-2.285-3.076-2.7zm-24.819-3.74h-1.436c-.205 0-.307.207-.307.311v5.299l-4.205-5.506c-.102-.104-.205-.104-.307-.104h-1.436c-.205 0-.308.207-.308.311v8.83c0 .208.103.312.308.312h1.436c.205 0 .307-.104.307-.311V29.96l4.307 5.713c.103.104.205.104.308.104h1.333c.205 0 .308-.104.308-.311v-8.83c0-.208-.103-.312-.308-.312zm6.05 7.479h-1.539v-5.506h1.539c1.538 0 2.461 1.04 2.461 2.805.102 1.663-.821 2.701-2.461 2.701zm0-7.48h-3.384c-.103 0-.206 0-.206.105-.102.104-.102.104-.102.207v8.831c0 .207.205.311.308.311h3.384c2.768 0 4.717-1.974 4.717-4.778 0-1.351-.41-2.494-1.231-3.325-.82-.935-2.051-1.35-3.486-1.35zm-17.841-5.506h-4.41v-7.064c0-.208-.205-.312-.307-.312h-1.538c-.205 0-.308.208-.308.312v8.726c0 .208.205.312.308.312h6.255c.205 0 .308-.208.308-.312v-1.35c0-.208-.103-.312-.308-.312zm3.385-2.803c0-1.663 1.231-2.91 2.769-2.91s2.769 1.247 2.769 2.91c0 1.662-1.231 2.908-2.769 2.908-1.538.104-2.769-1.142-2.769-2.908zm2.769-4.883c-2.871 0-5.127 2.181-5.127 4.986 0 2.805 2.153 4.987 5.127 4.987 2.872 0 5.128-2.182 5.128-4.987 0-2.908-2.154-4.986-5.128-4.986zm10.565 3.946c-1.64-.415-2.051-.623-2.051-1.246 0-.52.411-.831 1.128-.831.616 0 1.436.311 2.256.83h.103c.103 0 .205-.103.308-.207.102-.104.307-.416.512-.727.103-.208.205-.312.205-.416.103-.104.206-.312 0-.415-1.025-.728-2.153-1.143-3.384-1.143-1.948 0-3.384 1.246-3.384 2.909 0 1.973 1.436 2.493 3.179 3.012 1.641.416 1.846.727 1.846 1.143 0 .52-.513.831-1.333.831s-1.743-.312-2.564-1.039c-.205-.104-.41-.104-.512.104-.103.104-.411.52-.616.831l-.307.416c0 .104-.103.104 0 .208 0 .103.205.207.307.311h.103l.102.104c1.026.727 2.256 1.039 3.487 1.039 2.154 0 3.589-1.143 3.589-3.013.103-1.558-1.128-2.181-2.974-2.7z" fill="#fff"/><path d="M99.06 35.883h-5.333c-.718 0-1.333-.623-1.333-1.35V29.13c0-.727.615-1.35 1.333-1.35h5.332c.718 0 1.333.623 1.333 1.35v5.402c0 .727-.615 1.35-1.333 1.35z" fill="#F9BE00"/><path d="M110.954 41.18c-.82 0-1.333.52-1.333 1.143 0 1.35 1.948 1.246 1.948 2.181 0 .52-.41.624-.82.624s-.718-.104-.923-.312l-.205.416c.308.207.718.311 1.231.311.82 0 1.435-.415 1.435-1.246 0-1.35-1.948-1.247-1.948-2.182 0-.415.41-.623.718-.623.307 0 .718.104 1.025.208v-.52c-.307.104-.718 0-1.128 0zm4.108 0c-1.231 0-2.154.935-2.154 2.286 0 1.35.923 2.285 2.154 2.285 1.23 0 2.153-.935 2.153-2.285s-.82-2.286-2.153-2.286zm0 4.052c-.923 0-1.539-.727-1.539-1.766 0-1.04.616-1.766 1.539-1.766 1.025 0 1.538.727 1.538 1.766 0 1.038-.615 1.766-1.538 1.766zm7.38-3.948h-.513l-1.128 1.766c-.205.311-.308.52-.41.623-.103-.208-.205-.312-.41-.623l-1.231-1.766h-.513v4.467h.616v-3.325c.102.208.205.312.307.52l1.128 1.662h.308l1.025-1.662c.103-.104.205-.312.308-.52v3.428h.615v-4.57h-.102zm3.075-.104c-1.231 0-2.154.935-2.154 2.286 0 1.35.923 2.285 2.154 2.285 1.23 0 2.153-.935 2.153-2.285s-.923-2.286-2.153-2.286zm0 4.052c-.923 0-1.538-.727-1.538-1.766 0-1.04.615-1.766 1.538-1.766 1.025 0 1.538.727 1.538 1.766 0 1.038-.615 1.766-1.538 1.766zm4.313-4.052c-.82 0-1.333.52-1.333 1.143 0 1.35 1.948 1.246 1.948 2.181 0 .52-.41.624-.82.624s-.718-.104-.923-.312l-.205.416c.308.207.718.311 1.231.311.82 0 1.435-.415 1.435-1.246 0-1.35-1.948-1.247-1.948-2.182 0-.415.41-.623.718-.623.307 0 .718.104 1.025.208v-.52c-.307.104-.718 0-1.128 0zm5.633 0c-1.333 0-2.256 1.039-2.256 2.286 0 1.35.82 2.181 2.154 2.181.41 0 .82-.104 1.333-.311l-.205-.52a1.72 1.72 0 01-1.026.312c-.923 0-1.538-.727-1.538-1.766 0-.935.615-1.766 1.641-1.766.41 0 .82.104 1.128.311v-.519a3.783 3.783 0 00-1.231-.208zm4.003 0c-1.333 0-2.256 1.039-2.256 2.286 0 1.35.82 2.181 2.153 2.181.411 0 .821-.104 1.334-.311l-.206-.52a1.714 1.714 0 01-1.025.312c-.923 0-1.538-.727-1.538-1.766 0-.935.615-1.766 1.641-1.766.41 0 .82.104 1.128.311v-.519a3.783 3.783 0 00-1.231-.208zm2.566-.208h-.615v4.779h.615v-2.286c.308-.207.616-.415.923-.415.41 0 .513.312.513.831v1.974h.615v-2.182c0-.83-.513-1.142-.923-1.142-.41 0-.718.207-1.128.415v-1.974zm5.022.208c-1.333 0-2.256 1.039-2.256 2.286 0 1.35.82 2.181 2.153 2.181.411 0 .821-.104 1.333-.311l-.205-.52a1.714 1.714 0 01-1.025.312c-.923 0-1.538-.727-1.538-1.766 0-.935.615-1.766 1.64-1.766.411 0 .821.104 1.128.311v-.519c-.41-.104-.82-.208-1.23-.208z" fill="#fff"/></svg>