<svg width="57" height="56" fill="none" xmlns="http://www.w3.org/2000/svg"><path d="M28.5 9c-1.27 0-2.523.13-3.76.39a16.856 16.856 0 00-3.515 1.075 19.256 19.256 0 00-3.223 1.758 16.49 16.49 0 00-2.734 2.295 17.405 17.405 0 00-2.344 2.783 19.686 19.686 0 00-1.71 3.174 18.923 18.923 0 00-1.122 3.564 19.92 19.92 0 00-.342 3.711c0 1.27.114 2.523.342 3.76.26 1.204.635 2.376 1.123 3.515a21.7 21.7 0 001.709 3.223 18.592 18.592 0 002.344 2.734c.846.88 1.757 1.66 2.734 2.344a21.7 21.7 0 003.223 1.71c1.139.487 2.31.862 3.515 1.122 1.237.228 2.49.342 3.76.342 1.27 0 2.506-.114 3.71-.342a20.193 20.193 0 003.614-1.123 20.639 20.639 0 003.125-1.709 19.337 19.337 0 002.832-2.344 17.904 17.904 0 002.246-2.734 19.256 19.256 0 001.758-3.223 16.86 16.86 0 001.074-3.515c.26-1.237.391-2.49.391-3.76 0-1.27-.13-2.506-.39-3.71a16.705 16.705 0 00-1.075-3.565 17.615 17.615 0 00-1.758-3.174 17.145 17.145 0 00-5.078-5.078 18.349 18.349 0 00-3.125-1.758 17.716 17.716 0 00-3.613-1.074A17.51 17.51 0 0028.5 9zm0-2.1c2.865 0 5.566.554 8.105 1.66 2.54 1.075 4.753 2.556 6.641 4.444s3.37 4.101 4.444 6.64c1.106 2.54 1.66 5.241 1.66 8.106s-.554 5.566-1.66 8.105c-1.075 2.54-2.556 4.753-4.444 6.641s-4.102 3.37-6.64 4.444c-2.54 1.106-5.241 1.66-8.106 1.66s-5.566-.554-8.105-1.66c-2.54-1.075-4.753-2.556-6.641-4.444-1.856-1.888-3.337-4.102-4.443-6.64-1.107-2.54-1.66-5.241-1.66-8.106s.553-5.566 1.66-8.105c1.106-2.54 2.587-4.753 4.443-6.641 1.888-1.888 4.101-3.37 6.64-4.443 2.54-1.107 5.241-1.66 8.106-1.66zm4.736 10.108a5.54 5.54 0 011.27 2.002c.325.781.488 1.644.488 2.588a5.17 5.17 0 01-.879 2.93c-.586.878-1.448 1.66-2.588 2.343-.032 0-.065.016-.097.049-.033 0-.065.016-.098.049-.39.195-.977.65-1.758 1.367-.748.684-1.058 1.872-.928 3.564.033.196.033.375 0 .538a1.063 1.063 0 01-.195.439 3.192 3.192 0 01-.342.293.867.867 0 01-.39.098c-.033 0-.065.016-.098.048h-.098c-.162 0-.309-.016-.439-.048a7.657 7.657 0 01-.342-.245 1.342 1.342 0 01-.342-.39 3.632 3.632 0 01-.146-.635c-.065-1.01.016-1.937.244-2.783a6.15 6.15 0 011.172-2.295c.423-.52.846-.928 1.27-1.22.455-.326.813-.554 1.074-.684h.049l.048-.05c.716-.422 1.302-.878 1.758-1.366.456-.521.684-1.189.684-2.002 0-1.205-.39-2.181-1.172-2.93-.749-.781-1.725-1.172-2.93-1.172-.553 0-1.123.13-1.709.39a3.766 3.766 0 00-1.367.928 3.32 3.32 0 00-.732 1.075c-.13.39-.196.814-.196 1.27.033.357-.081.634-.341.83a1.59 1.59 0 01-.733.292 1.23 1.23 0 01-.488 0 .889.889 0 01-.39-.293.78.78 0 01-.343-.44 1.843 1.843 0 01-.097-.585c0-1.172.244-2.116.732-2.832.488-.749.977-1.319 1.465-1.71a6.866 6.866 0 011.953-.976 6.8 6.8 0 012.246-.39c.944 0 1.807.162 2.588.488.781.325 1.514.814 2.197 1.465zM27.475 40.25a1.93 1.93 0 001.416-.586c.423-.423.634-.928.634-1.514 0-.553-.211-1.025-.634-1.416-.391-.423-.863-.634-1.416-.634-.586 0-1.09.211-1.514.634a1.93 1.93 0 00-.586 1.416c0 .586.195 1.09.586 1.514.423.39.928.586 1.514.586z" fill="#231D19"/></svg>