<svg width="24" height="24" viewBox="0 0 24 24" fill="none" xmlns="http://www.w3.org/2000/svg">
<path d="M9.38086 17.0059C9.27539 17.0059 9.18164 16.9707 9.09961 16.9004C9.0293 16.8184 8.99414 16.7246 8.99414 16.6191V10.2559H9.75V16.6191C9.75 16.7246 9.71484 16.8184 9.64453 16.9004C9.57422 16.9707 9.48633 17.0059 9.38086 17.0059ZM12 16.6191V10.2559H11.2441V16.6191C11.2441 16.7246 11.2793 16.8184 11.3496 16.9004C11.4316 16.9707 11.5254 17.0059 11.6309 17.0059C11.7246 17.0059 11.8066 16.9707 11.877 16.9004C11.959 16.8184 12 16.7246 12 16.6191ZM14.25 16.6191V10.2559H13.4941V16.6191C13.4941 16.7246 13.5293 16.8184 13.5996 16.9004C13.6816 16.9707 13.7754 17.0059 13.8809 17.0059C13.9746 17.0059 14.0566 16.9707 14.127 16.9004C14.209 16.8184 14.25 16.7246 14.25 16.6191ZM18.75 7.25V8.74414C18.75 8.95508 18.6738 9.13672 18.5215 9.28906C18.3809 9.42969 18.2051 9.5 17.9941 9.5H5.25C5.03906 9.5 4.85742 9.42969 4.70508 9.28906C4.56445 9.13672 4.49414 8.95508 4.49414 8.74414V7.25C4.49414 7.03906 4.56445 6.86328 4.70508 6.72266C4.85742 6.57031 5.03906 6.49414 5.25 6.49414H8.25586V5C8.25586 4.78906 8.32617 4.61328 8.4668 4.47266C8.61914 4.32031 8.79492 4.24414 8.99414 4.24414H14.25C14.4609 4.24414 14.6367 4.32031 14.7773 4.47266C14.9297 4.61328 15.0059 4.78906 15.0059 5V6.49414H17.9941C18.2051 6.49414 18.3809 6.57031 18.5215 6.72266C18.6738 6.86328 18.75 7.03906 18.75 7.25ZM8.99414 6.49414H14.25V5H8.99414V6.49414ZM17.9941 7.25H5.25V8.74414H17.9941V7.25ZM16.5 10.2559V17.0059C16.5 17.416 16.3535 17.7676 16.0605 18.0605C15.7676 18.3535 15.416 18.5 15.0059 18.5H8.25586C7.83398 18.5 7.47656 18.3535 7.18359 18.0605C6.89062 17.7676 6.74414 17.416 6.74414 17.0059V10.2559H6.00586V17.0059C6.00586 17.627 6.22266 18.1543 6.65625 18.5879C7.10156 19.0332 7.63477 19.2559 8.25586 19.2559H15.0059C15.627 19.2559 16.1543 19.0332 16.5879 18.5879C17.0332 18.1543 17.2559 17.627 17.2559 17.0059V10.2559H16.5Z" fill="#56504C"/>
</svg>
