<svg width="21" height="19" viewBox="0 0 21 19" fill="none" xmlns="http://www.w3.org/2000/svg">
<path d="M20.1328 14.8516C20.6641 15.7734 20.6562 16.6953 20.1094 17.6172C19.5781 18.5391 18.7812 19 17.7188 19H3.28125C2.21875 19 1.41406 18.5391 0.867188 17.6172C0.335938 16.6953 0.335938 15.7734 0.867188 14.8516L8.78906 1C9.16406 0.328125 9.73438 -0.0078125 10.5 -0.0078125C11.2656 -0.0078125 11.8359 0.328125 12.2109 1L20.1328 14.8516ZM10.0078 7V13H10.9922V7H10.0078ZM10.5 15.5078C10.7031 15.5078 10.875 15.4375 11.0156 15.2969C11.1719 15.1406 11.25 14.9609 11.25 14.7578C11.25 14.5391 11.1719 14.3594 11.0156 14.2188C10.875 14.0781 10.7031 14.0078 10.5 14.0078C10.2969 14.0078 10.1172 14.0781 9.96094 14.2188C9.82031 14.3594 9.75 14.5391 9.75 14.7578C9.75 14.9609 9.82031 15.1406 9.96094 15.2969C10.1172 15.4375 10.2969 15.5078 10.5 15.5078Z" fill="#56504C"/>
</svg>
