<svg width="36" height="36" fill="none" xmlns="http://www.w3.org/2000/svg"><path d="M18 .486c-2.406 0-4.676.465-6.809 1.395C9.06 2.783 7.2 4.027 5.613 5.613 4.027 7.2 2.783 9.06 1.881 11.191.95 13.324.486 15.594.486 18c0 2.406.465 4.676 1.395 6.809.902 2.132 2.146 3.992 3.732 5.578 1.586 1.586 3.446 2.83 5.578 3.732 2.133.93 4.403 1.395 6.809 1.395 2.406 0 4.676-.465 6.809-1.395 2.132-.902 3.992-2.146 5.578-3.732 1.586-1.586 2.83-3.446 3.732-5.578.93-2.133 1.395-4.403 1.395-6.809 0-2.406-.465-4.676-1.395-6.809-.902-2.132-2.146-3.992-3.732-5.578-1.586-1.586-3.446-2.83-5.578-3.732C22.676.95 20.406.486 18 .486zm-2.584 24.487c-.11 0-.219-.014-.328-.041a1.092 1.092 0 01-.287-.205l-5.25-5.25a.89.89 0 01-.328-.575.98.98 0 01.246-.656.835.835 0 01.615-.246.714.714 0 01.615.205c.028 0 .041.014.041.041h.041l4.635 4.635 10.008-9.885a.93.93 0 01.615-.246c.246 0 .451.096.615.287.164.164.246.37.246.615 0 .22-.082.41-.246.575l-10.623 10.5c-.082.082-.177.15-.287.205-.11.027-.219.04-.328.04z" fill="#EC7000"/></svg>