<svg width="10" height="10" viewBox="0 0 10 10" fill="none" xmlns="http://www.w3.org/2000/svg">
<path d="M5 0C4.31304 0 3.66511 0.132709 3.05621 0.398126C2.44731 0.655738 1.91647 1.01093 1.4637 1.4637C1.01093 1.91647 0.655738 2.44731 0.398126 3.05621C0.132709 3.66511 0 4.31304 0 5C0 5.68696 0.132709 6.33489 0.398126 6.94379C0.655738 7.55269 1.01093 8.08353 1.4637 8.5363C1.91647 8.98907 2.44731 9.34426 3.05621 9.60187C3.66511 9.86729 4.31304 10 5 10C5.68696 10 6.33489 9.86729 6.94379 9.60187C7.55269 9.34426 8.08353 8.98907 8.5363 8.5363C8.98907 8.08353 9.34426 7.55269 9.60187 6.94379C9.86729 6.33489 10 5.68696 10 5C10 4.31304 9.86729 3.66511 9.60187 3.05621C9.34426 2.44731 8.98907 1.91647 8.5363 1.4637C8.08353 1.01093 7.55269 0.655738 6.94379 0.398126C6.33489 0.132709 5.68696 0 5 0ZM4.2623 6.99063C4.23107 6.99063 4.19984 6.98673 4.16862 6.97892C4.13739 6.96331 4.11007 6.94379 4.08665 6.92037L2.58782 5.42155C2.53318 5.37471 2.50195 5.32006 2.49415 5.25761C2.49415 5.18735 2.51756 5.1249 2.5644 5.07026C2.61124 5.02342 2.66979 5 2.74005 5C2.8103 4.99219 2.86885 5.01171 2.91569 5.05855C2.9235 5.05855 2.9274 5.06245 2.9274 5.07026C2.9274 5.07026 2.9313 5.07026 2.93911 5.07026L4.2623 6.39344L7.11944 3.57143C7.17408 3.52459 7.23263 3.50117 7.29508 3.50117C7.36534 3.50117 7.42389 3.52849 7.47073 3.58314C7.51756 3.62998 7.54098 3.68852 7.54098 3.75878C7.54098 3.82123 7.51756 3.87588 7.47073 3.92272L4.43794 6.92037C4.41452 6.94379 4.3872 6.96331 4.35597 6.97892C4.32475 6.98673 4.29352 6.99063 4.2623 6.99063Z" fill="#008859"/>
</svg>
