<svg width="56" height="60" viewBox="0 0 56 60" fill="none" xmlns="http://www.w3.org/2000/svg">
<path d="M32.7852 34.1445C32.7852 35.2839 32.4434 36.4395 31.7598 37.6113C31.0762 38.7507 29.9043 39.4831 28.2441 39.8086H28.1953C28.1628 39.8086 28.1302 39.8086 28.0977 39.8086C28.0651 39.8086 28.0326 39.8086 28 39.8086V42.25C28 42.543 27.8861 42.7871 27.6582 42.9824C27.4629 43.1777 27.235 43.2754 26.9746 43.2754C26.6816 43.2754 26.4212 43.1777 26.1934 42.9824C25.998 42.7871 25.9004 42.543 25.9004 42.25V39.8574C25.0866 39.7923 24.2728 39.6296 23.459 39.3691C22.6452 39.1087 21.9779 38.7832 21.457 38.3926L21.0664 38.0508L22.2383 35.9512L22.7754 36.3906C23.2637 36.7812 23.8333 37.0905 24.4844 37.3184C25.168 37.5137 25.8353 37.6113 26.4863 37.6113C27.0723 37.6113 27.5931 37.5299 28.0488 37.3672C28.5371 37.2044 28.944 36.9603 29.2695 36.6348C29.5951 36.3418 29.8392 36 30.002 35.6094C30.1973 35.1862 30.2949 34.7467 30.2949 34.291C30.2949 33.8678 30.2298 33.4772 30.0996 33.1191C29.9694 32.7611 29.7741 32.4355 29.5137 32.1426C29.2207 31.8171 28.8464 31.5078 28.3906 31.2148C27.9674 30.8893 27.4466 30.5964 26.8281 30.3359C25.9492 29.9453 25.2005 29.571 24.582 29.2129C23.9635 28.8223 23.459 28.4316 23.0684 28.041C22.5475 27.5527 22.1569 27.0156 21.8965 26.4297C21.6686 25.8438 21.5547 25.1927 21.5547 24.4766C21.5547 23.8255 21.6523 23.207 21.8477 22.6211C22.0755 22.0352 22.401 21.498 22.8242 21.0098C23.2148 20.5866 23.6706 20.2285 24.1914 19.9355C24.7122 19.61 25.2819 19.3822 25.9004 19.252V17.25C25.9004 16.957 25.998 16.7129 26.1934 16.5176C26.4212 16.3223 26.6816 16.2246 26.9746 16.2246C27.235 16.2246 27.4629 16.3223 27.6582 16.5176C27.8861 16.7129 28 16.957 28 17.25V19.1543C28.0326 19.1543 28.0651 19.1543 28.0977 19.1543C28.1302 19.1543 28.1628 19.1543 28.1953 19.1543C28.9115 19.1868 29.5788 19.3008 30.1973 19.4961C30.8158 19.6914 31.3854 19.9681 31.9062 20.3262L32.3457 20.6191L31.1738 22.7188L30.6367 22.377C30.3763 22.1816 29.9531 21.9701 29.3672 21.7422C28.8138 21.5143 28.1302 21.4004 27.3164 21.4004C26.7956 21.4004 26.3073 21.4818 25.8516 21.6445C25.4284 21.7747 25.0703 21.9863 24.7773 22.2793C24.5495 22.5397 24.3542 22.849 24.1914 23.207C24.0612 23.5326 23.9961 23.8743 23.9961 24.2324C23.9961 24.6556 24.0612 25.0299 24.1914 25.3555C24.3216 25.681 24.5332 25.9902 24.8262 26.2832C25.1191 26.5436 25.4772 26.804 25.9004 27.0645C26.3561 27.3249 26.9746 27.6178 27.7559 27.9434C28.6348 28.3665 29.3835 28.7897 30.002 29.2129C30.6204 29.6361 31.1413 30.0918 31.5645 30.5801C31.9876 31.1009 32.2969 31.6543 32.4922 32.2402C32.6875 32.8262 32.7852 33.4609 32.7852 34.1445ZM46.75 29.75C46.75 32.4844 46.2292 35.056 45.1875 37.4648C44.1458 39.8737 42.7298 41.9733 40.9395 43.7637C39.1491 45.554 37.0495 46.9538 34.6406 47.9629C32.2643 49.0046 29.709 49.5254 26.9746 49.5254C24.2402 49.5254 21.6686 49.0046 19.2598 47.9629C16.8509 46.9538 14.7513 45.554 12.9609 43.7637C11.1706 41.9733 9.75456 39.8737 8.71289 37.4648C7.67122 35.056 7.15039 32.4844 7.15039 29.75C7.15039 27.0156 7.67122 24.444 8.71289 22.0352C9.75456 19.6263 11.1706 17.5267 12.9609 15.7363C14.7513 13.946 16.8509 12.5462 19.2598 11.5371C21.6686 10.4954 24.2402 9.97461 26.9746 9.97461C29.709 9.97461 32.2643 10.4954 34.6406 11.5371C37.0495 12.5462 39.1491 13.946 40.9395 15.7363C42.7298 17.5267 44.1458 19.6263 45.1875 22.0352C46.2292 24.444 46.75 27.0156 46.75 29.75ZM44.5527 29.75C44.5527 27.3086 44.097 25.0299 43.1855 22.9141C42.2415 20.7656 40.972 18.8939 39.377 17.2988C37.8145 15.7038 35.959 14.4505 33.8105 13.5391C31.6621 12.6276 29.3835 12.1719 26.9746 12.1719C24.5332 12.1719 22.2383 12.6276 20.0898 13.5391C17.974 14.4505 16.1185 15.7038 14.5234 17.2988C12.9284 18.8939 11.6751 20.7656 10.7637 22.9141C9.81966 25.0299 9.34766 27.3086 9.34766 29.75C9.34766 32.1914 9.81966 34.4701 10.7637 36.5859C11.6751 38.7344 12.9284 40.6061 14.5234 42.2012C16.1185 43.7962 17.974 45.0495 20.0898 45.9609C22.2383 46.8724 24.5332 47.3281 26.9746 47.3281C29.3835 47.3281 31.6621 46.8724 33.8105 45.9609C35.959 45.0495 37.8145 43.7962 39.377 42.2012C40.972 40.6061 42.2415 38.7344 43.1855 36.5859C44.097 34.4701 44.5527 32.1914 44.5527 29.75Z" fill="#231D19"/>
</svg>
