<svg width="57" height="56" viewBox="0 0 57 56" fill="none" xmlns="http://www.w3.org/2000/svg">
<path d="M11.8496 9C11.8496 8.41406 12.0449 7.92578 12.4355 7.53516C12.8587 7.11198 13.347 6.90039 13.9004 6.90039H43.0996C43.653 6.90039 44.125 7.11198 44.5156 7.53516C44.9388 7.92578 45.1504 8.41406 45.1504 9V46.5C45.1504 47.0859 44.9388 47.5742 44.5156 47.9648C44.125 48.388 43.653 48.5996 43.0996 48.5996H13.9004C13.347 48.5996 12.8587 48.388 12.4355 47.9648C12.0449 47.5742 11.8496 47.0859 11.8496 46.5V9ZM43.0996 46.5V9H13.9004V46.5H43.0996ZM38.9004 41.2754C38.9004 41.015 38.8027 40.7871 38.6074 40.5918C38.4121 40.3639 38.168 40.25 37.875 40.25H27.4746C27.1816 40.25 26.9212 40.3639 26.6934 40.5918C26.498 40.7871 26.4004 41.015 26.4004 41.2754C26.4004 41.5684 26.498 41.8288 26.6934 42.0566C26.9212 42.252 27.1816 42.3496 27.4746 42.3496H37.875C38.168 42.3496 38.4121 42.252 38.6074 42.0566C38.8027 41.8288 38.9004 41.5684 38.9004 41.2754ZM38.9004 35.0254C38.9004 34.765 38.8027 34.5371 38.6074 34.3418C38.4121 34.1139 38.168 34 37.875 34H19.125C18.832 34 18.5879 34.1139 18.3926 34.3418C18.1973 34.5371 18.0996 34.765 18.0996 35.0254C18.0996 35.3184 18.1973 35.5788 18.3926 35.8066C18.5879 36.002 18.832 36.0996 19.125 36.0996H37.875C38.168 36.0996 38.4121 36.002 38.6074 35.8066C38.8027 35.5788 38.9004 35.3184 38.9004 35.0254ZM38.9004 28.7754C38.9004 28.515 38.8027 28.2871 38.6074 28.0918C38.4121 27.8639 38.168 27.75 37.875 27.75H19.125C18.832 27.75 18.5879 27.8639 18.3926 28.0918C18.1973 28.2871 18.0996 28.515 18.0996 28.7754C18.0996 29.0684 18.1973 29.3288 18.3926 29.5566C18.5879 29.752 18.832 29.8496 19.125 29.8496H37.875C38.168 29.8496 38.4121 29.752 38.6074 29.5566C38.8027 29.3288 38.9004 29.0684 38.9004 28.7754Z" fill="#231D19"/>
</svg>
