<svg width="32" height="32" fill="none" xmlns="http://www.w3.org/2000/svg"><path d="M21 20.493v2.515a.46.46 0 01-.15.351.424.424 0 01-.318.141h-9.064a.479.479 0 01-.334-.14.49.49 0 01-.134-.352v-2.515c0-.61.117-1.19.351-1.74a4.479 4.479 0 01.903-1.425c.39-.41.847-.733 1.371-.968a3.847 3.847 0 011.656-.369h1.438c.58 0 1.132.123 1.656.37.524.234.975.556 1.354.967.39.398.697.873.92 1.424.234.551.351 1.131.351 1.741zm-5-5.996c.791 0 1.466-.294 2.023-.88.558-.586.837-1.295.837-2.128 0-.82-.28-1.524-.837-2.11C17.466 8.793 16.791 8.5 16 8.5c-.791 0-1.466.293-2.023.88a2.954 2.954 0 00-.837 2.11c0 .832.28 1.541.837 2.127.557.586 1.232.88 2.023.88z" fill="#EC7000"/><rect x="1" y="1" width="30" height="30" rx="15" stroke="#EC7000" stroke-width="2"/></svg>