<svg width="16" height="16" viewBox="0 0 16 16" fill="none" xmlns="http://www.w3.org/2000/svg">
<path d="M11.8374 3.27867C11.914 3.22113 12.0015 3.19811 12.1 3.20962C12.1984 3.23263 12.275 3.29018 12.3297 3.38224L15.1199 7.80148C15.1308 7.80148 15.1363 7.80148 15.1363 7.80148C15.1363 7.81299 15.1363 7.81874 15.1363 7.81874C15.1473 7.81874 15.1527 7.81874 15.1527 7.81874C15.1527 7.83025 15.1527 7.83601 15.1527 7.83601C15.1527 7.84751 15.1527 7.85327 15.1527 7.85327C15.1637 7.86478 15.1691 7.87053 15.1691 7.87053C15.1691 7.88204 15.1691 7.88779 15.1691 7.88779C15.1691 7.8993 15.1691 7.90506 15.1691 7.90506C15.1801 7.90506 15.1855 7.90506 15.1855 7.90506C15.1855 7.90506 15.1855 7.91081 15.1855 7.92232C15.1855 7.92232 15.1855 7.92807 15.1855 7.93958C15.1855 7.93958 15.1855 7.94534 15.1855 7.95684C15.1855 7.96835 15.1855 7.97411 15.1855 7.97411C15.1855 7.97411 15.1855 7.97986 15.1855 7.99137C15.1855 8.00288 15.1855 8.00863 15.1855 8.00863C15.1855 8.02014 15.1855 8.02589 15.1855 8.02589C15.1855 8.0374 15.1855 8.04316 15.1855 8.04316C15.1855 8.05467 15.1855 8.06042 15.1855 8.06042C15.1855 8.07193 15.1855 8.07768 15.1855 8.07768C15.1855 8.08919 15.1855 8.09494 15.1855 8.09494C15.1855 8.09494 15.1801 8.09494 15.1691 8.09494C15.1691 8.10645 15.1691 8.11221 15.1691 8.11221C15.1691 8.12372 15.1691 8.12947 15.1691 8.12947C15.1691 8.14098 15.1691 8.14673 15.1691 8.14673C15.1691 8.14673 15.1637 8.14673 15.1527 8.14673C15.1527 8.14673 15.1527 8.15249 15.1527 8.164C15.1527 8.1755 15.1527 8.18126 15.1527 8.18126C15.1527 8.18126 15.1473 8.18126 15.1363 8.18126C15.1363 8.18126 15.1363 8.18701 15.1363 8.19852C15.1363 8.19852 15.1308 8.20428 15.1199 8.21578L12.3297 12.635C12.275 12.7156 12.1984 12.7616 12.1 12.7731C12.0015 12.7961 11.914 12.7789 11.8374 12.7213C11.7827 12.6868 11.7444 12.6408 11.7225 12.5832C11.7006 12.5372 11.6896 12.4854 11.6896 12.4279C11.6896 12.3933 11.6951 12.3588 11.7061 12.3243C11.717 12.2898 11.7334 12.2552 11.7553 12.2207L14.168 8.37115L5.04252 8.37115C4.94405 8.37115 4.85651 8.33087 4.77992 8.25031C4.71427 8.18126 4.68144 8.1007 4.68144 8.00863C4.68144 7.90506 4.71427 7.81299 4.77992 7.73243C4.85651 7.66338 4.94405 7.62885 5.04252 7.62885L14.168 7.62885L11.7553 3.79655C11.7334 3.76202 11.717 3.7275 11.7061 3.69297C11.6951 3.65845 11.6897 3.62392 11.6897 3.5894C11.6897 3.53185 11.7006 3.47431 11.7225 3.41677C11.7553 3.35923 11.7936 3.31319 11.8374 3.27867ZM4.68144 14.603C4.6705 14.4994 4.63221 14.4131 4.56656 14.344C4.5009 14.2865 4.41884 14.2577 4.32037 14.2577L1.89129 14.2577L1.89129 1.74229L4.32037 1.74229C4.41884 1.74229 4.50091 1.70777 4.56656 1.63872C4.63221 1.58118 4.6705 1.50637 4.68145 1.4143C4.69239 1.29922 4.65956 1.2014 4.58297 1.12084C4.51732 1.04028 4.43526 1 4.33678 1L1.89129 0.999999C1.69434 0.999999 1.52474 1.06905 1.3825 1.20715C1.2512 1.35676 1.18555 1.53514 1.18555 1.74229L1.18555 14.2577C1.18555 14.4649 1.2512 14.6375 1.3825 14.7756C1.52474 14.9252 1.69434 15 1.89129 15L4.33678 15C4.43525 15 4.51732 14.9597 4.58297 14.8792C4.65956 14.7986 4.69239 14.7065 4.68144 14.603Z" fill="#231D19" stroke="#231D19" stroke-width="0.5" stroke-linejoin="round"/>
</svg>
