<svg width="49" height="48" viewBox="0 0 49 48" fill="none" xmlns="http://www.w3.org/2000/svg">
<path d="M26.1523 34.945C26.6039 34.564 26.8721 33.9853 26.8721 33.2796V32.334C26.7874 32.334 26.6463 32.3058 26.4769 32.3058C26.3076 32.3058 26.1382 32.2917 25.9971 32.2917C24.0917 32.2917 23.0332 32.8703 23.0332 33.9853C23.0332 34.9591 23.7107 35.439 24.7974 35.439C25.1079 35.439 25.3902 35.3825 25.6442 35.2837C25.8418 35.1991 26.0112 35.0862 26.1664 34.9591M42.6933 37.6548H39.3061L39.2637 36.3564C38.4734 37.4149 37.4854 37.9512 36.0176 37.9512C33.5337 37.9512 31.9671 36.187 31.9671 33.4349V25.6301H35.4813V32.8562C35.4813 34.3099 36.1023 35.1003 37.2596 35.1003C38.4169 35.1003 39.165 34.1688 39.165 32.7151V25.6301H42.6792V37.6548H42.6933ZM40.4493 24.0212H34.5922V22.0029L40.4493 20.9585V24.0212ZM30.2311 37.6548H26.9427L26.9003 36.3987C26.7168 36.6386 26.5193 36.8645 26.3076 37.0479C25.6583 37.6266 24.8115 37.9512 23.753 37.9512C22.8074 37.9512 21.9888 37.7536 21.3396 37.3725C21.015 37.1891 20.7327 36.9632 20.4928 36.6951C20.3375 36.5116 20.1964 36.3281 20.0835 36.1164C19.7871 35.5942 19.6319 34.9591 19.6319 34.2535C19.6319 33.6042 19.773 33.0115 20.0553 32.5034C20.1964 32.2493 20.3658 32.0094 20.5634 31.7977C20.6622 31.6848 20.7751 31.586 20.888 31.4872C21.9324 30.5981 23.5837 30.1182 25.6724 30.1182C26.11 30.1182 26.5757 30.1464 26.858 30.1605C26.858 28.8621 25.9547 28.1282 24.3317 28.1282C23.0332 28.1282 21.6501 28.4528 20.2529 28.9891V26.1664C21.6642 25.6301 23.1179 25.362 24.8821 25.362C28.3117 25.362 30.2311 27.1967 30.2311 30.6122V37.6689V37.6548ZM18.5169 28.3681H15.4543V33.2796C15.4543 34.5498 15.9624 35.1144 17.0914 35.1144C17.6278 35.1144 18.0935 35.0438 18.3475 34.9732V37.6548C17.9524 37.7677 17.1479 37.8806 16.1741 37.8806C13.4643 37.8806 11.94 36.4269 11.94 33.5054V28.3681H10.1758V25.6301H11.94V22.6239L15.4543 22.0029V25.6442H18.5169V28.3822V28.3681ZM9.15966 22.3699C9.15966 23.5554 8.29874 24.3881 7.07086 24.3881C5.84299 24.3881 4.98206 23.5837 4.98206 22.3699C4.98206 21.1561 5.84299 20.3517 7.07086 20.3517C8.29874 20.3517 9.15966 21.1561 9.15966 22.3699ZM5.32079 25.6442H8.83505V37.6689H5.32079V25.6442ZM48 23.9929C48 16.9785 47.3084 10.3734 46.3064 6.22405C45.8265 3.83887 44.4293 2.25816 41.7618 1.66539C37.429 0.60688 31.0215 0 23.9929 0C16.9644 0 10.571 0.60688 6.23816 1.66539C3.57071 2.27227 2.18759 3.83887 1.69362 6.22405C0.691561 10.3734 0 16.9644 0 23.9929C0 31.0215 0.691561 37.6125 1.69362 41.7618C2.17348 44.1188 3.57071 45.7277 6.23816 46.3064C10.571 47.3931 16.9785 48 24.0071 48C31.0356 48 37.4431 47.3931 41.7759 46.3064C44.4434 45.7277 45.8265 44.1329 46.3205 41.7618C47.3225 37.6125 48.0141 30.9932 48.0141 23.9929" fill="#FF6200"/>
</svg>
