<svg width="50" height="50" fill="none" xmlns="http://www.w3.org/2000/svg"><path fill-rule="evenodd" clip-rule="evenodd" d="M8.336 0h33.33C46.273 0 50 3.737 50 8.337v33.335c0 4.6-3.727 8.328-8.334 8.328H8.336A8.328 8.328 0 010 41.672V8.337C0 3.737 3.727 0 8.336 0z" fill="#039"/><path fill-rule="evenodd" clip-rule="evenodd" d="M4.2 41.381h3.816V24.906H4.199v16.475zm23.404-4.487c0 .197-.018.42-.063.622a1.222 1.222 0 01-.064.193c-.339.807-1.238 1.565-2.446 1.565-1.052 0-1.778-.548-1.778-1.587 0-1.164.989-1.763 2.464-1.992a9.666 9.666 0 011.13-.103c.246-.009.498-.012.757-.007v1.309zm-2.186-8.16c-2.346 0-4.098.613-5.049 1.169l.72 2.43c.863-.524 2.35-.995 3.692-.995 2.24-.006 2.713 1.137 2.713 1.717v.132c-4.963-.02-8.028 1.598-8.028 4.794 0 1.881 1.484 3.78 4.221 3.78 1.632 0 3.009-.594 3.845-1.588h.04l.42 1.284h3.115v-7.311c0-2.972-1.453-5.412-5.689-5.412zm16.532.196v7.354c0 .295-.037.56-.13.797-.312.755-1.08 1.61-2.343 1.61-1.588 0-2.283-1.172-2.283-3.13v-6.638h-3.797v7.335c0 .982.118 1.817.353 2.504.236.688.556 1.259.965 1.704.408.449.899.776 1.468.982.57.206 1.2.31 1.889.31a5.267 5.267 0 002.786-.75c.335-.205.616-.429.843-.67.226-.24.404-.457.53-.647l.49 1.782h3.08V28.931H41.95zm-30.248-4.024v4.143H9.927v2.829h1.775v5.044c0 1.668.338 2.92 1.068 3.683.627.666 1.727 1.16 3.061 1.16 1.145 0 1.598-.17 2.111-.367v-2.881c-.105.048-.405.107-.796.107-1.349 0-1.662-.832-1.662-2.352v-4.394H17.9v-2.83h-2.416v-4.142h-3.782zm28.768 0l-2.303 3.257h2.667l3.249-3.257h-3.612z" fill="#FF0"/></svg>