<svg width="52" height="52" viewBox="0 0 52 52" fill="none" xmlns="http://www.w3.org/2000/svg">
<path d="M0.595703 25.66C0.595703 18.1623 1.33421 11.0876 2.39065 6.65157C2.91887 4.11812 4.39589 2.42831 7.24728 1.79495C11.8936 0.633363 18.758 0 26.2557 0C33.7534 0 40.6178 0.633363 45.2641 1.79495C48.1155 2.42831 49.5925 4.11812 50.1208 6.65157C51.1772 11.0876 51.9157 18.1623 51.9157 25.66C51.9157 33.1577 51.1772 40.2324 50.1208 44.6684C49.5925 47.2019 48.1155 48.8917 45.2641 49.525C40.6178 50.6866 33.7534 51.32 26.2557 51.32C18.758 51.32 11.8936 50.6866 7.24728 49.525C4.39589 48.8917 2.91887 47.2019 2.39065 44.6684C1.33421 40.2324 0.595703 33.1577 0.595703 25.66Z" fill="white"/>
<path d="M8.15101 26.0806C9.4653 26.0806 10.3815 25.1894 10.3815 23.9251C10.3815 22.6609 9.4653 21.7697 8.15101 21.7697C6.83672 21.7697 5.92297 22.6609 5.92297 23.9251C5.92297 25.1894 6.83922 26.0806 8.15101 26.0806ZM10.0336 40.2724V27.4174H6.26844V40.2724H10.0336ZM13.3531 30.3414V35.8389C13.3531 38.9606 14.9878 40.5203 17.8868 40.5203C18.9282 40.5203 19.7944 40.3951 20.215 40.2724V37.3985C19.9421 37.4736 19.4464 37.5462 18.8781 37.5462C17.664 37.5462 17.1207 36.9529 17.1207 35.5885V30.3389H20.3902V27.4174H17.1207V23.5296L13.3556 24.198V27.4174H11.473V30.3389H13.3556L13.3531 30.3414ZM25.9853 40.5954C27.4974 40.5954 28.5864 39.977 29.3549 38.9356L29.405 40.2724H32.9223V32.7171C32.9223 29.0521 30.867 27.0945 27.1995 27.0945C25.3169 27.0945 23.7573 27.3924 22.2452 27.9606V30.9823C23.7323 30.4115 25.2168 30.066 26.6037 30.066C28.336 30.066 29.3024 30.8596 29.3024 32.2465C29.0045 32.2214 28.5088 32.1964 28.0381 32.1964C24.0752 32.1964 21.5743 33.8311 21.5743 36.63C21.5743 39.0583 23.2842 40.5929 25.9828 40.5929L25.9853 40.5954ZM28.3886 34.5271C28.6865 34.5271 29.1572 34.5521 29.3299 34.5772V35.5935C29.3299 36.9554 28.4136 37.8967 27.0994 37.8967C25.9353 37.8967 25.2168 37.376 25.2168 36.3371C25.2168 35.1479 26.3558 34.5296 28.3861 34.5296L28.3886 34.5271ZM39.1132 40.5954C40.6729 40.5954 41.7393 40.0246 42.5805 38.8855L42.6305 40.2724H46.2455V27.4174H42.4803V34.9952C42.4803 36.5549 41.7118 37.5462 40.4501 37.5462C39.1883 37.5462 38.5425 36.7051 38.5425 35.1429V27.4149H34.7773V35.7613C34.7773 38.7078 36.4621 40.5904 39.1107 40.5904L39.1132 40.5954ZM43.8447 25.685V22.4156L37.5786 23.5296V25.685H43.8447Z" fill="#FF6200"/>
</svg>
