<svg width="24" height="24" viewBox="0 0 24 24" fill="none" xmlns="http://www.w3.org/2000/svg">
<path d="M15.4922 12.5C15.4922 13.4688 15.1484 14.2969 14.4609 14.9844C13.7891 15.6562 12.9688 15.9922 12 15.9922C11.0312 15.9922 10.2031 15.6562 9.51562 14.9844C8.84375 14.2969 8.50781 13.4688 8.50781 12.5C8.50781 11.5312 8.84375 10.7109 9.51562 10.0391C10.2031 9.35156 11.0312 9.00781 12 9.00781C12.9688 9.00781 13.7891 9.35156 14.4609 10.0391C15.1484 10.7109 15.4922 11.5312 15.4922 12.5ZM14.5078 12.5C14.5078 11.8125 14.2578 11.2266 13.7578 10.7422C13.2734 10.2422 12.6875 9.99219 12 9.99219C11.3125 9.99219 10.7188 10.2422 10.2188 10.7422C9.73438 11.2266 9.49219 11.8125 9.49219 12.5C9.49219 13.1875 9.73438 13.7812 10.2188 14.2812C10.7188 14.7656 11.3125 15.0078 12 15.0078C12.6875 15.0078 13.2734 14.7656 13.7578 14.2812C14.2578 13.7812 14.5078 13.1875 14.5078 12.5ZM3.67969 9.99219C4.66406 8.50781 5.89844 7.39062 7.38281 6.64062C8.88281 5.90625 10.4219 5.53906 12 5.53906C13.5781 5.53906 15.1172 5.90625 16.6172 6.64062C18.1016 7.39062 19.3359 8.50781 20.3203 9.99219L21.2578 11.3984C21.4766 11.7266 21.5859 12.0938 21.5859 12.5C21.5859 12.9062 21.4766 13.2734 21.2578 13.6016L20.3203 15.0078C19.3359 16.4922 18.1016 17.6094 16.6172 18.3594C15.1172 19.0938 13.5781 19.4609 12 19.4609C10.4219 19.4609 8.88281 19.0938 7.38281 18.3594C5.89844 17.6094 4.66406 16.4922 3.67969 15.0078L2.74219 13.6016C2.52344 13.2734 2.41406 12.9062 2.41406 12.5C2.41406 12.0938 2.52344 11.7266 2.74219 11.3984L3.67969 9.99219ZM3.5625 11.9375C3.45312 12.1094 3.39844 12.2969 3.39844 12.5C3.39844 12.7031 3.45312 12.8906 3.5625 13.0625L4.5 14.4688C5.39062 15.7969 6.50781 16.7969 7.85156 17.4688C9.19531 18.1406 10.5781 18.4766 12 18.4766C13.4219 18.4766 14.8047 18.1406 16.1484 17.4688C17.4922 16.7969 18.6094 15.7969 19.5 14.4688L20.4375 13.0625C20.5469 12.8906 20.6016 12.7031 20.6016 12.5C20.6016 12.2969 20.5469 12.1094 20.4375 11.9375L19.5 10.5312C18.6094 9.20312 17.4922 8.20312 16.1484 7.53125C14.8047 6.85938 13.4219 6.52344 12 6.52344C10.5781 6.52344 9.19531 6.85938 7.85156 7.53125C6.50781 8.20312 5.39062 9.20312 4.5 10.5312L3.5625 11.9375Z" fill="#56504C"/>
</svg>
