<svg width="57" height="56" viewBox="0 0 57 56" fill="none" xmlns="http://www.w3.org/2000/svg">
<path d="M28.5 9C27.2305 9 25.9772 9.13021 24.7402 9.39062C23.5358 9.61849 22.3639 9.97656 21.2246 10.4648C20.0853 10.9531 19.0111 11.5391 18.002 12.2227C17.0254 12.8737 16.1139 13.6387 15.2676 14.5176C14.3887 15.3639 13.6074 16.2917 12.9238 17.3008C12.2728 18.2773 11.7031 19.3353 11.2148 20.4746C10.7266 21.6139 10.3522 22.8021 10.0918 24.0391C9.86393 25.2435 9.75 26.4805 9.75 27.75C9.75 29.0195 9.86393 30.2728 10.0918 31.5098C10.3522 32.7142 10.7266 33.8861 11.2148 35.0254C11.7031 36.1647 12.2728 37.2389 12.9238 38.248C13.6074 39.2246 14.3887 40.1361 15.2676 40.9824C16.1139 41.8613 17.0254 42.6426 18.002 43.3262C19.0111 43.9772 20.0853 44.5469 21.2246 45.0352C22.3639 45.5234 23.5358 45.8978 24.7402 46.1582C25.9772 46.3861 27.2305 46.5 28.5 46.5C29.7695 46.5 31.0065 46.3861 32.2109 46.1582C33.4479 45.8978 34.6523 45.5234 35.8242 45.0352C36.931 44.5469 37.9727 43.9772 38.9492 43.3262C39.9583 42.6426 40.9023 41.8613 41.7812 40.9824C42.6276 40.1361 43.3763 39.2246 44.0273 38.248C44.7109 37.2389 45.2969 36.1647 45.7852 35.0254C46.2734 33.8861 46.6315 32.7142 46.8594 31.5098C47.1198 30.2728 47.25 29.0195 47.25 27.75C47.25 26.4805 47.1198 25.2435 46.8594 24.0391C46.6315 22.8021 46.2734 21.6139 45.7852 20.4746C45.2969 19.3353 44.7109 18.2773 44.0273 17.3008C43.3763 16.2917 42.6276 15.3639 41.7812 14.5176C40.9023 13.6387 39.9583 12.8737 38.9492 12.2227C37.9727 11.5391 36.931 10.9531 35.8242 10.4648C34.6523 9.97656 33.4479 9.61849 32.2109 9.39062C31.0065 9.13021 29.7695 9 28.5 9ZM28.5 6.90039C31.3646 6.90039 34.0664 7.45378 36.6055 8.56055C39.1445 9.63477 41.3581 11.1159 43.2461 13.0039C45.1341 14.8919 46.6152 17.1055 47.6895 19.6445C48.7962 22.1836 49.3496 24.8854 49.3496 27.75C49.3496 30.6146 48.7962 33.3164 47.6895 35.8555C46.6152 38.3945 45.1341 40.6081 43.2461 42.4961C41.3581 44.3841 39.1445 45.8652 36.6055 46.9395C34.0664 48.0462 31.3646 48.5996 28.5 48.5996C25.6354 48.5996 22.9336 48.0462 20.3945 46.9395C17.8555 45.8652 15.6419 44.3841 13.7539 42.4961C11.8984 40.6081 10.4173 38.3945 9.31055 35.8555C8.20378 33.3164 7.65039 30.6146 7.65039 27.75C7.65039 24.8854 8.20378 22.1836 9.31055 19.6445C10.4173 17.1055 11.8984 14.8919 13.7539 13.0039C15.6419 11.1159 17.8555 9.63477 20.3945 8.56055C22.9336 7.45378 25.6354 6.90039 28.5 6.90039ZM33.2363 17.0078C33.7897 17.5612 34.2129 18.2285 34.5059 19.0098C34.8314 19.791 34.9941 20.6536 34.9941 21.5977C34.9941 22.6719 34.7012 23.6484 34.1152 24.5273C33.5293 25.4062 32.6667 26.1875 31.5273 26.8711C31.4948 26.8711 31.4622 26.8874 31.4297 26.9199C31.3971 26.9199 31.3646 26.9362 31.332 26.9688C30.9414 27.1641 30.3555 27.6198 29.5742 28.3359C28.8255 29.0195 28.5163 30.2077 28.6465 31.9004C28.679 32.0957 28.679 32.2747 28.6465 32.4375C28.6139 32.6003 28.5488 32.7467 28.4512 32.877C28.3535 32.9746 28.2396 33.0723 28.1094 33.1699C27.9792 33.235 27.849 33.2676 27.7188 33.2676C27.6862 33.2676 27.6536 33.2839 27.6211 33.3164C27.5885 33.3164 27.556 33.3164 27.5234 33.3164C27.3607 33.3164 27.2142 33.3001 27.084 33.2676C26.9863 33.2025 26.8724 33.1211 26.7422 33.0234C26.612 32.9258 26.498 32.7956 26.4004 32.6328C26.3353 32.4375 26.2865 32.2259 26.2539 31.998C26.1888 30.9889 26.2702 30.0612 26.498 29.2148C26.7259 28.3685 27.1165 27.6035 27.6699 26.9199C28.0931 26.3991 28.5163 25.9922 28.9395 25.6992C29.3952 25.3737 29.7533 25.1458 30.0137 25.0156C30.0462 25.0156 30.0625 25.0156 30.0625 25.0156C30.0951 24.9831 30.1113 24.9668 30.1113 24.9668C30.8275 24.5436 31.4134 24.0879 31.8691 23.5996C32.3249 23.0788 32.5527 22.4115 32.5527 21.5977C32.5527 20.3932 32.1621 19.4167 31.3809 18.668C30.6322 17.8867 29.6556 17.4961 28.4512 17.4961C27.8978 17.4961 27.3281 17.6263 26.7422 17.8867C26.1888 18.1146 25.7331 18.4238 25.375 18.8145C25.0495 19.14 24.8053 19.498 24.6426 19.8887C24.5124 20.2793 24.4473 20.7025 24.4473 21.1582C24.4798 21.5163 24.3659 21.793 24.1055 21.9883C23.8776 22.151 23.6335 22.2487 23.373 22.2812C23.2103 22.3138 23.0475 22.3138 22.8848 22.2812C22.722 22.2161 22.5918 22.1185 22.4941 21.9883C22.3314 21.8906 22.2174 21.7441 22.1523 21.5488C22.0872 21.3535 22.0547 21.1582 22.0547 20.9629C22.0547 19.791 22.2988 18.847 22.7871 18.1309C23.2754 17.3822 23.7637 16.8125 24.252 16.4219C24.8379 15.9987 25.4889 15.6732 26.2051 15.4453C26.9538 15.1849 27.7025 15.0547 28.4512 15.0547C29.3952 15.0547 30.2578 15.2174 31.0391 15.543C31.8203 15.8685 32.5527 16.3568 33.2363 17.0078ZM27.4746 40.25C28.028 40.25 28.5 40.0547 28.8906 39.6641C29.3138 39.2409 29.5254 38.7363 29.5254 38.1504C29.5254 37.597 29.3138 37.125 28.8906 36.7344C28.5 36.3112 28.028 36.0996 27.4746 36.0996C26.8887 36.0996 26.3841 36.3112 25.9609 36.7344C25.5703 37.125 25.375 37.597 25.375 38.1504C25.375 38.7363 25.5703 39.2409 25.9609 39.6641C26.3841 40.0547 26.8887 40.25 27.4746 40.25Z" fill="#231D19"/>
</svg>
