<svg width="16" height="16" viewBox="0 0 16 16" fill="none" xmlns="http://www.w3.org/2000/svg">
<path d="M3.27867 4.34426C3.22113 4.26776 3.19811 4.18579 3.20962 4.09836C3.23263 4 3.29018 3.9235 3.38224 3.86885L7.80148 1.06557C7.81299 1.05464 7.81874 1.04918 7.81874 1.04918C7.83025 1.04918 7.836 1.04918 7.836 1.04918C7.84751 1.03825 7.85327 1.03279 7.85327 1.03279C7.86478 1.03279 7.87053 1.03279 7.87053 1.03279C7.88204 1.03279 7.88779 1.03279 7.88779 1.03279C7.88779 1.02186 7.88779 1.01639 7.88779 1.01639C7.8993 1.01639 7.90506 1.01639 7.90506 1.01639C7.90506 1.01639 7.91081 1.01639 7.92232 1.01639C7.92232 1.01639 7.92807 1.01639 7.93958 1.01639C7.93958 1.01639 7.94533 1.01639 7.95684 1.01639C7.95684 1.00546 7.95684 1 7.95684 1C7.96835 1 7.97411 1 7.97411 1C7.97411 1 7.97986 1 7.99137 1C8.00288 1 8.00863 1 8.00863 1C8.02014 1 8.02589 1 8.02589 1C8.0374 1 8.04316 1 8.04316 1C8.04316 1 8.04316 1.00546 8.04316 1.01639C8.05467 1.01639 8.06042 1.01639 8.06042 1.01639C8.07193 1.01639 8.07768 1.01639 8.07768 1.01639C8.08919 1.01639 8.09494 1.01639 8.09494 1.01639C8.10645 1.01639 8.11221 1.01639 8.11221 1.01639C8.11221 1.01639 8.11221 1.02186 8.11221 1.03279C8.12372 1.03279 8.12947 1.03279 8.12947 1.03279C8.14098 1.03279 8.14673 1.03279 8.14673 1.03279C8.14673 1.03279 8.15249 1.03279 8.16399 1.03279C8.16399 1.04372 8.16399 1.04918 8.16399 1.04918C8.1755 1.04918 8.18126 1.04918 8.18126 1.04918C8.18126 1.04918 8.18701 1.04918 8.19852 1.04918C8.19852 1.06011 8.19852 1.06557 8.19852 1.06557C8.19852 1.06557 8.20427 1.06557 8.21578 1.06557L12.635 3.86885C12.7156 3.9235 12.7616 4 12.7731 4.09836C12.7961 4.18579 12.7789 4.27322 12.7213 4.36066C12.6868 4.40437 12.6408 4.44262 12.5832 4.47541C12.5372 4.49727 12.4854 4.5082 12.4279 4.5082C12.3933 4.5082 12.3588 4.50273 12.3243 4.4918C12.2898 4.48087 12.2552 4.46448 12.2207 4.44262L8.37115 2.01639V11.1475C8.37115 11.2459 8.33087 11.3279 8.25031 11.3934C8.18126 11.459 8.1007 11.4918 8.00863 11.4918C7.90506 11.4918 7.81299 11.459 7.73243 11.3934C7.66338 11.3279 7.62885 11.2459 7.62885 11.1475V2.01639L3.79655 4.44262C3.76202 4.46448 3.7275 4.48087 3.69297 4.4918C3.65845 4.50273 3.62392 4.5082 3.5894 4.5082C3.53185 4.5082 3.47431 4.49727 3.41677 4.47541C3.35923 4.44262 3.31319 4.39891 3.27867 4.34426ZM14.603 11.4918C14.4994 11.5027 14.4131 11.5464 14.344 11.623C14.2865 11.6885 14.2577 11.765 14.2577 11.8525V14.2951H1.74229V11.8525C1.74229 11.765 1.70777 11.6885 1.63872 11.623C1.58118 11.5464 1.50637 11.5027 1.4143 11.4918C1.29922 11.4809 1.2014 11.5137 1.12084 11.5902C1.04028 11.6557 1 11.7432 1 11.8525V14.2951C1 14.4918 1.06905 14.6557 1.20715 14.7869C1.35676 14.929 1.53514 15 1.74229 15H14.2577C14.4649 15 14.6375 14.929 14.7756 14.7869C14.9252 14.6557 15 14.4918 15 14.2951V11.8525C15 11.7432 14.9597 11.6557 14.8792 11.5902C14.7986 11.5137 14.7065 11.4809 14.603 11.4918Z" fill="white" stroke="white" stroke-width="0.5"/>
</svg>
