<svg width="32" height="32" viewBox="0 0 32 32" fill="none"
    xmlns="http://www.w3.org/2000/svg">
    <path d="M23.8281 22.9766C23.9375 23.1016 23.9922 23.25 23.9922 23.4219C23.9922 23.5781 23.9375 23.7109 23.8281 23.8203C23.7031 23.9453 23.5547 24.0078 23.3828 24.0078C23.2266 24.0078 23.0938 23.9453 22.9844 23.8203L16 16.8359L9.01562 23.8203C8.90625 23.9453 8.76562 24.0078 8.59375 24.0078C8.42188 24.0078 8.28125 23.9453 8.17188 23.8203C8.0625 23.7109 8.00781 23.5781 8.00781 23.4219C8.00781 23.25 8.0625 23.1016 8.17188 22.9766L15.1562 15.9922L8.17188 9.00781C8.0625 8.89844 8.00781 8.76562 8.00781 8.60938C8.00781 8.4375 8.0625 8.28906 8.17188 8.16406C8.29688 8.05469 8.4375 8 8.59375 8C8.76562 8 8.90625 8.05469 9.01562 8.16406L16 15.1484L22.9844 8.16406C23.0938 8.05469 23.2344 8 23.4062 8C23.5781 8 23.7188 8.05469 23.8281 8.16406C23.9375 8.28906 23.9922 8.4375 23.9922 8.60938C23.9922 8.76562 23.9375 8.89844 23.8281 9.00781L16.8438 15.9922L23.8281 22.9766Z" fill="#EC7000"/>
</svg>
