<svg width="57" height="56" viewBox="0 0 57 56" fill="none" xmlns="http://www.w3.org/2000/svg">
<path d="M48.1289 17.9355C48.9427 18.7493 49.3496 19.7422 49.3496 20.9141C49.3496 22.0534 48.9427 23.0299 48.1289 23.8438L31.918 40.0547L18.3926 48.502C18.0345 48.6322 17.6602 48.6484 17.2695 48.5508C16.8789 48.4531 16.5371 48.2578 16.2441 47.9648L11.2637 42.9844C10.873 42.5938 10.6777 42.1055 10.6777 41.5195C10.6777 40.9336 10.873 40.4453 11.2637 40.0547L12.6309 38.6875C12.7611 37.6458 13.0378 36.653 13.4609 35.709C13.9167 34.7324 14.5514 33.8372 15.3652 33.0234C16.5046 31.8841 17.8229 31.1029 19.3203 30.6797C20.8177 30.2565 22.3151 30.1914 23.8125 30.4844L30.4531 23.8438C31.2669 23.0299 32.2435 22.623 33.3828 22.623C34.5221 22.623 35.4987 23.0299 36.3125 23.8438L42.2207 17.9355C43.0345 17.1217 44.0111 16.7148 45.1504 16.7148C46.3223 16.7148 47.3151 17.1217 48.1289 17.9355ZM46.6641 22.3789C47.0547 21.9557 47.25 21.4674 47.25 20.9141C47.25 20.3281 47.0547 19.8236 46.6641 19.4004C46.2409 19.0098 45.7363 18.8145 45.1504 18.8145C44.597 18.8145 44.1087 19.0098 43.6855 19.4004L37.3867 25.6992C37.582 26.4154 37.582 27.1315 37.3867 27.8477C37.224 28.5638 36.8659 29.1986 36.3125 29.752L31.1855 34.8789C30.9577 35.0742 30.6973 35.1719 30.4043 35.1719C30.1439 35.1719 29.916 35.0742 29.7207 34.8789C29.4928 34.6836 29.3789 34.4395 29.3789 34.1465C29.3789 33.8535 29.4928 33.6094 29.7207 33.4141L34.8477 28.2383C35.2708 27.8477 35.4824 27.3757 35.4824 26.8223C35.4824 26.2363 35.2708 25.7318 34.8477 25.3086C34.457 24.918 33.9688 24.7227 33.3828 24.7227C32.7969 24.7227 32.3086 24.918 31.918 25.3086L24.3984 32.7793C23.1289 32.3236 21.7943 32.2422 20.3945 32.5352C19.0273 32.8281 17.8392 33.4792 16.8301 34.4883C16.1139 35.2044 15.5768 36.002 15.2188 36.8809C14.8607 37.7598 14.6816 38.6549 14.6816 39.5664L12.7773 41.5195L17.9043 46.6953L30.4531 38.5898L46.6641 22.3789ZM13.9004 4.84961C14.4863 4.84961 14.9746 5.0612 15.3652 5.48438C15.7884 5.875 16 6.34701 16 6.90039V21.5C16 22.0859 15.7884 22.5905 15.3652 23.0137C14.9746 23.4043 14.4863 23.5996 13.9004 23.5996H9.75C9.16406 23.5996 8.65951 23.4043 8.23633 23.0137C7.8457 22.5905 7.65039 22.0859 7.65039 21.5V6.90039C7.65039 6.34701 7.8457 5.875 8.23633 5.48438C8.65951 5.0612 9.16406 4.84961 9.75 4.84961H13.9004ZM13.9004 21.5V6.90039H9.75V21.5H13.9004ZM30.3066 4.70312C30.7298 4.27995 31.2181 4.06836 31.7715 4.06836C32.3574 4.06836 32.862 4.27995 33.2852 4.70312L36.2148 7.63281C36.638 8.05599 36.8496 8.56055 36.8496 9.14648C36.8496 9.69987 36.638 10.1719 36.2148 10.5625L25.9121 20.9141C25.4889 21.3047 24.9844 21.5 24.3984 21.5C23.8451 21.5 23.373 21.3047 22.9824 20.9141L20.0039 17.9355C19.6133 17.5449 19.418 17.0566 19.418 16.4707C19.418 15.8848 19.6133 15.3965 20.0039 15.0059L30.3066 4.70312ZM24.4473 19.4004L34.75 9.09766L31.8203 6.16797L21.4688 16.4707L24.4473 19.4004Z" fill="#56504C"/>
</svg>
