<svg width="25" height="25" viewBox="0 0 25 25" fill="none"
    xmlns="http://www.w3.org/2000/svg">
    <path d="M15.6055 6.29395H9.59375V7.03223H15.6055V6.29395ZM14.0938 13.0439C14.0938 13.2432 14.0176 13.4189 13.8652 13.5713C13.7246 13.7119 13.5547 13.7822 13.3555 13.7822H11.8438C11.6445 13.7822 11.4688 13.7119 11.3164 13.5713C11.1758 13.4189 11.1055 13.2432 11.1055 13.0439V11.5322C11.1055 11.333 11.1758 11.1631 11.3164 11.0225C11.4688 10.8701 11.6445 10.7939 11.8438 10.7939H13.3555C13.5547 10.7939 13.7246 10.8701 13.8652 11.0225C14.0176 11.1631 14.0938 11.333 14.0938 11.5322V13.0439ZM17.8555 11.5322V13.0439C17.8555 13.2432 17.7793 13.4189 17.627 13.5713C17.4863 13.7119 17.3105 13.7822 17.0996 13.7822H15.6055C15.3945 13.7822 15.2129 13.7119 15.0605 13.5713C14.9199 13.4189 14.8496 13.2432 14.8496 13.0439V11.5322C14.8496 11.333 14.9199 11.1631 15.0605 11.0225C15.2129 10.8701 15.3945 10.7939 15.6055 10.7939H17.0996C17.3105 10.7939 17.4863 10.8701 17.627 11.0225C17.7793 11.1631 17.8555 11.333 17.8555 11.5322ZM17.8555 15.2939V16.7881C17.8555 16.999 17.7793 17.1807 17.627 17.333C17.4863 17.4736 17.3105 17.5439 17.0996 17.5439H15.6055C15.3945 17.5439 15.2129 17.4736 15.0605 17.333C14.9199 17.1807 14.8496 16.999 14.8496 16.7881V15.2939C14.8496 15.083 14.9199 14.9072 15.0605 14.7666C15.2129 14.6143 15.3945 14.5381 15.6055 14.5381H17.0996C17.3105 14.5381 17.4863 14.6143 17.627 14.7666C17.7793 14.9072 17.8555 15.083 17.8555 15.2939ZM16.7305 8.54395C16.8242 8.54395 16.9062 8.50879 16.9766 8.43848C17.0586 8.35645 17.0996 8.2627 17.0996 8.15723V5.16895C17.0996 5.06348 17.0586 4.97559 16.9766 4.90527C16.9062 4.82324 16.8242 4.78223 16.7305 4.78223C16.625 4.78223 16.5312 4.82324 16.4492 4.90527C16.3789 4.97559 16.3438 5.06348 16.3438 5.16895V8.15723C16.3438 8.2627 16.3789 8.35645 16.4492 8.43848C16.5312 8.50879 16.625 8.54395 16.7305 8.54395ZM10.3496 15.2939V16.7881C10.3496 16.999 10.2734 17.1807 10.1211 17.333C9.98047 17.4736 9.80469 17.5439 9.59375 17.5439H8.09961C7.88867 17.5439 7.70703 17.4736 7.55469 17.333C7.41406 17.1807 7.34375 16.999 7.34375 16.7881V15.2939C7.34375 15.083 7.41406 14.9072 7.55469 14.7666C7.70703 14.6143 7.88867 14.5381 8.09961 14.5381H9.59375C9.80469 14.5381 9.98047 14.6143 10.1211 14.7666C10.2734 14.9072 10.3496 15.083 10.3496 15.2939ZM19.3496 6.29395H17.8555V7.03223H19.3496V19.0381H5.84961V7.03223H7.34375V6.29395H5.84961C5.63867 6.29395 5.45703 6.37012 5.30469 6.52246C5.16406 6.66309 5.09375 6.83301 5.09375 7.03223V19.0381C5.09375 19.249 5.16406 19.4248 5.30469 19.5654C5.45703 19.7178 5.63867 19.7939 5.84961 19.7939H19.3496C19.5605 19.7939 19.7363 19.7178 19.877 19.5654C20.0293 19.4248 20.1055 19.249 20.1055 19.0381V7.03223C20.1055 6.83301 20.0293 6.66309 19.877 6.52246C19.7363 6.37012 19.5605 6.29395 19.3496 6.29395ZM8.46875 8.54395C8.57422 8.54395 8.66211 8.50879 8.73242 8.43848C8.81445 8.35645 8.85547 8.2627 8.85547 8.15723V5.16895C8.85547 5.06348 8.81445 4.97559 8.73242 4.90527C8.66211 4.82324 8.57422 4.78223 8.46875 4.78223C8.375 4.78223 8.28711 4.82324 8.20508 4.90527C8.13477 4.97559 8.09961 5.06348 8.09961 5.16895V8.15723C8.09961 8.2627 8.13477 8.35645 8.20508 8.43848C8.28711 8.50879 8.375 8.54395 8.46875 8.54395ZM14.0938 15.2939V16.7881C14.0938 16.999 14.0176 17.1807 13.8652 17.333C13.7246 17.4736 13.5547 17.5439 13.3555 17.5439H11.8438C11.6445 17.5439 11.4688 17.4736 11.3164 17.333C11.1758 17.1807 11.1055 16.999 11.1055 16.7881V15.2939C11.1055 15.083 11.1758 14.9072 11.3164 14.7666C11.4688 14.6143 11.6445 14.5381 11.8438 14.5381H13.3555C13.5547 14.5381 13.7246 14.6143 13.8652 14.7666C14.0176 14.9072 14.0938 15.083 14.0938 15.2939ZM7.34375 11.5322C7.34375 11.333 7.41406 11.1631 7.55469 11.0225C7.70703 10.8701 7.88867 10.7939 8.09961 10.7939H9.59375C9.80469 10.7939 9.98047 10.8701 10.1211 11.0225C10.2734 11.1631 10.3496 11.333 10.3496 11.5322V13.0439C10.3496 13.2432 10.2734 13.4189 10.1211 13.5713C9.98047 13.7119 9.80469 13.7822 9.59375 13.7822H8.09961C7.88867 13.7822 7.70703 13.7119 7.55469 13.5713C7.41406 13.4189 7.34375 13.2432 7.34375 13.0439V11.5322Z" fill="#56504C"/>
</svg>
