<svg width="57" height="56" viewBox="0 0 57 56" fill="none" xmlns="http://www.w3.org/2000/svg">
<path d="M47.0212 13.3496L46.9802 13.2266C46.9529 12.9805 46.8435 12.7891 46.6521 12.6523L46.5701 12.6113C46.4607 12.5566 46.3513 12.5293 46.2419 12.5293L39.5154 12.4883C39.2693 12.4883 39.0642 12.5703 38.9001 12.7344C38.7361 12.8984 38.6541 13.1035 38.6541 13.3496C38.6541 13.5684 38.7361 13.7598 38.9001 13.9238C39.0642 14.0879 39.2693 14.1699 39.5154 14.1699H44.3142L32.5837 27.2539C32.4197 27.418 32.2283 27.5 32.0095 27.5H22.3298C22.1111 27.5 21.9197 27.582 21.7556 27.7461L10.5994 39.3945C10.4353 39.5859 10.3533 39.791 10.3533 40.0098C10.3533 40.2285 10.4216 40.4199 10.5583 40.584C10.7224 40.748 10.9138 40.8301 11.1326 40.8301C11.3787 40.8301 11.5837 40.748 11.7478 40.584L22.4529 29.4277C22.6169 29.2637 22.8083 29.1816 23.0271 29.1816H32.0095C32.6931 29.1816 33.281 28.9355 33.7732 28.4434L45.3396 15.5234V19.9941C45.3396 20.2402 45.4216 20.4453 45.5857 20.6094C45.7498 20.7461 45.9412 20.8145 46.1599 20.8145C46.406 20.8145 46.6111 20.7461 46.7751 20.6094C46.9392 20.4453 47.0212 20.2402 47.0212 19.9941V13.3496ZM16.2595 31.0684C15.4939 29.7012 14.865 28.334 14.3728 26.9668C14.0447 26.0918 13.8259 25.3125 13.7166 24.6289C13.6345 23.918 13.6482 23.207 13.7576 22.4961C13.949 21.2656 14.4138 20.1445 15.1521 19.1328C15.8904 18.1211 16.8064 17.3281 17.9001 16.7539C18.9939 16.1523 20.1833 15.8516 21.4685 15.8516H21.5095C22.5759 15.8516 23.574 16.0566 24.5037 16.4668C25.4607 16.877 26.2947 17.4512 27.0056 18.1895C27.7166 17.4512 28.5505 16.877 29.5076 16.4668C30.4646 16.0566 31.4626 15.8516 32.5017 15.8516H32.5427C33.6638 15.8516 34.7166 16.084 35.7009 16.5488C36.6853 16.9863 37.5466 17.6016 38.2849 18.3945L37.1775 19.666C36.9861 19.4473 36.7673 19.2285 36.5212 19.0098C35.9744 18.5176 35.3591 18.1484 34.6755 17.9023C33.9919 17.6289 33.281 17.4922 32.5427 17.4922C31.7224 17.5195 30.9294 17.6973 30.1638 18.0254C29.4255 18.3262 28.7693 18.7637 28.1951 19.3379L27.0056 20.5684L25.8162 19.3379C25.2419 18.7637 24.5857 18.3262 23.8474 18.0254C23.1091 17.6973 22.3298 17.5195 21.5095 17.4922H21.4685C20.7302 17.4922 20.0193 17.6289 19.3357 17.9023C18.6521 18.1484 18.0232 18.5176 17.449 19.0098C16.9021 19.502 16.4509 20.0762 16.0955 20.7324C15.7673 21.3613 15.5349 22.0312 15.3982 22.7422C15.3162 23.2891 15.3162 23.8496 15.3982 24.4238C15.4802 24.998 15.658 25.6543 15.9314 26.3926C16.3416 27.541 16.8611 28.6758 17.49 29.7969L16.2595 31.0684ZM38.0798 26.3926L38.2439 25.9414L40.3357 23.6035C40.3357 24.5605 40.1033 25.668 39.6384 26.9258C38.7634 29.4688 37.3962 31.998 35.5369 34.5137C33.5955 37.1387 31.2302 39.627 28.4412 41.9785C28.031 42.334 27.5525 42.5117 27.0056 42.5117C26.4587 42.5117 25.9802 42.334 25.5701 41.9785C23.0818 39.873 20.9216 37.6582 19.0896 35.334L20.2791 34.1035C22.0564 36.4004 24.1755 38.6016 26.6365 40.707C26.7458 40.7891 26.8689 40.8301 27.0056 40.8301C27.1423 40.8301 27.2654 40.7891 27.3748 40.707C30.0544 38.4375 32.324 36.0449 34.1833 33.5293C35.9333 31.1504 37.2322 28.7715 38.0798 26.3926Z" fill="#56504C"/>
</svg>
