<svg width="33" height="32" viewBox="0 0 33 32" fill="none"
    xmlns="http://www.w3.org/2000/svg">
    <path d="M16.5 4.99219C17.875 4.99219 19.1719 5.25781 20.3906 5.78906C21.6094 6.30469 22.6719 7.01562 23.5781 7.92188C24.4844 8.82812 25.1953 9.89062 25.7109 11.1094C26.2422 12.3281 26.5078 13.625 26.5078 15C26.5078 16.375 26.2422 17.6719 25.7109 18.8906C25.1953 20.1094 24.4844 21.1719 23.5781 22.0781C22.6719 22.9844 21.6094 23.6953 20.3906 24.2109C19.1719 24.7422 17.875 25.0078 16.5 25.0078C15.125 25.0078 13.8281 24.7422 12.6094 24.2109C11.3906 23.6953 10.3281 22.9844 9.42188 22.0781C8.51562 21.1719 7.80469 20.1094 7.28906 18.8906C6.75781 17.6719 6.49219 16.375 6.49219 15C6.49219 13.625 6.75781 12.3281 7.28906 11.1094C7.80469 9.89062 8.51562 8.82812 9.42188 7.92188C10.3281 7.01562 11.3906 6.30469 12.6094 5.78906C13.8281 5.25781 15.125 4.99219 16.5 4.99219ZM17.7188 18.375C17.6094 18.5312 17.5 18.6875 17.3906 18.8438C17.2812 19 17.1562 19.1562 17.0156 19.3125C16.8906 19.4531 16.7734 19.5625 16.6641 19.6406C16.5547 19.7188 16.4609 19.7578 16.3828 19.7578C16.3359 19.7578 16.2969 19.7578 16.2656 19.7578C16.25 19.7422 16.2266 19.7266 16.1953 19.7109C16.1641 19.6953 16.1406 19.6641 16.125 19.6172C16.1094 19.5703 16.1016 19.5156 16.1016 19.4531C16.1016 19.3906 16.1094 19.2969 16.125 19.1719C16.1562 19.0312 16.2031 18.8594 16.2656 18.6562C16.2812 18.5781 16.3047 18.4688 16.3359 18.3281C16.3828 18.1719 16.4297 17.9844 16.4766 17.7656L18 12.8438L17.25 12.9844C17.125 13.0156 16.9531 13.0469 16.7344 13.0781C16.5156 13.1094 16.2578 13.1406 15.9609 13.1719C15.6484 13.2031 15.375 13.2344 15.1406 13.2656C14.9062 13.2812 14.7031 13.2969 14.5312 13.3125V13.7812C14.7344 13.7812 14.8984 13.7969 15.0234 13.8281C15.1641 13.8438 15.2656 13.8594 15.3281 13.875C15.4062 13.9062 15.4609 13.9609 15.4922 14.0391C15.5391 14.1016 15.5625 14.1953 15.5625 14.3203C15.5625 14.3359 15.5625 14.3594 15.5625 14.3906C15.5625 14.4062 15.5547 14.4219 15.5391 14.4375C15.5391 14.4688 15.5312 14.4922 15.5156 14.5078C15.5156 14.5234 15.5156 14.5469 15.5156 14.5781L14.2734 18.4688C14.2422 18.6094 14.2109 18.7422 14.1797 18.8672C14.1484 18.9766 14.125 19.0703 14.1094 19.1484C14.0625 19.3047 14.0312 19.4375 14.0156 19.5469C14 19.6562 13.9922 19.75 13.9922 19.8281C13.9922 20.0156 14.0234 20.1875 14.0859 20.3438C14.1484 20.4844 14.2422 20.6094 14.3672 20.7188C14.4922 20.8125 14.625 20.8828 14.7656 20.9297C14.9219 20.9766 15.0781 21 15.2344 21C15.5156 21 15.7812 20.9453 16.0312 20.8359C16.2969 20.7109 16.5547 20.5312 16.8047 20.2969C16.9453 20.1562 17.125 19.9453 17.3438 19.6641C17.5625 19.3828 17.8125 19.0312 18.0938 18.6094L17.7188 18.375ZM18.4922 10.2422C18.4922 9.89844 18.3672 9.60938 18.1172 9.375C17.8828 9.125 17.5938 9 17.25 9C16.9062 9 16.6094 9.125 16.3594 9.375C16.125 9.60938 16.0078 9.89844 16.0078 10.2422C16.0078 10.5859 16.125 10.8828 16.3594 11.1328C16.6094 11.3828 16.9062 11.5078 17.25 11.5078C17.5938 11.5078 17.8828 11.3828 18.1172 11.1328C18.3672 10.8828 18.4922 10.5859 18.4922 10.2422Z" fill="white"/>
</svg>
