<svg width="57" height="56" viewBox="0 0 57 56" fill="none" xmlns="http://www.w3.org/2000/svg">
<path d="M43.1875 16.7578C43.5977 16.8945 43.9121 17.1543 44.1309 17.5371C44.377 17.8926 44.459 18.2891 44.377 18.7266L42.8184 28.5293C42.4902 30.4707 41.916 32.3164 41.0957 34.0664C40.2754 35.8164 39.2227 37.4297 37.9375 38.9062C36.6523 40.3828 35.1895 41.6543 33.5488 42.7207C31.9082 43.7871 30.1582 44.6074 28.2988 45.1816C28.2168 45.209 28.1348 45.2227 28.0527 45.2227C27.9707 45.25 27.8887 45.2637 27.8066 45.2637C27.6973 45.2637 27.6016 45.25 27.5195 45.2227C27.4375 45.2227 27.3555 45.209 27.2734 45.1816C25.4141 44.6074 23.6641 43.7871 22.0234 42.7207C20.3828 41.6543 18.9336 40.3828 17.6758 38.9062C16.3906 37.4297 15.3242 35.8164 14.4766 34.0664C13.6562 32.3164 13.0957 30.4707 12.7949 28.5293L11.1953 18.7266C11.1133 18.2891 11.1816 17.8926 11.4004 17.5371C11.6465 17.1543 11.9746 16.8945 12.3848 16.7578L27.2734 12.082C27.3555 12.0547 27.4375 12.041 27.5195 12.041C27.6016 12.0137 27.6973 12 27.8066 12C27.8887 12 27.9707 12.0137 28.0527 12.041C28.1348 12.041 28.2168 12.0547 28.2988 12.082L43.1875 16.7578ZM41.0957 28.2422L42.6543 18.4395L27.8066 13.7637L12.918 18.4395L14.5176 28.2422C14.8184 30.0469 15.3516 31.7559 16.1172 33.3691C16.8828 34.9824 17.8398 36.459 18.9883 37.7988C20.1367 39.1113 21.4492 40.2598 22.9258 41.2441C24.4297 42.2012 26.0566 42.9531 27.8066 43.5C29.5293 42.9531 31.1426 42.2012 32.6465 41.2441C34.123 40.2598 35.4355 39.1113 36.584 37.7988C37.7598 36.459 38.7305 34.9824 39.4961 33.3691C40.2617 31.7559 40.7949 30.0469 41.0957 28.2422ZM27.8066 19.0137C27.5605 19.0137 27.3418 19.0957 27.1504 19.2598C26.9863 19.4238 26.9043 19.6289 26.9043 19.875V39.1113C26.9043 39.3574 26.9863 39.5762 27.1504 39.7676C27.3418 39.9316 27.5605 40.0137 27.8066 40.0137C28.0254 40.0137 28.2168 39.9316 28.3809 39.7676C28.5723 39.5762 28.668 39.3574 28.668 39.1113V19.875C28.668 19.6289 28.5723 19.4238 28.3809 19.2598C28.2168 19.0957 28.0254 19.0137 27.8066 19.0137Z" fill="#56504C"/>
</svg>
