<svg width="17" height="16" viewBox="0 0 17 16" fill="none" xmlns="http://www.w3.org/2000/svg">
<path d="M11.5 6.5C11.5 6.22386 11.7239 6 12 6H13C13.2761 6 13.5 6.22386 13.5 6.5V7.5C13.5 7.77614 13.2761 8 13 8H12C11.7239 8 11.5 7.77614 11.5 7.5V6.5Z" fill="#333333"/>
<path d="M4 0C4.27614 0 4.5 0.223858 4.5 0.5V1H12.5V0.5C12.5 0.223858 12.7239 0 13 0C13.2761 0 13.5 0.223858 13.5 0.5V1H14.5C15.6046 1 16.5 1.89543 16.5 3V14C16.5 15.1046 15.6046 16 14.5 16H2.5C1.39543 16 0.5 15.1046 0.5 14V3C0.5 1.89543 1.39543 1 2.5 1H3.5V0.5C3.5 0.223858 3.72386 0 4 0ZM1.5 4V14C1.5 14.5523 1.94772 15 2.5 15H14.5C15.0523 15 15.5 14.5523 15.5 14V4H1.5Z" fill="#333333"/>
</svg>
