<svg width="8" height="8" viewBox="0 0 8 8" fill="none" xmlns="http://www.w3.org/2000/svg">
<g id="check-circle-fill">
<path id="Subtract" d="M8 4C8 6.20914 6.20914 8 4 8C1.79086 8 0 6.20914 0 4C0 1.79086 1.79086 0 4 0C6.20914 0 8 1.79086 8 4ZM6.01516 2.48483C5.86871 2.33839 5.63128 2.33839 5.48483 2.48483C5.48129 2.48837 5.47797 2.49212 5.47488 2.49605L3.7387 4.70837L2.69194 3.66161C2.54549 3.51516 2.30805 3.51516 2.16161 3.66161C2.01516 3.80806 2.01516 4.0455 2.16161 4.19194L3.48483 5.51517C3.63128 5.66161 3.86872 5.66161 4.01516 5.51516C4.01842 5.5119 4.0215 5.50846 4.02438 5.50486L6.02048 3.00974C6.16159 2.86291 6.15981 2.62949 6.01516 2.48483Z" fill="#005F00"/>
</g>
</svg>
