<svg width="17" height="16" viewBox="0 0 17 16" fill="none" xmlns="http://www.w3.org/2000/svg">
<path d="M7.5498 11.8848C7.5498 13.2998 7.00195 14.0908 6.02637 14.0908C5.04785 14.0908 4.5 13.2998 4.5 11.8848C4.5 10.4727 5.04785 9.68164 6.02637 9.68164C7.00195 9.68164 7.5498 10.4727 7.5498 11.8848ZM6.02637 10.2734C5.48438 10.2734 5.19434 10.8359 5.19434 11.8848C5.19434 11.9727 5.19727 12.0576 5.2002 12.1367L6.75879 10.9941C6.63281 10.5195 6.38379 10.2734 6.02637 10.2734ZM5.29395 12.7812C5.41992 13.2529 5.66602 13.499 6.02637 13.499C6.56543 13.499 6.85547 12.9365 6.85547 11.8848C6.85547 11.7998 6.85254 11.7148 6.84961 11.6357L5.29395 12.7812Z" fill="#333333"/>
<path d="M11.3555 13.4053V14H8.35547V13.4053H9.53613V10.499H9.48633L8.34961 11.2461V10.5576L9.53906 9.77246H10.2305V13.4053H11.3555Z" fill="#333333"/>
<path d="M14.5 14V4.5L10 0H4.5C3.39543 0 2.5 0.89543 2.5 2V14C2.5 15.1046 3.39543 16 4.5 16H12.5C13.6046 16 14.5 15.1046 14.5 14ZM10 3C10 3.82843 10.6716 4.5 11.5 4.5H13.5V14C13.5 14.5523 13.0523 15 12.5 15H4.5C3.94772 15 3.5 14.5523 3.5 14V2C3.5 1.44772 3.94772 1 4.5 1H10V3Z" fill="#333333"/>
</svg>
