<svg width="25" height="32" viewBox="0 0 25 32" fill="none" xmlns="http://www.w3.org/2000/svg">
<path d="M6.86275 14C6.32129 14 5.88235 14.4477 5.88235 15C5.88235 15.5523 6.32129 16 6.86275 16H16.6667C17.2081 16 17.6471 15.5523 17.6471 15C17.6471 14.4477 17.2081 14 16.6667 14H6.86275Z" fill="#00194C"/>
<path d="M5.88235 19C5.88235 18.4477 6.32129 18 6.86275 18H16.6667C17.2081 18 17.6471 18.4477 17.6471 19C17.6471 19.5523 17.2081 20 16.6667 20H6.86275C6.32129 20 5.88235 19.5523 5.88235 19Z" fill="#00194C"/>
<path d="M5.88235 23C5.88235 22.4477 6.32129 22 6.86275 22H10.7843C11.3258 22 11.7647 22.4477 11.7647 23C11.7647 23.5523 11.3258 24 10.7843 24H6.86275C6.32129 24 5.88235 23.5523 5.88235 23Z" fill="#00194C"/>
<path d="M14.7059 0H3.92157C1.75575 0 0 1.79086 0 4V28C0 30.2091 1.75575 32 3.92157 32H19.6078C21.7737 32 23.5294 30.2091 23.5294 28V9L14.7059 0ZM14.7059 2V6C14.7059 7.65685 16.0227 9 17.6471 9H21.5686V28C21.5686 29.1046 20.6908 30 19.6078 30H3.92157C2.83866 30 1.96078 29.1046 1.96078 28V4C1.96078 2.89543 2.83866 2 3.92157 2H14.7059Z" fill="#00194C"/>
</svg>
