<svg width="173" height="48" viewBox="0 0 173 48" fill="none" xmlns="http://www.w3.org/2000/svg">
<path d="M23.902 7.9136C22.0358 9.00249 21.4626 9.09746 19.4308 10.3003C20.6155 9.02782 21.0231 8.48337 21.7556 7.41979C19.883 7.51476 17.1633 7.74266 15.2207 8.16683C16.9086 7.26785 20.2588 6.27392 22.0295 6.03335C21.6218 5.46991 18.2971 3.68462 17.4754 3.33643C20.1059 3.53901 23.3161 4.51396 24.8702 5.46358C25.4816 5.27365 26.1185 5.26099 27.2586 5.16603C26.9656 5.65983 26.9529 5.94472 25.8383 6.68542C26.1504 7.50842 25.4115 12.0413 24.7937 13.2378C24.781 11.3512 24.6154 8.95818 23.902 7.9136Z" fill="white"/>
<path d="M10.2324 24.1712C9.16238 23.7724 8.38533 23.3166 7.53822 22.5252C7.79299 21.8288 8.08597 21.2844 8.5573 20.5817C7.68471 20.7083 7.04141 20.8096 6.28984 20.9489C5.67839 19.8853 5.39814 18.8597 5.09241 17.429C4.92681 18.942 4.86312 20.0246 5.07331 21.2274C4.38542 21.4173 3.89499 21.5883 3.32812 21.8352C4.12428 22.3163 4.76758 22.6898 5.65291 23.1013C6.13061 24.1206 6.62104 24.8043 7.42357 25.5893C7.23886 24.9182 7.18791 24.3928 7.26434 23.6901C8.25794 23.9813 9.10506 24.1332 10.2324 24.1712Z" fill="white"/>
<path d="M13.0299 9.10352C12.6987 9.53401 12.3102 10.338 12.2019 10.7115C14.9662 11.085 17.1827 12.4968 17.1827 12.4968C14.7624 12.0726 13.4949 12.1233 12.5905 12.2056C11.6924 12.2879 11.5077 12.3955 11.5077 12.3955C10.858 13.8136 10.4631 16.2509 10.4631 16.2509C10.0236 15.2 9.38671 13.0856 9.38671 13.0856C8.17018 13.7313 5.36133 16.3586 5.36133 16.3586C6.90269 13.2881 8.46953 11.8954 8.46953 11.8954C7.92814 11.3509 6.52054 11.085 5.48871 11.0344C6.02373 10.8192 7.3995 10.5596 8.45679 10.5153C9.51409 10.4836 10.1574 10.5469 10.1574 10.5469C11.1 9.7999 12.5331 9.17315 13.0299 9.10352Z" fill="white"/>
<path d="M15.9609 22.2653C15.4705 22.9237 15.0501 23.4428 14.5151 24.0442C13.5852 24.3038 12.84 24.3988 11.9355 24.3988C12.4897 24.6836 13.0311 24.8546 13.6107 24.9749C13.0311 25.5003 12.5406 25.8675 11.9738 26.2284C12.9164 26.0068 14.1648 25.6079 15.0883 25.0635C15.5724 25.0825 16.0246 25.0508 16.3558 24.9875C16.2667 24.709 16.2157 24.5 16.1456 24.1392C17.0182 23.4681 17.6488 22.8604 18.3749 22.1323C17.6042 22.6641 16.9354 23.0693 16.0437 23.4871C16.0055 23.0693 15.98 22.7274 15.9609 22.2653Z" fill="white"/>
<path d="M0.310547 30.0586H30.5519V0H0.310547V30.0586ZM29.8958 29.4065H0.960213V0.64574H29.8958V29.4065Z" fill="white"/>
<path d="M3.69876 40.0421C3.62233 39.3964 3.4631 38.7696 2.52681 38.7696C1.94721 38.7696 1.45041 39.0482 1.45041 39.6939C1.45041 41.2133 4.90892 41.207 4.90892 43.3911C4.90892 44.7839 3.94079 45.4803 2.52681 45.4803C1.52684 45.4803 0.641508 45.0435 0.09375 44.4104L0.673354 43.5304C1.15742 44.0875 1.88989 44.4104 2.57777 44.4104C3.24654 44.4104 3.7115 44.1508 3.7115 43.5177C3.7115 42.1566 0.26572 42.0933 0.26572 39.7826C0.26572 38.3708 1.33576 37.7061 2.53955 37.7061C4.27199 37.7061 4.7688 38.8962 4.83249 39.8712L3.69876 40.0421Z" fill="white"/>
<path d="M7.14478 42.8025C7.19573 44.1193 7.73712 44.4992 8.54602 44.4992C9.1702 44.4992 9.71796 44.1889 10.0428 43.942L10.2275 44.8537C9.71159 45.1765 9.1702 45.4741 8.31035 45.4741C6.89 45.4741 5.92188 44.6258 5.92188 42.4986C5.92188 40.3905 6.77536 39.5105 8.24029 39.5105C9.72433 39.5105 10.3103 40.4728 10.3103 41.8972V42.8088H7.14478V42.8025ZM9.17021 41.8972C9.17021 40.9349 8.88996 40.4854 8.20844 40.4854C7.50782 40.4854 7.20847 40.9033 7.15115 41.8972H9.17021Z" fill="white"/>
<path d="M16.0476 40.6943L15.2642 40.65C15.468 40.9159 15.5444 41.2388 15.5444 41.6883C15.5444 42.9734 14.7037 43.8534 13.4553 43.8534C13.2069 43.8534 13.0859 43.8407 12.8948 43.7901C12.6783 43.942 12.5381 44.037 12.5381 44.2269C12.5381 44.8283 16.0094 44.1193 16.0094 46.1641C16.0094 47.3986 14.7037 48 13.2961 48C11.8757 48 10.9395 47.4873 10.9395 46.5756C10.9395 45.9742 11.328 45.5437 11.9203 45.2272C11.6592 45.0879 11.4363 44.8726 11.4363 44.4232C11.4363 43.9737 11.7611 43.6761 12.1241 43.4166C11.6401 43.0494 11.3471 42.4606 11.3471 41.6693C11.3471 40.3525 12.1878 39.5042 13.4681 39.5042C13.7674 39.5042 14.0477 39.5548 14.2897 39.6434H16.054V40.6943H16.0476ZM12.0413 46.449C12.0413 46.9618 12.6528 47.0884 13.3216 47.0884C14.0668 47.0884 14.8438 46.7972 14.8438 46.3034C14.8438 45.607 13.8757 45.6197 12.9904 45.4994C12.5254 45.721 12.0413 46.0438 12.0413 46.449ZM13.4553 40.4474C12.8311 40.4474 12.4426 40.802 12.4426 41.6756C12.4426 42.5556 12.8311 42.9101 13.4553 42.9101C14.0795 42.9101 14.468 42.5556 14.468 41.6756C14.468 40.802 14.0795 40.4474 13.4553 40.4474Z" fill="white"/>
<path d="M18.0045 39.6436V43.5433C18.0045 44.2714 18.4567 44.4993 18.9726 44.4993C19.4885 44.4993 19.9407 44.2777 19.9407 43.5433V39.6436H21.1127V43.5117C21.1127 44.8411 20.2083 45.4742 18.9662 45.4742C17.7242 45.4742 16.8262 44.8411 16.8262 43.5117V39.6436H18.0045Z" fill="white"/>
<path d="M23.7233 39.6434V40.2005C24.1946 39.7004 24.6723 39.5042 25.1755 39.5042C26.029 39.5042 26.1882 40.2765 26.1882 41.1122L25.1882 41.2324C25.1755 40.8906 25.1437 40.6564 24.8188 40.6564C24.5067 40.6564 24.1755 40.9159 23.838 41.2578V45.3411H22.666V39.6498H23.7233V39.6434Z" fill="white"/>
<path d="M31.3354 42.5177C31.3354 44.4866 30.5201 45.4742 28.9787 45.4742C27.4692 45.4742 26.6094 44.6195 26.6094 42.4987C26.6094 40.4095 27.4374 39.5105 28.9787 39.5105C30.5838 39.5042 31.3354 40.3652 31.3354 42.5177ZM27.8132 42.4924C27.8132 44.0371 28.2017 44.4992 28.9787 44.4992C29.7558 44.4992 30.1316 44.0371 30.1316 42.5177C30.1316 40.935 29.7558 40.4791 28.9787 40.4791C28.2017 40.4791 27.8132 40.9286 27.8132 42.4924Z" fill="white"/>
<path d="M35.1195 41.3591C35.0749 40.8526 34.852 40.4791 34.2342 40.4791C33.7819 40.4791 33.438 40.669 33.438 41.0995C33.438 42.1821 36.1131 42.0871 36.1131 43.8091C36.1131 44.8347 35.3806 45.4678 34.1514 45.4678C33.2597 45.4678 32.559 45.1259 32.1387 44.7208L32.5272 43.8661C32.9285 44.2523 33.5208 44.4992 34.1195 44.4992C34.5717 44.4992 34.9475 44.3282 34.9475 43.8788C34.9475 42.9798 32.3106 42.9924 32.3106 41.1818C32.3106 40.1752 33.0304 39.5105 34.2278 39.5105C35.5526 39.5105 36.1004 40.2702 36.1004 41.1945L35.1195 41.3591Z" fill="white"/>
<path d="M41.5137 45.2082V47.5442L40.3418 47.7975V39.6434H41.3991V40.1562C41.8322 39.8017 42.3672 39.5042 43.0806 39.5042C44.0487 39.5042 44.985 40.0802 44.985 42.429C44.985 44.6384 43.9723 45.4741 42.6475 45.4741C42.2908 45.4741 41.8704 45.3664 41.5137 45.2082ZM41.5137 44.1763C41.8449 44.3915 42.1889 44.4991 42.5265 44.4991C43.2016 44.4991 43.743 43.9737 43.743 42.429C43.743 40.9159 43.2143 40.5551 42.6666 40.5551C42.2016 40.5551 41.8895 40.7133 41.5137 40.9539V44.1763Z" fill="white"/>
<path d="M48.9067 41.2325C48.9067 40.6944 48.55 40.4854 48.0659 40.4854C47.5628 40.4854 47.136 40.7767 47.136 41.3654L46.1042 41.2578C46.1361 40.0993 47.066 39.5105 48.1424 39.5105C49.3271 39.5105 50.0786 40.1119 50.0786 41.1312V44.1003C50.0786 44.3662 50.206 44.4865 50.3907 44.4865C50.5754 44.4865 50.7665 44.3979 50.9512 44.2586L51.0277 45.1069C50.8111 45.3348 50.4226 45.4804 50.034 45.4804C49.6264 45.4804 49.1296 45.3095 49.0787 44.6891C48.6455 45.2272 48.0341 45.4804 47.429 45.4804C46.5309 45.4804 45.9004 44.9676 45.9004 43.9357C45.9004 42.4796 47.3016 41.8782 48.9067 41.8909V41.2325ZM48.9067 42.7645C47.9067 42.7329 47.066 43.1 47.066 43.8281C47.066 44.2649 47.257 44.5055 47.7093 44.5055C48.1487 44.5055 48.5819 44.2269 48.9067 43.8724V42.7645Z" fill="white"/>
<path d="M52.8693 39.6434V40.2005C53.3406 39.7004 53.8183 39.5042 54.3215 39.5042C55.175 39.5042 55.3342 40.2765 55.3342 41.1122L54.3342 41.2324C54.3215 40.8906 54.2896 40.6564 53.9712 40.6564C53.6591 40.6564 53.3215 40.9159 52.9903 41.2578V45.3411H51.8184V39.6498H52.8693V39.6434Z" fill="white"/>
<path d="M58.8691 41.2325C58.8691 40.6944 58.5124 40.4854 58.0283 40.4854C57.5252 40.4854 57.0984 40.7767 57.0984 41.3654L56.0666 41.2578C56.0984 40.0993 57.0283 39.5105 58.1048 39.5105C59.2894 39.5105 60.0474 40.1119 60.0474 41.1312V44.1003C60.0474 44.3662 60.1748 44.4865 60.3595 44.4865C60.5442 44.4865 60.7353 44.3979 60.92 44.2586L60.9964 45.1069C60.7799 45.3348 60.3913 45.4804 60.0028 45.4804C59.5952 45.4804 59.0984 45.3095 59.0474 44.6891C58.6143 45.2272 58.0029 45.4804 57.3978 45.4804C56.4997 45.4804 55.8691 44.9676 55.8691 43.9357C55.8691 42.4796 57.2704 41.8782 58.8754 41.8909V41.2325H58.8691ZM58.8691 42.7645C57.8691 42.7329 57.0283 43.1 57.0283 43.8281C57.0283 44.2649 57.2194 44.5055 57.6716 44.5055C58.1111 44.5055 58.5442 44.2269 58.8691 43.8724V42.7645Z" fill="white"/>
<path d="M65.6978 39.6436V43.5433C65.6978 44.2714 66.1501 44.4993 66.666 44.4993C67.1819 44.4993 67.6341 44.2777 67.6341 43.5433V39.6436H68.8061V43.5117C68.8061 44.8411 67.9016 45.4742 66.6596 45.4742C65.4176 45.4742 64.5195 44.8411 64.5195 43.5117V39.6436H65.6978Z" fill="white"/>
<path d="M71.4162 40.1562C71.8684 39.827 72.4289 39.5042 73.1932 39.5042C74.225 39.5042 74.8747 40.0739 74.8747 41.3148V45.3348H73.7027V41.5553C73.7027 40.8589 73.4671 40.612 72.811 40.612C72.3779 40.612 71.9066 40.7956 71.5372 41.0299V45.3348H70.3652V39.6434H71.4225V40.1562H71.4162Z" fill="white"/>
<path d="M80.3858 40.1562C80.819 39.827 81.3986 39.5042 82.1119 39.5042C82.7552 39.5042 83.1565 39.7067 83.4495 40.1689C84.0291 39.7954 84.5896 39.5042 85.2838 39.5042C86.3093 39.5042 86.8889 40.0739 86.8889 41.3148V45.3348H85.7169V41.5173C85.7169 40.8083 85.4367 40.6057 84.8571 40.6057C84.4686 40.6057 84.0163 40.8083 83.6724 41.0235C83.6915 41.1628 83.7042 41.3211 83.7042 41.4857V45.3285H82.5323V41.6756C82.5323 40.8716 82.3794 40.6057 81.6724 40.6057C81.2712 40.6057 80.8763 40.7956 80.5196 41.0235V45.3285H79.3477V39.6371H80.405V40.1562H80.3858Z" fill="white"/>
<path d="M89.4732 39.6436V43.5433C89.4732 44.2714 89.9255 44.4993 90.4414 44.4993C90.9573 44.4993 91.4095 44.2777 91.4095 43.5433V39.6436H92.5878V43.5117C92.5878 44.8411 91.6834 45.4742 90.4414 45.4742C89.2057 45.4742 88.2949 44.8411 88.2949 43.5117V39.6436H89.4732Z" fill="white"/>
<path d="M95.195 40.1562C95.6472 39.827 96.2077 39.5042 96.972 39.5042C98.0038 39.5042 98.6535 40.0739 98.6535 41.3148V45.3348H97.4815V41.5553C97.4815 40.8589 97.2459 40.612 96.5898 40.612C96.1567 40.612 95.6854 40.7956 95.3223 41.0299V45.3348H94.1504V39.6434H95.2077V40.1562H95.195Z" fill="white"/>
<path d="M103.436 44.6571C103.015 45.1256 102.487 45.4738 101.786 45.4738C100.862 45.4738 99.8242 44.7648 99.8242 42.5047C99.8242 40.3079 100.805 39.5039 101.862 39.5039C102.346 39.5039 102.754 39.6242 103.251 39.8584V37.5097L104.423 37.2944V44.0874C104.423 44.3533 104.55 44.4735 104.735 44.4735C104.92 44.4735 105.111 44.3849 105.295 44.2456L105.372 45.094C105.155 45.3219 104.767 45.4675 104.378 45.4675C103.932 45.4738 103.487 45.2776 103.436 44.6571ZM103.251 40.8017C102.907 40.6308 102.595 40.4788 102.111 40.4788C101.569 40.4788 101.053 40.8333 101.053 42.4477C101.053 43.8405 101.525 44.3976 102.047 44.3976C102.576 44.3976 102.971 44.0747 103.251 43.7518V40.8017Z" fill="white"/>
<path d="M110.588 42.5177C110.588 44.4866 109.766 45.4742 108.225 45.4742C106.715 45.4742 105.855 44.6195 105.855 42.4987C105.855 40.4095 106.683 39.5105 108.225 39.5105C109.83 39.5042 110.588 40.3652 110.588 42.5177ZM107.066 42.4924C107.066 44.0371 107.454 44.4992 108.231 44.4992C109.008 44.4992 109.384 44.0371 109.384 42.5177C109.384 40.935 109.008 40.4791 108.231 40.4791C107.454 40.4791 107.066 40.9286 107.066 42.4924Z" fill="white"/>
<path d="M115.608 42.8025C115.665 44.1193 116.2 44.4992 117.009 44.4992C117.633 44.4992 118.181 44.1889 118.506 43.942L118.69 44.8537C118.174 45.1765 117.633 45.4741 116.773 45.4741C115.353 45.4741 114.385 44.6258 114.385 42.4986C114.385 40.3905 115.238 39.5105 116.703 39.5105C118.187 39.5105 118.773 40.4728 118.773 41.8972V42.8088H115.608V42.8025ZM117.633 41.8972C117.633 40.9349 117.353 40.4854 116.671 40.4854C115.971 40.4854 115.671 40.9033 115.614 41.8972H117.633Z" fill="white"/>
<path d="M121.11 40.1562C121.562 39.827 122.122 39.5042 122.887 39.5042C123.918 39.5042 124.568 40.0739 124.568 41.3148V45.3348H123.396V41.5553C123.396 40.8589 123.16 40.612 122.504 40.612C122.071 40.612 121.6 40.7956 121.231 41.0299V45.3348H120.059V39.6434H121.116V40.1562H121.11Z" fill="white"/>
<path d="M129.856 42.8025C129.913 44.1193 130.448 44.4992 131.257 44.4992C131.881 44.4992 132.429 44.1889 132.754 43.942L132.938 44.8537C132.423 45.1765 131.881 45.4741 131.021 45.4741C129.601 45.4741 128.633 44.6258 128.633 42.4986C128.633 40.3905 129.486 39.5105 130.951 39.5105C132.435 39.5105 133.021 40.4728 133.021 41.8972V42.8088H129.856V42.8025ZM131.881 41.8972C131.881 40.9349 131.601 40.4854 130.919 40.4854C130.219 40.4854 129.919 40.9033 129.862 41.8972H131.881Z" fill="white"/>
<path d="M134.772 39.6436L136.205 44.0498L137.568 39.6436H138.747L136.836 45.3349H135.473L133.518 39.6436H134.772Z" fill="white"/>
<path d="M143.984 42.5177C143.984 44.4866 143.169 45.4742 141.627 45.4742C140.118 45.4742 139.258 44.6195 139.258 42.4987C139.258 40.4095 140.086 39.5105 141.627 39.5105C143.226 39.5042 143.984 40.3652 143.984 42.5177ZM140.462 42.4924C140.462 44.0371 140.85 44.4992 141.627 44.4992C142.404 44.4992 142.78 44.0371 142.78 42.5177C142.78 40.935 142.404 40.4791 141.627 40.4791C140.85 40.4791 140.462 40.9286 140.462 42.4924Z" fill="white"/>
<path d="M146.434 37.3008V44.0304C146.434 44.3406 146.606 44.4609 146.835 44.4609C147.084 44.4609 147.307 44.3659 147.536 44.233L147.651 45.1319C147.211 45.3662 146.867 45.4738 146.453 45.4738C145.498 45.4738 145.256 44.7774 145.256 44.0304V37.516L146.434 37.3008Z" fill="white"/>
<path d="M149.473 39.6436V43.5433C149.473 44.2714 149.925 44.4993 150.441 44.4993C150.957 44.4993 151.409 44.2777 151.409 43.5433V39.6436H152.581V43.5117C152.581 44.8411 151.677 45.4742 150.441 45.4742C149.199 45.4742 148.295 44.8411 148.295 43.5117V39.6436H149.473Z" fill="white"/>
<path d="M156.932 41.5616C156.9 41.0045 156.658 40.4791 156.015 40.4791C155.302 40.4791 154.977 40.8842 154.977 42.4923C154.977 44.1003 155.461 44.4928 156.314 44.4928C156.996 44.4928 157.435 44.2016 157.76 43.98L157.983 44.8473C157.499 45.1829 156.907 45.4677 156.079 45.4677C154.588 45.4677 153.754 44.5371 153.754 42.4796C153.754 40.4981 154.474 39.4978 156.06 39.4978C157.442 39.4978 157.964 40.3461 157.989 41.4477C157.633 41.4857 157.282 41.5173 156.932 41.5616Z" fill="white"/>
<path d="M160.428 38.8838H159.256V37.6177H160.428V38.8838ZM160.428 45.3349H159.256V39.6435H160.428V45.3349Z" fill="white"/>
<path d="M166.453 42.5173C166.453 44.4862 165.631 45.4738 164.09 45.4738C162.581 45.4738 161.721 44.6192 161.721 42.4983C161.721 40.4092 162.549 39.5102 164.09 39.5102C165.695 39.5039 166.453 40.3649 166.453 42.5173ZM162.931 42.492C162.931 44.0367 163.319 44.4989 164.096 44.4989C164.873 44.4989 165.249 44.0367 165.249 42.5173C165.249 40.9346 164.873 40.4788 164.096 40.4788C163.319 40.4788 162.931 40.9283 162.931 42.492ZM165.784 37.3008L164.536 38.9911H163.536L164.593 37.3008H165.784Z" fill="white"/>
<path d="M168.803 40.1562C169.256 39.827 169.816 39.5042 170.58 39.5042C171.612 39.5042 172.262 40.0739 172.262 41.3148V45.3348H171.09V41.5553C171.09 40.8589 170.854 40.612 170.192 40.612C169.759 40.612 169.287 40.7956 168.924 41.0299V45.3348H167.746V39.6434H168.803V40.1562Z" fill="white"/>
<path d="M38.1192 4.14669C38.1957 5.19759 38.253 7.81853 38.253 8.78081C38.253 9.66079 38.2466 12.6109 38.1065 13.8897L38.0938 13.991H42.737C45.0044 13.991 47.4247 13.2757 47.4247 11.2625C47.4247 10.0027 46.5076 9.0657 44.7879 8.5529C46.049 8.21737 46.9025 7.35006 46.9025 6.34346C46.9025 4.70379 45.0044 4.07705 43.2338 4.03906C43.2274 4.03906 38.1129 4.03906 38.1129 4.03906L38.1192 4.14669ZM41.7051 5.15961C43.6414 5.16594 44.3611 5.56478 44.3611 6.61569C44.3611 6.90057 44.2719 7.14114 44.1 7.35006C43.7306 7.79321 42.9917 8.02112 42.0745 7.9768H42.03L41.4949 9.3759H42.0363C43.1064 9.34425 44.0363 9.67978 44.5076 10.2622C44.7305 10.5281 44.8388 10.832 44.8388 11.1612C44.8388 12.2691 43.8643 12.8325 41.9599 12.8325C41.6414 12.8325 41.1192 12.8325 40.788 12.8072C40.7179 11.3511 40.7179 9.36957 40.7179 8.78714C40.7179 8.09076 40.7497 6.54605 40.7943 5.22292C41.0045 5.18493 41.3739 5.15328 41.7051 5.15961Z" fill="white"/>
<path d="M58.1177 4.05151H55.8694L55.9649 6.55218C56.0031 7.79935 56.0477 9.07184 56.1305 10.3063C55.9776 9.93283 55.8503 9.72391 55.1815 8.73631C55.1624 8.70465 52.8185 5.0961 52.0096 4.08317L51.9777 4.05151H49.3472L49.3536 4.14648C49.43 5.19106 49.4874 7.81201 49.4874 8.78062C49.4874 9.6606 49.4746 12.6171 49.3409 13.8959L49.3281 14.0035H51.6593L51.6529 13.9022C51.5192 11.4649 51.5192 9.02119 51.5192 6.65347V6.64714C51.5956 6.93203 51.7102 7.19159 52.0797 7.73604C52.1179 7.79935 56.1241 13.6237 56.328 13.9655L56.3471 14.0099H58.2196L58.2069 13.9022C58.0668 12.6234 58.0604 9.66693 58.0604 8.78695C58.0604 7.81834 58.1177 5.19739 58.1942 4.15281L58.2005 4.05784H58.1177V4.05151Z" fill="white"/>
<path d="M60.8297 4.14669C60.9061 5.19759 60.9634 7.81853 60.9634 8.78081C60.9634 9.66079 60.9507 12.6173 60.8169 13.8897L60.8105 13.991H63.5876L63.5748 13.8897C63.4793 12.9781 63.4474 11.2308 63.4347 9.88236C63.5493 9.8887 63.9442 9.90769 63.9442 9.90769L64.3328 9.92668C67.9951 9.92668 69.7721 8.95174 69.7721 6.93223C69.7721 4.62782 67.2754 4.08971 65.1862 4.04539L60.8233 4.03906L60.8297 4.14669ZM64.2372 5.24824C65.5366 5.22292 66.4537 5.49514 66.8932 6.03326C67.0907 6.28016 67.1926 6.58403 67.1926 6.93856C67.1926 8.37564 65.5748 8.67952 64.2181 8.67952L63.6704 8.66053C63.6704 8.66053 63.5366 8.64153 63.4474 8.62887C63.4411 8.29967 63.4347 7.86918 63.4347 7.36905C63.4347 6.73597 63.4411 6.00793 63.4665 5.31788C63.6321 5.27989 63.9379 5.25457 64.2372 5.24824Z" fill="white"/>
<path d="M75.0802 4.14669C75.1566 5.19759 75.2139 7.81853 75.2139 8.78081C75.2139 9.66079 75.2012 12.6173 75.0674 13.8897L75.0547 13.991H77.8381L77.8253 13.8897C77.7298 12.9781 77.6979 11.2308 77.6852 9.88236C77.7998 9.8887 78.1947 9.90769 78.1947 9.90769L78.5896 9.92668C82.252 9.92668 84.0354 8.95174 84.0354 6.93223C84.0354 4.62782 81.5386 4.08971 79.4431 4.04539L75.0865 4.03906L75.0802 4.14669ZM78.4877 5.24824C79.7871 5.22292 80.7042 5.49514 81.1437 6.03326C81.3412 6.28016 81.4431 6.58403 81.4431 6.93856C81.4431 8.37564 79.8253 8.67952 78.4623 8.67952L77.9145 8.66053C77.9145 8.66053 77.7807 8.64153 77.6979 8.62887C77.6852 8.29967 77.6788 7.86285 77.6788 7.36272C77.6788 6.72964 77.6916 6.0016 77.717 5.31155C77.889 5.27989 78.1884 5.25457 78.4877 5.24824Z" fill="white"/>
<path d="M87.7487 4.05151H87.6977L87.6786 4.10216C87.1627 5.51393 83.8379 12.75 83.3156 13.8579L83.252 13.9909H85.6341L85.6532 13.9339C85.8633 13.2565 86.1309 12.4841 86.443 11.6485C86.5321 11.6485 88.4111 11.6168 88.4111 11.6168L90.0352 11.6358C90.0352 11.6358 90.3218 11.6485 90.3919 11.6485C90.825 12.7184 91.1371 13.535 91.2836 13.9339L91.3027 13.9909H94.0606L89.6149 4.05151H89.5703H87.7487ZM88.4238 6.98267C88.6467 7.44482 89.2136 8.78062 89.8569 10.3507C89.7613 10.3507 89.6467 10.357 89.6467 10.357L88.4238 10.3696C88.4238 10.3696 87.1563 10.3507 86.9589 10.3443C87.4811 9.09083 87.9843 7.95128 88.4238 6.98267Z" fill="white"/>
<path d="M95.1608 4.14649C95.2308 5.19107 95.2945 7.81834 95.2945 8.78061C95.2945 9.66059 95.2818 12.6171 95.1416 13.8895L95.1289 13.9972H97.9123L97.8995 13.8895C97.7594 12.6107 97.753 9.65426 97.753 8.77428C97.753 8.08423 97.7849 6.53319 97.8358 5.29869C98.0651 5.26704 98.3709 5.24171 98.5811 5.23538C99.8804 5.21006 100.798 5.48228 101.237 6.0204C101.434 6.26097 101.543 6.56484 101.543 6.9257C101.543 8.07157 100.454 8.654 99.4473 8.71097C99.1161 8.72363 98.8613 8.67932 98.8549 8.67932L98.6639 8.64767L98.7849 8.82493C99.7594 10.262 101.237 12.7627 101.861 13.9528L101.887 13.9972H104.868L104.778 13.8516C104.676 13.687 102.721 10.8381 101.893 9.6226C101.893 9.6226 101.861 9.58462 101.842 9.55296C103.358 9.09715 104.103 8.2425 104.103 6.93836C104.103 4.63396 101.606 4.10218 99.511 4.05786H95.148L95.1608 4.14649Z" fill="white"/>
<path d="M108.818 4.04517H106.149L106.162 4.14013C106.238 5.19104 106.295 7.81831 106.295 8.78059C106.295 9.65423 106.283 12.6107 106.149 13.8895L106.143 13.9908H108.92L108.907 13.8895C108.773 12.6107 108.76 9.65423 108.76 8.78059C108.76 7.81831 108.818 5.19104 108.894 4.14013L108.9 4.04517H108.818Z" fill="white"/>
<path d="M111.416 4.14669C111.493 5.19126 111.55 7.81853 111.55 8.78081C111.55 9.66079 111.543 12.6109 111.403 13.8897L111.391 13.991H116.034C118.301 13.991 120.722 13.2757 120.722 11.2625C120.722 10.0027 119.804 9.0657 118.085 8.5529C119.346 8.21737 120.206 7.35006 120.206 6.34346C120.206 4.70379 118.314 4.07705 116.537 4.03906H111.416V4.14669ZM115.002 5.15961C116.938 5.16594 117.658 5.56478 117.658 6.61569C117.658 6.90057 117.569 7.14114 117.397 7.35006C117.027 7.79321 116.289 8.02112 115.371 7.9768H115.32L114.792 9.3759H115.333C116.403 9.34425 117.32 9.67978 117.798 10.2622C118.021 10.5281 118.129 10.832 118.129 11.1612C118.129 12.2691 117.161 12.8325 115.257 12.8325C114.932 12.8325 114.41 12.8325 114.078 12.8072C114.008 11.3511 114.008 9.36957 114.008 8.78714C114.008 8.09076 114.04 6.53972 114.091 5.22292C114.301 5.18493 114.671 5.15328 115.002 5.15961Z" fill="white"/>
<path d="M127.555 4.04517H125.682L125.663 4.10214C125.115 5.60254 121.593 13.2311 121.3 13.8579L121.236 13.9908H123.625L123.638 13.9338C123.841 13.2564 124.115 12.4841 124.427 11.6548C124.51 11.6484 126.395 11.6231 126.395 11.6231L128.02 11.6484C128.02 11.6484 128.3 11.6548 128.376 11.6548C128.809 12.7247 129.121 13.535 129.262 13.9402L129.281 13.9908H132.039L127.599 4.04517H127.555ZM126.408 6.97632C126.631 7.44479 127.198 8.77426 127.841 10.3443C127.746 10.3443 127.631 10.357 127.631 10.357L126.402 10.3759C126.402 10.3759 125.141 10.3506 124.943 10.3443C125.459 9.0718 125.969 7.94492 126.408 6.97632Z" fill="white"/>
<path d="M132.816 6.62843C132.816 8.37573 134.587 9.08478 136.141 9.71787C137.358 10.2053 138.606 10.7118 138.606 11.5411C138.606 11.7944 138.549 11.997 138.415 12.1552C138.128 12.4971 137.53 12.6427 136.593 12.5984C135.676 12.5541 134.625 12.2565 133.466 11.7184L132.976 11.4968L132.982 11.883V13.6683L133.294 13.7379L133.485 13.7759C134.071 13.9152 135.179 14.1748 136.3 14.1748C139.23 14.1748 140.982 13.0162 140.982 11.0853C140.982 9.2937 139.173 8.57832 137.581 7.94524C136.402 7.47676 135.186 6.99562 135.186 6.22959C135.186 6.00801 135.186 5.34328 136.689 5.34328C137.816 5.34328 138.918 5.79909 139.517 6.046L140.09 6.28024L140.084 5.90672V4.08978L139.517 3.98848C138.95 3.88086 138.007 3.69727 137.026 3.69727C134.511 3.7036 132.816 4.8748 132.816 6.62843Z" fill="white"/>
<path d="M45.0732 19.2012C44.5892 18.9163 43.9968 18.682 43.2261 18.682C40.9714 18.682 40.1944 20.4547 40.1944 21.9677C40.1944 24.0696 41.4937 25.1331 43.2389 25.1331C44.328 25.1331 45.1433 24.6267 45.8758 23.9873L45.8885 25.8105C45.1433 26.1081 44.2325 26.3676 42.8567 26.3676C39.7103 26.3676 37.7422 24.4241 37.7422 21.9487C37.7422 19.3404 39.8249 17.4539 43.2516 17.4539C44.0541 17.4539 44.8376 17.5805 45.5891 17.7641L45.0732 19.2012Z" fill="white"/>
<path d="M52.6716 17.5999C53.0028 18.4862 55.8499 24.7853 56.5187 26.2161H54.1302C53.9964 25.8236 53.7098 25.1082 53.3404 24.1839C52.8436 24.1712 52.3404 24.1586 51.6334 24.1586C50.9774 24.1586 50.4806 24.1712 49.9137 24.1839C49.6398 24.9119 49.4169 25.5767 49.2195 26.2161H47.1367C47.6335 25.1462 50.5443 18.8723 51.0029 17.5999H52.6716ZM52.8818 23.0507L51.6462 20.1322C51.2513 20.9678 50.8182 21.9491 50.3596 23.0507C50.729 23.0633 51.2385 23.076 51.6462 23.076C52.0411 23.076 52.4614 23.0633 52.8818 23.0507Z" fill="white"/>
<path d="M61.8122 17.5999C63.6338 17.5999 65.7994 18.1063 65.7994 20.1005C65.7994 21.2211 65.1434 21.9681 63.844 22.3669C64.0287 22.7341 66.1242 25.8995 66.4682 26.2161H63.8822C63.3154 25.1462 62.0224 22.981 61.0861 21.5756C61.2454 21.6136 61.481 21.6389 61.7549 21.6389C62.5128 21.6389 63.5765 21.0945 63.5765 20.1005C63.5765 18.8597 62.067 18.6381 61.3091 18.6381C60.9269 18.6381 60.5575 18.6634 60.3664 18.6888C60.3154 19.7587 60.29 21.1008 60.29 21.7022C60.29 22.4682 60.29 25.0132 60.4237 26.2161H58.0098C58.1308 25.0259 58.1563 23.4875 58.1563 21.7022C58.1563 20.2018 58.1435 18.4039 58.0352 17.6062H61.8122V17.5999Z" fill="white"/>
<path d="M71.4362 17.5999C75.0858 17.5999 76.487 19.5054 76.487 21.8921C76.487 24.3548 75.124 26.2097 71.3024 26.2097H68.0859C68.207 25.0512 68.207 23.4685 68.207 21.7085C68.207 20.8729 68.207 18.7204 68.0859 17.5999H71.4362ZM70.4171 18.6824C70.3661 19.2459 70.3534 20.7146 70.3534 21.7085C70.3534 22.962 70.3534 23.9496 70.4044 25.1145C70.5317 25.1272 70.7292 25.1525 71.0222 25.1525C73.1177 25.1525 74.2068 24.5004 74.2068 21.8541C74.2068 19.3282 73.0922 18.6191 70.9776 18.6634L70.4171 18.6824Z" fill="white"/>
<path d="M80.9325 17.5999C80.856 18.5938 80.8051 20.8602 80.8051 21.7085C80.8051 22.4619 80.8178 25.0195 80.9325 26.2097H78.5312C78.6586 25.0195 78.665 22.4556 78.665 21.7085C78.665 20.8729 78.614 18.5938 78.5567 17.5999H80.9325Z" fill="white"/>
<path d="M90.1227 17.5999V18.847C89.4412 18.809 87.7469 18.7584 87.1737 18.7584C86.7533 18.7584 86.282 18.7584 85.798 18.7964C85.7597 19.3282 85.747 19.9929 85.747 20.569C85.747 20.8539 85.747 21.1134 85.7597 21.316L88.7788 21.2654V22.6075L85.7597 22.4872C85.7725 23.5825 85.7852 25.2791 85.8935 26.2161H83.4668C83.6133 25.0259 83.6133 22.4619 83.6133 21.7149C83.6133 20.8792 83.5496 18.6001 83.4732 17.6062H90.1227V17.5999Z" fill="white"/>
<path d="M23.902 7.9136C22.0358 9.00249 21.4626 9.09746 19.4308 10.3003C20.6155 9.02782 21.0231 8.48337 21.7556 7.41979C19.883 7.51476 17.1633 7.74266 15.2207 8.16683C16.9086 7.26785 20.2588 6.27392 22.0295 6.03335C21.6218 5.46991 18.2971 3.68462 17.4754 3.33643C20.1059 3.53901 23.3161 4.51396 24.8702 5.46358C25.4816 5.27365 26.1185 5.26099 27.2586 5.16603C26.9656 5.65983 26.9529 5.94472 25.8383 6.68542C26.1504 7.50842 25.4115 12.0413 24.7937 13.2378C24.781 11.3512 24.6154 8.95818 23.902 7.9136Z" fill="white"/>
<path d="M10.2324 24.1712C9.16238 23.7724 8.38533 23.3166 7.53822 22.5252C7.79299 21.8288 8.08597 21.2844 8.5573 20.5817C7.68471 20.7083 7.04141 20.8096 6.28984 20.9489C5.67839 19.8853 5.39814 18.8597 5.09241 17.429C4.92681 18.942 4.86312 20.0246 5.07331 21.2274C4.38542 21.4173 3.89499 21.5883 3.32812 21.8352C4.12428 22.3163 4.76758 22.6898 5.65291 23.1013C6.13061 24.1206 6.62104 24.8043 7.42357 25.5893C7.23886 24.9182 7.18791 24.3928 7.26434 23.6901C8.25794 23.9813 9.10506 24.1332 10.2324 24.1712Z" fill="white"/>
<path d="M13.0299 9.10352C12.6987 9.53401 12.3102 10.338 12.2019 10.7115C14.9662 11.085 17.1827 12.4968 17.1827 12.4968C14.7624 12.0726 13.4949 12.1233 12.5905 12.2056C11.6924 12.2879 11.5077 12.3955 11.5077 12.3955C10.858 13.8136 10.4631 16.2509 10.4631 16.2509C10.0236 15.2 9.38671 13.0856 9.38671 13.0856C8.17018 13.7313 5.36133 16.3586 5.36133 16.3586C6.90269 13.2881 8.46953 11.8954 8.46953 11.8954C7.92814 11.3509 6.52054 11.085 5.48871 11.0344C6.02373 10.8192 7.3995 10.5596 8.45679 10.5153C9.51409 10.4836 10.1574 10.5469 10.1574 10.5469C11.1 9.7999 12.5331 9.17315 13.0299 9.10352Z" fill="white"/>
<path d="M15.9609 22.2653C15.4705 22.9237 15.0501 23.4428 14.5151 24.0442C13.5852 24.3038 12.84 24.3988 11.9355 24.3988C12.4897 24.6836 13.0311 24.8546 13.6107 24.9749C13.0311 25.5003 12.5406 25.8675 11.9738 26.2284C12.9164 26.0068 14.1648 25.6079 15.0883 25.0635C15.5724 25.0825 16.0246 25.0508 16.3558 24.9875C16.2667 24.709 16.2157 24.5 16.1456 24.1392C17.0182 23.4681 17.6488 22.8604 18.3749 22.1323C17.6042 22.6641 16.9354 23.0693 16.0437 23.4871C16.0055 23.0693 15.98 22.7274 15.9609 22.2653Z" fill="white"/>
<path d="M0.310547 30.0586H30.5519V0H0.310547V30.0586ZM29.8958 29.4065H0.960213V0.64574H29.8958V29.4065Z" fill="white"/>
<path d="M3.69876 40.0421C3.62233 39.3964 3.4631 38.7696 2.52681 38.7696C1.94721 38.7696 1.45041 39.0482 1.45041 39.6939C1.45041 41.2133 4.90892 41.207 4.90892 43.3911C4.90892 44.7839 3.94079 45.4803 2.52681 45.4803C1.52684 45.4803 0.641508 45.0435 0.09375 44.4104L0.673354 43.5304C1.15742 44.0875 1.88989 44.4104 2.57777 44.4104C3.24654 44.4104 3.7115 44.1508 3.7115 43.5177C3.7115 42.1566 0.26572 42.0933 0.26572 39.7826C0.26572 38.3708 1.33576 37.7061 2.53955 37.7061C4.27199 37.7061 4.7688 38.8962 4.83249 39.8712L3.69876 40.0421Z" fill="white"/>
<path d="M7.14478 42.8025C7.19573 44.1193 7.73712 44.4992 8.54602 44.4992C9.1702 44.4992 9.71796 44.1889 10.0428 43.942L10.2275 44.8537C9.71159 45.1765 9.1702 45.4741 8.31035 45.4741C6.89 45.4741 5.92188 44.6258 5.92188 42.4986C5.92188 40.3905 6.77536 39.5105 8.24029 39.5105C9.72433 39.5105 10.3103 40.4728 10.3103 41.8972V42.8088H7.14478V42.8025ZM9.17021 41.8972C9.17021 40.9349 8.88996 40.4854 8.20844 40.4854C7.50782 40.4854 7.20847 40.9033 7.15115 41.8972H9.17021Z" fill="white"/>
<path d="M16.0476 40.6943L15.2642 40.65C15.468 40.9159 15.5444 41.2388 15.5444 41.6883C15.5444 42.9734 14.7037 43.8534 13.4553 43.8534C13.2069 43.8534 13.0859 43.8407 12.8948 43.7901C12.6783 43.942 12.5381 44.037 12.5381 44.2269C12.5381 44.8283 16.0094 44.1193 16.0094 46.1641C16.0094 47.3986 14.7037 48 13.2961 48C11.8757 48 10.9395 47.4873 10.9395 46.5756C10.9395 45.9742 11.328 45.5437 11.9203 45.2272C11.6592 45.0879 11.4363 44.8726 11.4363 44.4232C11.4363 43.9737 11.7611 43.6761 12.1241 43.4166C11.6401 43.0494 11.3471 42.4606 11.3471 41.6693C11.3471 40.3525 12.1878 39.5042 13.4681 39.5042C13.7674 39.5042 14.0477 39.5548 14.2897 39.6434H16.054V40.6943H16.0476ZM12.0413 46.449C12.0413 46.9618 12.6528 47.0884 13.3216 47.0884C14.0668 47.0884 14.8438 46.7972 14.8438 46.3034C14.8438 45.607 13.8757 45.6197 12.9904 45.4994C12.5254 45.721 12.0413 46.0438 12.0413 46.449ZM13.4553 40.4474C12.8311 40.4474 12.4426 40.802 12.4426 41.6756C12.4426 42.5556 12.8311 42.9101 13.4553 42.9101C14.0795 42.9101 14.468 42.5556 14.468 41.6756C14.468 40.802 14.0795 40.4474 13.4553 40.4474Z" fill="white"/>
<path d="M18.0045 39.6436V43.5433C18.0045 44.2714 18.4567 44.4993 18.9726 44.4993C19.4885 44.4993 19.9407 44.2777 19.9407 43.5433V39.6436H21.1127V43.5117C21.1127 44.8411 20.2083 45.4742 18.9662 45.4742C17.7242 45.4742 16.8262 44.8411 16.8262 43.5117V39.6436H18.0045Z" fill="white"/>
<path d="M23.7233 39.6434V40.2005C24.1946 39.7004 24.6723 39.5042 25.1755 39.5042C26.029 39.5042 26.1882 40.2765 26.1882 41.1122L25.1882 41.2324C25.1755 40.8906 25.1437 40.6564 24.8188 40.6564C24.5067 40.6564 24.1755 40.9159 23.838 41.2578V45.3411H22.666V39.6498H23.7233V39.6434Z" fill="white"/>
<path d="M31.3354 42.5177C31.3354 44.4866 30.5201 45.4742 28.9787 45.4742C27.4692 45.4742 26.6094 44.6195 26.6094 42.4987C26.6094 40.4095 27.4374 39.5105 28.9787 39.5105C30.5838 39.5042 31.3354 40.3652 31.3354 42.5177ZM27.8132 42.4924C27.8132 44.0371 28.2017 44.4992 28.9787 44.4992C29.7558 44.4992 30.1316 44.0371 30.1316 42.5177C30.1316 40.935 29.7558 40.4791 28.9787 40.4791C28.2017 40.4791 27.8132 40.9286 27.8132 42.4924Z" fill="white"/>
<path d="M35.1195 41.3591C35.0749 40.8526 34.852 40.4791 34.2342 40.4791C33.7819 40.4791 33.438 40.669 33.438 41.0995C33.438 42.1821 36.1131 42.0871 36.1131 43.8091C36.1131 44.8347 35.3806 45.4678 34.1514 45.4678C33.2597 45.4678 32.559 45.1259 32.1387 44.7208L32.5272 43.8661C32.9285 44.2523 33.5208 44.4992 34.1195 44.4992C34.5717 44.4992 34.9475 44.3282 34.9475 43.8788C34.9475 42.9798 32.3106 42.9924 32.3106 41.1818C32.3106 40.1752 33.0304 39.5105 34.2278 39.5105C35.5526 39.5105 36.1004 40.2702 36.1004 41.1945L35.1195 41.3591Z" fill="white"/>
<path d="M41.5137 45.2082V47.5442L40.3418 47.7975V39.6434H41.3991V40.1562C41.8322 39.8017 42.3672 39.5042 43.0806 39.5042C44.0487 39.5042 44.985 40.0802 44.985 42.429C44.985 44.6384 43.9723 45.4741 42.6475 45.4741C42.2908 45.4741 41.8704 45.3664 41.5137 45.2082ZM41.5137 44.1763C41.8449 44.3915 42.1889 44.4991 42.5265 44.4991C43.2016 44.4991 43.743 43.9737 43.743 42.429C43.743 40.9159 43.2143 40.5551 42.6666 40.5551C42.2016 40.5551 41.8895 40.7133 41.5137 40.9539V44.1763Z" fill="white"/>
<path d="M48.9067 41.2325C48.9067 40.6944 48.55 40.4854 48.0659 40.4854C47.5628 40.4854 47.136 40.7767 47.136 41.3654L46.1042 41.2578C46.1361 40.0993 47.066 39.5105 48.1424 39.5105C49.3271 39.5105 50.0786 40.1119 50.0786 41.1312V44.1003C50.0786 44.3662 50.206 44.4865 50.3907 44.4865C50.5754 44.4865 50.7665 44.3979 50.9512 44.2586L51.0277 45.1069C50.8111 45.3348 50.4226 45.4804 50.034 45.4804C49.6264 45.4804 49.1296 45.3095 49.0787 44.6891C48.6455 45.2272 48.0341 45.4804 47.429 45.4804C46.5309 45.4804 45.9004 44.9676 45.9004 43.9357C45.9004 42.4796 47.3016 41.8782 48.9067 41.8909V41.2325ZM48.9067 42.7645C47.9067 42.7329 47.066 43.1 47.066 43.8281C47.066 44.2649 47.257 44.5055 47.7093 44.5055C48.1487 44.5055 48.5819 44.2269 48.9067 43.8724V42.7645Z" fill="white"/>
<path d="M52.8693 39.6434V40.2005C53.3406 39.7004 53.8183 39.5042 54.3215 39.5042C55.175 39.5042 55.3342 40.2765 55.3342 41.1122L54.3342 41.2324C54.3215 40.8906 54.2896 40.6564 53.9712 40.6564C53.6591 40.6564 53.3215 40.9159 52.9903 41.2578V45.3411H51.8184V39.6498H52.8693V39.6434Z" fill="white"/>
<path d="M58.8691 41.2325C58.8691 40.6944 58.5124 40.4854 58.0283 40.4854C57.5252 40.4854 57.0984 40.7767 57.0984 41.3654L56.0666 41.2578C56.0984 40.0993 57.0283 39.5105 58.1048 39.5105C59.2894 39.5105 60.0474 40.1119 60.0474 41.1312V44.1003C60.0474 44.3662 60.1748 44.4865 60.3595 44.4865C60.5442 44.4865 60.7353 44.3979 60.92 44.2586L60.9964 45.1069C60.7799 45.3348 60.3913 45.4804 60.0028 45.4804C59.5952 45.4804 59.0984 45.3095 59.0474 44.6891C58.6143 45.2272 58.0029 45.4804 57.3978 45.4804C56.4997 45.4804 55.8691 44.9676 55.8691 43.9357C55.8691 42.4796 57.2704 41.8782 58.8754 41.8909V41.2325H58.8691ZM58.8691 42.7645C57.8691 42.7329 57.0283 43.1 57.0283 43.8281C57.0283 44.2649 57.2194 44.5055 57.6716 44.5055C58.1111 44.5055 58.5442 44.2269 58.8691 43.8724V42.7645Z" fill="white"/>
<path d="M65.6978 39.6436V43.5433C65.6978 44.2714 66.1501 44.4993 66.666 44.4993C67.1819 44.4993 67.6341 44.2777 67.6341 43.5433V39.6436H68.8061V43.5117C68.8061 44.8411 67.9016 45.4742 66.6596 45.4742C65.4176 45.4742 64.5195 44.8411 64.5195 43.5117V39.6436H65.6978Z" fill="white"/>
<path d="M71.4162 40.1562C71.8684 39.827 72.4289 39.5042 73.1932 39.5042C74.225 39.5042 74.8747 40.0739 74.8747 41.3148V45.3348H73.7027V41.5553C73.7027 40.8589 73.4671 40.612 72.811 40.612C72.3779 40.612 71.9066 40.7956 71.5372 41.0299V45.3348H70.3652V39.6434H71.4225V40.1562H71.4162Z" fill="white"/>
<path d="M80.3858 40.1562C80.819 39.827 81.3986 39.5042 82.1119 39.5042C82.7552 39.5042 83.1565 39.7067 83.4495 40.1689C84.0291 39.7954 84.5896 39.5042 85.2838 39.5042C86.3093 39.5042 86.8889 40.0739 86.8889 41.3148V45.3348H85.7169V41.5173C85.7169 40.8083 85.4367 40.6057 84.8571 40.6057C84.4686 40.6057 84.0163 40.8083 83.6724 41.0235C83.6915 41.1628 83.7042 41.3211 83.7042 41.4857V45.3285H82.5323V41.6756C82.5323 40.8716 82.3794 40.6057 81.6724 40.6057C81.2712 40.6057 80.8763 40.7956 80.5196 41.0235V45.3285H79.3477V39.6371H80.405V40.1562H80.3858Z" fill="white"/>
<path d="M89.4732 39.6436V43.5433C89.4732 44.2714 89.9255 44.4993 90.4414 44.4993C90.9573 44.4993 91.4095 44.2777 91.4095 43.5433V39.6436H92.5878V43.5117C92.5878 44.8411 91.6834 45.4742 90.4414 45.4742C89.2057 45.4742 88.2949 44.8411 88.2949 43.5117V39.6436H89.4732Z" fill="white"/>
<path d="M95.195 40.1562C95.6472 39.827 96.2077 39.5042 96.972 39.5042C98.0038 39.5042 98.6535 40.0739 98.6535 41.3148V45.3348H97.4815V41.5553C97.4815 40.8589 97.2459 40.612 96.5898 40.612C96.1567 40.612 95.6854 40.7956 95.3223 41.0299V45.3348H94.1504V39.6434H95.2077V40.1562H95.195Z" fill="white"/>
<path d="M103.436 44.6571C103.015 45.1256 102.487 45.4738 101.786 45.4738C100.862 45.4738 99.8242 44.7648 99.8242 42.5047C99.8242 40.3079 100.805 39.5039 101.862 39.5039C102.346 39.5039 102.754 39.6242 103.251 39.8584V37.5097L104.423 37.2944V44.0874C104.423 44.3533 104.55 44.4735 104.735 44.4735C104.92 44.4735 105.111 44.3849 105.295 44.2456L105.372 45.094C105.155 45.3219 104.767 45.4675 104.378 45.4675C103.932 45.4738 103.487 45.2776 103.436 44.6571ZM103.251 40.8017C102.907 40.6308 102.595 40.4788 102.111 40.4788C101.569 40.4788 101.053 40.8333 101.053 42.4477C101.053 43.8405 101.525 44.3976 102.047 44.3976C102.576 44.3976 102.971 44.0747 103.251 43.7518V40.8017Z" fill="white"/>
<path d="M110.588 42.5177C110.588 44.4866 109.766 45.4742 108.225 45.4742C106.715 45.4742 105.855 44.6195 105.855 42.4987C105.855 40.4095 106.683 39.5105 108.225 39.5105C109.83 39.5042 110.588 40.3652 110.588 42.5177ZM107.066 42.4924C107.066 44.0371 107.454 44.4992 108.231 44.4992C109.008 44.4992 109.384 44.0371 109.384 42.5177C109.384 40.935 109.008 40.4791 108.231 40.4791C107.454 40.4791 107.066 40.9286 107.066 42.4924Z" fill="white"/>
<path d="M115.608 42.8025C115.665 44.1193 116.2 44.4992 117.009 44.4992C117.633 44.4992 118.181 44.1889 118.506 43.942L118.69 44.8537C118.174 45.1765 117.633 45.4741 116.773 45.4741C115.353 45.4741 114.385 44.6258 114.385 42.4986C114.385 40.3905 115.238 39.5105 116.703 39.5105C118.187 39.5105 118.773 40.4728 118.773 41.8972V42.8088H115.608V42.8025ZM117.633 41.8972C117.633 40.9349 117.353 40.4854 116.671 40.4854C115.971 40.4854 115.671 40.9033 115.614 41.8972H117.633Z" fill="white"/>
<path d="M121.11 40.1562C121.562 39.827 122.122 39.5042 122.887 39.5042C123.918 39.5042 124.568 40.0739 124.568 41.3148V45.3348H123.396V41.5553C123.396 40.8589 123.16 40.612 122.504 40.612C122.071 40.612 121.6 40.7956 121.231 41.0299V45.3348H120.059V39.6434H121.116V40.1562H121.11Z" fill="white"/>
<path d="M129.856 42.8025C129.913 44.1193 130.448 44.4992 131.257 44.4992C131.881 44.4992 132.429 44.1889 132.754 43.942L132.938 44.8537C132.423 45.1765 131.881 45.4741 131.021 45.4741C129.601 45.4741 128.633 44.6258 128.633 42.4986C128.633 40.3905 129.486 39.5105 130.951 39.5105C132.435 39.5105 133.021 40.4728 133.021 41.8972V42.8088H129.856V42.8025ZM131.881 41.8972C131.881 40.9349 131.601 40.4854 130.919 40.4854C130.219 40.4854 129.919 40.9033 129.862 41.8972H131.881Z" fill="white"/>
<path d="M134.772 39.6436L136.205 44.0498L137.568 39.6436H138.747L136.836 45.3349H135.473L133.518 39.6436H134.772Z" fill="white"/>
<path d="M143.984 42.5177C143.984 44.4866 143.169 45.4742 141.627 45.4742C140.118 45.4742 139.258 44.6195 139.258 42.4987C139.258 40.4095 140.086 39.5105 141.627 39.5105C143.226 39.5042 143.984 40.3652 143.984 42.5177ZM140.462 42.4924C140.462 44.0371 140.85 44.4992 141.627 44.4992C142.404 44.4992 142.78 44.0371 142.78 42.5177C142.78 40.935 142.404 40.4791 141.627 40.4791C140.85 40.4791 140.462 40.9286 140.462 42.4924Z" fill="white"/>
<path d="M146.434 37.3008V44.0304C146.434 44.3406 146.606 44.4609 146.835 44.4609C147.084 44.4609 147.307 44.3659 147.536 44.233L147.651 45.1319C147.211 45.3662 146.867 45.4738 146.453 45.4738C145.498 45.4738 145.256 44.7774 145.256 44.0304V37.516L146.434 37.3008Z" fill="white"/>
<path d="M149.473 39.6436V43.5433C149.473 44.2714 149.925 44.4993 150.441 44.4993C150.957 44.4993 151.409 44.2777 151.409 43.5433V39.6436H152.581V43.5117C152.581 44.8411 151.677 45.4742 150.441 45.4742C149.199 45.4742 148.295 44.8411 148.295 43.5117V39.6436H149.473Z" fill="white"/>
<path d="M156.932 41.5616C156.9 41.0045 156.658 40.4791 156.015 40.4791C155.302 40.4791 154.977 40.8842 154.977 42.4923C154.977 44.1003 155.461 44.4928 156.314 44.4928C156.996 44.4928 157.435 44.2016 157.76 43.98L157.983 44.8473C157.499 45.1829 156.907 45.4677 156.079 45.4677C154.588 45.4677 153.754 44.5371 153.754 42.4796C153.754 40.4981 154.474 39.4978 156.06 39.4978C157.442 39.4978 157.964 40.3461 157.989 41.4477C157.633 41.4857 157.282 41.5173 156.932 41.5616Z" fill="white"/>
<path d="M160.428 38.8838H159.256V37.6177H160.428V38.8838ZM160.428 45.3349H159.256V39.6435H160.428V45.3349Z" fill="white"/>
<path d="M166.453 42.5173C166.453 44.4862 165.631 45.4738 164.09 45.4738C162.581 45.4738 161.721 44.6192 161.721 42.4983C161.721 40.4092 162.549 39.5102 164.09 39.5102C165.695 39.5039 166.453 40.3649 166.453 42.5173ZM162.931 42.492C162.931 44.0367 163.319 44.4989 164.096 44.4989C164.873 44.4989 165.249 44.0367 165.249 42.5173C165.249 40.9346 164.873 40.4788 164.096 40.4788C163.319 40.4788 162.931 40.9283 162.931 42.492ZM165.784 37.3008L164.536 38.9911H163.536L164.593 37.3008H165.784Z" fill="white"/>
<path d="M168.803 40.1562C169.256 39.827 169.816 39.5042 170.58 39.5042C171.612 39.5042 172.262 40.0739 172.262 41.3148V45.3348H171.09V41.5553C171.09 40.8589 170.854 40.612 170.192 40.612C169.759 40.612 169.287 40.7956 168.924 41.0299V45.3348H167.746V39.6434H168.803V40.1562Z" fill="white"/>
<path d="M38.1192 4.14669C38.1957 5.19759 38.253 7.81853 38.253 8.78081C38.253 9.66079 38.2466 12.6109 38.1065 13.8897L38.0938 13.991H42.737C45.0044 13.991 47.4247 13.2757 47.4247 11.2625C47.4247 10.0027 46.5076 9.0657 44.7879 8.5529C46.049 8.21737 46.9025 7.35006 46.9025 6.34346C46.9025 4.70379 45.0044 4.07705 43.2338 4.03906C43.2274 4.03906 38.1129 4.03906 38.1129 4.03906L38.1192 4.14669ZM41.7051 5.15961C43.6414 5.16594 44.3611 5.56478 44.3611 6.61569C44.3611 6.90057 44.2719 7.14114 44.1 7.35006C43.7306 7.79321 42.9917 8.02112 42.0745 7.9768H42.03L41.4949 9.3759H42.0363C43.1064 9.34425 44.0363 9.67978 44.5076 10.2622C44.7305 10.5281 44.8388 10.832 44.8388 11.1612C44.8388 12.2691 43.8643 12.8325 41.9599 12.8325C41.6414 12.8325 41.1192 12.8325 40.788 12.8072C40.7179 11.3511 40.7179 9.36957 40.7179 8.78714C40.7179 8.09076 40.7497 6.54605 40.7943 5.22292C41.0045 5.18493 41.3739 5.15328 41.7051 5.15961Z" fill="white"/>
<path d="M58.1177 4.05151H55.8694L55.9649 6.55218C56.0031 7.79935 56.0477 9.07184 56.1305 10.3063C55.9776 9.93283 55.8503 9.72391 55.1815 8.73631C55.1624 8.70465 52.8185 5.0961 52.0096 4.08317L51.9777 4.05151H49.3472L49.3536 4.14648C49.43 5.19106 49.4874 7.81201 49.4874 8.78062C49.4874 9.6606 49.4746 12.6171 49.3409 13.8959L49.3281 14.0035H51.6593L51.6529 13.9022C51.5192 11.4649 51.5192 9.02119 51.5192 6.65347V6.64714C51.5956 6.93203 51.7102 7.19159 52.0797 7.73604C52.1179 7.79935 56.1241 13.6237 56.328 13.9655L56.3471 14.0099H58.2196L58.2069 13.9022C58.0668 12.6234 58.0604 9.66693 58.0604 8.78695C58.0604 7.81834 58.1177 5.19739 58.1942 4.15281L58.2005 4.05784H58.1177V4.05151Z" fill="white"/>
<path d="M60.8297 4.14669C60.9061 5.19759 60.9634 7.81853 60.9634 8.78081C60.9634 9.66079 60.9507 12.6173 60.8169 13.8897L60.8105 13.991H63.5876L63.5748 13.8897C63.4793 12.9781 63.4474 11.2308 63.4347 9.88236C63.5493 9.8887 63.9442 9.90769 63.9442 9.90769L64.3328 9.92668C67.9951 9.92668 69.7721 8.95174 69.7721 6.93223C69.7721 4.62782 67.2754 4.08971 65.1862 4.04539L60.8233 4.03906L60.8297 4.14669ZM64.2372 5.24824C65.5366 5.22292 66.4537 5.49514 66.8932 6.03326C67.0907 6.28016 67.1926 6.58403 67.1926 6.93856C67.1926 8.37564 65.5748 8.67952 64.2181 8.67952L63.6704 8.66053C63.6704 8.66053 63.5366 8.64153 63.4474 8.62887C63.4411 8.29967 63.4347 7.86918 63.4347 7.36905C63.4347 6.73597 63.4411 6.00793 63.4665 5.31788C63.6321 5.27989 63.9379 5.25457 64.2372 5.24824Z" fill="white"/>
<path d="M75.0802 4.14669C75.1566 5.19759 75.2139 7.81853 75.2139 8.78081C75.2139 9.66079 75.2012 12.6173 75.0674 13.8897L75.0547 13.991H77.8381L77.8253 13.8897C77.7298 12.9781 77.6979 11.2308 77.6852 9.88236C77.7998 9.8887 78.1947 9.90769 78.1947 9.90769L78.5896 9.92668C82.252 9.92668 84.0354 8.95174 84.0354 6.93223C84.0354 4.62782 81.5386 4.08971 79.4431 4.04539L75.0865 4.03906L75.0802 4.14669ZM78.4877 5.24824C79.7871 5.22292 80.7042 5.49514 81.1437 6.03326C81.3412 6.28016 81.4431 6.58403 81.4431 6.93856C81.4431 8.37564 79.8253 8.67952 78.4623 8.67952L77.9145 8.66053C77.9145 8.66053 77.7807 8.64153 77.6979 8.62887C77.6852 8.29967 77.6788 7.86285 77.6788 7.36272C77.6788 6.72964 77.6916 6.0016 77.717 5.31155C77.889 5.27989 78.1884 5.25457 78.4877 5.24824Z" fill="white"/>
<path d="M87.7487 4.05151H87.6977L87.6786 4.10216C87.1627 5.51393 83.8379 12.75 83.3156 13.8579L83.252 13.9909H85.6341L85.6532 13.9339C85.8633 13.2565 86.1309 12.4841 86.443 11.6485C86.5321 11.6485 88.4111 11.6168 88.4111 11.6168L90.0352 11.6358C90.0352 11.6358 90.3218 11.6485 90.3919 11.6485C90.825 12.7184 91.1371 13.535 91.2836 13.9339L91.3027 13.9909H94.0606L89.6149 4.05151H89.5703H87.7487ZM88.4238 6.98267C88.6467 7.44482 89.2136 8.78062 89.8569 10.3507C89.7613 10.3507 89.6467 10.357 89.6467 10.357L88.4238 10.3696C88.4238 10.3696 87.1563 10.3507 86.9589 10.3443C87.4811 9.09083 87.9843 7.95128 88.4238 6.98267Z" fill="white"/>
<path d="M95.1608 4.14649C95.2308 5.19107 95.2945 7.81834 95.2945 8.78061C95.2945 9.66059 95.2818 12.6171 95.1416 13.8895L95.1289 13.9972H97.9123L97.8995 13.8895C97.7594 12.6107 97.753 9.65426 97.753 8.77428C97.753 8.08423 97.7849 6.53319 97.8358 5.29869C98.0651 5.26704 98.3709 5.24171 98.5811 5.23538C99.8804 5.21006 100.798 5.48228 101.237 6.0204C101.434 6.26097 101.543 6.56484 101.543 6.9257C101.543 8.07157 100.454 8.654 99.4473 8.71097C99.1161 8.72363 98.8613 8.67932 98.8549 8.67932L98.6639 8.64767L98.7849 8.82493C99.7594 10.262 101.237 12.7627 101.861 13.9528L101.887 13.9972H104.868L104.778 13.8516C104.676 13.687 102.721 10.8381 101.893 9.6226C101.893 9.6226 101.861 9.58462 101.842 9.55296C103.358 9.09715 104.103 8.2425 104.103 6.93836C104.103 4.63396 101.606 4.10218 99.511 4.05786H95.148L95.1608 4.14649Z" fill="white"/>
<path d="M108.818 4.04517H106.149L106.162 4.14013C106.238 5.19104 106.295 7.81831 106.295 8.78059C106.295 9.65423 106.283 12.6107 106.149 13.8895L106.143 13.9908H108.92L108.907 13.8895C108.773 12.6107 108.76 9.65423 108.76 8.78059C108.76 7.81831 108.818 5.19104 108.894 4.14013L108.9 4.04517H108.818Z" fill="white"/>
<path d="M111.416 4.14669C111.493 5.19126 111.55 7.81853 111.55 8.78081C111.55 9.66079 111.543 12.6109 111.403 13.8897L111.391 13.991H116.034C118.301 13.991 120.722 13.2757 120.722 11.2625C120.722 10.0027 119.804 9.0657 118.085 8.5529C119.346 8.21737 120.206 7.35006 120.206 6.34346C120.206 4.70379 118.314 4.07705 116.537 4.03906H111.416V4.14669ZM115.002 5.15961C116.938 5.16594 117.658 5.56478 117.658 6.61569C117.658 6.90057 117.569 7.14114 117.397 7.35006C117.027 7.79321 116.289 8.02112 115.371 7.9768H115.32L114.792 9.3759H115.333C116.403 9.34425 117.32 9.67978 117.798 10.2622C118.021 10.5281 118.129 10.832 118.129 11.1612C118.129 12.2691 117.161 12.8325 115.257 12.8325C114.932 12.8325 114.41 12.8325 114.078 12.8072C114.008 11.3511 114.008 9.36957 114.008 8.78714C114.008 8.09076 114.04 6.53972 114.091 5.22292C114.301 5.18493 114.671 5.15328 115.002 5.15961Z" fill="white"/>
<path d="M127.555 4.04517H125.682L125.663 4.10214C125.115 5.60254 121.593 13.2311 121.3 13.8579L121.236 13.9908H123.625L123.638 13.9338C123.841 13.2564 124.115 12.4841 124.427 11.6548C124.51 11.6484 126.395 11.6231 126.395 11.6231L128.02 11.6484C128.02 11.6484 128.3 11.6548 128.376 11.6548C128.809 12.7247 129.121 13.535 129.262 13.9402L129.281 13.9908H132.039L127.599 4.04517H127.555ZM126.408 6.97632C126.631 7.44479 127.198 8.77426 127.841 10.3443C127.746 10.3443 127.631 10.357 127.631 10.357L126.402 10.3759C126.402 10.3759 125.141 10.3506 124.943 10.3443C125.459 9.0718 125.969 7.94492 126.408 6.97632Z" fill="white"/>
<path d="M132.816 6.62843C132.816 8.37573 134.587 9.08478 136.141 9.71787C137.358 10.2053 138.606 10.7118 138.606 11.5411C138.606 11.7944 138.549 11.997 138.415 12.1552C138.128 12.4971 137.53 12.6427 136.593 12.5984C135.676 12.5541 134.625 12.2565 133.466 11.7184L132.976 11.4968L132.982 11.883V13.6683L133.294 13.7379L133.485 13.7759C134.071 13.9152 135.179 14.1748 136.3 14.1748C139.23 14.1748 140.982 13.0162 140.982 11.0853C140.982 9.2937 139.173 8.57832 137.581 7.94524C136.402 7.47676 135.186 6.99562 135.186 6.22959C135.186 6.00801 135.186 5.34328 136.689 5.34328C137.816 5.34328 138.918 5.79909 139.517 6.046L140.09 6.28024L140.084 5.90672V4.08978L139.517 3.98848C138.95 3.88086 138.007 3.69727 137.026 3.69727C134.511 3.7036 132.816 4.8748 132.816 6.62843Z" fill="white"/>
<path d="M45.0732 19.2012C44.5892 18.9163 43.9968 18.682 43.2261 18.682C40.9714 18.682 40.1944 20.4547 40.1944 21.9677C40.1944 24.0696 41.4937 25.1331 43.2389 25.1331C44.328 25.1331 45.1433 24.6267 45.8758 23.9873L45.8885 25.8105C45.1433 26.1081 44.2325 26.3676 42.8567 26.3676C39.7103 26.3676 37.7422 24.4241 37.7422 21.9487C37.7422 19.3404 39.8249 17.4539 43.2516 17.4539C44.0541 17.4539 44.8376 17.5805 45.5891 17.7641L45.0732 19.2012Z" fill="white"/>
<path d="M52.6716 17.5999C53.0028 18.4862 55.8499 24.7853 56.5187 26.2161H54.1302C53.9964 25.8236 53.7098 25.1082 53.3404 24.1839C52.8436 24.1712 52.3404 24.1586 51.6334 24.1586C50.9774 24.1586 50.4806 24.1712 49.9137 24.1839C49.6398 24.9119 49.4169 25.5767 49.2195 26.2161H47.1367C47.6335 25.1462 50.5443 18.8723 51.0029 17.5999H52.6716ZM52.8818 23.0507L51.6462 20.1322C51.2513 20.9678 50.8182 21.9491 50.3596 23.0507C50.729 23.0633 51.2385 23.076 51.6462 23.076C52.0411 23.076 52.4614 23.0633 52.8818 23.0507Z" fill="white"/>
<path d="M61.8122 17.5999C63.6338 17.5999 65.7994 18.1063 65.7994 20.1005C65.7994 21.2211 65.1434 21.9681 63.844 22.3669C64.0287 22.7341 66.1242 25.8995 66.4682 26.2161H63.8822C63.3154 25.1462 62.0224 22.981 61.0861 21.5756C61.2454 21.6136 61.481 21.6389 61.7549 21.6389C62.5128 21.6389 63.5765 21.0945 63.5765 20.1005C63.5765 18.8597 62.067 18.6381 61.3091 18.6381C60.9269 18.6381 60.5575 18.6634 60.3664 18.6888C60.3154 19.7587 60.29 21.1008 60.29 21.7022C60.29 22.4682 60.29 25.0132 60.4237 26.2161H58.0098C58.1308 25.0259 58.1563 23.4875 58.1563 21.7022C58.1563 20.2018 58.1435 18.4039 58.0352 17.6062H61.8122V17.5999Z" fill="white"/>
<path d="M71.4362 17.5999C75.0858 17.5999 76.487 19.5054 76.487 21.8921C76.487 24.3548 75.124 26.2097 71.3024 26.2097H68.0859C68.207 25.0512 68.207 23.4685 68.207 21.7085C68.207 20.8729 68.207 18.7204 68.0859 17.5999H71.4362ZM70.4171 18.6824C70.3661 19.2459 70.3534 20.7146 70.3534 21.7085C70.3534 22.962 70.3534 23.9496 70.4044 25.1145C70.5317 25.1272 70.7292 25.1525 71.0222 25.1525C73.1177 25.1525 74.2068 24.5004 74.2068 21.8541C74.2068 19.3282 73.0922 18.6191 70.9776 18.6634L70.4171 18.6824Z" fill="white"/>
<path d="M80.9325 17.5999C80.856 18.5938 80.8051 20.8602 80.8051 21.7085C80.8051 22.4619 80.8178 25.0195 80.9325 26.2097H78.5312C78.6586 25.0195 78.665 22.4556 78.665 21.7085C78.665 20.8729 78.614 18.5938 78.5567 17.5999H80.9325Z" fill="white"/>
<path d="M90.1227 17.5999V18.847C89.4412 18.809 87.7469 18.7584 87.1737 18.7584C86.7533 18.7584 86.282 18.7584 85.798 18.7964C85.7597 19.3282 85.747 19.9929 85.747 20.569C85.747 20.8539 85.747 21.1134 85.7597 21.316L88.7788 21.2654V22.6075L85.7597 22.4872C85.7725 23.5825 85.7852 25.2791 85.8935 26.2161H83.4668C83.6133 25.0259 83.6133 22.4619 83.6133 21.7149C83.6133 20.8792 83.5496 18.6001 83.4732 17.6062H90.1227V17.5999Z" fill="white"/>
</svg>
