<svg width="41" height="41" viewBox="0 0 41 41" fill="none" xmlns="http://www.w3.org/2000/svg">
<path d="M13.8449 3.9771C11.1299 4.71305 8.38034 5.58312 6.75304 6.11412C6.30533 6.26021 5.99093 6.64792 5.9319 7.09096C4.54721 17.4822 7.74659 25.0666 11.5641 30.0607C13.4808 32.5681 15.5546 34.4226 17.2834 35.6418C18.1485 36.2519 18.9133 36.693 19.5143 36.9759C19.8151 37.1175 20.0612 37.213 20.2481 37.2709C20.402 37.3186 20.4812 37.3298 20.5 37.3325C20.5188 37.3298 20.598 37.3186 20.7519 37.2709C20.9388 37.213 21.1849 37.1175 21.4857 36.9759C22.0867 36.693 22.8515 36.2519 23.7166 35.6418C25.4454 34.4226 27.5192 32.5681 29.4359 30.0607C33.2534 25.0666 36.4528 17.4822 35.0681 7.09096C35.0091 6.64792 34.6947 6.26021 34.247 6.11412C32.6197 5.58311 29.8701 4.71305 27.1552 3.9771C24.3792 3.22463 21.8271 2.66667 20.5 2.66667C19.1729 2.66667 16.6208 3.22463 13.8449 3.9771ZM13.1791 1.39913C15.8935 0.663358 18.7763 0 20.5 0C22.2237 0 25.1065 0.663358 27.8209 1.39913C30.5961 2.15142 33.3921 3.03652 35.0368 3.57321C36.4094 4.02109 37.4475 5.23398 37.6469 6.73024C39.1385 17.9235 35.6799 26.2172 31.485 31.705C29.3954 34.4385 27.1244 36.4759 25.1923 37.8384C24.2269 38.5192 23.3322 39.0414 22.5724 39.399C21.8704 39.7295 21.1193 40 20.5 40C19.8807 40 19.1297 39.7295 18.4276 39.399C17.6678 39.0414 16.7731 38.5192 15.8077 37.8384C13.8756 36.4759 11.6046 34.4385 9.515 31.705C5.3201 26.2172 1.86152 17.9235 3.35308 6.73023C3.55246 5.23398 4.59063 4.02109 5.96319 3.57321C7.60791 3.03652 10.4039 2.15142 13.1791 1.39913Z" fill="#00194C"/>
<path d="M18.0039 27.5C18.0039 26.1193 19.1232 25 20.5039 25C21.8846 25 23.0039 26.1193 23.0039 27.5C23.0039 28.8807 21.8846 30 20.5039 30C19.1232 30 18.0039 28.8807 18.0039 27.5Z" fill="#00194C"/>
<path d="M18.2488 12.4876C18.1156 11.1557 19.1615 10 20.5001 10C21.8386 10 22.8845 11.1557 22.7513 12.4876L21.8744 21.2562C21.8038 21.9623 21.2097 22.5 20.5001 22.5C19.7904 22.5 19.1963 21.9623 19.1257 21.2562L18.2488 12.4876Z" fill="#00194C"/>
</svg>
