<svg width="41" height="40" viewBox="0 0 41 40" fill="none" xmlns="http://www.w3.org/2000/svg">
<path d="M22.3856 2.76446C21.3442 1.74518 19.6558 1.74518 18.6144 2.76446L0.890524 20.112C0.369825 20.6216 0.369825 21.4479 0.890524 21.9575C1.41122 22.4672 2.25544 22.4672 2.77614 21.9575L4.5 20.2703V34.0849C4.5 36.2472 6.29086 38 8.5 38H32.5C34.7091 38 36.5 36.2472 36.5 34.0849V20.2703L38.2239 21.9575C38.7446 22.4672 39.5888 22.4672 40.1095 21.9575C40.6302 21.4479 40.6302 20.6216 40.1095 20.112L33.8333 13.9691V5.3745C33.8333 4.65376 33.2364 4.06948 32.5 4.06948H29.8333C29.097 4.06948 28.5 4.65376 28.5 5.3745V8.74901L22.3856 2.76446ZM33.8333 17.6602V34.0849C33.8333 34.8057 33.2364 35.39 32.5 35.39H8.5C7.76362 35.39 7.16667 34.8057 7.16667 34.0849V17.6602L20.5 4.61004L33.8333 17.6602Z" fill="#00194C"/>
<path d="M20.5 15C21.6046 15 22.5 15.8954 22.5 17V21H18.5V17C18.5 15.8954 19.3954 15 20.5 15ZM23.5 21V17C23.5 15.3431 22.1569 14 20.5 14C18.8431 14 17.5 15.3431 17.5 17V21C16.3954 21 15.5 21.8954 15.5 23V28C15.5 29.1046 16.3954 30 17.5 30H23.5C24.6046 30 25.5 29.1046 25.5 28V23C25.5 21.8954 24.6046 21 23.5 21Z" fill="#00194C"/>
</svg>
