<svg width="57" height="56" viewBox="0 0 57 56" fill="none"
    xmlns="http://www.w3.org/2000/svg">
    <path d="M33.918 32.1387C33.918 32.3574 33.8223 32.5625 33.6309 32.7539C33.4668 32.918 33.2754 33 33.0566 33H28.668V37.3887C28.668 37.6074 28.5723 37.8125 28.3809 38.0039C28.2168 38.168 28.0254 38.25 27.8066 38.25C27.5605 38.25 27.3418 38.168 27.1504 38.0039C26.9863 37.8125 26.9043 37.6074 26.9043 37.3887V33H22.5566C22.3105 33 22.0918 32.918 21.9004 32.7539C21.7363 32.5625 21.6543 32.3574 21.6543 32.1387C21.6543 31.8926 21.7363 31.6875 21.9004 31.5234C22.0918 31.332 22.3105 31.2363 22.5566 31.2363H26.9043V26.8887C26.9043 26.6426 26.9863 26.4375 27.1504 26.2734C27.3418 26.082 27.5605 25.9863 27.8066 25.9863C28.0254 25.9863 28.2168 26.082 28.3809 26.2734C28.5723 26.4375 28.668 26.6426 28.668 26.8887V31.2363H33.0566C33.2754 31.2363 33.4668 31.332 33.6309 31.5234C33.8223 31.6875 33.918 31.8926 33.918 32.1387ZM44.418 24.2637V40.0137C44.418 41.4355 43.8984 42.666 42.8594 43.7051C41.8477 44.7441 40.6172 45.2637 39.168 45.2637H16.4043C14.9824 45.2637 13.752 44.7441 12.7129 43.7051C11.6738 42.666 11.1543 41.4355 11.1543 40.0137V24.2637C11.1543 22.8145 11.6738 21.584 12.7129 20.5723C13.752 19.5332 14.9824 19.0137 16.4043 19.0137H21.6543V13.7637C21.6543 12.7793 21.9961 11.9453 22.6797 11.2617C23.3633 10.5781 24.1973 10.2363 25.1816 10.2363H30.4316C31.3887 10.2363 32.209 10.5781 32.8926 11.2617C33.5762 11.9453 33.918 12.7793 33.918 13.7637V19.0137H39.168C40.6172 19.0137 41.8477 19.5332 42.8594 20.5723C43.8984 21.584 44.418 22.8145 44.418 24.2637ZM23.418 19.0137H32.1543V13.7637C32.1543 13.5176 32.1133 13.2988 32.0312 13.1074C31.9492 12.8887 31.8262 12.6973 31.6621 12.5332C31.498 12.3691 31.3066 12.2461 31.0879 12.1641C30.8691 12.0547 30.6504 12 30.4316 12H25.1816C24.9355 12 24.7031 12.0547 24.4844 12.1641C24.293 12.2461 24.1152 12.3691 23.9512 12.5332C23.7871 12.6973 23.6504 12.8887 23.541 13.1074C23.459 13.2988 23.418 13.5176 23.418 13.7637V19.0137ZM42.6543 24.2637C42.6543 23.7988 42.5586 23.3613 42.3672 22.9512C42.2031 22.5137 41.957 22.1172 41.6289 21.7617C41.3008 21.4336 40.918 21.1875 40.4805 21.0234C40.0703 20.832 39.6328 20.7363 39.168 20.7363H16.4043C15.9395 20.7363 15.4883 20.832 15.0508 21.0234C14.6406 21.1875 14.2715 21.4336 13.9434 21.7617C13.6152 22.1172 13.3555 22.5137 13.1641 22.9512C13 23.3613 12.918 23.7988 12.918 24.2637V40.0137C12.918 40.4785 13 40.9297 13.1641 41.3672C13.3555 41.7773 13.6152 42.1465 13.9434 42.4746C14.2715 42.8027 14.6406 43.0625 15.0508 43.2539C15.4883 43.418 15.9395 43.5 16.4043 43.5H39.168C39.6328 43.5 40.0703 43.418 40.4805 43.2539C40.918 43.0625 41.3008 42.8027 41.6289 42.4746C41.957 42.1465 42.2031 41.7773 42.3672 41.3672C42.5586 40.9297 42.6543 40.4785 42.6543 40.0137V24.2637Z" fill="#56504C"/>
</svg>
