<svg width="36" height="41" viewBox="0 0 36 41" fill="none" xmlns="http://www.w3.org/2000/svg">
<path d="M11.3449 4.07652C8.62986 4.83088 5.88034 5.72269 4.25304 6.26697C3.80533 6.41672 3.49093 6.81412 3.4319 7.26824C2.04721 17.9193 5.24659 25.6933 9.06411 30.8123C10.9808 33.3823 13.0546 35.2832 14.7834 36.5328C15.6485 37.1582 16.4133 37.6103 17.0143 37.9003C17.3151 38.0455 17.5612 38.1433 17.7481 38.2027C17.902 38.2515 17.9812 38.2631 18 38.2658C18.0188 38.2631 18.098 38.2515 18.2519 38.2027C18.4388 38.1433 18.6849 38.0455 18.9857 37.9003C19.5867 37.6103 20.3515 37.1582 21.2166 36.5328C22.9454 35.2832 25.0192 33.3823 26.9359 30.8123C30.7534 25.6933 33.9528 17.9193 32.5681 7.26824C32.5091 6.81412 32.1947 6.41672 31.747 6.26697C30.1197 5.72269 27.3701 4.83088 24.6552 4.07652C21.8792 3.30524 19.3271 2.73333 18 2.73333C16.6729 2.73333 14.1208 3.30524 11.3449 4.07652ZM10.6791 1.43411C13.3935 0.679942 16.2763 0 18 0C19.7237 0 22.6065 0.679942 25.3209 1.43411C28.0961 2.2052 30.8921 3.11243 32.5368 3.66254C33.9094 4.12162 34.9475 5.36483 35.1469 6.89849C36.6385 18.3716 33.1799 26.8726 28.985 32.4976C26.8954 35.2995 24.6244 37.3878 22.6923 38.7844C21.7269 39.4822 20.8322 40.0174 20.0724 40.384C19.3704 40.7227 18.6193 41 18 41C17.3807 41 16.6297 40.7227 15.9276 40.384C15.1678 40.0174 14.2731 39.4822 13.3077 38.7844C11.3756 37.3878 9.10457 35.2995 7.015 32.4976C2.8201 26.8726 -0.638481 18.3716 0.853079 6.89849C1.05246 5.36483 2.09063 4.12162 3.46319 3.66254C5.10791 3.11244 7.90391 2.2052 10.6791 1.43411Z" fill="#00194C"/>
<path d="M22.5 16.0909C22.5 17.8721 21.3869 19.3874 19.8333 19.949L20.8598 25.3774C21.0189 26.2188 20.3887 27 19.5508 27H17.4492C16.6113 27 15.9811 26.2188 16.1402 25.3774L17.1667 19.949C15.6131 19.3874 14.5 17.8721 14.5 16.0909C14.5 13.8316 16.2909 12 18.5 12C20.7091 12 22.5 13.8316 22.5 16.0909Z" fill="#00194C"/>
</svg>
