<svg width="36" height="40" viewBox="0 0 36 40" fill="none" xmlns="http://www.w3.org/2000/svg">
<path d="M14.7188 2.1875C12.9069 2.1875 11.4375 3.65568 11.4375 5.46821V6.5625H3.78125C1.96907 6.5625 0.5 8.03157 0.5 9.84375V27.3438C0.5 29.1559 1.96907 30.625 3.78125 30.625H32.2188C34.0309 30.625 35.5 29.1559 35.5 27.3438V9.84375C35.5 8.03157 34.0309 6.5625 32.2188 6.5625H24.5625V5.46822C24.5625 3.65568 23.0931 2.1875 21.2812 2.1875H14.7188ZM14.7188 4.375H21.2812C21.8857 4.375 22.375 4.86638 22.375 5.47009V6.5625H13.625V5.46821C13.625 4.8645 14.1143 4.375 14.7188 4.375ZM18.8455 19.5003L33.3125 15.6424V27.3438C33.3125 27.9478 32.8228 28.4375 32.2188 28.4375H3.78125C3.17719 28.4375 2.6875 27.9478 2.6875 27.3438V15.6424L17.1545 19.5003C17.7085 19.648 18.2915 19.648 18.8455 19.5003ZM3.78125 8.75H32.2188C32.8228 8.75 33.3125 9.23969 33.3125 9.84375V13.3784L18.2818 17.3866C18.0972 17.4359 17.9028 17.4359 17.7182 17.3866L2.6875 13.3784V9.84375C2.6875 9.23969 3.17719 8.75 3.78125 8.75Z" fill="#00194C"/>
<rect width="20" height="20" transform="translate(15.5 20)" fill="white"/>
<path d="M17.1667 40C17.1667 40 15.5 40 15.5 38.3333C15.5 36.6667 17.1667 31.6667 25.5 31.6667C33.8333 31.6667 35.5 36.6667 35.5 38.3333C35.5 40 33.8333 40 33.8333 40H17.1667Z" fill="#00194C"/>
<path d="M25.5 30C28.2614 30 30.5 27.7614 30.5 25C30.5 22.2386 28.2614 20 25.5 20C22.7386 20 20.5 22.2386 20.5 25C20.5 27.7614 22.7386 30 25.5 30Z" fill="#00194C"/>
</svg>
