<svg width="41" height="40" viewBox="0 0 41 40" fill="none" xmlns="http://www.w3.org/2000/svg">
<path d="M20.5 37.5C10.835 37.5 3 29.665 3 20C3 10.335 10.835 2.5 20.5 2.5C30.165 2.5 38 10.335 38 20C38 29.665 30.165 37.5 20.5 37.5ZM20.5 40C31.5457 40 40.5 31.0457 40.5 20C40.5 8.95431 31.5457 0 20.5 0C9.45431 0 0.5 8.95431 0.5 20C0.5 31.0457 9.45431 40 20.5 40Z" fill="#009ADE"/>
<path d="M13.6378 14.4654C13.6188 14.8059 13.8998 15.0818 14.2408 15.0818H16.3021C16.6472 15.0818 16.9217 14.8003 16.9681 14.4583C17.1905 12.818 18.3163 11.6223 20.323 11.6223C22.0369 11.6223 23.608 12.4792 23.608 14.5422C23.608 16.1292 22.6717 16.8591 21.1959 17.97C19.5137 19.1919 18.1807 20.6201 18.2759 22.937L18.2834 23.479C18.288 23.8208 18.5665 24.0955 18.9083 24.0955H20.9358C21.281 24.0955 21.5608 23.8156 21.5608 23.4705V23.2068C21.5608 21.4136 22.2432 20.8899 24.084 19.4934C25.6075 18.335 27.1944 17.0496 27.1944 14.3518C27.1944 10.575 24.0047 8.75 20.5135 8.75C17.3458 8.75 13.8741 10.2265 13.6378 14.4654ZM17.5301 28.8721C17.5301 30.2051 18.5933 31.189 20.0533 31.189C21.5767 31.189 22.6241 30.2051 22.6241 28.8721C22.6241 27.4915 21.5767 26.5234 20.0533 26.5234C18.5933 26.5234 17.5301 27.4915 17.5301 28.8721Z" fill="#009ADE"/>
</svg>
