<svg width="56" height="57" viewBox="0 0 56 57" fill="none" xmlns="http://www.w3.org/2000/svg">
<path d="M45.3906 19.5137C45.5273 20.416 45.5273 21.332 45.3906 22.2617C45.2812 23.1641 45.0215 24.1895 44.6113 25.3379C44.0371 26.9512 43.2988 28.5918 42.3965 30.2598C41.4941 31.9277 40.4277 33.5957 39.1973 35.2637C37.9668 36.9316 36.5723 38.5859 35.0137 40.2266C33.4551 41.8672 31.7461 43.4805 29.8867 45.0664C29.6133 45.2852 29.3125 45.4492 28.9844 45.5586C28.6562 45.6953 28.3281 45.7637 28 45.7637C27.6719 45.7637 27.3438 45.6953 27.0156 45.5586C26.6875 45.4492 26.3867 45.2852 26.1133 45.0664C24.2539 43.4805 22.5449 41.8672 20.9863 40.2266C19.4551 38.5859 18.0742 36.9316 16.8438 35.2637C15.6133 33.5957 14.5469 31.9277 13.6445 30.2598C12.7148 28.5918 11.9629 26.9512 11.3887 25.3379C11.0059 24.1895 10.7461 23.1641 10.6094 22.2617C10.4727 21.332 10.4727 20.416 10.6094 19.5137C10.8008 18.2832 11.1973 17.1348 11.7988 16.0684C12.4004 15.002 13.1523 14.0723 14.0547 13.2793C14.957 12.4863 15.9688 11.8711 17.0898 11.4336C18.2383 10.9687 19.4414 10.7363 20.6992 10.7363C20.7266 10.7363 20.7402 10.7363 20.7402 10.7363C20.7402 10.7363 20.7539 10.7363 20.7812 10.7363C22.2031 10.7637 23.5293 11.0508 24.7598 11.5977C26.0176 12.1445 27.0977 12.8828 28 13.8125C28.9297 12.8828 30.0098 12.1445 31.2402 11.5977C32.498 11.0508 33.8242 10.7637 35.2188 10.7363C35.2461 10.7363 35.2598 10.7363 35.2598 10.7363C35.2598 10.7363 35.2734 10.7363 35.3008 10.7363C36.5586 10.7363 37.7617 10.9687 38.9102 11.4336C40.0586 11.8711 41.0703 12.4863 41.9453 13.2793C42.8477 14.0723 43.5996 15.002 44.2012 16.0684C44.8027 17.1348 45.1992 18.2832 45.3906 19.5137ZM42.9707 24.7637C43.3262 23.7246 43.5586 22.8223 43.668 22.0566C43.7773 21.291 43.7773 20.5254 43.668 19.7598C43.5039 18.7754 43.1758 17.8457 42.6836 16.9707C42.1914 16.0684 41.5625 15.2754 40.7969 14.5918C40.4414 14.2637 40.0449 13.9766 39.6074 13.7305C39.1973 13.457 38.7598 13.2383 38.2949 13.0742C37.8027 12.8828 37.3105 12.7461 36.8184 12.6641C36.3262 12.5547 35.8203 12.5 35.3008 12.5C35.3008 12.5 35.2871 12.5 35.2598 12.5C34.6855 12.5 34.1113 12.5684 33.5371 12.7051C32.9902 12.8145 32.457 12.9785 31.9375 13.1973C31.4453 13.416 30.9668 13.6758 30.502 13.9766C30.0645 14.2773 29.6543 14.6328 29.2715 15.043L28 16.3145L26.7695 15.043C26.3867 14.6328 25.9629 14.2773 25.498 13.9766C25.0605 13.6758 24.582 13.416 24.0625 13.1973C23.543 12.9785 23.0098 12.8145 22.4629 12.7051C21.916 12.5684 21.3555 12.5 20.7812 12.5C20.7539 12.5 20.7402 12.5 20.7402 12.5C20.7402 12.5 20.7266 12.5 20.6992 12.5C20.207 12.5 19.7012 12.5547 19.1816 12.6641C18.6895 12.7461 18.2109 12.8828 17.7461 13.0742C17.2812 13.2383 16.8301 13.457 16.3926 13.7305C15.9824 13.9766 15.5859 14.2637 15.2031 14.5918C14.4375 15.2754 13.8086 16.0684 13.3164 16.9707C12.8242 17.8457 12.5098 18.7754 12.373 19.7598C12.2363 20.498 12.2227 21.2637 12.332 22.0566C12.4414 22.8223 12.6875 23.7246 13.0703 24.7637C13.6172 26.3223 14.3145 27.8945 15.1621 29.4805C16.0371 31.0664 17.0625 32.6523 18.2383 34.2383C18.8398 35.0586 19.4824 35.8789 20.166 36.6992C20.8496 37.4922 21.5605 38.2852 22.2988 39.0781C23.0645 39.8711 23.8574 40.6641 24.6777 41.457C25.498 42.2227 26.3594 42.9746 27.2617 43.7129C27.3438 43.7949 27.4531 43.8633 27.5898 43.918C27.7266 43.9727 27.8633 44 28 44C28.1367 44 28.2734 43.9727 28.4102 43.918C28.5469 43.8633 28.6699 43.7949 28.7793 43.7129C29.6543 42.9746 30.502 42.2227 31.3223 41.457C32.1426 40.6641 32.9219 39.8711 33.6602 39.0781C34.4258 38.2852 35.1504 37.4922 35.834 36.6992C36.5176 35.8789 37.1602 35.0586 37.7617 34.2383C38.9375 32.6523 39.9492 31.0664 40.7969 29.4805C41.6719 27.8945 42.3965 26.3223 42.9707 24.7637ZM20.9863 15.9863C21.6973 15.9863 22.3672 16.123 22.9961 16.3965C23.6523 16.6699 24.2266 17.0527 24.7188 17.5449C25.2109 18.0371 25.5801 18.6113 25.8262 19.2676C26.0996 19.8965 26.2363 20.5527 26.2363 21.2363C26.2363 21.9473 26.0996 22.6309 25.8262 23.2871C25.5801 23.916 25.2109 24.4766 24.7188 24.9688C24.2266 25.4609 23.6523 25.8438 22.9961 26.1172C22.3672 26.3633 21.6973 26.4863 20.9863 26.4863C20.3027 26.4863 19.6328 26.3633 18.9766 26.1172C18.3477 25.8438 17.7871 25.4609 17.2949 24.9688C16.8027 24.4766 16.4199 23.916 16.1465 23.2871C15.873 22.6309 15.7363 21.9473 15.7363 21.2363C15.7363 20.5527 15.873 19.8965 16.1465 19.2676C16.4199 18.6113 16.8027 18.0371 17.2949 17.5449C17.7871 17.0527 18.3477 16.6699 18.9766 16.3965C19.6328 16.123 20.3027 15.9863 20.9863 15.9863ZM20.9863 24.7637C21.9707 24.7637 22.8047 24.4219 23.4883 23.7383C24.1719 23.0547 24.5137 22.2207 24.5137 21.2363C24.5137 20.2793 24.1719 19.459 23.4883 18.7754C22.8047 18.0918 21.9707 17.75 20.9863 17.75C20.0293 17.75 19.209 18.0918 18.5254 18.7754C17.8418 19.459 17.5 20.2793 17.5 21.2363C17.5 22.2207 17.8418 23.0547 18.5254 23.7383C19.209 24.4219 20.0293 24.7637 20.9863 24.7637Z" fill="#56504C"/>
</svg>
