<svg width="9" height="8" viewBox="0 0 9 8" fill="none" xmlns="http://www.w3.org/2000/svg">
<g id="x-circle-fill">
<path id="Subtract" d="M8.21484 4C8.21484 6.20914 6.42398 8 4.21484 8C2.0057 8 0.214844 6.20914 0.214844 4C0.214844 1.79086 2.0057 0 4.21484 0C6.42398 0 8.21484 1.79086 8.21484 4ZM2.89162 2.32322C2.79399 2.22559 2.6357 2.22559 2.53807 2.32322C2.44044 2.42085 2.44044 2.57915 2.53807 2.67678L3.86129 4L2.53807 5.32322C2.44044 5.42085 2.44044 5.57915 2.53807 5.67678C2.6357 5.77441 2.79399 5.77441 2.89162 5.67678L4.21484 4.35355L5.53807 5.67678C5.6357 5.77441 5.79399 5.77441 5.89162 5.67678C5.98925 5.57915 5.98925 5.42085 5.89162 5.32322L4.5684 4L5.89162 2.67678C5.98925 2.57915 5.98925 2.42085 5.89162 2.32322C5.79399 2.22559 5.6357 2.22559 5.53807 2.32322L4.21484 3.64645L2.89162 2.32322Z" fill="#999999"/>
</g>
</svg>
