<svg width="9" height="8" viewBox="0 0 9 8" fill="none" xmlns="http://www.w3.org/2000/svg">
<g id="x-circle-fill">
<path id="Subtract" d="M8.71484 4C8.71484 6.20914 6.92398 8 4.71484 8C2.5057 8 0.714844 6.20914 0.714844 4C0.714844 1.79086 2.5057 0 4.71484 0C6.92398 0 8.71484 1.79086 8.71484 4ZM3.39162 2.32322C3.29399 2.22559 3.1357 2.22559 3.03807 2.32322C2.94044 2.42085 2.94044 2.57915 3.03807 2.67678L4.36129 4L3.03807 5.32322C2.94044 5.42085 2.94044 5.57915 3.03807 5.67678C3.1357 5.77441 3.29399 5.77441 3.39162 5.67678L4.71484 4.35355L6.03807 5.67678C6.1357 5.77441 6.29399 5.77441 6.39162 5.67678C6.48925 5.57915 6.48925 5.42085 6.39162 5.32322L5.0684 4L6.39162 2.67678C6.48925 2.57915 6.48925 2.42085 6.39162 2.32322C6.29399 2.22559 6.1357 2.22559 6.03807 2.32322L4.71484 3.64645L3.39162 2.32322Z" fill="#BA000D"/>
</g>
</svg>
